<?xml version="1.0" encoding="utf-8"?>
<!-- Generator: Adobe Illustrator 25.1.0, SVG Export Plug-In . SVG Version: 6.00 Build 0)  -->
<svg version="1.1" id="Calque_1" xmlns="http://www.w3.org/2000/svg" xmlns:xlink="http://www.w3.org/1999/xlink" x="0px" y="0px"
	 viewBox="0 0 100 100" style="enable-background:new 0 0 100 100;" xml:space="preserve">
<style type="text/css">
	.st0{fill:#FFFFFF;}
</style>
<g id="Calque_2_2_">
	<g>
		<path class="st0" d="M50.3,2.1C23.6,2.1,2,23.8,2,50.5s21.6,48.3,48.3,48.3s48.3-21.6,48.3-48.3S77,2.1,50.3,2.1z M50.3,93.3
			c-23.4,0-42.4-19-42.4-42.4s19-42.4,42.4-42.4s42.4,19,42.4,42.4S73.8,93.3,50.3,93.3z"/>
	</g>
	<polygon class="st0" points="50.9,35.2 35.4,46.5 41.3,64.7 60.5,64.7 66.4,46.5 	"/>
	<path class="st0" d="M50.6,24.5L50.6,24.5L50.6,24.5C54.1,21,64.8,20,64.8,20l-1.6-7.1c-4-1.3-8.3-2-12.8-2
		c-4.3,0-8.4,0.6-12.3,1.8L36.4,20C36.4,20,47.1,21,50.6,24.5z"/>
	<path class="st0" d="M75,42.8C75,42.9,75,42.9,75,42.8C75,42.9,75,42.9,75,42.8c4.3,2.4,8.3,12.4,8.3,12.4l6.4-3.6
		c0.1-4.2-0.5-8.6-1.7-12.8c-1.2-4.1-3-7.9-5.2-11.3L75.4,28C75.4,28,77.4,38.6,75,42.8z"/>
	<path class="st0" d="M25.7,42.8C25.7,42.9,25.7,42.9,25.7,42.8C25.7,42.9,25.7,42.9,25.7,42.8c-4.3,2.4-8.3,12.4-8.3,12.4L11,51.6
		c-0.1-4.2,0.5-8.6,1.7-12.8c1.2-4.1,3-7.9,5.2-11.3l7.5,0.5C25.3,28,23.3,38.6,25.7,42.8z"/>
	<path class="st0" d="M65.9,72.1L65.9,72.1C66,72.1,66,72.1,65.9,72.1c4.9,0.8,14.1-4.7,14.1-4.7l2.9,6.7c-2.5,3.4-5.6,6.5-9.2,9.1
		c-3.4,2.5-7.2,4.4-11,5.7L57.1,84C57.1,84.1,65.2,76.9,65.9,72.1z"/>
	<path class="st0" d="M34.6,72.1L34.6,72.1C34.6,72.1,34.5,72.1,34.6,72.1c-4.9,0.8-14.1-4.7-14.1-4.7l-2.9,6.7
		c2.5,3.4,5.6,6.5,9.2,9.1c3.4,2.5,7.2,4.4,11,5.7l5.6-4.9C43.4,84.1,35.3,76.9,34.6,72.1z"/>
</g>
</svg>
