<?xml version="1.0" encoding="utf-8"?>
<!-- Generator: Adobe Illustrator 25.1.0, SVG Export Plug-In . SVG Version: 6.00 Build 0)  -->
<svg version="1.1" id="Calque_1" xmlns="http://www.w3.org/2000/svg" xmlns:xlink="http://www.w3.org/1999/xlink" x="0px" y="0px"
	 viewBox="0 0 100 100" style="enable-background:new 0 0 100 100;" xml:space="preserve">
<style type="text/css">
	.st0{fill:none;}
	.st1{fill:#FFFFFF;}
</style>
<g id="Calque_1_2_">
	<g id="Calque_1_1_">
	</g>
</g>
<g id="Calque_2_2_">
	<g id="Calque_2_1_">
		<g id="bg">
			<rect y="1" class="st0" width="100" height="100"/>
		</g>
		<g id="carreer">
			<g id="Calque_5">
				<path class="st1" d="M35.7,22h28.6v-7.2H35.7V22z M100,57.7v26.8c0,5-4,9-9,9H9c-2.4,0-4.7-0.9-6.3-2.6C1,89.2,0,86.9,0,84.5
					V57.7h37.5v8.9c0,0.9,0.4,1.9,1.1,2.5c0.7,0.7,1.6,1.1,2.5,1.1H59c0.9,0,1.9-0.4,2.5-1.1c0.7-0.7,1.1-1.6,1.1-2.5v-8.9
					C62.6,57.7,100,57.7,100,57.7z M57.1,57.7v7.1H42.9v-7.1C42.9,57.7,57.1,57.7,57.1,57.7z M100,30.9v21.4H0V30.9
					c0-2.4,0.9-4.7,2.6-6.3c1.7-1.7,4-2.7,6.4-2.6h19.6v-9c0-1.4,0.5-2.8,1.6-3.8c1-1,2.4-1.6,3.8-1.5h32.1c1.4,0,2.8,0.5,3.8,1.6
					c1,1,1.6,2.3,1.6,3.8v9h19.6c2.4,0,4.7,0.9,6.3,2.6C99.1,26.3,100,28.5,100,30.9z"/>
			</g>
		</g>
	</g>
</g>
</svg>
