<?xml version="1.0" encoding="utf-8"?>
<!-- Generator: Adobe Illustrator 25.1.0, SVG Export Plug-In . SVG Version: 6.00 Build 0)  -->
<svg version="1.1" id="Calque_1" xmlns="http://www.w3.org/2000/svg" xmlns:xlink="http://www.w3.org/1999/xlink" x="0px" y="0px"
	 viewBox="0 0 100 100" style="enable-background:new 0 0 100 100;" xml:space="preserve">
<style type="text/css">
	.st0{fill:none;}
	.st1{fill:#FFFFFF;}
</style>
<g id="Calque_2_1_">
	<g id="bg">
		<rect class="st0" width="100" height="100"/>
	</g>
	<g id="earnings">
		<ellipse class="st1" cx="72.4" cy="49.3" rx="26.6" ry="13.4"/>
		<path class="st1" d="M96.3,64.7C87.2,73.8,72.4,73,72.4,73s-14.8,0.8-23.9-8.4c-2.3-1.9-3.1-5-2-7.8c0,0,5.7,7.8,26,8.4
			c20.3-0.6,26-8.4,26-8.4C99.6,59.6,98.7,62.8,96.3,64.7z"/>
		<path class="st1" d="M96.3,74.7C87.2,83.8,72.4,83,72.4,83s-14.8,0.8-23.9-8.4c-2.3-1.9-3.1-5-2-7.8c0,0,5.7,7.8,26,8.4
			c20.3-0.6,26-8.4,26-8.4C99.6,69.6,98.7,72.8,96.3,74.7z"/>
		<ellipse class="st1" cx="27.8" cy="28.9" rx="26.6" ry="13.4"/>
		<path class="st1" d="M1.8,36.5c-1.1,2.7-0.3,5.9,2,7.8c9.2,9.1,23.9,8.4,23.9,8.4c5.2,0.1,10.4-0.8,15.3-2.7v-0.5
			c0-3.2,1.4-6.2,3.9-8.1c-4,1.8-10.1,3.4-19.1,3.7C7.4,44.3,1.8,36.5,1.8,36.5z"/>
		<path class="st1" d="M27.8,55.3c-20.3-0.6-26-8.4-26-8.4c-1.1,2.7-0.3,5.9,2,7.8c9.2,9.1,23.9,8.4,23.9,8.4
			c5.3,0.1,10.6-0.9,15.5-2.8c0-0.3,0-0.7,0-1c0-1.6,0.4-3.2,1.1-4.7c-0.3-0.5-0.6-1.1-0.8-1.6C38.4,54.5,33.1,55.3,27.8,55.3z"/>
		<path class="st1" d="M43.8,62.7c-5.2,1.6-10.6,2.5-16,2.5c-20.3-0.6-26-8.4-26-8.4c-1.1,2.7-0.3,5.9,2,7.8c1,1,2,1.9,3.2,2.6
			c4-0.8,8-0.9,12-0.3c6.6,0.8,12.3,3,15.5,5.6c2.9-0.4,5.8-1.2,8.5-2.3c0-0.4,0-0.7,0-1.1c0-1.8,0.5-3.6,1.4-5.2
			C44.2,63.6,44,63.2,43.8,62.7z"/>
		<path class="st1" d="M44.3,54.5c0.5-0.9,1.1-1.8,1.8-2.5c-0.8,0.4-1.7,0.7-2.6,0.9C43.8,53.5,44,54,44.3,54.5z"/>
		<path class="st1" d="M43,65c0,9-15.6,8-15.6,8s-14.8,0.8-23.9-8.4c-2.3-1.9-3.1-5-2-7.8c0,0,5.7,7.8,26,8.4C47.7,64.7,30,66,30,66
			C31.4,70.1,44.3,63.8,43,65z"/>
	</g>
</g>
</svg>
