<?xml version="1.0" encoding="utf-8"?>
<!-- Generator: Adobe Illustrator 25.1.0, SVG Export Plug-In . SVG Version: 6.00 Build 0)  -->
<svg version="1.1" id="Calque_1" xmlns="http://www.w3.org/2000/svg" xmlns:xlink="http://www.w3.org/1999/xlink" x="0px" y="0px"
	 viewBox="0 0 100 100" style="enable-background:new 0 0 100 100;" xml:space="preserve">
<style type="text/css">
	.st0{fill:none;}
	.st1{fill:#FFFFFF;}
</style>
<g id="Calque_2_1_">
	<g id="bg">
		<rect class="st0" width="100" height="100"/>
	</g>
	<g id="satisfaction">
		<path class="st1" d="M50,0C22.4,0,0,22.4,0,50s22.4,50,50,50s50-22.4,50-50S77.6,0,50,0z M66.7,25.1c3.7,0,6.7,3,6.6,6.7
			c0,3.7-3,6.7-6.7,6.6c-3.7,0-6.6-3-6.6-6.7C60,28.1,63,25.1,66.7,25.1L66.7,25.1z M34.6,25.1c3.7,0,6.7,3,6.7,6.7s-3,6.7-6.7,6.7
			s-6.7-3-6.7-6.7S30.9,25.1,34.6,25.1L34.6,25.1z M51.5,78.5h-1c-5.3-0.1-29.9-2.2-37-28l6-1c0,0,5.9,22.7,31.5,23
			c25.6-0.3,31.5-23,31.5-23l6,1C81.4,76.3,56.8,78.4,51.5,78.5z"/>
		<path class="st1" d="M51.5,78.5L51.5,78.5z"/>
		<path class="st1" d="M50.9,78.5L50.9,78.5z"/>
	</g>
</g>
</svg>
