<?xml version="1.0" encoding="utf-8"?>
<!-- Generator: Adobe Illustrator 25.1.0, SVG Export Plug-In . SVG Version: 6.00 Build 0)  -->
<svg version="1.1" id="Calque_1" xmlns="http://www.w3.org/2000/svg" xmlns:xlink="http://www.w3.org/1999/xlink" x="0px" y="0px"
	 viewBox="0 0 100 100" style="enable-background:new 0 0 100 100;" xml:space="preserve">
<style type="text/css">
	.st0{fill:#FFFFFF;}
</style>
<path class="st0" d="M49.6,36.7c9.9,0,17.9-8,17.9-17.9C67.5,9,59.5,1,49.6,1S31.7,9,31.7,18.9C31.7,28.7,39.7,36.7,49.6,36.7z"/>
<g>
	<path class="st0" d="M24.7,62.8h2.8v37.5h44.1V62.8H74v37.5h15v-41c0-9.5-8.7-19.5-21.9-19.5H49.6H32.1c-13.2,0-21.9,10-21.9,19.5
		v41h14.5C24.7,100.3,24.7,62.8,24.7,62.8z M44.1,46.2h10.4v5.2H44.1V46.2z M45.9,53.9h6.6l4.7,32.3L49.1,96l-7.8-9.5L45.9,53.9z"/>
</g>
</svg>
