<?xml version="1.0" encoding="utf-8"?>
<!-- Generator: Adobe Illustrator 25.1.0, SVG Export Plug-In . SVG Version: 6.00 Build 0)  -->
<svg version="1.1" id="Calque_1" xmlns="http://www.w3.org/2000/svg" xmlns:xlink="http://www.w3.org/1999/xlink" x="0px" y="0px"
	 viewBox="0 0 100 100" style="enable-background:new 0 0 100 100;" xml:space="preserve">
<style type="text/css">
	.st0{fill:none;}
	.st1{fill:#FFFFFF;}
</style>
<g id="Calque_2_1_">
	<g id="bg">
		<rect class="st0" width="100" height="100"/>
	</g>
	<g id="health">
		<path class="st1" d="M86.8,22.5H68.4V10.2c0-3.4-2.7-6.1-6.1-6.1H37.8c-3.4,0-6.1,2.7-6.1,6.1v12.2H13.2C6.5,22.5,1,28,1,34.8v49
			C1,90.5,6.5,96,13.2,96h73.5C93.5,96,99,90.5,99,83.8v-49C99,28,93.5,22.5,86.8,22.5z M37.8,10.2h24.5v12.2H37.8V10.2z M74.5,65.4
			H56.1v18.4H43.9V65.4H25.5V53.1h18.4V34.8h12.2v18.4h18.4V65.4z"/>
	</g>
</g>
</svg>
