<?xml version="1.0" encoding="utf-8"?>
<!-- Generator: Adobe Illustrator 25.1.0, SVG Export Plug-In . SVG Version: 6.00 Build 0)  -->
<svg version="1.1" id="Calque_1" xmlns="http://www.w3.org/2000/svg" xmlns:xlink="http://www.w3.org/1999/xlink" x="0px" y="0px"
	 viewBox="0 0 100 100" style="enable-background:new 0 0 100 100;" xml:space="preserve">
<style type="text/css">
	.st0{fill:none;}
	.st1{fill:#FFFFFF;}
</style>
<g id="Calque_2_1_">
	<g id="bg">
		<rect class="st0" width="100" height="100"/>
	</g>
	<g id="internet">
		<g id="_Groupe_">
			<path id="_Tracé_" class="st1" d="M50.2,13.1c-17.9,0-35.3,6.1-49.2,17.3l6.1,6.1c25.3-19.8,60.9-19.8,86.2,0l6.1-6.1
				C85.5,19.2,68.1,13.1,50.2,13.1z"/>
			<path id="_Tracé_2" class="st1" d="M14.2,43.7l6.2,6.2c17.8-12.7,41.8-12.7,59.6,0l6.2-6.2C64.9,27.7,35.5,27.7,14.2,43.7
				L14.2,43.7z"/>
			<path id="_Tracé_3" class="st1" d="M27.6,57l6.2,6.2c10.1-5.8,22.6-5.8,32.7,0l6.2-6.2C59.1,48,41.3,48,27.6,57L27.6,57z"/>
			<circle id="_Tracé_4" class="st1" cx="50.2" cy="77.3" r="8.7"/>
		</g>
	</g>
</g>
</svg>
