<?xml version="1.0" encoding="utf-8"?>
<!-- Generator: Adobe Illustrator 25.1.0, SVG Export Plug-In . SVG Version: 6.00 Build 0)  -->
<svg version="1.1" id="Calque_1" xmlns="http://www.w3.org/2000/svg" xmlns:xlink="http://www.w3.org/1999/xlink" x="0px" y="0px"
	 viewBox="0 0 100 100" style="enable-background:new 0 0 100 100;" xml:space="preserve">
<style type="text/css">
	.st0{fill:none;}
	.st1{fill:#FFFFFF;}
</style>
<g id="Calque_2_1_">
	<g id="bg">
		<rect class="st0" width="100" height="100"/>
	</g>
	<g id="education">
		<g id="Calque_2-2">
			<rect x="30.4" y="17.3" class="st1" width="37.1" height="6.1"/>
			<path class="st1" d="M79.6,3H18.4C16.5,3,15,4.5,15,6.4v67.4c0,1.9,1.5,3.4,3.4,3.4h16c-0.4-1.3-0.6-2.7-0.5-4.1
				c0-0.7,0.1-1.4,0.1-2.1H21.2V9.2h55.6V71H64.4c0.1,0.7,0.1,1.4,0.2,2.1c0,1.4-0.2,2.7-0.6,4.1h15.6c1.9,0,3.4-1.5,3.4-3.4V6.4
				C83,4.5,81.4,3,79.6,3z"/>
			<path class="st1" d="M42.6,84v15l6.5-3.2l6.5,3.2V84c6.1-3.6,8.2-11.6,4.5-17.7c-3.6-6.1-11.6-8.2-17.7-4.5
				c-4,2.4-6.4,6.6-6.3,11.2C36.1,77.6,38.6,81.8,42.6,84z M52.4,93.4l-3.2-1.6l-3.2,1.6v-7.7c1.1,0.3,2.2,0.4,3.2,0.3
				c1,0,2.3-0.3,3.2-0.3V93.4z M49.2,63.2c5.4,0,9.7,4.4,9.7,9.7c0,5.4-4.4,9.7-9.7,9.7c-5.4,0-9.7-4.3-9.7-9.7
				c-0.1-5.3,4.1-9.6,9.4-9.8C48.9,63.2,49,63.2,49.2,63.2z"/>
			<rect x="30.4" y="28.1" class="st1" width="37.1" height="6.1"/>
			<rect x="30.4" y="38.4" class="st1" width="37.1" height="6.1"/>
			<rect x="30.4" y="48.8" class="st1" width="37.1" height="6.1"/>
		</g>
	</g>
</g>
</svg>
