<?xml version="1.0" encoding="utf-8"?>
<!-- Generator: Adobe Illustrator 25.1.0, SVG Export Plug-In . SVG Version: 6.00 Build 0)  -->
<svg version="1.1" id="Calque_1" xmlns="http://www.w3.org/2000/svg" xmlns:xlink="http://www.w3.org/1999/xlink" x="0px" y="0px"
	 viewBox="0 0 100 100" style="enable-background:new 0 0 100 100;" xml:space="preserve">
<style type="text/css">
	.st0{fill:none;}
	.st1{fill:#FFFFFF;}
</style>
<g id="Calque_2_1_">
	<g id="bg">
		<rect class="st0" width="100" height="100"/>
	</g>
	<g id="milestones">
		<g id="Calque_1-2">
			<path class="st1" d="M53.8,37.6H99c0,0-0.6-25-31-34.6C55.7,32.7,53.8,37.6,53.8,37.6z"/>
			<path class="st1" d="M99.1,41.6c-2.5,20.3-20.7,36.1-42.8,36.1S15.9,61.9,13.4,41.6h0.1c-0.1-2-0.7-3.9-1.6-5.6
				c-0.9,3.7-6.2,2.8-6.2,2.8c-3-0.9-4.9-3.8-4.5-6.8c0.3-5.5,8.1-6.1,12-3.8c5,2.6,8.1,7.7,8.2,13.3L99.1,41.6L99.1,41.6z"/>
			<path class="st1" d="M79.6,72.6c-6.5,0-11.7,5.2-11.7,11.7S73.1,96,79.6,96s11.7-5.2,11.7-11.7l0,0
				C91.3,77.8,86.1,72.6,79.6,72.6z M79.6,88.6c-2.3,0-4.2-1.9-4.2-4.2s1.9-4.2,4.2-4.2c2.3,0,4.2,1.9,4.2,4.2
				C83.8,86.7,81.9,88.6,79.6,88.6L79.6,88.6z"/>
			<path class="st1" d="M33,72.6c-6.5,0-11.7,5.2-11.7,11.7S26.5,96,33,96s11.7-5.2,11.7-11.7l0,0C44.7,77.9,39.5,72.6,33,72.6z
				 M33,88.6c-2.3,0-4.2-1.9-4.2-4.2c0-2.3,1.9-4.2,4.2-4.2s4.2,1.9,4.2,4.2S35.4,88.6,33,88.6L33,88.6L33,88.6z"/>
		</g>
	</g>
</g>
</svg>
