<?xml version="1.0" encoding="utf-8"?>
<!-- Generator: Adobe Illustrator 25.1.0, SVG Export Plug-In . SVG Version: 6.00 Build 0)  -->
<svg version="1.1" id="Calque_1" xmlns="http://www.w3.org/2000/svg" xmlns:xlink="http://www.w3.org/1999/xlink" x="0px" y="0px"
	 viewBox="0 0 100 100" style="enable-background:new 0 0 100 100;" xml:space="preserve">
<style type="text/css">
	.st0{fill:none;}
	.st1{fill:#FFFFFF;}
</style>
<g id="Calque_2_1_">
	<g id="bg">
		<rect class="st0" width="100" height="100"/>
	</g>
	<g id="household">
		<path class="st1" d="M9.8,45.6V98h80V45.6l-40-32.4L9.8,45.6z M28.5,39c3.1,0.1,5.5,2.7,5.3,5.8c-0.1,2.9-2.4,5.2-5.3,5.3
			c-3.1-0.1-5.5-2.7-5.3-5.8C23.3,41.4,25.7,39.1,28.5,39z M39.6,67.6c0,1.1-0.9,2.1-2,2.1l0,0c-1.2-0.1-2-1-2-2.2
			c0-3.8-0.4-6.2-1.2-8c0,0,0.9,10-0.3,10.9v20c0.1,1.3-0.9,2.5-2.3,2.6c-1.3,0.1-2.5-0.9-2.6-2.3c0-0.1,0-0.2,0-0.3v-17H29v17.1
			c0.1,1.3-0.9,2.5-2.3,2.6c-1.3,0.1-2.5-0.9-2.6-2.3c0-0.1,0-0.2,0-0.3l0.1-19.9c-1.8-3-0.6-10.8-0.6-10.8
			c-0.9,2.5-1.3,5.1-1.1,7.8c0,1.2-0.8,2.1-2,2.2l0,0c-1.1-0.1-2-1-2-2.1c-0.1-10.3,3.5-13.5,7.2-15.9l0,0c0.6-0.5,3.4,0.4,3.4,0.4
			s2.6-0.9,3.2-0.5c0.1,0,0.2,0.1,0.3,0.2C36.2,54.2,39.8,57.4,39.6,67.6z M74.6,61.4c1.8-0.1,3.3,1.3,3.4,3.1
			c0.1,1.8-1.3,3.3-3.1,3.4c-1.8,0.1-3.3-1.3-3.4-3.1c0-0.1,0-0.1,0-0.2C71.5,62.9,72.9,61.5,74.6,61.4L74.6,61.4z M72.8,68.8
			L72.8,68.8c0.4-0.3,2,0.2,2,0.2s1.5-0.6,1.9-0.3l0.2,0.1c2.2,1.4,4.3,3.3,4.2,9.3c0,0.7-0.5,1.2-1.2,1.2l0,0
			c-0.7,0-1.2-0.6-1.2-1.3l0,0c0.1-1.6-0.1-3.2-0.7-4.7v2.4c0.7,2.9,1.2,5.8,1.6,8.8c-0.3,0.7-1,1.2-1.8,1.3v5.5
			c0.1,0.8-0.5,1.5-1.3,1.5c-0.8,0.1-1.5-0.5-1.5-1.3c0-0.1,0-0.2,0-0.2v-5.2h-0.2v5.2c0.1,0.8-0.5,1.5-1.3,1.5
			c-0.8,0.1-1.5-0.5-1.5-1.3c0-0.1,0-0.2,0-0.2V86c-1.2-0.3-2-0.7-2-1.2c0-1,1.4-7.5,1.8-9v-2.3c-0.5,1.4-0.8,3-0.7,4.5
			c0,0.7-0.5,1.3-1.2,1.3l0,0l0,0c-0.7,0-1.2-0.6-1.2-1.2C68.5,72.1,70.6,70.2,72.8,68.8L72.8,68.8z M63.3,67.6c0,1.1-0.9,2.1-2,2.1
			l0,0c-1.2-0.1-2-1-2-2.2c0-3.8-0.4-6.2-1.2-8v4.2c0.6,2.4,2.7,12,2.7,15c-0.6,1.2-1.7,2.1-3,2.3v9.5c0.1,1.3-0.9,2.5-2.3,2.6
			c-1.3,0.1-2.5-0.9-2.6-2.3c0-0.1,0-0.2,0-0.3v-8.8h-0.3v8.8c0.1,1.3-0.9,2.5-2.3,2.6c-1.3,0.1-2.5-0.9-2.6-2.3c0-0.1,0-0.2,0-0.3
			v-9.4c-2-0.5-3.5-1.2-3.5-2c0-1.7,2.4-12.8,3-15.4v-4c-0.9,2.5-1.3,5.1-1.1,7.7c0,1.2-0.8,2.1-2,2.2l0,0c-1.1-0.1-2-1-2-2.1
			c-0.3-10.3,3.4-13.5,7.1-15.9l0,0c0.6-0.5,3.4,0.4,3.4,0.4s2.6-0.9,3.2-0.5c0.1,0,0.2,0.1,0.3,0.2C59.8,54.1,63.5,57.3,63.3,67.6
			L63.3,67.6z M57.6,44.6c-0.2,2.9-2.6,5.1-5.6,5c-2.9-0.2-5.1-2.6-5-5.6c0.1-2.8,2.5-5,5.3-5C55.3,39.1,57.7,41.6,57.6,44.6
			L57.6,44.6z"/>
		<polygon class="st1" points="94.2,9.1 80.9,9.1 80.9,21.3 94.2,32.1 		"/>
		<polygon class="st1" points="49.8,1.8 0,42.1 2.8,45.6 49.8,7.6 96.8,45.6 99.6,42.1 		"/>
	</g>
</g>
</svg>
