<?xml version="1.0" encoding="utf-8"?>
<!-- Generator: Adobe Illustrator 25.1.0, SVG Export Plug-In . SVG Version: 6.00 Build 0)  -->
<svg version="1.1" id="Calque_1" xmlns="http://www.w3.org/2000/svg" xmlns:xlink="http://www.w3.org/1999/xlink" x="0px" y="0px"
	 viewBox="0 0 100 100" style="enable-background:new 0 0 100 100;" xml:space="preserve">
<style type="text/css">
	.st0{fill:#FFFFFF;}
</style>
<g id="Calque_2_3_">
	<g id="baby">
		<g id="g1628">
			<g id="g1630">
				<path id="path1632" class="st0" d="M50.4,29.8c7.4,0,13.4-6,13.4-13.4S57.8,3,50.4,3S37,9,37,16.4S43,29.8,50.4,29.8z"/>
				<path id="path1634" class="st0" d="M50.4,16.4"/>
			</g>
			<path id="path1636" class="st0" d="M50.4,57.9H36.2V47.6L25.3,58.5c-4.9,5-11.5-1.3-6.6-6.3l18-18c1.5-1.5,3.1-2.4,5.6-2.4h8.1
				l0,0h8c2.5,0,4.2,0.9,5.7,2.4l18.2,18.2c4.7,4.7-2.2,11-6.6,6.3L64.5,47.6v10.3L50.4,57.9L50.4,57.9z"/>
			<path id="path1638" class="st0" d="M64.4,63.2L53.8,73.9l7.8,7.8l-8,8c-4.7,4.7,1.8,11.5,6.7,6.6L73,83.1
				c2.7-2.8,3.5-7.9,0.6-10.8C73.5,72.3,64.4,63.2,64.4,63.2z"/>
			<path id="path1640" class="st0" d="M36.2,63.2l10.7,10.7L39,81.7l8,8c4.7,4.7-1.8,11.5-6.7,6.6L27.7,83.1
				c-2.7-2.8-3.5-7.9-0.6-10.8C27.1,72.3,36.2,63.2,36.2,63.2z"/>
		</g>
	</g>
</g>
</svg>
