<?xml version="1.0" encoding="utf-8"?>
<!-- Generator: Adobe Illustrator 19.0.0, SVG Export Plug-In . SVG Version: 6.00 Build 0)  -->
<svg version="1.1" id="Calque_1" xmlns="http://www.w3.org/2000/svg" xmlns:xlink="http://www.w3.org/1999/xlink" x="0px" y="0px"
	 viewBox="0 0 100 100" style="enable-background:new 0 0 100 100;" xml:space="preserve">
<style type="text/css">
	.st0{fill:#97D2D4;}
	.st1{fill:#078D93;}
	.st2{fill:#45B9BC;}
	.st3{fill:#04A2A5;}
	.st4{fill:#ACDADA;}
	.st5{fill:#FFFFFF;}
	.st6{fill:none;}
	.st7{fill:#1B1B1B;}
	.st8{fill:#DE3F14;}
	.st9{fill:#FDD490;}
	.st10{fill:none;stroke:#EB660C;stroke-width:1.017;stroke-miterlimit:10;}
	.st11{fill:#EB660C;}
</style>
<g id="XMLID_2_">
	<g id="XMLID_68_">
		<g id="XMLID_89_">
			<g id="XMLID_189_">
				
					<rect id="XMLID_193_" x="5.2" y="16.5" transform="matrix(0.9344 -0.3563 0.3563 0.9344 -10.7419 20.3967)" class="st0" width="89.6" height="45.6"/>
				<path id="XMLID_192_" class="st1" d="M57.1,12.2L0,34l16.3,42.6l18.1-6.9C34,58.6,38,47.3,42.4,36.8C46,27.9,51,19.5,57.1,12.2z
					"/>
				<path id="XMLID_191_" class="st2" d="M95.6,33.2l-7.1-18.6C67.6,28.6,49.4,45.9,38.8,68l4.8-1.8C58.5,52.2,76.1,39.4,95.6,33.2z
					"/>
				<path id="XMLID_190_" class="st3" d="M83.7,2.1L57.1,12.2C51,19.5,46,27.9,42.4,36.8C38,47.3,34,58.6,34.3,69.8l4.5-1.7
					c10.6-22.1,28.8-39.5,49.6-53.5L83.7,2.1z"/>
			</g>
			
				<rect id="XMLID_188_" x="85.2" y="3.2" transform="matrix(0.9344 -0.3563 0.3563 0.9344 -3.047 32.9783)" class="st4" width="5.7" height="43.1"/>
			<g id="XMLID_175_">
				<path id="XMLID_186_" class="st5" d="M92.7,42.3l0.4-0.1l0.4,1l3.1-1.2l0.2,0.4l-3.1,1.2l0.4,1l-0.4,0.1L92.7,42.3z"/>
				<path id="XMLID_184_" class="st5" d="M92.3,41.4l3.5-1.3l0.2,0.4l-3.5,1.3L92.3,41.4z"/>
				<path id="XMLID_182_" class="st5" d="M91.5,39.3c-0.1-0.2-0.1-0.3-0.1-0.5c0-0.2,0-0.3,0-0.5l0.4,0c0,0.1,0,0.3,0,0.4
					c0,0.1,0,0.3,0.1,0.4c0.1,0.3,0.3,0.5,0.5,0.6c0.2,0.1,0.5,0.1,0.7,0l1.1-0.4c0.3-0.1,0.4-0.3,0.5-0.5c0.1-0.2,0.1-0.5,0-0.7
					c-0.1-0.2-0.1-0.3-0.2-0.4c-0.1-0.1-0.2-0.2-0.3-0.3l0.3-0.2c0.1,0.1,0.2,0.2,0.3,0.4c0.1,0.1,0.2,0.3,0.3,0.5
					c0.1,0.2,0.1,0.4,0.1,0.6c0,0.2,0,0.3-0.1,0.5c-0.1,0.1-0.2,0.3-0.3,0.4c-0.1,0.1-0.3,0.2-0.5,0.3L93.2,40
					c-0.2,0.1-0.4,0.1-0.5,0.1c-0.2,0-0.3,0-0.5-0.1c-0.2-0.1-0.3-0.2-0.4-0.3C91.6,39.6,91.5,39.5,91.5,39.3z"/>
				<path id="XMLID_180_" class="st5" d="M90.7,37.2l1.9-0.7l-2.5-0.9l-0.2-0.5l2,0.7l1.5-2.1l0.2,0.5l-1.3,1.7l0.8,0.3l1.1-0.4
					l0.2,0.4l-3.5,1.3L90.7,37.2z"/>
				<path id="XMLID_178_" class="st5" d="M92.1,31.4l0.4-0.1l0.8,2l-3.5,1.3L89,32.6l0.4-0.1l0.6,1.5l1.1-0.4l-0.5-1.4l0.4-0.1
					l0.5,1.4l1.2-0.5L92.1,31.4z"/>
				<path id="XMLID_176_" class="st5" d="M88,29.9l0.4-0.1l0.4,1l3.1-1.2L92,30l-3.1,1.2l0.4,1l-0.4,0.1L88,29.9z"/>
			</g>
			
				<rect id="XMLID_174_" x="83.1" y="5.1" transform="matrix(0.9344 -0.3563 0.3563 0.9344 -0.2558 31.3012)" class="st5" width="3.6" height="22.5"/>
			<g id="XMLID_172_">
				
					<rect id="XMLID_173_" x="65.4" y="13" transform="matrix(0.3563 0.9344 -0.9344 0.3563 60.5163 -57.1655)" class="st6" width="12.7" height="4.7"/>
			</g>
			<g id="XMLID_170_">
				
					<rect id="XMLID_171_" x="69.8" y="11.3" transform="matrix(0.3563 0.9344 -0.9344 0.3563 61.79 -62.3935)" class="st6" width="12.7" height="4.7"/>
			</g>
			<g id="XMLID_168_">
				
					<rect id="XMLID_169_" x="69.9" y="24.9" transform="matrix(0.3563 0.9344 -0.9344 0.3563 74.5436 -53.748)" class="st6" width="12.7" height="4.7"/>
			</g>
			<g id="XMLID_166_">
				
					<rect id="XMLID_167_" x="74.3" y="23.2" transform="matrix(0.3563 0.9344 -0.9344 0.3563 75.8173 -58.976)" class="st6" width="12.7" height="4.7"/>
			</g>
			<g id="XMLID_164_">
				
					<rect id="XMLID_165_" x="74.5" y="36.7" transform="matrix(0.3563 0.9344 -0.9344 0.3563 88.571 -50.3305)" class="st6" width="12.7" height="4.7"/>
			</g>
			<g id="XMLID_162_">
				
					<rect id="XMLID_163_" x="78.9" y="35.1" transform="matrix(0.3563 0.9344 -0.9344 0.3563 89.8447 -55.5585)" class="st6" width="12.7" height="4.7"/>
			</g>
			
				<rect id="XMLID_161_" x="79" y="48.6" transform="matrix(0.3563 0.9344 -0.9344 0.3563 102.5983 -46.913)" class="st6" width="12.7" height="4.7"/>
			
				<rect id="XMLID_160_" x="83.4" y="46.9" transform="matrix(0.3563 0.9344 -0.9344 0.3563 103.872 -52.141)" class="st6" width="12.7" height="4.7"/>
			
				<rect id="XMLID_159_" x="78.4" y="7.9" transform="matrix(0.9344 -0.3563 0.3563 0.9344 -4.681 30.6203)" class="st6" width="4.7" height="40.2"/>
			
				<rect id="XMLID_158_" x="10" y="31" transform="matrix(0.9344 -0.3563 0.3563 0.9344 -17.2368 9.4077)" class="st5" width="13.9" height="41"/>
			<g id="XMLID_130_">
				<path id="XMLID_155_" class="st7" d="M23,33.5l-0.7,0.3l-1.7-1.3l-0.1,0c-0.1,0.1-0.3,0.1-0.4,0.2c-0.1,0-0.3,0.1-0.4,0.1
					l0.7,1.8l-0.6,0.2l-1.7-4.4l1.4-0.5c0.3-0.1,0.5-0.2,0.7-0.2c0.2,0,0.4,0,0.6,0c0.2,0,0.3,0.1,0.4,0.3c0.1,0.1,0.2,0.3,0.3,0.6
					l0.1,0.3c0.1,0.4,0.2,0.7,0.1,0.9c-0.1,0.2-0.3,0.4-0.6,0.6L23,33.5z M19.5,32.2c0.1,0,0.2-0.1,0.3-0.1c0.1,0,0.2-0.1,0.3-0.1
					c0.1,0,0.2-0.1,0.3-0.1c0.4-0.1,0.6-0.3,0.7-0.4c0.1-0.2,0.1-0.4,0-0.7L21,30.6c-0.1-0.3-0.3-0.4-0.4-0.5
					c-0.2-0.1-0.5,0-0.8,0.1l-0.8,0.3L19.5,32.2z"/>
				<path id="XMLID_152_" class="st7" d="M23.8,28c0.3-0.1,0.6-0.2,0.8-0.2c0.2,0,0.5,0,0.7,0.1c0.2,0.1,0.4,0.2,0.5,0.4
					c0.1,0.2,0.3,0.4,0.4,0.6l0.5,1.4c0.1,0.2,0.1,0.5,0.1,0.7c0,0.2,0,0.4-0.1,0.6c-0.1,0.2-0.2,0.4-0.4,0.5
					c-0.2,0.2-0.4,0.3-0.7,0.4c-0.3,0.1-0.5,0.2-0.8,0.2c-0.2,0-0.5,0-0.7-0.1s-0.4-0.2-0.5-0.4c-0.2-0.2-0.3-0.4-0.4-0.6l-0.5-1.4
					c-0.1-0.2-0.1-0.5-0.1-0.7c0-0.2,0-0.4,0.1-0.6c0.1-0.2,0.2-0.4,0.4-0.5C23.3,28.2,23.5,28.1,23.8,28z M24,28.5
					c-0.4,0.1-0.6,0.4-0.8,0.6c-0.1,0.3-0.1,0.6,0,0.9l0.5,1.4c0.1,0.3,0.3,0.6,0.6,0.7c0.3,0.1,0.6,0.1,1,0
					c0.4-0.1,0.6-0.4,0.8-0.6c0.1-0.3,0.1-0.6,0-0.9l-0.5-1.4c-0.1-0.3-0.3-0.6-0.6-0.7C24.7,28.3,24.4,28.3,24,28.5z"/>
				<path id="XMLID_150_" class="st7" d="M28.3,26.3c0.2-0.1,0.4-0.1,0.7-0.2c0.2,0,0.4,0,0.6,0l0,0.5c-0.2,0-0.4,0-0.6,0
					c-0.2,0-0.4,0.1-0.6,0.1c-0.4,0.1-0.6,0.4-0.8,0.6c-0.1,0.3-0.1,0.6,0,0.9l0.5,1.4c0.1,0.3,0.3,0.6,0.6,0.7c0.3,0.1,0.6,0.1,1,0
					c0.2-0.1,0.4-0.2,0.6-0.3c0.2-0.1,0.3-0.2,0.4-0.4l0.3,0.4c-0.1,0.2-0.3,0.3-0.5,0.5c-0.2,0.1-0.4,0.3-0.7,0.4
					C29.8,31,29.5,31,29.2,31c-0.2,0-0.5,0-0.7-0.1c-0.2-0.1-0.4-0.2-0.5-0.4c-0.1-0.2-0.3-0.4-0.4-0.6l-0.5-1.4
					c-0.1-0.2-0.1-0.5-0.1-0.7c0-0.2,0-0.4,0.1-0.6c0.1-0.2,0.2-0.4,0.4-0.5C27.8,26.5,28,26.4,28.3,26.3z"/>
				<path id="XMLID_148_" class="st7" d="M31.2,25.3l0.9,2.4l1.3-3.2l0.7-0.3l-1,2.5l2.8,1.9l-0.7,0.3l-2.3-1.6l-0.4,1.1l0.5,1.3
					l-0.6,0.2l-1.7-4.4L31.2,25.3z"/>
				<path id="XMLID_146_" class="st7" d="M38.2,27.7l-1.7-4.4l2.6-1l0.2,0.5l-2.1,0.8l0.6,1.5l1.9-0.7l0.2,0.5l-1.9,0.7l0.7,2
					L38.2,27.7z"/>
				<path id="XMLID_144_" class="st7" d="M44.5,24.7l0.2,0.5l-2.7,1l-1.7-4.4l2.7-1l0.2,0.5L41,22.1l0.5,1.4l2-0.7l0.2,0.5l-2,0.7
					l0.6,1.6L44.5,24.7z"/>
				<path id="XMLID_142_" class="st7" d="M45.3,24.1c0.2,0,0.4,0,0.7,0c0.3,0,0.5-0.1,0.7-0.2c0.1,0,0.2-0.1,0.4-0.2
					c0.1-0.1,0.2-0.1,0.3-0.2c0.1-0.1,0.1-0.2,0.1-0.3c0-0.1,0-0.2-0.1-0.4l-0.1-0.2c0-0.1-0.1-0.2-0.2-0.3
					c-0.1-0.1-0.2-0.1-0.3-0.1c-0.1,0-0.2,0-0.4,0s-0.3,0-0.4,0c-0.3,0-0.5,0-0.7,0c-0.2,0-0.4,0-0.5,0c-0.1,0-0.3-0.1-0.4-0.2
					c-0.1-0.1-0.2-0.2-0.3-0.4l-0.1-0.2c-0.1-0.2-0.1-0.4-0.1-0.6c0-0.2,0.1-0.3,0.2-0.5c0.1-0.1,0.2-0.3,0.4-0.4
					c0.2-0.1,0.3-0.2,0.5-0.3c0.3-0.1,0.5-0.2,0.7-0.2c0.2,0,0.4,0,0.7,0l0,0.5c-0.2,0-0.4,0-0.6,0c-0.2,0-0.4,0.1-0.6,0.1
					c-0.1,0-0.2,0.1-0.3,0.2c-0.1,0.1-0.2,0.1-0.2,0.2c-0.1,0.1-0.1,0.2-0.1,0.3c0,0.1,0,0.2,0,0.3l0.1,0.1c0,0.1,0.1,0.2,0.2,0.3
					c0.1,0.1,0.2,0.1,0.3,0.1c0.1,0,0.2,0,0.4,0c0.1,0,0.3,0,0.5,0c0.2,0,0.4,0,0.6,0c0.2,0,0.3,0,0.5,0c0.1,0,0.3,0.1,0.4,0.2
					c0.1,0.1,0.2,0.2,0.3,0.4l0.1,0.3c0.1,0.2,0.1,0.4,0.1,0.6c0,0.2-0.1,0.3-0.2,0.5c-0.1,0.1-0.2,0.3-0.4,0.4
					c-0.2,0.1-0.3,0.2-0.5,0.3c-0.3,0.1-0.6,0.2-0.8,0.2c-0.3,0-0.5,0-0.8,0L45.3,24.1z"/>
				<path id="XMLID_140_" class="st7" d="M50.2,18l0.2,0.5L49.1,19l1.5,4L50,23.2l-1.5-4l-1.3,0.5L47,19.2L50.2,18z"/>
				<path id="XMLID_138_" class="st7" d="M51.6,17.5l1.7,4.4l-0.6,0.2L51,17.7L51.6,17.5z"/>
				<path id="XMLID_136_" class="st7" d="M55.5,21.1l-3.2-3.9l0.7-0.2l2.8,3.6l-0.2-4.5l0.6-0.2l0.2,5L55.5,21.1z"/>
				<path id="XMLID_133_" class="st7" d="M58.4,14.9l3.2,3.9L61,19l-0.8-1l-1.8,0.7l0.1,1.3l-0.6,0.2c0-0.8-0.1-1.7-0.1-2.5
					c0-0.8-0.1-1.7-0.1-2.5L58.4,14.9z M58.3,18.1l1.5-0.6l-1.7-2.1L58.3,18.1z"/>
				<path id="XMLID_131_" class="st7" d="M61.2,13.8l1.5,4l1.9-0.7l0.2,0.5l-2.5,0.9L60.6,14L61.2,13.8z"/>
			</g>
			<path id="XMLID_128_" class="st8" d="M20.4,35.7l1,2.7l1.3-0.5l0.1,0.3l-1.7,0.6l-1.1-3L20.4,35.7z"/>
			<path id="XMLID_125_" class="st8" d="M22,35c0-0.1,0-0.1,0-0.2c0-0.1,0.1-0.1,0.2-0.1c0.1,0,0.1,0,0.2,0c0.1,0,0.1,0.1,0.1,0.1
				c0,0.1,0,0.1,0,0.2c0,0.1-0.1,0.1-0.2,0.1c-0.1,0-0.1,0-0.2,0C22,35.1,22,35.1,22,35z M22.7,35.7l0.8,2.2L23.2,38l-0.8-2.2
				L22.7,35.7z"/>
			<path id="XMLID_123_" class="st8" d="M23.5,35.4l1.3,1.6L24.8,35l0.4-0.2l0,2.5l-0.5,0.2l-1.6-1.9L23.5,35.4z"/>
			<path id="XMLID_120_" class="st8" d="M26.2,35.7l0.1,0.3c0.1,0.2,0.2,0.3,0.3,0.3c0.1,0,0.3,0,0.5,0c0.1-0.1,0.2-0.1,0.3-0.2
				c0.1-0.1,0.2-0.1,0.2-0.2l0.2,0.2c-0.1,0.1-0.2,0.2-0.3,0.2c-0.1,0.1-0.2,0.1-0.4,0.2c-0.1,0-0.2,0.1-0.4,0.1c-0.1,0-0.2,0-0.3,0
				c-0.1,0-0.2-0.1-0.3-0.2S26,36.3,26,36.1l-0.3-0.7c-0.1-0.2-0.1-0.5,0-0.7c0.1-0.2,0.3-0.4,0.6-0.5c0.3-0.1,0.5-0.1,0.7,0
				c0.2,0.1,0.3,0.3,0.4,0.5l0.2,0.4L26.2,35.7z M27.1,34.9c-0.1-0.2-0.1-0.3-0.2-0.3c-0.1-0.1-0.2-0.1-0.4,0
				c-0.2,0.1-0.3,0.2-0.3,0.3c-0.1,0.1,0,0.3,0,0.4l0,0.1l1-0.4L27.1,34.9z"/>
			<path id="XMLID_117_" class="st8" d="M28.5,32.5c0-0.1,0-0.1,0-0.2c0-0.1,0.1-0.1,0.2-0.1c0.1,0,0.1,0,0.2,0
				c0.1,0,0.1,0.1,0.1,0.1c0,0.1,0,0.1,0,0.2c0,0.1-0.1,0.1-0.2,0.1c-0.1,0-0.1,0-0.2,0C28.5,32.6,28.5,32.6,28.5,32.5z M29.2,33.3
				l0.8,2.2l-0.4,0.1l-0.8-2.2L29.2,33.3z"/>
			<path id="XMLID_115_" class="st8" d="M30.3,32.9l0.1,0.2c0.1-0.1,0.2-0.2,0.3-0.3c0.1-0.1,0.2-0.2,0.4-0.2c0.2-0.1,0.4-0.1,0.6,0
				c0.2,0.1,0.3,0.2,0.4,0.5l0.6,1.5l-0.4,0.1l-0.6-1.5c-0.1-0.2-0.1-0.2-0.2-0.3c-0.1,0-0.2,0-0.3,0c-0.1,0-0.2,0.1-0.3,0.2
				c-0.1,0.1-0.2,0.2-0.2,0.2l0.6,1.7l-0.4,0.1l-0.7-1.8L29.9,33L30.3,32.9z"/>
			<path id="XMLID_113_" class="st8" d="M35,31.5c-0.1,0-0.2,0-0.3,0c-0.1,0-0.2,0-0.3,0.1c-0.2,0.1-0.3,0.2-0.3,0.3
				c-0.1,0.1-0.1,0.3,0,0.4l0.2,0.6c0,0.1,0.1,0.2,0.1,0.2c0.1,0,0.1,0.1,0.2,0.1c0.1,0,0.1,0,0.2,0c0.1,0,0.1,0,0.2-0.1
				c0.1,0,0.2-0.1,0.3-0.2c0.1-0.1,0.1-0.1,0.2-0.2l0.2,0.2c-0.1,0.1-0.2,0.2-0.3,0.2c-0.1,0.1-0.2,0.1-0.4,0.2
				c-0.1,0-0.2,0.1-0.3,0.1c-0.1,0-0.2,0-0.3,0c-0.1,0-0.2-0.1-0.3-0.2c-0.1-0.1-0.2-0.2-0.2-0.3l-0.3-0.7c-0.1-0.2-0.1-0.5,0-0.7
				c0.1-0.2,0.3-0.3,0.6-0.4c0.1-0.1,0.3-0.1,0.4-0.1c0.1,0,0.2,0,0.4,0L35,31.5z"/>
			<path id="XMLID_110_" class="st8" d="M36.2,30.5c0.3-0.1,0.5-0.1,0.8,0c0.2,0.1,0.4,0.2,0.5,0.5l0.3,0.7c0.1,0.2,0.1,0.5,0,0.7
				c-0.1,0.2-0.3,0.4-0.6,0.5c-0.1,0.1-0.3,0.1-0.4,0.1c-0.1,0-0.2,0-0.4,0c-0.1,0-0.2-0.1-0.3-0.2c-0.1-0.1-0.1-0.2-0.2-0.3
				l-0.3-0.7c-0.1-0.2-0.1-0.5,0-0.7C35.7,30.8,35.9,30.7,36.2,30.5z M36.3,30.9C36.2,30.9,36,31,36,31.1c-0.1,0.1-0.1,0.3,0,0.4
				l0.2,0.6c0.1,0.2,0.2,0.3,0.3,0.3c0.1,0.1,0.3,0,0.4,0c0.2-0.1,0.3-0.2,0.3-0.3c0.1-0.1,0.1-0.3,0-0.4L37,31.2
				c-0.1-0.2-0.2-0.3-0.3-0.3C36.6,30.8,36.5,30.8,36.3,30.9z"/>
			<path id="XMLID_108_" class="st8" d="M38.1,29.9l0.1,0.2c0.1-0.1,0.2-0.2,0.3-0.3c0.1-0.1,0.2-0.2,0.4-0.2c0.2-0.1,0.4-0.1,0.6,0
				c0.2,0.1,0.3,0.2,0.4,0.5l0.6,1.5l-0.4,0.1l-0.6-1.5c-0.1-0.2-0.1-0.2-0.2-0.3c-0.1,0-0.2,0-0.3,0c-0.1,0-0.2,0.1-0.3,0.2
				c-0.1,0.1-0.2,0.2-0.2,0.2l0.6,1.7l-0.4,0.1l-0.7-1.8L37.7,30L38.1,29.9z"/>
			<path id="XMLID_106_" class="st8" d="M41.6,29c-0.1,0-0.2,0-0.3,0c-0.1,0-0.2,0-0.3,0.1c-0.2,0.1-0.3,0.2-0.3,0.3
				c-0.1,0.1-0.1,0.3,0,0.4l0.2,0.6c0,0.1,0.1,0.2,0.1,0.2c0.1,0,0.1,0.1,0.2,0.1c0.1,0,0.1,0,0.2,0c0.1,0,0.1,0,0.2-0.1
				c0.1,0,0.2-0.1,0.3-0.2c0.1-0.1,0.1-0.1,0.2-0.2l0.2,0.2c-0.1,0.1-0.2,0.2-0.3,0.2c-0.1,0.1-0.2,0.1-0.4,0.2
				c-0.1,0-0.2,0.1-0.3,0.1c-0.1,0-0.2,0-0.3,0c-0.1,0-0.2-0.1-0.3-0.2c-0.1-0.1-0.2-0.2-0.2-0.3l-0.3-0.7c-0.1-0.2-0.1-0.5,0-0.7
				c0.1-0.2,0.3-0.3,0.6-0.4c0.1-0.1,0.3-0.1,0.4-0.1c0.1,0,0.2,0,0.4,0L41.6,29z"/>
			<path id="XMLID_103_" class="st8" d="M42.7,29.4l0.1,0.3c0.1,0.2,0.2,0.3,0.3,0.3c0.1,0,0.3,0,0.5,0c0.1-0.1,0.2-0.1,0.3-0.2
				c0.1-0.1,0.2-0.1,0.2-0.2l0.2,0.2c-0.1,0.1-0.2,0.2-0.3,0.2c-0.1,0.1-0.2,0.1-0.4,0.2c-0.1,0-0.2,0.1-0.4,0.1s-0.2,0-0.3,0
				c-0.1,0-0.2-0.1-0.3-0.2c-0.1-0.1-0.2-0.2-0.2-0.3l-0.3-0.7c-0.1-0.2-0.1-0.5,0-0.7c0.1-0.2,0.3-0.4,0.6-0.5
				c0.3-0.1,0.5-0.1,0.7,0c0.2,0.1,0.3,0.3,0.4,0.5l0.2,0.4L42.7,29.4z M43.5,28.7c-0.1-0.2-0.1-0.3-0.2-0.3c-0.1-0.1-0.2-0.1-0.4,0
				c-0.2,0.1-0.3,0.2-0.3,0.3c-0.1,0.1,0,0.3,0,0.4l0,0.1l1-0.4L43.5,28.7z"/>
			<path id="XMLID_101_" class="st8" d="M44.5,27.4l0.1,0.2c0.1-0.1,0.2-0.2,0.3-0.3c0.1-0.1,0.2-0.2,0.4-0.2c0,0,0,0,0.1,0l0.1,0.4
				c0,0-0.1,0-0.1,0c-0.1,0-0.2,0.1-0.3,0.2c-0.1,0.1-0.2,0.2-0.2,0.3l0.6,1.6L45,29.7l-0.7-1.8l-0.1-0.4L44.5,27.4z"/>
			<path id="XMLID_99_" class="st8" d="M45.8,26.9l-0.2-0.5l0.3-0.3l0.2,0.6l0.6-0.2l0.1,0.3l-0.6,0.2l0.5,1.3
				c0,0.1,0.1,0.1,0.1,0.1c0,0,0.1,0.1,0.1,0.1s0.1,0,0.1,0c0,0,0.1,0,0.1,0c0.1,0,0.1-0.1,0.2-0.1c0.1,0,0.1-0.1,0.1-0.1l0.2,0.2
				c0,0.1-0.1,0.1-0.2,0.2c-0.1,0.1-0.2,0.1-0.3,0.1C47.1,29,47,29,47,29c-0.1,0-0.1,0-0.2,0c-0.1,0-0.1-0.1-0.2-0.1
				c-0.1-0.1-0.1-0.1-0.1-0.2l-0.5-1.4l-0.3,0.1l-0.1-0.3L45.8,26.9z"/>
			<path id="XMLID_90_" class="st5" d="M78.7,34.6c-0.1-0.3-0.3-0.6-0.5-0.9l-0.1-0.2c0-0.1-0.1-0.1-0.1-0.2
				c-0.1-0.1-0.2-0.3-0.3-0.4c-0.4-0.5-0.9-1-1.6-1.3c-0.6-0.3-1.3-0.5-2-0.6c-0.7,0-1.4,0-2.1,0.2c-1.3,0.3-2.6,0.9-3.7,1.6
				c-2.3,1.4-4.4,3.3-6.2,5.3c-0.9,1-1.8,2.1-2.4,3.3c-0.7,1.2-1.4,2.3-2,3.5c-1.3,2.4-2.4,4.7-3.6,7c-1.2,2.2-2.4,4.4-3.8,6.2
				c-0.3,0.5-0.7,0.9-1,1.4c-0.2,0.2-0.4,0.4-0.5,0.7c-0.2,0.2-0.4,0.4-0.6,0.6c-0.8,0.8-1.6,1.5-2.4,2c-0.8,0.6-1.7,1-2.6,1.3
				c-0.9,0.3-1.8,0.4-2.6,0.2c-0.8-0.1-1.5-0.5-2-1c-0.5-0.5-0.8-1.1-0.9-1.7c-0.1-0.6,0-1.1,0.2-1.5c0.1-0.2,0.1-0.3,0.1-0.5
				c1.1,0.3,2.3,0.3,3.4,0c0.7-0.2,1.3-0.5,1.9-0.9c0.6-0.5,1-1.1,1.5-1.7c0.2-0.3,0.4-0.6,0.6-0.9c0.6-1,0.8-2,0.8-3.1
				c0-0.5,0-1-0.1-1.6c-0.1-0.5,0-1.1,0.4-1.4c0.1-0.1,0.3-0.1,0.5-0.2c0.3-0.1,0.6-0.2,0.8-0.3c0.5-0.1,1-0.2,1.4-0.5
				c0.5-0.3,1-0.8,1.3-1.4c0.2-0.3,0.4-0.8,0.4-1.1c0-0.2-0.1-0.4-0.3-0.4c-0.2,0-0.3,0.1-0.5,0.2c-0.6,0.3-1.3,0.5-1.9,0.3
				c-0.3-0.1-0.6-0.5-0.8-0.7c-0.2-0.4-0.3-0.9-0.1-1.3c0.6-0.9,1.4-1.6,2.1-2.4c1.5-1.7,3-3.3,4.5-5c1.5-1.7,3-3.3,4.5-5
				c0.8-0.9,1.6-1.7,2.4-2.6c0.4-0.4,0.7-0.8,1.1-1.2c0.3-0.3,0.6-0.6,1-0.8c0.2-0.1,0.3-0.1,0.5,0c0.1,0,0.4,0.1,0.5,0.1
				c0.1-0.1,0.3-0.2,0.3-0.4c0.1-0.1,0.2-0.3,0.3-0.4c0.2,0.1,0.1,0.1,0,0.3c-0.1,0.2-0.1,0.2,0.1,0.3c0.1,0.1,0.2,0.1,0.3,0.1
				c0.1,0,0.1-0.1,0.2-0.2c0,0,0.1,0,0.1-0.1c0,0,0-0.1,0.1-0.2c0-0.1,0.1-0.1,0.1-0.2c0.1-0.2,0-0.3-0.2-0.4c-0.1,0,0,0-0.1,0
				c-0.1,0-0.2,0.1-0.2,0.2c-0.1,0,0,0-0.1,0c0,0-0.1-0.1-0.1-0.1c0-0.1,0.3-0.4,0.4-0.4c0.1-0.1,0.2-0.3,0.3-0.4
				c0.1,0.1,0.2,0.1,0.1,0.3c-0.1,0.2-0.2,0.2,0,0.4c0,0,0.1,0.2,0.2,0.2c0.1,0,0.3-0.2,0.4-0.2c0,0,0.1,0,0.1-0.1c0,0,0-0.1,0-0.1
				c0-0.1,0.2-0.3,0.2-0.4c0-0.1-0.3-0.3-0.3-0.3c-0.1,0-0.2,0.1-0.2,0.2c-0.1,0.1-0.1,0.1-0.2,0c-0.2-0.1-0.1-0.2,0-0.3
				c0.2-0.2,0.3-0.3,0.5-0.5c0.2-0.2,0.1-0.1,0.3,0c-0.1,0.1-0.2,0.3-0.2,0.4c0,0.1,0.2,0.3,0.3,0.3c0.1,0,0.2,0,0.3-0.1
				c0,0,0.1-0.1,0.1-0.1c0,0,0.1,0,0.1,0c0.1-0.1,0-0.1,0.1-0.1c0.1-0.1,0.2-0.2,0.2-0.3c0-0.1,0-0.1,0-0.1c0-0.1-0.2-0.2-0.2-0.2
				c-0.1-0.1,0-0.1-0.1-0.1c-0.1,0-0.2,0.1-0.2,0.2c-0.1,0.1-0.1,0-0.3-0.1c0.3-0.3,0.6-0.6,0.9-0.8c-0.3-0.3-0.5-0.7-0.6-1.1
				c-0.1-0.1-0.1-0.3-0.2-0.4c-0.1,0-0.2,0-0.3,0c-0.2,0-0.2-0.1-0.2-0.3c0-0.1,0-0.1,0-0.2c0,0-0.2,0-0.3-0.1
				c-0.1,0-0.2-0.1-0.3-0.1c-0.2-0.1-0.4-0.2-0.5-0.3c-0.1-0.1-0.2-0.3-0.4-0.2c-0.1,0-0.1,0.2-0.2,0.2c-0.1,0.2-0.3,0.4-0.4,0.5
				c-0.2,0.2-0.1,0.2-0.3,0c0.1-0.1,0.1-0.1,0.1-0.2c0.1-0.1,0.1-0.1,0-0.2c-0.1-0.2-0.3-0.3-0.4-0.2c-0.1,0-0.2,0.1-0.2,0.2
				c-0.1,0-0.1,0-0.1,0.1c-0.1,0.1-0.2,0.3-0.2,0.4c0,0.1,0.2,0.2,0.2,0.2c0.1,0.1,0,0.1,0.1,0c0.1,0,0.2-0.2,0.3-0.2
				c0,0,0.2,0.1,0.2,0.1c0,0.1-0.3,0.3-0.3,0.4c-0.1,0.1-0.3,0.3-0.4,0.4c0,0-0.2-0.1-0.2-0.2c0,0,0-0.1,0.1-0.1
				c0.1-0.2,0.2-0.2,0-0.4c-0.2-0.2-0.2-0.2-0.4-0.1c-0.1,0-0.1,0.1-0.2,0.1c0,0-0.1,0-0.1,0.1c-0.1,0.1,0,0.1,0,0.1
				c0,0.1-0.1,0.1-0.1,0.2C62,22.9,62,23,62.1,23.1c0.2,0.2,0.2,0.1,0.4,0c0.2-0.1,0.2-0.1,0.3,0.1c-0.1,0.1-0.3,0.3-0.4,0.4
				c-0.1,0.1-0.3,0.4-0.4,0.4c0,0-0.1-0.1-0.1-0.1c0-0.1,0.1-0.2,0.2-0.3c0-0.1,0.1-0.1,0-0.1c0-0.1-0.2-0.2-0.3-0.2
				c-0.1,0-0.3,0.2-0.4,0.2c-0.1,0.1-0.3,0.3-0.3,0.5c0,0.1,0,0.2,0.2,0.3c0.1,0.1,0.1,0.1,0.2,0.1c0.1,0,0.2-0.1,0.3-0.2
				c0.1-0.1,0.1,0,0.2,0.1c-0.2,0.2-0.4,0.3-0.6,0.5c-0.1,0.1-0.1,0.2-0.1,0.3c0,0.1,0,0.3,0.1,0.4c0,0.2,0,0.4-0.2,0.7
				c0,0.1-0.3,0.4-0.3,0.4c-0.1,0-0.2,0.2-0.3,0.3c-0.1,0.1-0.2,0.2-0.4,0.4c-0.3,0.3-0.5,0.5-0.8,0.8c-0.5,0.5-1,1-1.5,1.6
				c-1.1,1.2-2.3,2.4-3.4,3.6c-1,1-2,2.1-3,3.1c-1.1,1.1-2.1,2.3-3.2,3.3c-0.3,0.3-0.5,0.5-0.7,0.8c-0.1,0.1-0.2,0.3-0.4,0.4
				c-0.1,0.1-0.2,0.2-0.2,0.2c-0.1,0,0,0-0.1,0c-0.2-0.1-0.4-0.3-0.6-0.5c-0.1-0.1-0.4-0.2-0.4-0.3c0-0.2,0.1,0,0.2-0.1
				c0.1,0,0.1-0.2,0-0.2c-0.1-0.1-0.3-0.2-0.4-0.2c-0.2-0.1-0.3,0.1-0.1,0.2c-0.1,0.1-0.1,0.1-0.2,0.1c-0.2,0-0.4-0.1-0.5-0.2
				c-0.4-0.1-0.7-0.2-1.1-0.2c-0.8,0-1.6,0.4-2.1,1c-0.6,0.6-1,1.4-1.1,2.2c-0.1,0.3-0.2,0.6-0.3,0.9c-0.1,0.3-0.3,0.5-0.5,0.7
				c-0.5,0.5-1.3,0.3-1.9,0.3c-0.7,0-1.4,0-2.1,0.2c-1.4,0.4-2.5,0.9-3.5,1.9c-1,0.9-1.7,2.7-1.7,4c0,1.5,0.4,2.8,1.1,4.1
				c0.3,0.6,0.7,1.1,1.2,1.6c0.2,0.2,0.4,0.4,0.5,0.6c0.1,0.1,0.1,0.2,0.2,0.3c0.1,0,0.1,0,0.2,0.1c0.1,0.1,0.3,0.2,0.4,0.3
				c0.3,0.2,0.7,0.5,1,0.7c0.6,0.4,1.3,0.7,2,0.9c0.2,0.1,0.5,0.1,0.7,0.2c0,0.2-0.1,0.3-0.1,0.5c-0.1,0.4-0.3,1-0.2,1.6
				c0.1,0.6,0.4,1.2,0.9,1.7c0.5,0.5,1.2,0.9,2.1,1c0.8,0.2,1.7,0.1,2.6-0.2c0.9-0.3,1.8-0.7,2.6-1.3c0.9-0.6,1.7-1.2,2.5-2
				c0.2-0.2,0.4-0.4,0.6-0.6c0.2-0.2,0.4-0.4,0.5-0.6c0.4-0.4,0.7-0.9,1.1-1.4c1.4-1.9,2.7-4,3.9-6.2c1.2-2.2,2.4-4.6,3.7-6.9
				c0.6-1.2,1.3-2.3,2.1-3.4c0.7-1.1,1.5-2.2,2.4-3.2c1.8-2,3.9-3.7,6.1-5.1c1.1-0.7,2.3-1.2,3.5-1.5c1.2-0.3,2.5-0.2,3.5,0.3
				c0.5,0.3,0.9,0.7,1.3,1.1c0.1,0.1,0.2,0.2,0.3,0.4l0.1,0.2l0.1,0.2c0.1,0.3,0.3,0.5,0.4,0.8c0.5,1.1,0.7,2.2,0.6,3.3
				c-0.1,1.1-0.5,2.1-1,3c-0.5,0.9-1.2,1.7-1.8,2.4c-1.4,1.5-2.7,2.9-3.6,4.3c-1,1.4-1.6,2.8-1.9,4c-0.3,1.2-0.3,2.3-0.1,3
				c0.1,0.3,0.1,0.6,0.2,0.8c0.1,0.2,0.1,0.3,0.1,0.3l1.1-0.4c0,0,0-0.1-0.1-0.2c0-0.1-0.1-0.3-0.2-0.6c-0.1-0.6-0.2-1.4,0.1-2.5
				c0.3-1.1,0.8-2.3,1.7-3.7c0.9-1.3,2.1-2.7,3.5-4.2c0.7-0.8,1.4-1.6,2-2.6c0.6-1,1-2.1,1.1-3.4C79.5,37,79.2,35.7,78.7,34.6z
				 M62.5,24.4C62.5,24.5,62.6,24.5,62.5,24.4C62.6,24.5,62.5,24.5,62.5,24.4z M42.2,45.8l0.7-0.7c0.1-0.1,0.4-0.2,0.5,0l1.9,1.8
				c0.1,0.1,0.2,0.4,0,0.5l-0.7,0.7c-0.1,0.1-0.4,0.2-0.5,0l-1.9-1.8C42.1,46.2,42.1,46,42.2,45.8z M39.6,48.7l0.7-0.7
				c0.1-0.1,0.4-0.2,0.5,0l1.9,1.8c0.1,0.1,0.2,0.4,0,0.5L42,51c-0.1,0.1-0.4,0.2-0.5,0l-1.9-1.8C39.4,49.1,39.4,48.8,39.6,48.7z
				 M42,56.1L42,56.1l0-0.3l0-0.1l0.1-0.1l0.1-0.1l0.1,0l0.1,0l0.1,0l0.1,0.1l0,0.1l0,0.1l0,0.1l0,0.1l-0.1,0.1l0,0.1l-0.2,0.1
				l-0.1,0l-0.1,0l-0.2-0.1L42,56.1L42,56.1z M40.4,55.6L40.4,55.6l0-0.2l0-0.1l0,0l0.1-0.1l0.1,0l0.2,0l0.1,0l0.1,0.1l0.1,0.1
				l0,0.1l0,0.1l0,0.1l-0.1,0.1l-0.1,0.1L41,55.9l0,0l-0.1,0l-0.1,0l-0.1,0l-0.1-0.1L40.4,55.6L40.4,55.6z M40.8,57.1L40.8,57.1
				l0-0.2l0-0.1l0.1-0.1l0.1-0.1l0.1,0l0.1,0l0.1,0l0.1,0.1l0.1,0.1l0,0.1l0,0l0,0.1l-0.1,0.1l-0.1,0.1l-0.2,0.1l-0.2,0l0,0l0,0
				L41,57.4l-0.1-0.1l-0.1-0.1L40.8,57.1z M39.3,56.7L39.3,56.7l0-0.2l0,0l0.1-0.1l0.2,0l0.1,0l0.2,0.1l0.1,0.1l0.1,0.1l0,0.2l0,0.1
				L40,57L39.9,57l-0.1,0l0,0l-0.1,0l-0.2,0l-0.1,0L39.3,57l-0.1-0.1L39.3,56.7z"/>
		</g>
		<g id="XMLID_69_">
			<path id="XMLID_88_" class="st7" d="M75.7,48.7c0.8,2.1,3.2,3.2,5.3,2.4l6.4-2.4c2.1-0.8,3.1-3.1,2.3-5.2L88.4,44l0.1,0.2
				c0.5,1.2-0.1,2.6-1.4,3.1l-6.9,2.6c-1.2,0.5-2.6-0.1-3.1-1.4l-4.7-12.2c-0.5-1.2,0.1-2.6,1.4-3.1l6.9-2.6
				c1.2-0.5,2.6,0.1,3.1,1.4l0.1,0.2l1.3-0.5c-0.8-2.1-3.1-3.1-5.1-2.3l-6.6,2.5c-2.1,0.8-3.1,3.1-2.3,5.2L75.7,48.7z"/>
			<path id="XMLID_87_" class="st7" d="M87.3,43.4l-9.9,3.8l0.3,0.8c0.3,0.9,1.4,1.4,2.3,1l6.6-2.5c0.9-0.3,1.4-1.4,1-2.3L87.3,43.4
				L87.3,43.4z"/>
			
				<rect id="XMLID_86_" x="78" y="31.7" transform="matrix(0.3563 0.9344 -0.9344 0.3563 85.5375 -50.1535)" class="st7" width="2.3" height="10.6"/>
			
				<rect id="XMLID_85_" x="80" y="36.2" transform="matrix(0.3563 0.9344 -0.9344 0.3563 90.8312 -48.8637)" class="st7" width="1.7" height="10.6"/>
			
				<rect id="XMLID_84_" x="79.6" y="34.1" transform="matrix(0.3563 0.9344 -0.9344 0.3563 88.3492 -49.4684)" class="st7" width="0.9" height="10.6"/>
			
				<rect id="XMLID_83_" x="81" y="38.5" transform="matrix(0.3563 0.9344 -0.9344 0.3563 93.5275 -48.2068)" class="st7" width="1.4" height="10.6"/>
			<path id="XMLID_80_" class="st7" d="M87.7,42.5c0.2,0.5,0.7,0.5,1.2,0.3c0.5-0.2,0.9-0.6,0.7-1.1c-0.2-0.5-0.7-0.6-1.2-0.3
				C87.9,41.6,87.5,42,87.7,42.5z M89.3,41.8c0.1,0.2-0.1,0.3-0.5,0.5c-0.4,0.2-0.7,0.1-0.7,0c-0.1-0.2,0.1-0.3,0.5-0.5
				C89,41.7,89.2,41.7,89.3,41.8z"/>
			<path id="XMLID_77_" class="st7" d="M87,40.6c0.2,0.5,0.7,0.5,1.2,0.3c0.5-0.2,0.9-0.6,0.7-1.1c-0.2-0.5-0.7-0.6-1.2-0.3
				C87.2,39.8,86.8,40.1,87,40.6z M88.6,40c0.1,0.2-0.1,0.3-0.5,0.5c-0.4,0.2-0.7,0.1-0.7,0c-0.1-0.2,0.1-0.3,0.5-0.5
				C88.3,39.8,88.5,39.8,88.6,40z"/>
			<polygon id="XMLID_76_" class="st7" points="86.8,39.4 87.2,39.2 86.9,38.9 86.9,38.9 88.3,38.4 88.2,38 86.3,38.7 86.4,39 			
				"/>
			<path id="XMLID_75_" class="st7" d="M87.3,36.9l-0.2-0.1c-0.3-0.2-0.7-0.3-1-0.2c-0.3,0.1-0.5,0.5-0.3,0.9
				c0.1,0.3,0.3,0.4,0.4,0.5l0.3-0.2c-0.1-0.1-0.2-0.2-0.3-0.3c-0.1-0.2,0-0.4,0.2-0.4c0.2-0.1,0.5,0,1,0.3l0.3,0.2l0.3-0.1L87.4,36
				l-0.4,0.1L87.3,36.9L87.3,36.9L87.3,36.9z"/>
			<path id="XMLID_72_" class="st7" d="M85.1,35.6c0.2,0.4,0.6,0.6,0.9,0.4c0.4-0.1,0.5-0.5,0.4-0.8c-0.1-0.2-0.2-0.3-0.3-0.3l0,0
				c0.2,0,0.3,0,0.4,0.1c0.1,0.1,0.2,0.2,0.3,0.3c0,0.1,0.1,0.1,0.1,0.2l0.3-0.1c0-0.1,0-0.1-0.1-0.2c-0.1-0.3-0.3-0.5-0.5-0.6
				c-0.3-0.1-0.6-0.1-1,0C85.2,34.7,84.9,35.1,85.1,35.6z M85.8,35c0.1,0,0.2,0.1,0.2,0.2c0.1,0.2,0,0.3-0.2,0.4
				c-0.2,0.1-0.4,0-0.4-0.1c-0.1-0.2,0.1-0.3,0.3-0.4C85.7,35,85.8,35,85.8,35z"/>
			<path id="XMLID_71_" class="st7" d="M85,33c0,0.2,0,0.4,0.1,0.5c0,0,0,0.1,0.1,0.1l-0.3,0.1L84.6,33l-0.4,0.1l0.4,1l1-0.2
				c0-0.1-0.1-0.1-0.1-0.2c-0.1-0.4-0.1-0.6,0.1-0.6c0.2-0.1,0.4,0.1,0.4,0.3c0.1,0.2,0.1,0.4,0.1,0.5l0.4,0c0-0.1,0-0.3-0.1-0.6
				c-0.2-0.5-0.6-0.7-1-0.5C85.2,32.7,85.1,32.8,85,33z"/>
			<path id="XMLID_70_" class="st7" d="M73.5,37l9.9-3.8l-0.3-0.7c-0.3-0.9-1.4-1.4-2.3-1L74.2,34c-0.9,0.3-1.4,1.4-1,2.3L73.5,37
				L73.5,37z"/>
		</g>
	</g>
	<g id="XMLID_3_">
		<path id="XMLID_67_" class="st9" d="M89.1,92c0-0.7,0.5-1.2,1.2-1.2c-0.7,0-1.2-0.5-1.2-1.2c0-0.7,0.5-1.2,1.2-1.2
			c-0.7,0-1.2-0.5-1.2-1.2s0.5-1.2,1.2-1.2c-0.7,0-1.2-0.5-1.2-1.2c0-0.7,0.5-1.2,1.2-1.2c-0.7,0-1.2-0.5-1.2-1.2
			c0-0.7,0.5-1.2,1.2-1.2c-0.7,0-1.2-0.5-1.2-1.2s0.5-1.2,1.2-1.2c-0.7,0-1.2-0.5-1.2-1.2s0.5-1.2,1.2-1.2c-0.7,0-1.2-0.5-1.2-1.2
			c0-0.7,0.5-1.2,1.2-1.2c-0.7,0-1.2-0.5-1.2-1.2c0-0.7,0.5-1.2,1.2-1.2c-0.7,0-1.2-0.5-1.2-1.2s0.5-1.2,1.2-1.2
			c-0.7,0-1.2-0.5-1.2-1.2s0.5-1.2,1.2-1.2c-0.7,0-1.2-0.5-1.2-1.2c0-0.7,0.5-1.2,1.2-1.2c-0.7,0-1.2-0.5-1.2-1.2
			c0-0.7,0.5-1.2,1.2-1.2c-0.7,0-1.2-0.5-1.2-1.2c0-0.5,0.3-0.9,0.7-1.1c-2.8-0.3-5-2.7-5-5.5H22.2c0,2.9-2.2,5.3-5.1,5.5
			c0.4,0.2,0.7,0.6,0.7,1.1c0,0.7-0.5,1.2-1.2,1.2v0c0.6,0,1.2,0.5,1.2,1.2c0,0.7-0.5,1.2-1.2,1.2v0c0.6,0,1.2,0.5,1.2,1.2
			c0,0.7-0.5,1.2-1.2,1.2v0c0.6,0,1.2,0.5,1.2,1.2s-0.5,1.2-1.2,1.2v0c0.6,0,1.2,0.5,1.2,1.2s-0.5,1.2-1.2,1.2v0
			c0.6,0,1.2,0.5,1.2,1.2c0,0.7-0.5,1.2-1.2,1.2v0c0.6,0,1.2,0.5,1.2,1.2c0,0.7-0.5,1.2-1.2,1.2v0c0.6,0,1.2,0.5,1.2,1.2
			s-0.5,1.2-1.2,1.2v0c0.6,0,1.2,0.5,1.2,1.2s-0.5,1.2-1.2,1.2v0c0.6,0,1.2,0.5,1.2,1.2c0,0.7-0.5,1.2-1.2,1.2v0
			c0.6,0,1.2,0.5,1.2,1.2S17.3,86,16.6,86v0c0.6,0,1.2,0.5,1.2,1.2s-0.5,1.2-1.2,1.2v0c0.6,0,1.2,0.5,1.2,1.2s-0.5,1.2-1.2,1.2v0
			c0.6,0,1.2,0.5,1.2,1.2c0,0.5-0.3,0.9-0.7,1.1c2.9,0.2,5.1,2.6,5.1,5.5h62.6c0-2.9,2.2-5.3,5.1-5.5C89.4,92.9,89.1,92.5,89.1,92z"
			/>
		<path id="XMLID_66_" class="st10" d="M79.6,92.8H28.2c-3.1,0-5.5-2.5-5.5-5.5V65.8c0-3.1,2.5-5.5,5.5-5.5h51.4
			c3.1,0,5.5,2.5,5.5,5.5v21.5C85.1,90.3,82.7,92.8,79.6,92.8z"/>
		<rect id="XMLID_65_" x="31.5" y="60.2" class="st11" width="0.5" height="32.7"/>
		<rect id="XMLID_64_" x="75.9" y="60.2" class="st11" width="0.5" height="32.7"/>
		<path id="XMLID_62_" class="st11" d="M33.2,69.8h4.6v1.3h-1.4v11.7h-1.6V71.1h-1.6V69.8z"/>
		<path id="XMLID_60_" class="st11" d="M40.6,69.8h1.7v13h-1.7V69.8z"/>
		<path id="XMLID_58_" class="st11" d="M45.8,73.6c0-1,0.1-1.7,0.3-2.2c0.2-0.5,0.4-0.8,0.6-1c0.5-0.5,1.1-0.7,2-0.7
			c1.2,0,2,0.5,2.4,1.5c0.2,0.6,0.3,1.3,0.3,2.3v1.4h-1.6v-1.4c0-0.8,0-1.4-0.1-1.7c-0.1-0.3-0.2-0.5-0.4-0.6S48.8,71,48.6,71
			c-0.4,0-0.7,0.2-0.9,0.6c-0.2,0.4-0.3,1-0.3,1.8V79c0,1,0.1,1.7,0.2,2.1c0.2,0.4,0.4,0.6,0.9,0.6s0.7-0.2,0.9-0.6
			c0.1-0.4,0.2-1.1,0.2-2.1v-1.4h1.6V79c0,1.4-0.2,2.4-0.6,3c-0.4,0.6-1.1,1-2.1,1c-1,0-1.7-0.3-2.1-1c-0.4-0.7-0.6-1.7-0.6-3V73.6z
			"/>
		<path id="XMLID_56_" class="st11" d="M58.7,69.8h1.7l-2.6,6.4l2.8,6.6h-1.7l-2.6-6.2v6.2h-1.7v-13h1.7V76L58.7,69.8z"/>
		<path id="XMLID_54_" class="st11" d="M62.9,69.8h4.2v1.3h-2.6v4.4H67v1.3h-2.4v4.7h2.6v1.3h-4.2V69.8z"/>
		<path id="XMLID_52_" class="st11" d="M69.4,69.8H74v1.3h-1.4v11.7h-1.6V71.1h-1.6V69.8z"/>
		<rect id="XMLID_51_" x="33.6" y="68.7" class="st11" width="40.4" height="0.5"/>
		<rect id="XMLID_50_" x="33.6" y="83.8" class="st11" width="40.4" height="0.5"/>
		<rect id="XMLID_49_" x="33.6" y="62.5" class="st11" width="40.4" height="3.6"/>
		<rect id="XMLID_48_" x="33.6" y="86.8" class="st11" width="40.4" height="3.6"/>
		<path id="XMLID_45_" class="st11" d="M28.7,62.2c0.5,0,0.9,0.1,1.2,0.3c0.3,0.2,0.4,0.5,0.4,1c0,0.5-0.1,0.8-0.4,1
			c-0.3,0.2-0.6,0.3-1.2,0.3h-2.8c-0.5,0-0.9-0.1-1.2-0.3c-0.3-0.2-0.4-0.5-0.4-1s0.1-0.8,0.4-1c0.3-0.2,0.7-0.3,1.2-0.3H28.7z
			 M28.8,64c0.6,0,0.9-0.1,0.9-0.4c0,0,0-0.1,0-0.2c0-0.1,0-0.2,0-0.2s-0.1-0.1-0.2-0.2C29.3,63,29.1,63,28.8,63h-2.8c0,0,0,0,0,0
			c-0.5,0-0.8,0.1-0.9,0.2c-0.1,0.1-0.1,0.2-0.1,0.3s0,0.2,0,0.2c0,0,0,0.1,0.1,0.1c0.1,0.2,0.4,0.2,0.9,0.2c0,0,0,0,0,0H28.8z"/>
		<path id="XMLID_43_" class="st11" d="M27.4,67.9c-0.2,0.4-0.7,0.7-1.5,0.7c-0.6,0-1-0.1-1.3-0.3s-0.4-0.5-0.4-1
			c0-0.4,0.1-0.8,0.4-0.9c0.3-0.2,0.7-0.3,1.2-0.3h0.3v0.7h-0.3c-0.4,0-0.7,0-0.8,0.1c-0.1,0.1-0.2,0.2-0.2,0.4s0.1,0.4,0.2,0.4
			c0.2,0.1,0.5,0.1,0.9,0.1c0.4,0,0.7,0,0.9-0.1c0.2-0.1,0.3-0.3,0.3-0.5V67h0.5v0.2c0,0.2,0,0.3,0.1,0.4c0.1,0.2,0.4,0.3,0.9,0.3
			c0,0,0,0,0,0c0.4,0,0.6,0,0.8-0.1c0.1-0.1,0.2-0.2,0.2-0.4c0-0.2-0.1-0.3-0.2-0.4c-0.1-0.1-0.4-0.1-0.7-0.1h-0.1v-0.7h0.1
			c0.5,0,0.9,0.1,1.2,0.3c0.2,0.2,0.4,0.5,0.4,0.9c0,0.4-0.1,0.7-0.4,0.9c-0.3,0.2-0.6,0.3-1.1,0.3C28,68.6,27.6,68.4,27.4,67.9z"/>
		<path id="XMLID_40_" class="st11" d="M28.7,69.9c0.5,0,0.9,0.1,1.2,0.3c0.3,0.2,0.4,0.5,0.4,1c0,0.5-0.1,0.8-0.4,1
			c-0.3,0.2-0.6,0.3-1.2,0.3h-2.8c-0.5,0-0.9-0.1-1.2-0.3c-0.3-0.2-0.4-0.5-0.4-1s0.1-0.8,0.4-1c0.3-0.2,0.7-0.3,1.2-0.3H28.7z
			 M28.8,71.7c0.6,0,0.9-0.1,0.9-0.4c0,0,0-0.1,0-0.2c0-0.1,0-0.2,0-0.2s-0.1-0.1-0.2-0.2c-0.1-0.1-0.3-0.1-0.6-0.1h-2.8
			c0,0,0,0,0,0c-0.5,0-0.8,0.1-0.9,0.2c-0.1,0.1-0.1,0.2-0.1,0.3s0,0.2,0,0.2c0,0,0,0.1,0.1,0.1c0.1,0.2,0.4,0.2,0.9,0.2
			c0,0,0,0,0,0H28.8z"/>
		<path id="XMLID_38_" class="st11" d="M28.2,73.9c0.9,0,1.5,0.1,1.7,0.3c0.1,0.1,0.1,0.2,0.2,0.2c0.1,0.2,0.1,0.4,0.1,0.7
			c0,0.7-0.5,1-1.6,1c-0.5,0-1.1-0.1-1.6-0.4c-0.2-0.1-0.4-0.3-0.7-0.4c-0.5-0.3-1-0.5-1.5-0.6v1.4h-0.5V74h0.3
			c0.4,0,1.1,0.2,1.9,0.7c0,0,0.1,0.1,0.4,0.2c0.3,0.2,0.4,0.2,0.5,0.3c0.1,0.1,0.3,0.1,0.5,0.2c0.2,0,0.5,0.1,0.7,0.1
			c0.2,0,0.4,0,0.6-0.1c0.1,0,0.2-0.1,0.3-0.1c0-0.1,0.1-0.1,0.1-0.2c0-0.1,0-0.1,0-0.2c-0.1-0.2-0.4-0.3-1-0.3h-0.8v-0.7H28.2z"/>
		<path id="XMLID_36_" class="st11" d="M30.2,77.5V80h-0.5c0,0-0.2-0.1-0.6-0.2c-0.3-0.1-0.7-0.3-1.1-0.4c-1.2-0.4-2.5-0.6-3.7-0.7
			v-0.8c1.2,0.1,2.5,0.4,3.9,0.9c0.5,0.1,0.8,0.3,1,0.4c0.2,0.1,0.3,0.1,0.3,0.1v-1.8H30.2z"/>
		<path id="XMLID_32_" class="st11" d="M28.8,81.3c0.5,0,0.9,0.1,1.1,0.3c0.2,0.2,0.3,0.5,0.3,0.9c0,0.4-0.1,0.7-0.3,0.9
			c-0.2,0.2-0.6,0.3-1.1,0.3c-0.7,0-1.1-0.2-1.3-0.5c-0.1,0.2-0.3,0.3-0.6,0.4s-0.6,0.1-0.9,0.1h-0.2c-0.5,0-0.9-0.1-1.1-0.3
			s-0.3-0.5-0.3-0.9c0-0.4,0.1-0.7,0.3-0.9c0.2-0.2,0.6-0.3,1.1-0.3c0,0,0.2,0,0.4,0c0.2,0,0.5,0,0.8,0.1c0.3,0.1,0.5,0.2,0.6,0.4
			C27.7,81.4,28.1,81.3,28.8,81.3z M26,82.9c0.4,0,0.7,0,0.9-0.1c0.2-0.1,0.3-0.2,0.3-0.3c0-0.1-0.1-0.3-0.3-0.4
			C26.7,82,26.4,82,26,82h-0.2c-0.4,0-0.6,0-0.7,0.1c-0.1,0.1-0.2,0.2-0.2,0.4c0,0.2,0,0.3,0.1,0.4c0.1,0.1,0.2,0.1,0.4,0.1
			c0.2,0,0.3,0,0.5,0H26z M27.8,82.7c0.1,0.1,0.2,0.1,0.3,0.2c0.2,0,0.4,0.1,0.6,0.1s0.4,0,0.6,0c0.1,0,0.2,0,0.3-0.1
			c0.1,0,0.1-0.1,0.1-0.1c0-0.1,0-0.1,0-0.2c0-0.1,0-0.2-0.1-0.2c-0.1-0.1-0.4-0.2-0.9-0.2c-0.5,0-0.8,0.1-1,0.2
			c-0.1,0.1-0.1,0.1-0.1,0.2C27.7,82.6,27.7,82.6,27.8,82.7z"/>
		<path id="XMLID_29_" class="st11" d="M28.7,85c0.5,0,0.9,0.1,1.2,0.3c0.3,0.2,0.4,0.5,0.4,1c0,0.5-0.1,0.8-0.4,1
			c-0.3,0.2-0.6,0.3-1.2,0.3h-2.8c-0.5,0-0.9-0.1-1.2-0.3c-0.3-0.2-0.4-0.5-0.4-1s0.1-0.8,0.4-1C25,85,25.4,85,25.9,85H28.7z
			 M28.8,86.8c0.6,0,0.9-0.1,0.9-0.4c0,0,0-0.1,0-0.2c0-0.1,0-0.2,0-0.2c0-0.1-0.1-0.1-0.2-0.2c-0.1-0.1-0.3-0.1-0.6-0.1h-2.8
			c0,0,0,0,0,0c-0.5,0-0.8,0.1-0.9,0.2c-0.1,0.1-0.1,0.2-0.1,0.3c0,0.1,0,0.2,0,0.2c0,0,0,0.1,0.1,0.1c0.1,0.2,0.4,0.2,0.9,0.2
			c0,0,0,0,0,0H28.8z"/>
		<path id="XMLID_26_" class="st11" d="M27.7,89.5c0.2,0.2,0.3,0.4,0.3,0.8c0,0.4-0.1,0.6-0.4,0.8c-0.3,0.2-0.7,0.2-1.4,0.2h-0.4
			c-0.5,0-0.9-0.1-1.2-0.3c-0.3-0.2-0.4-0.5-0.4-1c0-0.6,0.2-1,0.7-1.2c0.3-0.1,0.6-0.2,1.1-0.2h2.4c0.6,0,1.1,0.1,1.3,0.3
			c0.3,0.2,0.4,0.5,0.4,1c0,0.4-0.1,0.8-0.4,0.9c-0.2,0.2-0.6,0.2-1.2,0.2h-0.2v-0.7h0.1c0.5,0,0.8,0,0.9-0.1
			c0.1-0.1,0.1-0.2,0.1-0.4c0-0.2-0.1-0.3-0.2-0.4c-0.2-0.1-0.5-0.1-0.9-0.1H27.7z M26.3,90.6c0.4,0,0.7,0,0.9-0.1
			c0.2-0.1,0.3-0.2,0.3-0.4c0-0.1,0-0.3-0.1-0.4s-0.1-0.2-0.2-0.2H26c-0.4,0-0.7,0-0.8,0.1c-0.2,0.1-0.2,0.2-0.2,0.4
			c0,0.1,0,0.3,0.1,0.3c0.1,0.1,0.4,0.2,0.9,0.2H26.3z"/>
		<path id="XMLID_23_" class="st11" d="M82.2,62.2c0.5,0,0.9,0.1,1.2,0.3c0.3,0.2,0.4,0.5,0.4,1c0,0.5-0.1,0.8-0.4,1
			c-0.3,0.2-0.6,0.3-1.2,0.3h-2.8c-0.5,0-0.9-0.1-1.2-0.3s-0.4-0.5-0.4-1s0.1-0.8,0.4-1c0.3-0.2,0.7-0.3,1.2-0.3H82.2z M82.3,64
			c0.6,0,0.9-0.1,0.9-0.4c0,0,0-0.1,0-0.2c0-0.1,0-0.2,0-0.2s-0.1-0.1-0.2-0.2C82.8,63,82.6,63,82.3,63h-2.8c0,0,0,0,0,0
			c-0.5,0-0.8,0.1-0.9,0.2c-0.1,0.1-0.1,0.2-0.1,0.3s0,0.2,0,0.2c0,0,0,0.1,0.1,0.1c0.1,0.2,0.4,0.2,0.9,0.2c0,0,0,0,0,0H82.3z"/>
		<path id="XMLID_21_" class="st11" d="M81,67.9c-0.2,0.4-0.7,0.7-1.5,0.7c-0.6,0-1-0.1-1.3-0.3s-0.4-0.5-0.4-1
			c0-0.4,0.1-0.8,0.4-0.9c0.3-0.2,0.7-0.3,1.2-0.3h0.3v0.7h-0.3c-0.4,0-0.7,0-0.8,0.1c-0.1,0.1-0.2,0.2-0.2,0.4s0.1,0.4,0.2,0.4
			c0.2,0.1,0.5,0.1,0.9,0.1s0.7,0,0.9-0.1c0.2-0.1,0.3-0.3,0.3-0.5V67h0.5v0.2c0,0.2,0,0.3,0.1,0.4c0.1,0.2,0.4,0.3,0.9,0.3
			c0,0,0,0,0,0c0.4,0,0.6,0,0.8-0.1c0.1-0.1,0.2-0.2,0.2-0.4c0-0.2-0.1-0.3-0.2-0.4c-0.1-0.1-0.4-0.1-0.7-0.1h-0.1v-0.7h0.1
			c0.5,0,0.9,0.1,1.2,0.3c0.2,0.2,0.4,0.5,0.4,0.9c0,0.4-0.1,0.7-0.4,0.9c-0.3,0.2-0.6,0.3-1.1,0.3C81.5,68.6,81.1,68.4,81,67.9z"/>
		<path id="XMLID_18_" class="st11" d="M82.2,69.9c0.5,0,0.9,0.1,1.2,0.3c0.3,0.2,0.4,0.5,0.4,1c0,0.5-0.1,0.8-0.4,1
			c-0.3,0.2-0.6,0.3-1.2,0.3h-2.8c-0.5,0-0.9-0.1-1.2-0.3s-0.4-0.5-0.4-1s0.1-0.8,0.4-1c0.3-0.2,0.7-0.3,1.2-0.3H82.2z M82.3,71.7
			c0.6,0,0.9-0.1,0.9-0.4c0,0,0-0.1,0-0.2c0-0.1,0-0.2,0-0.2s-0.1-0.1-0.2-0.2c-0.1-0.1-0.3-0.1-0.6-0.1h-2.8c0,0,0,0,0,0
			c-0.5,0-0.8,0.1-0.9,0.2c-0.1,0.1-0.1,0.2-0.1,0.3s0,0.2,0,0.2c0,0,0,0.1,0.1,0.1c0.1,0.2,0.4,0.2,0.9,0.2c0,0,0,0,0,0H82.3z"/>
		<path id="XMLID_16_" class="st11" d="M81.8,73.9c0.9,0,1.5,0.1,1.7,0.3c0.1,0.1,0.1,0.2,0.2,0.2c0.1,0.2,0.1,0.4,0.1,0.7
			c0,0.7-0.5,1-1.6,1c-0.5,0-1.1-0.1-1.6-0.4c-0.2-0.1-0.4-0.3-0.7-0.4c-0.5-0.3-1-0.5-1.5-0.6v1.4h-0.5V74h0.3
			c0.4,0,1.1,0.2,1.9,0.7c0,0,0.1,0.1,0.4,0.2c0.3,0.2,0.4,0.2,0.5,0.3c0.1,0.1,0.3,0.1,0.5,0.2c0.2,0,0.5,0.1,0.7,0.1
			c0.2,0,0.4,0,0.6-0.1c0.1,0,0.2-0.1,0.3-0.1c0-0.1,0.1-0.1,0.1-0.2c0-0.1,0-0.1,0-0.2c-0.1-0.2-0.4-0.3-1-0.3h-0.8v-0.7H81.8z"/>
		<path id="XMLID_14_" class="st11" d="M83.7,77.5V80h-0.5c0,0-0.2-0.1-0.6-0.2c-0.3-0.1-0.7-0.3-1.1-0.4c-1.2-0.4-2.5-0.6-3.7-0.7
			v-0.8c1.2,0.1,2.5,0.4,3.9,0.9c0.5,0.1,0.8,0.3,1,0.4s0.3,0.1,0.3,0.1v-1.8H83.7z"/>
		<path id="XMLID_10_" class="st11" d="M82.3,81.3c0.5,0,0.9,0.1,1.1,0.3c0.2,0.2,0.3,0.5,0.3,0.9c0,0.4-0.1,0.7-0.3,0.9
			c-0.2,0.2-0.6,0.3-1.1,0.3c-0.7,0-1.1-0.2-1.3-0.5c-0.1,0.2-0.3,0.3-0.6,0.4c-0.3,0.1-0.6,0.1-0.9,0.1h-0.2
			c-0.5,0-0.9-0.1-1.1-0.3s-0.3-0.5-0.3-0.9c0-0.4,0.1-0.7,0.3-0.9c0.2-0.2,0.6-0.3,1.1-0.3c0,0,0.2,0,0.4,0c0.2,0,0.5,0,0.8,0.1
			c0.3,0.1,0.5,0.2,0.6,0.4C81.2,81.4,81.7,81.3,82.3,81.3z M79.6,82.9c0.4,0,0.7,0,0.9-0.1c0.2-0.1,0.3-0.2,0.3-0.3
			c0-0.1-0.1-0.3-0.3-0.4C80.2,82,79.9,82,79.6,82h-0.2c-0.4,0-0.6,0-0.7,0.1c-0.1,0.1-0.2,0.2-0.2,0.4c0,0.2,0,0.3,0.1,0.4
			c0.1,0.1,0.2,0.1,0.4,0.1c0.2,0,0.3,0,0.5,0H79.6z M81.3,82.7c0.1,0.1,0.2,0.1,0.3,0.2c0.2,0,0.4,0.1,0.6,0.1s0.4,0,0.6,0
			c0.1,0,0.2,0,0.3-0.1c0.1,0,0.1-0.1,0.1-0.1c0-0.1,0-0.1,0-0.2c0-0.1,0-0.2-0.1-0.2c-0.1-0.1-0.4-0.2-0.9-0.2
			c-0.5,0-0.8,0.1-1,0.2c-0.1,0.1-0.1,0.1-0.1,0.2C81.2,82.6,81.2,82.6,81.3,82.7z"/>
		<path id="XMLID_7_" class="st11" d="M82.2,85c0.5,0,0.9,0.1,1.2,0.3s0.4,0.5,0.4,1c0,0.5-0.1,0.8-0.4,1c-0.3,0.2-0.6,0.3-1.2,0.3
			h-2.8c-0.5,0-0.9-0.1-1.2-0.3c-0.3-0.2-0.4-0.5-0.4-1s0.1-0.8,0.4-1c0.3-0.2,0.7-0.3,1.2-0.3H82.2z M82.3,86.8
			c0.6,0,0.9-0.1,0.9-0.4c0,0,0-0.1,0-0.2c0-0.1,0-0.2,0-0.2c0-0.1-0.1-0.1-0.2-0.2c-0.1-0.1-0.3-0.1-0.6-0.1h-2.8c0,0,0,0,0,0
			c-0.5,0-0.8,0.1-0.9,0.2c-0.1,0.1-0.1,0.2-0.1,0.3c0,0.1,0,0.2,0,0.2c0,0,0,0.1,0.1,0.1c0.1,0.2,0.4,0.2,0.9,0.2c0,0,0,0,0,0H82.3
			z"/>
		<path id="XMLID_4_" class="st11" d="M81.3,89.5c0.2,0.2,0.3,0.4,0.3,0.8c0,0.4-0.1,0.6-0.4,0.8c-0.3,0.2-0.7,0.2-1.4,0.2h-0.4
			c-0.5,0-0.9-0.1-1.2-0.3c-0.3-0.2-0.4-0.5-0.4-1c0-0.6,0.2-1,0.7-1.2c0.3-0.1,0.6-0.2,1.1-0.2H82c0.6,0,1.1,0.1,1.3,0.3
			c0.3,0.2,0.4,0.5,0.4,1c0,0.4-0.1,0.8-0.4,0.9c-0.2,0.2-0.6,0.2-1.2,0.2H82v-0.7h0.1c0.5,0,0.8,0,0.9-0.1c0.1-0.1,0.1-0.2,0.1-0.4
			c0-0.2-0.1-0.3-0.2-0.4c-0.2-0.1-0.5-0.1-0.9-0.1H81.3z M79.8,90.6c0.4,0,0.7,0,0.9-0.1c0.2-0.1,0.3-0.2,0.3-0.4
			c0-0.1,0-0.3-0.1-0.4s-0.1-0.2-0.2-0.2h-1.2c-0.4,0-0.7,0-0.8,0.1c-0.2,0.1-0.2,0.2-0.2,0.4c0,0.1,0,0.3,0.1,0.3
			c0.1,0.1,0.4,0.2,0.9,0.2H79.8z"/>
	</g>
</g>
</svg>
