<svg xmlns="http://www.w3.org/2000/svg" viewBox="0 0 100 110"><defs><style>.cls-1,.cls-21,.cls-22,.cls-23,.cls-24,.cls-30,.cls-5,.cls-7,.cls-8,.cls-9{fill:none;}.cls-2{fill:#242424;}.cls-3{fill:#21afe6;}.cls-4{fill:#0670b7;}.cls-5,.cls-7{stroke:#fcd3b0;}.cls-21,.cls-22,.cls-23,.cls-24,.cls-30,.cls-5,.cls-7,.cls-8,.cls-9{stroke-linejoin:round;}.cls-22,.cls-23,.cls-5,.cls-7{stroke-width:3.5px;}.cls-6{fill:#fcd3b0;}.cls-23,.cls-24,.cls-30,.cls-7,.cls-8{stroke-linecap:round;}.cls-8{stroke:#eb660c;}.cls-21,.cls-24,.cls-8{stroke-width:5px;}.cls-9{stroke:#bed141;stroke-width:7px;}.cls-10{fill:#eb660c;}.cls-11{fill:#e8b47d;}.cls-12{fill:#edba8b;}.cls-13{fill:#ab8564;}.cls-14{fill:#facab0;}.cls-15{fill:#f0f0f0;}.cls-16{fill:#d67aab;}.cls-17{fill:#e2a9ca;}.cls-18{fill:#ffcd1d;}.cls-19{fill:#ca428c;}.cls-20{fill:#231f20;}.cls-21,.cls-22,.cls-23{stroke:#ab8564;}.cls-24{stroke:#d67aab;}.cls-25{fill:#9f7c5d;}.cls-26{fill:#cbe5f8;}.cls-27{fill:#8dcbf0;}.cls-28{fill:#fff;}.cls-29{fill:#aaaf18;}.cls-30{stroke:#aaaf18;stroke-width:4px;}.cls-31{fill:#824c25;}.cls-32{fill:#d6333b;}.cls-33{fill:#f9c2a1;}</style></defs><title>Fichier 5</title><g id="Calque_2" data-name="Calque 2"><g id="bg"><rect class="cls-1" width="100" height="110"/></g><g id="girl_-_copie" data-name="girl - copie"><path class="cls-2" d="M16.2,13.2c-2.1-5-11.3-5.6-11.3,3.1,0,7.1,4.3,7,4.3,11.3a2.67,2.67,0,0,1-2,2.5s.4,2.2,3.4,2.2A3.77,3.77,0,0,0,14,30.6Z"/><path class="cls-2" d="M24.4,13.2c2.1-5,11.3-5.6,11.3,3.1,0,7.1-4.3,7-4.3,11.3a2.67,2.67,0,0,0,2,2.5S33,32.3,30,32.3a3.77,3.77,0,0,1-3.4-1.7Z"/><rect class="cls-3" x="9.9" y="67.1" width="8.8" height="32.9"/><rect class="cls-3" x="21.2" y="67.1" width="8.8" height="32.9"/><rect class="cls-3" x="9.9" y="67.1" width="20" height="7.2"/><circle class="cls-3" cx="19.9" cy="71.3" r="4.8"/><path class="cls-4" d="M25.1,67.9a1.58,1.58,0,0,0,.1.4,3.71,3.71,0,0,0,.2.9,7,7,0,0,0,1.3,2.6,9,9,0,0,0,2.1,1.9,9.22,9.22,0,0,0,.8.5,1.24,1.24,0,0,1,.3.2,9.35,9.35,0,0,1-1.3-.4,6.67,6.67,0,0,1-2.4-1.9,10,10,0,0,1-.8-1.4,10.26,10.26,0,0,1-.4-1.4v-1A1.58,1.58,0,0,0,25.1,67.9Z"/><path class="cls-4" d="M14.8,67.9v1.4a4.29,4.29,0,0,1-.4,1.4,6.38,6.38,0,0,1-.8,1.4A6.94,6.94,0,0,1,11.2,74a9.35,9.35,0,0,1-1.3.4,1.24,1.24,0,0,1,.3-.2,9.22,9.22,0,0,0,.8-.5,7.4,7.4,0,0,0,2.1-1.9,7.92,7.92,0,0,0,1.3-2.6,5.07,5.07,0,0,0,.2-.9A1.09,1.09,0,0,1,14.8,67.9Z"/><polyline class="cls-5" points="9 39.2 4 53.6 5.3 65.9"/><circle class="cls-6" cx="5.3" cy="65.9" r="3.3"/><path class="cls-5" d="M19.4,48"/><line class="cls-7" x1="30.1" y1="39.2" x2="36" y2="53.9"/><polyline class="cls-8" points="32.3 44.5 30.1 39.2 25.2 37.1 16.5 37.1 13.9 37.1 9 39.2 7.1 44.5"/><path class="cls-9" d="M7.1,69.8"/><polygon class="cls-10" points="8.5 72.3 31.1 72.3 29.5 57.9 10.1 57.9 8.5 72.3"/><polygon class="cls-10" points="10.4 42.6 29.2 42.6 29.5 57.9 20 63 10.1 57.9 10.4 42.6"/><polygon class="cls-10" points="8.5 42.9 31.1 42.9 24.7 34.3 14.8 34.3 8.5 42.9"/><path class="cls-6" d="M24.4,36.4a7.56,7.56,0,0,1-.9-3.3H16.9a7.56,7.56,0,0,1-.9,3.3l4.2,6.3h0Z"/><path class="cls-11" d="M20.2,34.9a6.74,6.74,0,0,0,3.4-1c0-.2-.1-.5-.1-.8H16.9c0,.3-.1.6-.1.8A6.74,6.74,0,0,0,20.2,34.9Z"/><path class="cls-6" d="M20.2,33.9c4.7,0,8.3-4.9,8.3-13.1,0-10.2-3-12.6-8.3-12.6s-8.3,2.4-8.3,12.6C11.9,29,15.5,33.9,20.2,33.9Z"/><path class="cls-6" d="M20.3,8.2V33.9c4.7-.1,8.2-5,8.2-13.1C28.5,10.6,25.6,8.2,20.3,8.2Z"/><polygon class="cls-6" points="18.6 20.6 15.7 20.9 16 18.9 18.6 18.9 18.6 20.6"/><polygon class="cls-6" points="21.9 20.6 24.7 20.9 24.5 18.9 21.9 18.9 21.9 20.6"/><path class="cls-2" d="M28.3,19.2h.8s1.2-15.3-9.2-13c-9.6-1.6-9.2,9-8.8,13h1.2s.4-4,1.7-4.7c-.5,1.3,0,4.7,0,4.7h4.3l.9-2.6.5,2.4H25a27.82,27.82,0,0,0-.3-4.9s1.6,3.4,1.5,4.8Z"/><path class="cls-12" d="M22.1,25.8a.31.31,0,0,1-.1.2c-.1.1-.1.2-.3.4a1.54,1.54,0,0,1-.6.4c-.2.1-.5.1-.8.2a2.35,2.35,0,0,1-.8-.2,2.09,2.09,0,0,1-.6-.4c-.1-.1-.2-.3-.3-.4a.31.31,0,0,1-.1-.2.31.31,0,0,1,.2.1c.1.1.2.1.4.2a3.5,3.5,0,0,0,1.2.3,2.38,2.38,0,0,0,1.2-.3c.2-.1.3-.1.4-.2A.31.31,0,0,1,22.1,25.8Z"/><path class="cls-12" d="M22.8,28.9a1.56,1.56,0,0,1-.7.5,4.78,4.78,0,0,1-1.9.5,5.3,5.3,0,0,1-1.9-.5,1.56,1.56,0,0,1-.7-.5,7.35,7.35,0,0,0,.8.2c.2.1.5.1.8.2s.6.1.9.1a5.23,5.23,0,0,0,1.8-.3A6.59,6.59,0,0,0,22.8,28.9Z"/><circle class="cls-13" cx="23.7" cy="22.2" r="0.9"/><circle class="cls-13" cx="17.1" cy="22.2" r="0.9"/><circle class="cls-14" cx="24.9" cy="25.6" r="1.4"/><circle class="cls-14" cx="15.7" cy="25.6" r="1.4"/><polygon class="cls-15" points="16.5 33.9 14.3 33.9 20.2 42.8 16.5 33.9"/><polygon class="cls-15" points="23.8 33.9 26.1 34.2 20.2 42.8 23.8 33.9"/><path class="cls-16" d="M19,102.4H9.4l.2-1.4a2,2,0,0,1,2-1.6h5.1a2,2,0,0,1,2,1.6Z"/><path class="cls-17" d="M19.5,105H8.9v-1.9A1.11,1.11,0,0,1,10,102h8.3a1.11,1.11,0,0,1,1.1,1.1V105Z"/><path class="cls-16" d="M30.6,102.4H21l.3-1.4a2,2,0,0,1,2-1.6h5.1a2,2,0,0,1,2,1.6Z"/><path class="cls-17" d="M31.1,105H20.5v-1.9a1.11,1.11,0,0,1,1.1-1.1h8.3a1.11,1.11,0,0,1,1.1,1.1V105Z"/><path class="cls-18" d="M32.2,46.7l-.7,2.7,2.9,2.8a.91.91,0,0,0,1.2,0h0a.82.82,0,0,0,.1-1.2Z"/><path class="cls-18" d="M22.8,60.2h0a1.15,1.15,0,0,0,1.5-.9l1.5-5.6-3.2-.9-.8,5.9A1.54,1.54,0,0,0,22.8,60.2Z"/><path class="cls-18" d="M26.1,61.1h0a1.22,1.22,0,0,1-.9-1.5L26.7,54l3.2.9-2.3,5.5A1.19,1.19,0,0,1,26.1,61.1Z"/><path class="cls-19" d="M32.4,45.8l-7.2-2-4.6,8.8a.88.88,0,0,0,.6,1.3L26,55.2l4.8,1.3a.94.94,0,0,0,1.2-.9Z"/><path class="cls-2" d="M24.7,38.4s-1.8.1-4.2,2.8l-2.1-3A6.92,6.92,0,0,1,25,37.1C29.3,38.2,24.7,38.4,24.7,38.4Z"/><path class="cls-2" d="M35.6,41.3s1.5,1.1,2.2,4.5l3.3-1.5A6.91,6.91,0,0,0,36,40C31.7,38.8,35.6,41.3,35.6,41.3Z"/><ellipse class="cls-18" cx="29.96" cy="40.5" rx="5.9" ry="7" transform="translate(-17.01 58.69) rotate(-74.67)"/><path class="cls-2" d="M32.6,34.8h0c-.2-.1-.3-.1-.4-.2s-.4-.1-.6-.2a1.27,1.27,0,0,0-.6-.1.6.6,0,0,1-.4-.1h0a7.59,7.59,0,0,0-7.9,4.1c4.1,1.1,8-.4,8.8-3.3-.8,2.9,1.8,6.1,5.9,7.3A7.57,7.57,0,0,0,32.6,34.8Z"/><circle class="cls-15" cx="27.1" cy="51.2" r="2.3"/><path class="cls-19" d="M26.1,52.1c-.1,0-.2-.1-.3-.2a.48.48,0,0,1,.2-.6l1.7-1a.45.45,0,1,1,.4.8l-1.7,1Z"/><path class="cls-19" d="M27.4,52.5c-.1,0-.2-.1-.3-.2l-1-1.7a.45.45,0,0,1,.8-.4l1,1.7a.48.48,0,0,1-.2.6Z"/><circle class="cls-6" cx="19.4" cy="48" r="3.3"/><line class="cls-7" x1="36" y1="53.9" x2="19.4" y2="48"/><path class="cls-18" d="M24.9,44.7l-.7,2.7-3.9.9a.91.91,0,0,1-1.1-.6h0a.81.81,0,0,1,.5-1.1Z"/></g><g id="Calque_15" data-name="Calque 15"><path class="cls-20" d="M78.5,5A13.5,13.5,0,1,0,92,18.5,13.5,13.5,0,0,0,78.5,5Zm0,24.66A11.23,11.23,0,1,1,89.74,18.44,11.23,11.23,0,0,1,78.52,29.66Z"/><path class="cls-20" d="M83.32,17.32H79.68v-3.7a.72.72,0,0,0-.75-.76h-.89c-.66,0-.72.66-.72.83v3.64H73.6a.67.67,0,0,0-.75.68v1a.66.66,0,0,0,.75.66h3.71v3.71a.67.67,0,0,0,.68.75h1a.66.66,0,0,0,.66-.75V19.68h3.7a.72.72,0,0,0,.76-.75V18C84.14,17.38,83.49,17.32,83.32,17.32Z"/></g><g id="little_girl_-_copie_2" data-name="little girl - copie 2"><polygon class="cls-16" points="71.1 63.9 86.3 63.9 86.6 81.2 78.9 85.7 70.8 81.2 71.1 63.9"/><line class="cls-21" x1="74.8" y1="101.8" x2="74.8" y2="89.2"/><line class="cls-21" x1="82.8" y1="101.8" x2="82.8" y2="89.2"/><polyline class="cls-22" points="70.3 64.7 67.6 72.5 68 81.2"/><path class="cls-5" d="M78.4,72.5"/><line class="cls-23" x1="87.8" y1="64.7" x2="93.1" y2="77.7"/><polyline class="cls-24" points="89.7 69.4 87.8 64.7 83.5 62.9 75.8 62.9 73.6 62.9 70.3 64.7"/><path class="cls-9" d="M67.5,86.8"/><polygon class="cls-16" points="69.5 92 87.9 92 86.6 76.4 70.9 76.4 69.5 92"/><path class="cls-13" d="M82.8,62.3a7.23,7.23,0,0,1-.8-2.9H76.2a5.57,5.57,0,0,1-.8,2.9l3.7,5.6h0Z"/><path class="cls-25" d="M79.1,60.9a5.29,5.29,0,0,0,3-.9c0-.2-.1-.4-.1-.7H76.2c0,.3-.1.5-.1.7A5.29,5.29,0,0,0,79.1,60.9Z"/><path class="cls-13" d="M79.1,60.1c3.8,0,6.6-3.7,6.6-9.8,0-7.6-2.4-9.4-6.6-9.4s-6.6,1.8-6.6,9.4C72.4,56.4,75.3,60.1,79.1,60.1Z"/><path class="cls-13" d="M73.1,53.2s-1,1-1.5-1.3-.5-3.7.4-4a.6.6,0,0,1,.8.3Z"/><path class="cls-13" d="M85.2,53.2s1,1,1.5-1.3.5-3.7-.4-4a.6.6,0,0,0-.8.3Z"/><path class="cls-13" d="M79.2,40.8V60c3.7-.1,6.6-3.7,6.6-9.8C85.7,42.6,83.4,40.8,79.2,40.8Z"/><polygon class="cls-13" points="77.8 49.4 75.5 49.7 75.7 48.1 77.8 48.1 77.8 49.4"/><polygon class="cls-13" points="80.4 49.4 82.7 49.7 82.5 48.1 80.4 48.1 80.4 49.4"/><path class="cls-2" d="M85.5,48.4h.7s.9-9.6-7.3-7.8c-7.6-1.3-7.4,4.7-7,7.9h1s.3-3.2,1.3-3.8c-.4,1,0,3.8,0,3.8h3.4l.7-2.1.4,1.9h4.1a21.79,21.79,0,0,0-.2-3.9s1.3,2.7,1.2,3.8Z"/><path class="cls-25" d="M80.6,53.6l-.1.1c0,.1-.1.2-.2.3s-.3.2-.4.3a1.27,1.27,0,0,1-.6.1,1.82,1.82,0,0,1-1.1-.4c-.1-.1-.2-.2-.2-.3a.1.1,0,0,0-.1-.1l.4.2a2.92,2.92,0,0,0,.9.2,2.39,2.39,0,0,0,.9-.2.37.37,0,0,1,.3-.1A.31.31,0,0,1,80.6,53.6Z"/><path class="cls-25" d="M81.2,56a2.48,2.48,0,0,1-.6.4,3,3,0,0,1-3,0A2.48,2.48,0,0,1,77,56s.3.1.7.2c.2,0,.4.1.7.1s.5.1.7.1a5.9,5.9,0,0,0,1.4-.2C80.9,56.1,81.2,56,81.2,56Z"/><circle class="cls-2" cx="81.9" cy="50.7" r="0.7"/><circle class="cls-2" cx="76.6" cy="50.7" r="0.7"/><circle class="cls-25" cx="82.9" cy="53.4" r="1.1"/><circle class="cls-25" cx="75.6" cy="53.4" r="1.1"/><polygon class="cls-15" points="75.9 60 73.9 61.1 79.1 67.8 75.9 60"/><polygon class="cls-15" points="82.3 60 84.3 61.3 79.1 67.8 82.3 60"/><path class="cls-15" d="M78,103.3H69.5l.2-1.2a1.81,1.81,0,0,1,1.7-1.4H76a1.65,1.65,0,0,1,1.7,1.4Z"/><path class="cls-26" d="M78.4,105.6H69.1v-1.7a1,1,0,0,1,1-1h7.4a1,1,0,0,1,1,1v1.7Z"/><path class="cls-15" d="M88.2,103.3H79.7l.2-1.2a1.81,1.81,0,0,1,1.7-1.4h4.5a1.65,1.65,0,0,1,1.7,1.4Z"/><path class="cls-26" d="M88.7,105.6H79.4v-1.7a1,1,0,0,1,1-1h7.4a1,1,0,0,1,1,1v1.7Z"/><path class="cls-18" d="M89.6,71.3,89,73.7l2.5,2.5a.78.78,0,0,0,1.1,0h0a.79.79,0,0,0,.1-1.1Z"/><path class="cls-18" d="M81.4,83.2h0a1.14,1.14,0,0,0,1.4-.8l1.3-4.9-2.8-.8L80.6,82A1,1,0,0,0,81.4,83.2Z"/><path class="cls-18" d="M84.3,84h0a1.23,1.23,0,0,1-.8-1.4l1.3-4.9,2.8.8-2.1,4.9A.9.9,0,0,1,84.3,84Z"/><path class="cls-27" d="M89.9,70.5l-6.4-1.7-4,7.7a.88.88,0,0,0,.5,1.2l4.2,1.2,4.2,1.2a.8.8,0,0,0,1-.8Z"/><path class="cls-2" d="M83.1,64s-1.6.1-3.7,2.4l-1.8-2.7a6.19,6.19,0,0,1,5.8-1C87.1,63.8,83.1,64,83.1,64Z"/><path class="cls-2" d="M92.7,66.6s1.3.9,1.9,4l2.9-1.3A6.17,6.17,0,0,0,93,65.5C89.3,64.4,92.7,66.6,92.7,66.6Z"/><ellipse class="cls-18" cx="87.73" cy="65.89" rx="5.2" ry="6.2" transform="translate(0.99 133.08) rotate(-74.67)"/><path class="cls-2" d="M90,60.8h0c-.1-.1-.2-.1-.4-.1s-.3-.1-.5-.2-.3-.1-.5-.1a.37.37,0,0,1-.3-.1h0a6.86,6.86,0,0,0-7,3.6c3.6.9,7-.3,7.7-2.9-.7,2.5,1.6,5.4,5.2,6.4A6.7,6.7,0,0,0,90,60.8Z"/><circle class="cls-15" cx="85.1" cy="75.2" r="2.1"/><path class="cls-19" d="M84.3,76.1a.22.22,0,0,1-.2-.2.48.48,0,0,1,.2-.6l1.5-.9a.45.45,0,1,1,.4.8l-1.6.8A.37.37,0,0,1,84.3,76.1Z"/><path class="cls-19" d="M85.5,76.4a.22.22,0,0,1-.2-.2l-.9-1.5a.45.45,0,0,1,.8-.4l.9,1.5a.48.48,0,0,1-.2.6Z"/><circle class="cls-13" cx="85.8" cy="74.8" r="3"/><line class="cls-22" x1="93.1" y1="77.7" x2="85.8" y2="74.8"/><path class="cls-18" d="M83.3,69.6,82.6,72l-3.4.8a.72.72,0,0,1-.9-.5h0a.88.88,0,0,1,.5-1Z"/><path class="cls-2" d="M82.2,41.4l2.7-1.9a1.82,1.82,0,0,1,2.3.2l4.4,4.2-4,1.2L85.7,41l-3.8,2.6"/><path class="cls-2" d="M75.7,41.4,73,39.5a1.82,1.82,0,0,0-2.3.2l-4.4,4.2,4,1.2L72.2,41,76,43.6"/><circle class="cls-13" cx="68" cy="81.2" r="3"/><path class="cls-16" d="M82.7,40.7c0,.6-1.2,1.1-1.8,1.1a1.1,1.1,0,1,1,0-2.2C81.5,39.6,82.7,40.1,82.7,40.7Z"/><path class="cls-16" d="M82.7,40.7c0-.6,1.2-1.1,1.8-1.1a1.1,1.1,0,1,1,0,2.2C83.9,41.8,82.7,41.3,82.7,40.7Z"/><path class="cls-16" d="M82.7,40.7c.5.3.3,1.6,0,2.1a1.1,1.1,0,1,1-1.9-1.1C81.2,41.2,82.2,40.4,82.7,40.7Z"/><path class="cls-16" d="M82.7,40.7c-.5-.3-.3-1.6,0-2.1a1.1,1.1,0,1,1,1.9,1.1C84.3,40.2,83.2,41,82.7,40.7Z"/><path class="cls-16" d="M82.7,40.7c-.5.3-.3,1.6,0,2.1a1.1,1.1,0,1,0,1.9-1.1C84.3,41.2,83.2,40.4,82.7,40.7Z"/><path class="cls-16" d="M82.7,40.7c.5-.3.3-1.6,0-2.1a1.1,1.1,0,1,0-1.9,1.1C81.2,40.2,82.2,41,82.7,40.7Z"/><circle class="cls-28" cx="82.7" cy="40.7" r="0.7"/></g><g id="kid_boy_-_copie_2" data-name="kid boy - copie 2"><rect class="cls-27" x="45.6" y="87.5" width="6.8" height="11.8"/><rect class="cls-27" x="54.2" y="87.5" width="6.8" height="11.8"/><rect class="cls-27" x="45.6" y="87.5" width="15.4" height="5.6"/><path class="cls-15" d="M52.5,102.4H45.1l.2-1.1a1.6,1.6,0,0,1,1.5-1.3h3.9a1.5,1.5,0,0,1,1.5,1.3Z"/><path class="cls-26" d="M52.9,104.5H44.7V103a.9.9,0,0,1,.9-.9H52a.9.9,0,0,1,.9.9Z"/><path class="cls-15" d="M61.5,102.4H54.1l.2-1.1a1.6,1.6,0,0,1,1.5-1.3h3.9a1.5,1.5,0,0,1,1.5,1.3Z"/><path class="cls-26" d="M61.8,104.5H53.6V103a.9.9,0,0,1,.9-.9H61a.9.9,0,0,1,.9.9v1.5Z"/><polygon class="cls-29" points="61 88.6 60.7 71.5 45.4 71.5 45.2 88.6 61 88.6"/><polyline class="cls-30" points="44.6 72.3 41.3 79.1 40.4 71.3"/><path class="cls-5" d="M52.7,80"/><line class="cls-30" x1="62.2" y1="72.3" x2="64.9" y2="79.3"/><polyline class="cls-30" points="62.2 72.3 57.8 70.4 50.2 70.4 47.9 70.4 44.6 72.3"/><line class="cls-30" x1="64.9" y1="79.3" x2="60.2" y2="82.4"/><path class="cls-31" d="M41,72.9h0a.65.65,0,0,1-.6-.6V56.7h1.2V72.3A.65.65,0,0,1,41,72.9Z"/><path class="cls-32" d="M41,27A11,11,0,0,0,30,38c0,8.2,4.9,16.1,11,16.1s11-8,11-16.1A11,11,0,0,0,41,27Z"/><path class="cls-32" d="M42.5,54.9h-3l-.5,2a.7.7,0,0,0,.7.9h2.5a.7.7,0,0,0,.7-.9Z"/><path class="cls-31" d="M42.2,53.7H39.8a.6.6,0,0,0,0,1.2h2.4a.65.65,0,0,0,.6-.6A.58.58,0,0,0,42.2,53.7Z"/><circle class="cls-6" cx="40.4" cy="71.3" r="3"/><path class="cls-28" d="M58.9,68.2l-.1-.1a3,3,0,0,0-1-.2h-.5a4.12,4.12,0,0,1-4,2.6,4.22,4.22,0,0,1-4-2.6H47.5a5.85,5.85,0,0,0,5.7,4.3A5.72,5.72,0,0,0,58.9,68.2Z"/><path class="cls-33" d="M57.4,67.4l-.8-.2H50l-.8.2-.3.1a4.62,4.62,0,0,0,4.4,3.4,4.5,4.5,0,0,0,4.4-3.4Z"/><ellipse class="cls-6" cx="53.5" cy="59.5" rx="8.1" ry="9.9"/><polygon class="cls-6" points="52 57.6 49.4 57.8 49.6 56.1 52 56.1 52 57.6"/><polygon class="cls-6" points="54.9 57.6 57.4 57.8 57.2 56.1 54.9 56.1 54.9 57.6"/><path class="cls-25" d="M55.1,62.2a.1.1,0,0,1-.1.1q0,.15-.3.3a2.19,2.19,0,0,1-.5.3,1.48,1.48,0,0,1-.7.1c-.2,0-.5-.1-.7-.1a2.19,2.19,0,0,1-.5-.3l-.3-.3a.1.1,0,0,0-.1-.1,4.21,4.21,0,0,0,.5.2,3.55,3.55,0,0,0,1,.2,2.51,2.51,0,0,0,1-.2c.1-.1.3-.1.3-.2Z"/><path class="cls-25" d="M55.7,65a6.12,6.12,0,0,1-.6.5,5.76,5.76,0,0,1-1.7.5,2.86,2.86,0,0,1-1.7-.5,1.67,1.67,0,0,1-.6-.5s.3.1.7.2a1.7,1.7,0,0,0,.7.1c.3,0,.6.1.8.1a8.75,8.75,0,0,0,1.6-.2A7.35,7.35,0,0,0,55.7,65Z"/><circle class="cls-13" cx="55.7" cy="59" r="0.8"/><circle class="cls-13" cx="51.1" cy="59" r="0.8"/><circle class="cls-14" cx="57.6" cy="62" r="1.3"/><circle class="cls-14" cx="49.4" cy="62" r="1.3"/><path class="cls-6" d="M46,61.8s-1.2.8-1.9-1.1-.6-3.1.5-3.3a1.19,1.19,0,0,1,1,.2Z"/><path class="cls-6" d="M61,61.8s1.2.8,1.9-1.1.6-3.1-.5-3.3a1.19,1.19,0,0,0-1,.2Z"/><path class="cls-26" d="M55.3,61.9a1.48,1.48,0,0,0-.7.1,3.4,3.4,0,0,1-2,0,1.7,1.7,0,0,0-.7-.1c-1.6,0-2.9,1.6-2.9,3.5s1.3,3.5,2.9,3.5a1.48,1.48,0,0,0,.7-.1,3.4,3.4,0,0,1,2,0,1.7,1.7,0,0,0,.7.1c1.6,0,2.9-1.6,2.9-3.5S56.9,61.9,55.3,61.9Z"/><path class="cls-27" d="M53.6,69.4a4,4,0,0,1-3.9-3,1.39,1.39,0,0,1,.2-1.1,1.23,1.23,0,0,1,1-.5h5.3a1.23,1.23,0,0,1,1,.5,1.39,1.39,0,0,1,.2,1.1A3.7,3.7,0,0,1,53.6,69.4ZM51,66c-.1,0-.1,0-.1.1a2.78,2.78,0,0,0,2.8,2.2,2.88,2.88,0,0,0,2.8-2.2.1.1,0,0,0-.1-.1Z"/><circle class="cls-28" cx="53.6" cy="65.4" r="2.3"/><path class="cls-15" d="M52.4,65.4a2.17,2.17,0,0,1,1.7-2.2c-.2,0-.4-.1-.6-.1a2.3,2.3,0,1,0,0,4.6,1.27,1.27,0,0,0,.6-.1A2.27,2.27,0,0,1,52.4,65.4Z"/><circle class="cls-6" cx="60.2" cy="82.4" r="3"/><path class="cls-12" d="M54.9,61.1l-.1.1c0,.1-.1.2-.2.3s-.3.2-.4.3a1.45,1.45,0,0,1-.7.2,1.82,1.82,0,0,1-1.1-.4c-.1-.1-.2-.2-.2-.3a.1.1,0,0,0-.1-.1l.4.2a2.92,2.92,0,0,0,.9.2,2.39,2.39,0,0,0,.9-.2.37.37,0,0,1,.3-.1Z"/><path class="cls-18" d="M49.3,51c1.8,2.2,10.1,2.9,11.9,2.4C60,51.1,55.5,47,49.3,51Z"/><rect class="cls-28" x="45.1" y="88.6" width="16.1" height="1.5"/></g></g></svg>