<svg xmlns="http://www.w3.org/2000/svg" viewBox="0 0 100 110"><defs><style>.cls-1,.cls-19,.cls-20,.cls-23,.cls-3,.cls-4,.cls-5,.cls-6,.cls-7,.cls-8{fill:none;}.cls-2{fill:#d67aab;}.cls-3,.cls-4,.cls-6{stroke:#ab8564;}.cls-19,.cls-20,.cls-3,.cls-4,.cls-5,.cls-6,.cls-7,.cls-8{stroke-linejoin:round;}.cls-20,.cls-3,.cls-7{stroke-width:5px;}.cls-19,.cls-4,.cls-5,.cls-6{stroke-width:3.5px;}.cls-19,.cls-5{stroke:#fcd3b0;}.cls-19,.cls-20,.cls-6,.cls-7{stroke-linecap:round;}.cls-7{stroke:#d67aab;}.cls-8{stroke:#bed141;stroke-width:7px;}.cls-9{fill:#ab8564;}.cls-10{fill:#9f7c5d;}.cls-11{fill:#242424;}.cls-12{fill:#f0f0f0;}.cls-13{fill:#cbe5f8;}.cls-14{fill:#ffcd1d;}.cls-15{fill:#8dcbf0;}.cls-16{fill:#ca428c;}.cls-17{fill:#fff;}.cls-18{fill:#fcd3b0;}.cls-20{stroke:#8dcbf0;}.cls-21{fill:#393939;}.cls-22{fill:#212121;}.cls-23{stroke:#212121;stroke-miterlimit:10;}.cls-24{fill:#edba8b;}.cls-25{fill:#dc843b;}.cls-26{fill:#facab0;}</style></defs><title>Fichier 2</title><g id="Calque_2" data-name="Calque 2"><g id="bg"><rect class="cls-1" width="100" height="110"/></g><g id="little_girl" data-name="little girl"><polygon class="cls-2" points="22.1 63.9 37.3 63.9 37.6 81.2 29.9 85.7 21.8 81.2 22.1 63.9"/><line class="cls-3" x1="25.8" y1="101.8" x2="25.8" y2="89.2"/><line class="cls-3" x1="33.8" y1="101.8" x2="33.8" y2="89.2"/><polyline class="cls-4" points="21.3 64.7 18.6 72.5 19 81.2"/><path class="cls-5" d="M29.4,72.5"/><line class="cls-6" x1="38.8" y1="64.7" x2="44.1" y2="77.7"/><polyline class="cls-7" points="40.7 69.4 38.8 64.7 34.5 62.9 26.8 62.9 24.6 62.9 21.3 64.7"/><path class="cls-8" d="M18.5,86.8"/><polygon class="cls-2" points="20.5 92 38.9 92 37.6 76.4 21.9 76.4 20.5 92"/><path class="cls-9" d="M33.8,62.3a7.23,7.23,0,0,1-.8-2.9H27.2a5.57,5.57,0,0,1-.8,2.9l3.7,5.6h0Z"/><path class="cls-10" d="M30.1,60.9a5.29,5.29,0,0,0,3-.9c0-.2-.1-.4-.1-.7H27.2c0,.3-.1.5-.1.7A5.29,5.29,0,0,0,30.1,60.9Z"/><path class="cls-9" d="M30.1,60.1c3.8,0,6.6-3.7,6.6-9.8,0-7.6-2.4-9.4-6.6-9.4s-6.6,1.8-6.6,9.4C23.4,56.4,26.3,60.1,30.1,60.1Z"/><path class="cls-9" d="M24.1,53.2s-1,1-1.5-1.3-.5-3.7.4-4a.6.6,0,0,1,.8.3Z"/><path class="cls-9" d="M36.2,53.2s1,1,1.5-1.3.5-3.7-.4-4a.6.6,0,0,0-.8.3Z"/><path class="cls-9" d="M30.2,40.8V60c3.7-.1,6.6-3.7,6.6-9.8C36.7,42.6,34.4,40.8,30.2,40.8Z"/><polygon class="cls-9" points="28.8 49.4 26.5 49.7 26.7 48.1 28.8 48.1 28.8 49.4"/><polygon class="cls-9" points="31.4 49.4 33.7 49.7 33.5 48.1 31.4 48.1 31.4 49.4"/><path class="cls-11" d="M36.5,48.4h.7s.9-9.6-7.3-7.8c-7.6-1.3-7.4,4.7-7,7.9h1s.3-3.2,1.3-3.8c-.4,1,0,3.8,0,3.8h3.4l.7-2.1.4,1.9h4.1a21.79,21.79,0,0,0-.2-3.9s1.3,2.7,1.2,3.8Z"/><path class="cls-10" d="M31.6,53.6l-.1.1c0,.1-.1.2-.2.3s-.3.2-.4.3a1.27,1.27,0,0,1-.6.1,1.82,1.82,0,0,1-1.1-.4c-.1-.1-.2-.2-.2-.3a.1.1,0,0,0-.1-.1l.4.2a2.92,2.92,0,0,0,.9.2,2.39,2.39,0,0,0,.9-.2.37.37,0,0,1,.3-.1A.31.31,0,0,1,31.6,53.6Z"/><path class="cls-10" d="M32.2,56a2.48,2.48,0,0,1-.6.4,3,3,0,0,1-3,0A2.48,2.48,0,0,1,28,56s.3.1.7.2c.2,0,.4.1.7.1s.5.1.7.1a5.9,5.9,0,0,0,1.4-.2C31.9,56.1,32.2,56,32.2,56Z"/><circle class="cls-11" cx="32.9" cy="50.7" r="0.7"/><circle class="cls-11" cx="27.6" cy="50.7" r="0.7"/><circle class="cls-10" cx="33.9" cy="53.4" r="1.1"/><circle class="cls-10" cx="26.6" cy="53.4" r="1.1"/><polygon class="cls-12" points="26.9 60 24.9 61.1 30.1 67.8 26.9 60"/><polygon class="cls-12" points="33.3 60 35.3 61.3 30.1 67.8 33.3 60"/><path class="cls-12" d="M29,103.3H20.5l.2-1.2a1.81,1.81,0,0,1,1.7-1.4H27a1.65,1.65,0,0,1,1.7,1.4Z"/><path class="cls-13" d="M29.4,105.6H20.1v-1.7a1,1,0,0,1,1-1h7.4a1,1,0,0,1,1,1v1.7Z"/><path class="cls-12" d="M39.2,103.3H30.7l.2-1.2a1.81,1.81,0,0,1,1.7-1.4h4.5a1.65,1.65,0,0,1,1.7,1.4Z"/><path class="cls-13" d="M39.7,105.6H30.4v-1.7a1,1,0,0,1,1-1h7.4a1,1,0,0,1,1,1v1.7Z"/><path class="cls-14" d="M40.6,71.3,40,73.7l2.5,2.5a.78.78,0,0,0,1.1,0h0a.79.79,0,0,0,.1-1.1Z"/><path class="cls-14" d="M32.4,83.2h0a1.14,1.14,0,0,0,1.4-.8l1.3-4.9-2.8-.8L31.6,82A1,1,0,0,0,32.4,83.2Z"/><path class="cls-14" d="M35.3,84h0a1.23,1.23,0,0,1-.8-1.4l1.3-4.9,2.8.8-2.1,4.9A.9.9,0,0,1,35.3,84Z"/><path class="cls-15" d="M40.9,70.5l-6.4-1.7-4,7.7a.88.88,0,0,0,.5,1.2l4.2,1.2,4.2,1.2a.8.8,0,0,0,1-.8Z"/><path class="cls-11" d="M34.1,64s-1.6.1-3.7,2.4l-1.8-2.7a6.19,6.19,0,0,1,5.8-1C38.1,63.8,34.1,64,34.1,64Z"/><path class="cls-11" d="M43.7,66.6s1.3.9,1.9,4l2.9-1.3A6.17,6.17,0,0,0,44,65.5C40.3,64.4,43.7,66.6,43.7,66.6Z"/><ellipse class="cls-14" cx="38.73" cy="65.89" rx="5.2" ry="6.2" transform="translate(-35.06 85.82) rotate(-74.67)"/><path class="cls-11" d="M41,60.8h0c-.1-.1-.2-.1-.4-.1s-.3-.1-.5-.2-.3-.1-.5-.1a.37.37,0,0,1-.3-.1h0a6.86,6.86,0,0,0-7,3.6c3.6.9,7-.3,7.7-2.9-.7,2.5,1.6,5.4,5.2,6.4A6.7,6.7,0,0,0,41,60.8Z"/><circle class="cls-12" cx="36.1" cy="75.2" r="2.1"/><path class="cls-16" d="M35.3,76.1a.22.22,0,0,1-.2-.2.48.48,0,0,1,.2-.6l1.5-.9a.45.45,0,1,1,.4.8l-1.6.8A.37.37,0,0,1,35.3,76.1Z"/><path class="cls-16" d="M36.5,76.4a.22.22,0,0,1-.2-.2l-.9-1.5a.45.45,0,0,1,.8-.4l.9,1.5a.48.48,0,0,1-.2.6Z"/><circle class="cls-9" cx="36.8" cy="74.8" r="3"/><line class="cls-4" x1="44.1" y1="77.7" x2="36.8" y2="74.8"/><path class="cls-14" d="M34.3,69.6,33.6,72l-3.4.8a.72.72,0,0,1-.9-.5h0a.88.88,0,0,1,.5-1Z"/><path class="cls-11" d="M33.2,41.4l2.7-1.9a1.82,1.82,0,0,1,2.3.2l4.4,4.2-4,1.2L36.7,41l-3.8,2.6"/><path class="cls-11" d="M26.7,41.4,24,39.5a1.82,1.82,0,0,0-2.3.2l-4.4,4.2,4,1.2L23.2,41,27,43.6"/><circle class="cls-9" cx="19" cy="81.2" r="3"/><path class="cls-2" d="M33.7,40.7c0,.6-1.2,1.1-1.8,1.1a1.1,1.1,0,1,1,0-2.2C32.5,39.6,33.7,40.1,33.7,40.7Z"/><path class="cls-2" d="M33.7,40.7c0-.6,1.2-1.1,1.8-1.1a1.1,1.1,0,1,1,0,2.2C34.9,41.8,33.7,41.3,33.7,40.7Z"/><path class="cls-2" d="M33.7,40.7c.5.3.3,1.6,0,2.1a1.1,1.1,0,1,1-1.9-1.1C32.2,41.2,33.2,40.4,33.7,40.7Z"/><path class="cls-2" d="M33.7,40.7c-.5-.3-.3-1.6,0-2.1a1.1,1.1,0,1,1,1.9,1.1C35.3,40.2,34.2,41,33.7,40.7Z"/><path class="cls-2" d="M33.7,40.7c-.5.3-.3,1.6,0,2.1a1.1,1.1,0,1,0,1.9-1.1C35.3,41.2,34.2,40.4,33.7,40.7Z"/><path class="cls-2" d="M33.7,40.7c.5-.3.3-1.6,0-2.1a1.1,1.1,0,1,0-1.9,1.1C32.2,40.2,33.2,41,33.7,40.7Z"/><circle class="cls-17" cx="33.7" cy="40.7" r="0.7"/></g><g id="boy"><polyline class="cls-5" points="61 40.8 56 55.2 57.3 67.5"/><circle class="cls-18" cx="57.3" cy="67.5" r="3.3"/><path class="cls-5" d="M71.4,49.6"/><line class="cls-19" x1="82.1" y1="40.8" x2="88" y2="55.5"/><polyline class="cls-20" points="85.2 46.1 82.1 40.8 77.2 38.7 68.5 38.7 65.9 38.7 61 40.8 59.1 46.1"/><polygon class="cls-18" points="66 98.3 69 98.3 70.2 74.1 63.1 74.1 66 98.3"/><polygon class="cls-18" points="77.1 98.3 74 98.3 72.9 74.1 79.9 74.1 77.1 98.3"/><rect class="cls-21" x="61.6" y="68.2" width="8.8" height="18.2"/><rect class="cls-21" x="72.8" y="68.2" width="8.8" height="18.2"/><rect class="cls-21" x="61.6" y="68.2" width="20" height="7.2"/><circle class="cls-21" cx="71.6" cy="72.4" r="4.8"/><path class="cls-8" d="M59.1,71.4"/><path class="cls-12" d="M70.6,102.7H61l.3-1.4a2,2,0,0,1,2-1.6h5.1a2,2,0,0,1,2,1.6Z"/><path class="cls-13" d="M71.1,105.4H60.5v-1.9a1.11,1.11,0,0,1,1.1-1.1H70a1.11,1.11,0,0,1,1.1,1.1Z"/><path class="cls-12" d="M82.2,102.7H72.6l.3-1.4a2,2,0,0,1,2-1.6H80a2,2,0,0,1,2,1.6Z"/><path class="cls-13" d="M82.7,105.4H72.1v-1.9a1.11,1.11,0,0,1,1.1-1.1h8.3a1.11,1.11,0,0,1,1.1,1.1v1.9Z"/><path class="cls-22" d="M75,75.8a1.24,1.24,0,0,0-.2.3,3.19,3.19,0,0,1-.6.7,4.13,4.13,0,0,1-1.1.7,1.85,1.85,0,0,1-.7.2,3.25,3.25,0,0,1-1.6,0,1.45,1.45,0,0,1-.7-.2,4.13,4.13,0,0,1-1.1-.7,1.87,1.87,0,0,1-.6-.7,1.24,1.24,0,0,0-.2-.3.44.44,0,0,0,.3.1,6.89,6.89,0,0,0,.8.3c.2.1.3.1.5.2a1.27,1.27,0,0,0,.6.1,4.87,4.87,0,0,0,1.2.1c.4,0,.8-.1,1.2-.1a1.27,1.27,0,0,1,.6-.1c.2-.1.4-.1.5-.2a6.89,6.89,0,0,0,.8-.3A.77.77,0,0,1,75,75.8Z"/><line class="cls-23" x1="71.6" y1="77.2" x2="71.6" y2="68.2"/><path class="cls-22" d="M76.7,69a1.58,1.58,0,0,0,.1.4,3.71,3.71,0,0,0,.2.9,7,7,0,0,0,1.3,2.6,9,9,0,0,0,2.1,1.9,9.22,9.22,0,0,0,.8.5,1.24,1.24,0,0,1,.3.2,4.46,4.46,0,0,1-1.2-.5,6.67,6.67,0,0,1-2.4-1.9,10,10,0,0,1-.8-1.4,10.26,10.26,0,0,1-.4-1.4V69Z"/><path class="cls-22" d="M66.4,69v1.4a4.29,4.29,0,0,1-.4,1.4,6.38,6.38,0,0,1-.8,1.4,6.94,6.94,0,0,1-2.4,1.9,9.35,9.35,0,0,1-1.3.4,1.24,1.24,0,0,1,.3-.2,9.22,9.22,0,0,0,.8-.5,7.4,7.4,0,0,0,2.1-1.9A7.92,7.92,0,0,0,66,70.3a5.07,5.07,0,0,0,.2-.9C66.4,69.1,66.4,69,66.4,69Z"/><polygon class="cls-15" points="60.5 73.9 83.1 73.9 81.5 59.5 62.1 59.5 60.5 73.9"/><polygon class="cls-15" points="62.4 44.2 81.2 44.2 81.5 59.5 72 64.6 62.1 59.5 62.4 44.2"/><polygon class="cls-15" points="60.5 44.5 83.1 44.5 76.7 35.9 66.8 35.9 60.5 44.5"/><path class="cls-18" d="M75.2,35.1a3.7,3.7,0,1,1-7.4,0v-.8l7.4-.4Z"/><path class="cls-24" d="M67.8,35.5a4.75,4.75,0,0,0,3.6,1.7,4.88,4.88,0,0,0,3.8-1.9V34l-7.4.2Z"/><path class="cls-18" d="M64.2,27.9s-1.2,1.3-1.8-1.8c-.6-3.3-.6-5.1.5-5.5a.69.69,0,0,1,.9.4Z"/><path class="cls-18" d="M71.5,35.4c4.5,0,7.9-4.7,7.9-12.5,0-9.7-2.8-12-7.9-12S63.6,13.2,63.6,23C63.6,30.7,67,35.4,71.5,35.4Z"/><path class="cls-18" d="M78.9,27.9s1.2,1.3,1.8-1.8c.6-3.3.6-5.1-.5-5.5a.69.69,0,0,0-.9.4Z"/><path class="cls-18" d="M71.6,11V35.4c4.4-.1,7.8-4.8,7.8-12.5C79.4,13.3,76.6,11,71.6,11Z"/><path class="cls-25" d="M66.4,22.1a.31.31,0,0,1,.1-.2c0-.1.2-.3.4-.5a1.61,1.61,0,0,1,.7-.4,2.92,2.92,0,0,1,.9-.2,2.39,2.39,0,0,1,.9.2,4.35,4.35,0,0,1,.7.4,1.76,1.76,0,0,1,.4.5.31.31,0,0,1,.1.2.31.31,0,0,1-.2-.1H70a9.85,9.85,0,0,0-2.8,0,4.33,4.33,0,0,0-.5.1Z"/><path class="cls-25" d="M73,22.1a.31.31,0,0,1,.1-.2c0-.1.2-.3.4-.5a1.61,1.61,0,0,1,.7-.4,2.92,2.92,0,0,1,.9-.2,2.39,2.39,0,0,1,.9.2,4.35,4.35,0,0,1,.7.4,1.76,1.76,0,0,1,.4.5.31.31,0,0,1,.1.2A.31.31,0,0,1,77,22a4.33,4.33,0,0,0-.5-.1,9.85,9.85,0,0,0-2.8,0,4.33,4.33,0,0,0-.5.1A.31.31,0,0,1,73,22.1Z"/><path class="cls-24" d="M73.4,27.7a.31.31,0,0,1-.1.2c-.1.1-.1.2-.3.4a1.54,1.54,0,0,1-.6.4c-.2.1-.5.1-.8.2a2.35,2.35,0,0,1-.8-.2,2.09,2.09,0,0,1-.6-.4c-.1-.1-.2-.3-.3-.4a.31.31,0,0,0,.1-.2.31.31,0,0,1,.2.1c.1.1.2.1.4.2a3.5,3.5,0,0,0,1.2.3A2.38,2.38,0,0,0,73,28c.2-.1.3-.1.4-.2C73.3,27.7,73.4,27.7,73.4,27.7Z"/><path class="cls-24" d="M74.1,30.8a1.56,1.56,0,0,1-.7.5,4.78,4.78,0,0,1-1.9.5,5.3,5.3,0,0,1-1.9-.5,1.56,1.56,0,0,1-.7-.5,7.35,7.35,0,0,0,.8.2c.2.1.5.1.8.2s.6.1.9.1a5.23,5.23,0,0,0,1.8-.3A1.72,1.72,0,0,0,74.1,30.8Z"/><circle class="cls-9" cx="75" cy="24.1" r="0.9"/><circle class="cls-9" cx="68.4" cy="24.1" r="0.9"/><circle class="cls-26" cx="76.3" cy="27.5" r="1.4"/><circle class="cls-26" cx="67.1" cy="27.5" r="1.4"/><path class="cls-21" d="M73.8,39.8c-.1,0-.2,0-.2.1a9.76,9.76,0,0,0-5.1,3.8h3.1Z"/><path class="cls-21" d="M67.9,47.9h-1V48c0,.4-.1.8-.1,1.2a9.67,9.67,0,0,0,1.7,5.5l1.7-2.9Z"/><path class="cls-21" d="M80.8,43.7h3.9a9.64,9.64,0,0,0-5.8-4,.37.37,0,0,1-.3-.1l-.1.2Z"/><path class="cls-17" d="M84.7,43.7H80.8l-2.2-3.9.1-.2a13.55,13.55,0,0,0-2-.2,12.61,12.61,0,0,0-2.8.4l-2.2,3.9H68.6a2.09,2.09,0,0,1-.4.6,11.08,11.08,0,0,0-1.3,3.6h1l2.2,3.9-1.7,2.9c.1.1.1.2.2.3a10,10,0,0,0,4.8,3.5c.1,0,.1,0,.2.1l1.3-2.3h4.5l1.1,1.9h.1a9.42,9.42,0,0,0,3.5-2.7l.3-.3L83,52.5l2.2-3.9h1.1a8.44,8.44,0,0,0-1.6-4.9Z"/><path class="cls-21" d="M75,56.2l-1.3,2.3a9.29,9.29,0,0,0,2.9.5,9,9,0,0,0,4-.9l-1.1-1.9Z"/><path class="cls-21" d="M83,52.5,84.4,55a9.6,9.6,0,0,0,1.9-5.8v-.6H85.2Z"/><polygon class="cls-21" points="74.4 45.2 72.1 49 74.4 52.9 78.8 52.9 81.1 49 78.8 45.2 74.4 45.2"/><circle class="cls-18" cx="71.4" cy="49.6" r="3.3"/><line class="cls-19" x1="88" y1="55.5" x2="71.4" y2="49.6"/><path class="cls-25" d="M63.7,25.6c.7-4.3-3.4-8.7-.8-12.6,5-7.4,12.3-2.3,12.3-2.3,2.5-2,11.4,2.8,4.1,12.3,0,0,.7-4.5-2-6.3-1.9-1.3-2.2-2.3-2.2-2.3a9.49,9.49,0,0,1-4.4,5.2C67.4,21.3,66,22,63.7,25.6Z"/></g></g></svg>