<svg xmlns="http://www.w3.org/2000/svg" viewBox="0 0 101 103.5"><title>Fichier 1</title><g id="Calque_2" data-name="Calque 2"><g id="Calque_2-2" data-name="Calque 2"><rect width="101" height="103.5" style="fill:#fff"/></g><g id="Calque_1-2" data-name="Calque 1"><circle cx="50.75" cy="51.25" r="42.45" style="fill:#1f6fb8"/><g id="total-txt"><path d="M18.91,46.68H14.17V43.4H27.54v3.28H22.8V60.83h-4V46.68Z" style="fill:#fa9f00"/><path d="M44.88,51.94c0,5.78-3.45,9.23-8.54,9.23s-8.2-3.88-8.2-8.89c0-5.26,3.36-9.15,8.46-9.15C41.95,43.05,44.88,47,44.88,51.94Zm-12.6.17c0,3.45,1.64,5.87,4.23,5.87s4.23-2.5,4.23-6c0-3.19-1.47-5.87-4.23-5.87S32.29,48.75,32.29,52.11Z" style="fill:#fa9f00"/><path d="M50.15,46.68H45.4V43.4H58.77v3.28H54V60.83H50.15Z" style="fill:#fa9f00"/><path d="M63.17,56.34,62,60.83H57.91L63.17,43.4h5.18l5.44,17.43H69.47l-1.38-4.49Zm4.4-2.93L66.45,49.7c-.35-1-.6-2.33-.86-3.36H65.5c-.26,1-.52,2.33-.78,3.36l-1,3.71Z" style="fill:#fa9f00"/><path d="M76.12,43.31h4V57.46H87v3.28H76.12Z" style="fill:#fa9f00"/></g></g></g></svg>