<svg xmlns="http://www.w3.org/2000/svg" viewBox="0 0 100 110"><defs><style>.cls-1,.cls-6,.cls-7{fill:none;}.cls-2{fill:#8dcbf0;}.cls-3{fill:#f0f0f0;}.cls-4{fill:#cbe5f8;}.cls-5{fill:#aaaf18;}.cls-6{stroke:#aaaf18;stroke-linecap:round;stroke-width:4px;}.cls-6,.cls-7{stroke-linejoin:round;}.cls-7{stroke:#fcd3b0;stroke-width:3.5px;}.cls-8{fill:#824c25;}.cls-9{fill:#d6333b;}.cls-10{fill:#fcd3b0;}.cls-11{fill:#fff;}.cls-12{fill:#f9c2a1;}.cls-13{fill:#9f7c5d;}.cls-14{fill:#ab8564;}.cls-15{fill:#facab0;}.cls-16{fill:#edba8b;}.cls-17{fill:#ffcd1d;}</style></defs><title>Fichier 1</title><g id="Calque_2" data-name="Calque 2"><g id="bg"><rect class="cls-1" width="100" height="110"/></g><g id="kid_boy" data-name="kid boy"><rect class="cls-2" x="44.6" y="87.5" width="6.8" height="11.8"/><rect class="cls-2" x="53.2" y="87.5" width="6.8" height="11.8"/><rect class="cls-2" x="44.6" y="87.5" width="15.4" height="5.6"/><path class="cls-3" d="M51.5,102.4H44.1l.2-1.1a1.6,1.6,0,0,1,1.5-1.3h3.9a1.5,1.5,0,0,1,1.5,1.3Z"/><path class="cls-4" d="M51.9,104.5H43.7V103a.9.9,0,0,1,.9-.9H51a.9.9,0,0,1,.9.9Z"/><path class="cls-3" d="M60.5,102.4H53.1l.2-1.1a1.6,1.6,0,0,1,1.5-1.3h3.9a1.5,1.5,0,0,1,1.5,1.3Z"/><path class="cls-4" d="M60.8,104.5H52.6V103a.9.9,0,0,1,.9-.9H60a.9.9,0,0,1,.9.9v1.5Z"/><polygon class="cls-5" points="60 88.6 59.7 71.5 44.4 71.5 44.2 88.6 60 88.6"/><polyline class="cls-6" points="43.6 72.3 40.3 79.1 39.4 71.3"/><path class="cls-7" d="M51.7,80"/><line class="cls-6" x1="61.2" y1="72.3" x2="63.9" y2="79.3"/><polyline class="cls-6" points="61.2 72.3 56.8 70.4 49.2 70.4 46.9 70.4 43.6 72.3"/><line class="cls-6" x1="63.9" y1="79.3" x2="59.2" y2="82.4"/><path class="cls-8" d="M40,72.9h0a.65.65,0,0,1-.6-.6V56.7h1.2V72.3A.65.65,0,0,1,40,72.9Z"/><path class="cls-9" d="M40,27A11,11,0,0,0,29,38c0,8.2,4.9,16.1,11,16.1s11-8,11-16.1A11,11,0,0,0,40,27Z"/><path class="cls-9" d="M41.5,54.9h-3l-.5,2a.7.7,0,0,0,.7.9h2.5a.7.7,0,0,0,.7-.9Z"/><path class="cls-8" d="M41.2,53.7H38.8a.6.6,0,0,0,0,1.2h2.4a.65.65,0,0,0,.6-.6A.58.58,0,0,0,41.2,53.7Z"/><circle class="cls-10" cx="39.4" cy="71.3" r="3"/><path class="cls-11" d="M57.9,68.2l-.1-.1a3,3,0,0,0-1-.2h-.5a4.12,4.12,0,0,1-4,2.6,4.22,4.22,0,0,1-4-2.6H46.5a5.85,5.85,0,0,0,5.7,4.3A5.72,5.72,0,0,0,57.9,68.2Z"/><path class="cls-12" d="M56.4,67.4l-.8-.2H49l-.8.2-.3.1a4.62,4.62,0,0,0,4.4,3.4,4.5,4.5,0,0,0,4.4-3.4Z"/><ellipse class="cls-10" cx="52.5" cy="59.5" rx="8.1" ry="9.9"/><polygon class="cls-10" points="51 57.6 48.4 57.8 48.6 56.1 51 56.1 51 57.6"/><polygon class="cls-10" points="53.9 57.6 56.4 57.8 56.2 56.1 53.9 56.1 53.9 57.6"/><path class="cls-13" d="M54.1,62.2a.1.1,0,0,1-.1.1q0,.15-.3.3a2.19,2.19,0,0,1-.5.3,1.48,1.48,0,0,1-.7.1c-.2,0-.5-.1-.7-.1a2.19,2.19,0,0,1-.5-.3l-.3-.3a.1.1,0,0,0-.1-.1,4.21,4.21,0,0,0,.5.2,3.55,3.55,0,0,0,1,.2,2.51,2.51,0,0,0,1-.2c.1-.1.3-.1.3-.2Z"/><path class="cls-13" d="M54.7,65a6.12,6.12,0,0,1-.6.5,5.76,5.76,0,0,1-1.7.5,2.86,2.86,0,0,1-1.7-.5,1.67,1.67,0,0,1-.6-.5s.3.1.7.2a1.7,1.7,0,0,0,.7.1c.3,0,.6.1.8.1a8.75,8.75,0,0,0,1.6-.2A7.35,7.35,0,0,0,54.7,65Z"/><circle class="cls-14" cx="54.7" cy="59" r="0.8"/><circle class="cls-14" cx="50.1" cy="59" r="0.8"/><circle class="cls-15" cx="56.6" cy="62" r="1.3"/><circle class="cls-15" cx="48.4" cy="62" r="1.3"/><path class="cls-10" d="M45,61.8s-1.2.8-1.9-1.1-.6-3.1.5-3.3a1.19,1.19,0,0,1,1,.2Z"/><path class="cls-10" d="M60,61.8s1.2.8,1.9-1.1.6-3.1-.5-3.3a1.19,1.19,0,0,0-1,.2Z"/><path class="cls-4" d="M54.3,61.9a1.48,1.48,0,0,0-.7.1,3.4,3.4,0,0,1-2,0,1.7,1.7,0,0,0-.7-.1c-1.6,0-2.9,1.6-2.9,3.5s1.3,3.5,2.9,3.5a1.48,1.48,0,0,0,.7-.1,3.4,3.4,0,0,1,2,0,1.7,1.7,0,0,0,.7.1c1.6,0,2.9-1.6,2.9-3.5S55.9,61.9,54.3,61.9Z"/><path class="cls-2" d="M52.6,69.4a4,4,0,0,1-3.9-3,1.39,1.39,0,0,1,.2-1.1,1.23,1.23,0,0,1,1-.5h5.3a1.23,1.23,0,0,1,1,.5,1.39,1.39,0,0,1,.2,1.1A3.7,3.7,0,0,1,52.6,69.4ZM50,66c-.1,0-.1,0-.1.1a2.78,2.78,0,0,0,2.8,2.2,2.88,2.88,0,0,0,2.8-2.2.1.1,0,0,0-.1-.1Z"/><circle class="cls-11" cx="52.6" cy="65.4" r="2.3"/><path class="cls-3" d="M51.4,65.4a2.17,2.17,0,0,1,1.7-2.2c-.2,0-.4-.1-.6-.1a2.3,2.3,0,1,0,0,4.6,1.27,1.27,0,0,0,.6-.1A2.27,2.27,0,0,1,51.4,65.4Z"/><circle class="cls-10" cx="59.2" cy="82.4" r="3"/><path class="cls-16" d="M53.9,61.1l-.1.1c0,.1-.1.2-.2.3s-.3.2-.4.3a1.45,1.45,0,0,1-.7.2,1.82,1.82,0,0,1-1.1-.4c-.1-.1-.2-.2-.2-.3a.1.1,0,0,0-.1-.1l.4.2a2.92,2.92,0,0,0,.9.2,2.39,2.39,0,0,0,.9-.2.37.37,0,0,1,.3-.1Z"/><path class="cls-17" d="M48.3,51c1.8,2.2,10.1,2.9,11.9,2.4C59,51.1,54.5,47,48.3,51Z"/><rect class="cls-11" x="44.1" y="88.6" width="16.1" height="1.5"/></g></g></svg>