<?xml version="1.0" encoding="utf-8"?>
<!-- Generator: Adobe Illustrator 19.0.0, SVG Export Plug-In . SVG Version: 6.00 Build 0)  -->
<svg version="1.1" id="Calque_1" xmlns="http://www.w3.org/2000/svg" xmlns:xlink="http://www.w3.org/1999/xlink" x="0px" y="0px"
	 viewBox="0 0 100 100" style="enable-background:new 0 0 100 100;" xml:space="preserve">
<style type="text/css">
	.st0{fill:#3D5A99;}
	.st1{fill:#FFFFFF;}
	.st2{fill:#5FA9DE;}
</style>
<g id="XMLID_2_">
	<g id="XMLID_11_">
		<g id="XMLID_14_">
			<path id="XMLID_15_" class="st0" d="M32.2,12.2c-15.8,0-28.6,11.5-28.6,25.7c0,5.2,1.7,10.1,4.7,14.1C8,56.7,6.8,63.3,3.6,66.6
				c0,0,9.8-1.4,16.5-5.4c3.7,1.6,7.8,2.4,12.2,2.4c15.8,0,28.6-11.5,28.6-25.7S48.1,12.2,32.2,12.2z"/>
		</g>
		<g id="XMLID_12_">
			<path id="XMLID_13_" class="st1" d="M40.5,37.3h-6v21.8h-9V37.3h-4.3v-7.7h4.3v-5c0-3.5,1.7-9.1,9.1-9.1l6.7,0v7.4h-4.8
				c-0.8,0-1.9,0.4-1.9,2.1v4.5h6.7L40.5,37.3z"/>
		</g>
	</g>
	<g id="XMLID_3_">
		<g id="XMLID_9_">
			<path id="XMLID_10_" class="st2" d="M67.5,35.8c15.8,0,28.6,11.5,28.6,25.7c0,5.2-1.7,10.1-4.7,14.1c0.4,4.7,1.5,11.3,4.7,14.5
				c0,0-9.8-1.4-16.5-5.4c-3.7,1.6-7.8,2.4-12.2,2.4c-15.8,0-28.6-11.5-28.6-25.7S51.7,35.8,67.5,35.8z"/>
		</g>
		<g id="XMLID_4_">
			<g id="XMLID_5_">
				<path id="XMLID_6_" class="st1" d="M91.3,51.4c-1.6,0.7-3.3,1.2-5,1.4c1.8-1.1,3.2-2.8,3.8-4.8c-1.7,1-3.6,1.7-5.6,2.1
					c-1.6-1.7-3.9-2.8-6.4-2.8c-4.8,0-8.8,3.9-8.8,8.8c0,0.7,0.1,1.4,0.2,2c-7.3-0.4-13.7-3.8-18-9.1c-0.8,1.3-1.2,2.8-1.2,4.4
					c0,3,1.5,5.7,3.9,7.3c-1.4,0-2.8-0.4-4-1.1c0,0,0,0.1,0,0.1c0,4.2,3,7.8,7,8.6c-0.7,0.2-1.5,0.3-2.3,0.3c-0.6,0-1.1-0.1-1.6-0.2
					c1.1,3.5,4.3,6,8.2,6.1c-3,2.3-6.8,3.7-10.9,3.7c-0.7,0-1.4,0-2.1-0.1C52.5,80.5,57.1,82,62,82c16.1,0,24.9-13.3,24.9-24.9
					c0-0.4,0-0.8,0-1.1C88.6,54.7,90.1,53.1,91.3,51.4L91.3,51.4z"/>
			</g>
		</g>
	</g>
</g>
</svg>
