<?xml version="1.0" encoding="utf-8"?>
<!-- Generator: Adobe Illustrator 19.0.0, SVG Export Plug-In . SVG Version: 6.00 Build 0)  -->
<svg version="1.1" id="Calque_1" xmlns="http://www.w3.org/2000/svg" xmlns:xlink="http://www.w3.org/1999/xlink" x="0px" y="0px"
	 viewBox="0 0 100 100" style="enable-background:new 0 0 100 100;" xml:space="preserve">
<style type="text/css">
	.st0{fill:#B7B7B6;}
	.st1{fill:#FFFFFF;}
	.st2{fill:#4A4A4A;}
	.st3{fill:#0F80C3;}
	.st4{fill:none;stroke:#CBE5F8;stroke-width:3;stroke-miterlimit:10;}
	.st5{fill:#EF8704;}
	.st6{opacity:0.22;fill:#FFFFFF;}
</style>
<g id="XMLID_17_">
	<g id="XMLID_18_">
		<g id="XMLID_41_">
			<g id="XMLID_45_">
				<path id="XMLID_47_" class="st0" d="M45.7,91.4c1.6,3.8,6,5.5,9.8,3.9l29.1-12.5c3.8-1.6,5.5-6,3.9-9.8l-3.8-8.9l-22.9,5.7
					L41.9,82.5L45.7,91.4L45.7,91.4z"/>
				<path id="XMLID_46_" class="st0" d="M61.3,9.6c-1.6-3.8-6-5.5-9.8-3.9L22.4,18.1c-3.8,1.6-5.5,6-3.9,9.8l3.8,8.9l22.9-5.7
					l19.9-12.6L61.3,9.6z"/>
			</g>
			<circle id="XMLID_44_" class="st1" cx="67.7" cy="83.5" r="2.8"/>
			<path id="XMLID_43_" class="st2" d="M44.4,14.3l-10.8,4.6c-0.7,0.3-1.5,0-1.8-0.7c-0.3-0.7,0-1.5,0.7-1.8l10.8-4.6
				c0.7-0.3,1.5,0,1.8,0.7C45.4,13.2,45.1,14,44.4,14.3z"/>
			
				<rect id="XMLID_42_" x="30.2" y="19.1" transform="matrix(-0.919 0.3942 -0.3942 -0.919 122.5843 75.7614)" class="st3" width="46.5" height="62.8"/>
		</g>
		<g id="XMLID_20_">
			<g id="XMLID_33_">
				<line id="XMLID_40_" class="st4" x1="61.8" y1="73" x2="44.9" y2="80.2"/>
				<line id="XMLID_39_" class="st4" x1="59.6" y1="67.9" x2="42.7" y2="75.1"/>
				<line id="XMLID_38_" class="st4" x1="57.3" y1="62.7" x2="40.4" y2="69.9"/>
				<line id="XMLID_37_" class="st4" x1="55.1" y1="57.5" x2="38.2" y2="64.7"/>
				<line id="XMLID_36_" class="st4" x1="72.1" y1="44.1" x2="36" y2="59.5"/>
				<line id="XMLID_35_" class="st4" x1="69.8" y1="38.9" x2="33.8" y2="54.4"/>
				<line id="XMLID_34_" class="st4" x1="67.6" y1="33.7" x2="31.5" y2="49.2"/>
			</g>
			<polygon id="XMLID_32_" class="st5" points="24.8,33.7 60.9,18.2 65.6,29 29.5,44.5 			"/>
			<polygon id="XMLID_31_" class="st5" points="58,54.8 73.8,48.1 81.6,66.2 65.8,72.9 			"/>
			<g id="XMLID_21_">
				<g id="XMLID_22_">
					<path id="XMLID_29_" class="st1" d="M32.1,32.3L35,31l0.2,0.5c-0.1,0.2-0.2,0.4-0.4,0.5c-0.1,0.2-0.3,0.3-0.4,0.4l3.2,7.4
						l-1,0.4L29.9,36L29,35.3l0,0l0.5,0.9l2.1,4.9c0.2,0,0.4,0,0.6,0c0.2,0,0.4,0,0.6,0.1l0.2,0.4l-2.9,1.3L30,42.4
						c0.1-0.2,0.2-0.3,0.3-0.5c0.1-0.2,0.3-0.3,0.4-0.4L28,35.1c-0.2,0-0.4,0-0.6,0c-0.2,0-0.4,0-0.5-0.1l-0.2-0.4l2.5-1.1l5.5,3.4
						l1,0.8l0,0l-0.5-1l-1.7-3.9c-0.2,0-0.4,0-0.6,0c-0.2,0-0.4,0-0.6-0.1L32.1,32.3z"/>
					<path id="XMLID_27_" class="st1" d="M41.6,28.1c0.1,0.4,0.3,0.7,0.4,1.1s0.2,0.8,0.3,1.1l-0.5,0.2l-1.1-1.1l-2.2,1l1.3,2.9
						l1.4-0.6l0.1-1.1l0.4-0.2c0.2,0.4,0.4,0.8,0.6,1.3c0.2,0.5,0.4,0.9,0.5,1.3l-0.4,0.2l-0.9-0.7L40.1,34l1.3,3l2.3-1l0-1.8
						l0.5-0.2c0.1,0.1,0.2,0.3,0.3,0.5c0.1,0.2,0.2,0.4,0.3,0.5c0.1,0.2,0.2,0.4,0.3,0.6c0.1,0.2,0.2,0.4,0.3,0.6L39.1,39l-0.2-0.4
						c0.1-0.1,0.2-0.3,0.4-0.4c0.1-0.1,0.3-0.3,0.5-0.4l-2.9-6.6c-0.2,0-0.4,0.1-0.6,0.1c-0.2,0-0.4,0-0.6,0l-0.2-0.4L41.6,28.1z"/>
					<path id="XMLID_25_" class="st1" d="M52.8,24.1c-0.3,0.1-0.7,0.1-1.1,0.1l-0.2-0.4l3-1.3l0.2,0.4c-0.1,0.1-0.2,0.3-0.3,0.4
						c-0.1,0.1-0.3,0.2-0.4,0.3l1.2,8.3l-1.2,0.7l-4.3-4.9l0.6,6.3l-1.2,0.7l-5.6-6.6c-0.2,0-0.3,0.1-0.5,0.1c-0.2,0-0.3,0-0.5,0
						l-0.2-0.4l3.8-1.7l0.2,0.4c-0.1,0.1-0.2,0.3-0.4,0.4c-0.1,0.1-0.3,0.3-0.5,0.4l2.9,3.7l0.9,1.4l0,0l-0.3-1.8l-0.6-5.5l0.7-0.3
						l3.8,4.1l1.1,1.4l0,0l-0.4-1.7L52.8,24.1z"/>
					<path id="XMLID_23_" class="st1" d="M59.4,28.9c0.1,0,0.3,0.1,0.5,0.1c0.2,0,0.4,0,0.7-0.2c0.4-0.2,0.7-0.5,0.9-0.8
						c0.2-0.3,0.2-0.7,0-1.1c-0.1-0.3-0.3-0.5-0.6-0.6c-0.3-0.1-0.6-0.2-0.9-0.2c-0.4,0-0.7-0.1-1.1-0.1c-0.4,0-0.8-0.1-1.2-0.2
						c-0.4-0.1-0.7-0.3-1-0.5c-0.3-0.2-0.6-0.6-0.8-1c-0.2-0.4-0.2-0.7-0.2-1.1c0-0.3,0.1-0.7,0.3-1c0.2-0.3,0.4-0.6,0.7-0.8
						c0.3-0.2,0.6-0.4,1-0.6c0.5-0.2,0.9-0.4,1.4-0.5c0.4-0.1,0.9-0.2,1.2-0.2c0.1,0.2,0.1,0.3,0.2,0.6c0.1,0.2,0.1,0.4,0.2,0.6
						c0.1,0.2,0.1,0.4,0.1,0.6c0,0.2,0.1,0.4,0.1,0.5l-0.5,0.2l-1.2-1.4c-0.1,0-0.3,0-0.5,0.1c-0.2,0-0.4,0.1-0.6,0.2
						c-0.3,0.1-0.6,0.4-0.7,0.6c-0.2,0.3-0.2,0.6,0,0.9c0.1,0.3,0.3,0.5,0.6,0.6c0.3,0.1,0.6,0.2,1,0.3c0.4,0,0.7,0.1,1.1,0.1
						c0.4,0,0.8,0.1,1.2,0.2c0.4,0.1,0.7,0.2,1,0.5c0.3,0.2,0.6,0.5,0.8,1c0.3,0.8,0.3,1.5,0,2.2c-0.3,0.7-1,1.2-2,1.7
						c-0.3,0.1-0.5,0.2-0.8,0.3C60,29.9,59.8,30,59.5,30c-0.3,0-0.5,0.1-0.7,0.1c-0.2,0-0.4,0-0.5,0c-0.1-0.2-0.1-0.4-0.2-0.6
						C58.1,29.3,58,29,58,28.8c-0.1-0.2-0.1-0.4-0.1-0.6c0-0.2-0.1-0.4-0.1-0.5l0.5-0.2L59.4,28.9z"/>
				</g>
			</g>
		</g>
		<polygon id="XMLID_19_" class="st6" points="30.7,26.1 62.5,12.5 87.3,70.1 		"/>
	</g>
</g>
</svg>
