<?xml version="1.0" encoding="utf-8"?>
<!-- Generator: Adobe Illustrator 19.0.0, SVG Export Plug-In . SVG Version: 6.00 Build 0)  -->
<svg version="1.1" id="Calque_1" xmlns="http://www.w3.org/2000/svg" xmlns:xlink="http://www.w3.org/1999/xlink" x="0px" y="0px"
	 viewBox="0 0 100 100" style="enable-background:new 0 0 100 100;" xml:space="preserve">
<style type="text/css">
	.st0{fill:#FFE9C9;}
	.st1{fill:#FDD490;}
	.st2{fill:#FABC51;}
	.st3{fill:#F6A506;}
	.st4{fill:#D11317;}
	.st5{fill:#EB660C;}
</style>
<g>
	<path class="st0" d="M13,49.8c-0.9,0.3-1.8,0.3-2.7-0.1L28.4,9c0.8-1.8,3-2.6,4.8-1.7L73,27.4c-0.4,0.8-1.1,1.4-2,1.8L13,49.8
		L13,49.8z"/>
	<g>
		<g>
			<path class="st1" d="M49.5,60.4l-0.8-2.2l0,0l-38.5-8.8c-0.5,0.9-0.6,1.9-0.2,2.9l14,39.2c0.4,1,1.1,1.8,2,2.1l0,0l13.1-29.6
				L49.5,60.4z"/>
			<polygon class="st2" points="50.3,62.7 49.5,60.4 39.1,64.1 26,93.8 50.3,62.7 			"/>
		</g>
		<g>
			<path class="st1" d="M49.5,60.4l-0.8-2.2l0.1,0L73,27.1c0.9,0.4,1.7,1.1,2,2.1l14,39.2c0.4,1,0.2,2.1-0.2,3l0,0L59.9,56.7
				L49.5,60.4z"/>
			<path class="st2" d="M88.8,71.4l-38.5-8.7l0,0l-0.1,0L26,93.8l0,0c0.8,0.3,1.8,0.4,2.7,0.1l29.1-10.4l29.1-10.4
				C87.7,72.8,88.4,72.2,88.8,71.4L88.8,71.4z"/>
			<polygon class="st2" points="50.3,62.7 49.5,60.4 59.9,56.7 88.8,71.4 50.4,62.6 			"/>
		</g>
		<path class="st3" d="M12.2,47.7c-0.9,0.3-1.6,1-2,1.8l40.7,22.5c1.8,1,4,0.3,4.8-1.7L73,27.2c-0.8-0.4-1.8-0.5-2.7-0.2L12.2,47.7
			L12.2,47.7z"/>
	</g>
	<path class="st4" d="M55,41c-0.5-1.4-1.2-2.6-2.2-3.6c-1-1-2.1-1.8-3.3-2.4c-1.2-0.6-2.6-0.9-4-1c-1.4-0.1-2.8,0.1-4.2,0.6
		c-1.4,0.5-2.6,1.2-3.6,2.2c-1,1-1.8,2.1-2.4,3.3c-0.6,1.2-0.9,2.6-1,4c-0.1,1.4,0.1,2.8,0.6,4.2c0.5,1.4,1.2,2.6,2.2,3.6
		c1,1,2,1.8,3.3,2.4c1.2,0.6,2.5,0.9,3.9,1c1.4,0.1,2.8-0.1,4.2-0.6c0.4-0.1,0.8-0.3,1.3-0.6c0.4-0.2,1-0.6,1.5-1l2.9,4.5
		c-0.8,0.5-1.5,1-2.1,1.3c-0.6,0.3-1.2,0.6-1.9,0.8c-2,0.7-4.1,1-6.2,0.9c-2.1-0.2-4.1-0.7-6-1.6c-1.9-0.9-3.5-2.1-5-3.6
		c-1.5-1.5-2.5-3.3-3.3-5.3c-0.8-2.2-1.1-4.3-1-6.4c0.1-2.1,0.6-4.1,1.4-5.9c0.9-1.8,2.1-3.4,3.6-4.8c1.6-1.4,3.4-2.5,5.6-3.3
		c2.1-0.8,4.3-1.1,6.4-1c2.1,0.1,4.1,0.6,5.9,1.5c1.8,0.9,3.4,2.1,4.9,3.7c1.4,1.6,2.5,3.4,3.3,5.6c0.4,1.2,0.7,2.3,0.8,3.4
		c0.1,1.1,0,2.4-0.1,3.8L49,50.6l-0.1-0.4c-0.3,0.4-0.7,0.6-1,0.9c-0.4,0.2-0.7,0.4-0.9,0.5c-1,0.4-2,0.5-2.9,0.5
		c-0.9,0-1.8-0.2-2.6-0.6c-0.8-0.4-1.5-0.9-2.1-1.6c-0.6-0.7-1.1-1.5-1.4-2.5c-0.4-1-0.5-2-0.5-2.9c0-0.9,0.2-1.8,0.6-2.6
		c0.4-0.8,0.9-1.5,1.6-2.1c0.7-0.6,1.6-1.1,2.6-1.5c0.3-0.1,0.6-0.2,1-0.2c0.4-0.1,0.9-0.1,1.3,0l-0.4-1.2l4.9-1.7l3.4,9.6l3.2-1.1
		c0-0.4-0.1-0.8-0.2-1.2C55.3,41.8,55.2,41.4,55,41z M42.8,45.4c0.2,0.6,0.6,1,1,1.2c0.5,0.2,1,0.2,1.6,0c0.6-0.2,1-0.6,1.2-1
		c0.2-0.5,0.2-1,0-1.6c-0.2-0.6-0.6-1.1-1-1.3c-0.5-0.2-1-0.2-1.6,0c-0.6,0.2-1,0.6-1.3,1C42.6,44.3,42.6,44.8,42.8,45.4z"/>
	<path class="st5" d="M53.3,40.2c-0.5-1.4-1.2-2.6-2.2-3.6c-1-1-2.1-1.8-3.3-2.4c-1.2-0.6-2.6-0.9-4-1c-1.4-0.1-2.8,0.1-4.2,0.6
		c-1.4,0.5-2.6,1.2-3.6,2.2c-1,1-1.8,2.1-2.4,3.3c-0.6,1.2-0.9,2.6-1,4c-0.1,1.4,0.1,2.8,0.6,4.2c0.5,1.4,1.2,2.6,2.2,3.6
		c1,1,2,1.8,3.3,2.4c1.2,0.6,2.5,0.9,3.9,1c1.4,0.1,2.8-0.1,4.2-0.6c0.4-0.1,0.8-0.3,1.3-0.6c0.4-0.2,1-0.6,1.5-1l2.9,4.5
		c-0.8,0.5-1.5,1-2.1,1.3c-0.6,0.3-1.2,0.6-1.9,0.8c-2,0.7-4.1,1-6.2,0.9c-2.1-0.2-4.1-0.7-6-1.6c-1.9-0.9-3.5-2.1-5-3.6
		c-1.5-1.5-2.5-3.3-3.3-5.3c-0.8-2.2-1.1-4.3-1-6.4c0.1-2.1,0.6-4.1,1.4-5.9c0.9-1.8,2.1-3.4,3.6-4.8c1.6-1.4,3.4-2.5,5.6-3.3
		c2.1-0.8,4.3-1.1,6.4-1c2.1,0.1,4.1,0.6,5.9,1.5c1.8,0.9,3.4,2.1,4.9,3.7c1.4,1.6,2.5,3.4,3.3,5.6c0.4,1.2,0.7,2.3,0.8,3.4
		c0.1,1.1,0,2.4-0.1,3.8l-11.6,4.1l-0.1-0.4c-0.3,0.4-0.7,0.6-1,0.9c-0.4,0.2-0.7,0.4-0.9,0.5c-1,0.4-2,0.5-2.9,0.5
		c-0.9,0-1.8-0.2-2.6-0.6c-0.8-0.4-1.5-0.9-2.1-1.6c-0.6-0.7-1.1-1.5-1.4-2.5c-0.4-1-0.5-2-0.5-2.9c0-0.9,0.2-1.8,0.6-2.6
		c0.4-0.8,0.9-1.5,1.6-2.1c0.7-0.6,1.6-1.1,2.6-1.5c0.3-0.1,0.6-0.2,1-0.2c0.4-0.1,0.9-0.1,1.3,0l-0.4-1.2l4.9-1.7l3.4,9.6l3.2-1.1
		c0-0.4-0.1-0.8-0.2-1.2C53.6,41,53.5,40.6,53.3,40.2z M41.1,44.6c0.2,0.6,0.6,1,1,1.2c0.5,0.2,1,0.2,1.6,0c0.6-0.2,1-0.6,1.2-1
		c0.2-0.5,0.2-1,0-1.6c-0.2-0.6-0.6-1.1-1-1.3c-0.5-0.2-1-0.2-1.6,0c-0.6,0.2-1,0.6-1.3,1C40.9,43.4,40.8,44,41.1,44.6z"/>
</g>
</svg>
