<?xml version="1.0" encoding="utf-8"?>
<!-- Generator: Adobe Illustrator 19.0.0, SVG Export Plug-In . SVG Version: 6.00 Build 0)  -->
<svg version="1.1" id="Calque_1" xmlns="http://www.w3.org/2000/svg" xmlns:xlink="http://www.w3.org/1999/xlink" x="0px" y="0px"
	 viewBox="0 0 100 100" style="enable-background:new 0 0 100 100;" xml:space="preserve">
<style type="text/css">
	.st0{clip-path:url(#XMLID_6_);}
	.st1{clip-path:url(#XMLID_16_);fill:#62AD30;}
	.st2{clip-path:url(#XMLID_16_);fill:#FFFFFF;}
	.st3{clip-path:url(#XMLID_16_);fill:#D7E5F6;}
</style>
<g id="XMLID_2_">
	<g>
		<defs>
			<rect id="XMLID_7_" width="100" height="100"/>
		</defs>
		<clipPath id="XMLID_6_">
			<use xlink:href="#XMLID_7_"  style="overflow:visible;"/>
		</clipPath>
		<g class="st0">
			<defs>
				<rect id="XMLID_8_" width="100" height="100"/>
			</defs>
			<clipPath id="XMLID_16_">
				<use xlink:href="#XMLID_8_"  style="overflow:visible;"/>
			</clipPath>
			<path id="XMLID_15_" class="st1" d="M1.3,17.9c0-5.4,4.4-9.8,9.8-9.8h57.4c5.4,0,9.8,4.4,9.8,9.8v48.1c0,5.4-4.4,9.8-9.8,9.8
				H11.2c-5.4,0-9.8-4.4-9.8-9.8V17.9z"/>
			<rect id="XMLID_14_" x="68" y="28.5" class="st2" width="3.1" height="27.7"/>
			<path id="XMLID_13_" class="st2" d="M13.5,41.1h-2.8c-1.2,0-2.1-0.9-2.1-2.1v-8.4c0-1.2,0.9-2.1,2.1-2.1h2.8V41.1z"/>
			<path class="st2" d="M19.4,24.9c-2.6,0-4.7,2.1-4.7,4.7v23.6c0,2.6,2.1,4.7,4.7,4.7H48c2.6,0,4.7-2.1,4.7-4.7V29.6
				c0-2.6-2.1-4.7-4.7-4.7H19.4z M66.4,28.5l-12.3,8.4v1.5v1.5v1.5v1.5v1.5v1.5v1.5v1.5l12.3,5.9V28.5z"/>
			<path id="XMLID_10_" class="st3" d="M99.6,70.5c0,12.2-9.9,22.2-22.2,22.2c-12.2,0-22.2-9.9-22.2-22.2s9.9-22.2,22.2-22.2
				C89.7,48.3,99.6,58.3,99.6,70.5"/>
			<path id="XMLID_9_" class="st1" d="M69.7,55.3c0.1,0.1,0.1,0.2,0.2,0.2c0.1,0.2,0.3,0.4,0.4,0.6c0.2,0.3,0.4,0.6,0.6,0.9
				c0.2,0.4,0.5,0.7,0.7,1.1c0.3,0.4,0.5,0.8,0.8,1.1c0.2,0.4,0.5,0.7,0.7,1.1c0.2,0.3,0.4,0.6,0.6,0.9c0.1,0.2,0.3,0.4,0.4,0.5
				c0.1,0.1,0.1,0.2,0.1,0.4c0,0.1,0,0.3-0.1,0.4c-0.1,0.1-0.1,0.3-0.2,0.4c-0.1,0.1-0.2,0.3-0.3,0.4c-0.1,0.1-0.2,0.2-0.4,0.3
				c-0.1,0.1-0.2,0.2-0.3,0.3c-0.1,0.1-0.2,0.1-0.2,0.2c0,0-0.1,0-0.1,0.1c0,0,0,0,0,0.1c0,0.1-0.1,0.1-0.1,0.2
				c-0.1,0.1-0.1,0.2-0.1,0.3c-0.1,0.1-0.1,0.2-0.1,0.3c0,0.1-0.1,0.3-0.1,0.4c0,0.1,0,0.3,0,0.4c0,0.2,0,0.3,0.1,0.4
				c0.1,0.2,0.1,0.3,0.2,0.4c0.2,0.2,0.4,0.5,0.6,0.7c0.3,0.4,0.6,0.7,1,1.1c0.4,0.4,0.8,0.9,1.2,1.3c0.4,0.5,0.9,0.9,1.3,1.4
				c0.4,0.5,0.8,0.9,1.3,1.4c0.4,0.4,0.7,0.8,1.1,1.2c0.3,0.3,0.5,0.5,0.8,0.8c0.1,0.1,0.2,0.2,0.3,0.3c0,0,0.1,0,0.1,0.1
				c0.1,0.1,0.1,0.1,0.2,0.2c0.1,0.1,0.2,0.1,0.3,0.2c0.1,0.1,0.2,0.2,0.4,0.2c0.1,0.1,0.3,0.1,0.4,0.2c0.1,0,0.3,0.1,0.4,0.1
				c0.1,0,0.3,0,0.4,0s0.2-0.1,0.3-0.2c0.1-0.1,0.2-0.2,0.3-0.3c0.1-0.1,0.3-0.2,0.4-0.3c0.1-0.1,0.3-0.2,0.4-0.3
				c0.2-0.1,0.3-0.2,0.5-0.3c0.2-0.1,0.3-0.2,0.5-0.2c0.2-0.1,0.4-0.1,0.6-0.1c0.2,0,0.4,0,0.6,0c0.2,0,0.4,0,0.6,0.1l5.9,4.4
				c0.4,0.8,0.5,1.8,0.1,2.6c-0.3,0.8-0.9,1.4-1.6,1.8c-0.7,0.4-1.5,0.7-2.3,0.9c-0.1,0-0.2,0-0.3,0.1c-0.2,0-0.3,0-0.5,0
				c-0.2,0-0.4,0-0.6-0.1c-0.2,0-0.5-0.1-0.7-0.1c-0.3-0.1-0.5-0.1-0.8-0.2c-0.3-0.1-0.5-0.1-0.8-0.2c-0.3-0.1-0.5-0.2-0.8-0.2
				c-0.2-0.1-0.5-0.2-0.7-0.3c-0.3-0.1-0.5-0.2-0.8-0.4c-0.3-0.2-0.6-0.3-1-0.5c-0.4-0.2-0.7-0.4-1.1-0.7c-0.4-0.3-0.8-0.5-1.1-0.8
				c-0.4-0.3-0.8-0.6-1.2-0.9c-0.4-0.3-0.8-0.6-1.2-0.9c-0.4-0.3-0.7-0.6-1.1-1c-0.3-0.3-0.7-0.6-1-1c-0.3-0.3-0.6-0.6-0.9-1
				c-0.3-0.3-0.6-0.6-0.9-1c-0.3-0.3-0.6-0.6-0.9-0.9c-0.3-0.3-0.5-0.6-0.8-0.8c-0.2-0.2-0.5-0.5-0.7-0.7c-0.2-0.2-0.4-0.4-0.6-0.6
				c-0.1-0.1-0.2-0.2-0.4-0.4c0,0-0.1-0.1-0.1-0.1c-0.1-0.1-0.1-0.1-0.2-0.2c-0.1-0.2-0.3-0.3-0.4-0.5c-0.2-0.2-0.4-0.5-0.6-0.7
				c-0.2-0.3-0.5-0.6-0.7-0.9c-0.3-0.3-0.5-0.7-0.7-1c-0.2-0.3-0.5-0.7-0.7-1c-0.2-0.3-0.4-0.7-0.6-1c-0.2-0.3-0.3-0.6-0.4-1
				c-0.1-0.3-0.2-0.6-0.3-0.9c-0.1-0.3-0.2-0.6-0.3-0.9c-0.1-0.3-0.2-0.6-0.2-0.9c-0.1-0.3-0.1-0.6-0.2-0.9c0-0.3-0.1-0.6-0.1-0.9
				c0-0.3,0-0.6,0-0.9c0-0.3,0-0.6,0.1-0.9c0.1-0.3,0.1-0.6,0.2-0.8c0.1-0.3,0.3-0.5,0.5-0.7c0.2-0.2,0.4-0.4,0.7-0.6
				c0.3-0.2,0.6-0.3,0.9-0.4c0.3-0.1,0.6-0.2,0.9-0.3c0.3-0.1,0.6-0.1,0.9-0.2c0.2,0,0.5-0.1,0.7-0.1c0.2,0,0.3,0,0.5,0
				C69.5,55.3,69.6,55.3,69.7,55.3"/>
		</g>
	</g>
</g>
</svg>
