<?xml version="1.0" encoding="utf-8"?>
<!-- Generator: Adobe Illustrator 19.0.0, SVG Export Plug-In . SVG Version: 6.00 Build 0)  -->
<svg version="1.1" id="Calque_1" xmlns="http://www.w3.org/2000/svg" xmlns:xlink="http://www.w3.org/1999/xlink" x="0px" y="0px"
	 viewBox="0 0 100 100" style="enable-background:new 0 0 100 100;" xml:space="preserve">
<style type="text/css">
	.st0{clip-path:url(#XMLID_102_);fill:#F7B384;}
	.st1{clip-path:url(#XMLID_102_);fill:#F4995A;}
	.st2{clip-path:url(#XMLID_102_);fill:#141414;}
	.st3{clip-path:url(#XMLID_102_);fill:#04A2A5;}
	.st4{clip-path:url(#XMLID_102_);}
	.st5{fill:#FFFFFF;}
	.st6{fill:#363636;}
	.st7{clip-path:url(#XMLID_102_);fill:#363636;}
	.st8{opacity:0.22;clip-path:url(#XMLID_102_);fill:#FFFFFF;}
	.st9{clip-path:url(#XMLID_102_);fill:#D7E5F6;}
	.st10{clip-path:url(#XMLID_102_);fill:#FFFFFF;}
	.st11{clip-path:url(#XMLID_102_);fill:#A3A3A2;}
	.st12{clip-path:url(#XMLID_102_);fill:#B7B7B6;}
	.st13{fill:#F7B384;}
	.st14{fill:#F4995A;}
	.st15{opacity:0.4;fill:#FFFFFF;}
	.st16{opacity:0.4;}
</style>
<g id="XMLID_2_">
	<defs>
		<rect id="XMLID_3_" x="0" y="0" width="100" height="100"/>
	</defs>
	<clipPath id="XMLID_102_">
		<use xlink:href="#XMLID_3_"  style="overflow:visible;"/>
	</clipPath>
	<path id="XMLID_101_" class="st0" d="M52.1,52.4H10.2l2.1,31.2h25l2.6-1.4c4.9-2.7,8.4-7.5,9.2-12.6L52.1,52.4z"/>
	<path id="XMLID_100_" class="st1" d="M14,62.2l34.2,8.1c0.4-0.8,0.7-1.5,0.9-2.3l1.1-4.7l0,0L14,62.2z"/>
	<path id="XMLID_99_" class="st2" d="M93.7,58.4c0,2.6-2.1,4.8-4.8,4.8h-76c-2.6,0-4.8-2.1-4.8-4.8V14.2c0-2.6,2.1-4.8,4.8-4.8h76
		c2.6,0,4.8,2.1,4.8,4.8V58.4z"/>
	<rect id="XMLID_96_" x="14.4" y="13.3" class="st3" width="73.1" height="46"/>
	<g id="XMLID_92_" class="st4">
		<path id="XMLID_95_" class="st5" d="M85.3,46.9c0,2-1.6,3.6-3.6,3.6H20.9c-2,0-3.6-1.6-3.6-3.6V30.8c0-2,1.6-3.6,3.6-3.6h60.7
			c2,0,3.6,1.6,3.6,3.6V46.9z"/>
	</g>
	<g id="XMLID_82_" class="st4">
		<path id="XMLID_91_" class="st6" d="M70.7,34.6c0,0.5-0.5,1-1,1h-2.6c-0.5,0-1-0.5-1-1v-2.9c0-0.5,0.5-1,1-1h2.6c0.5,0,1,0.5,1,1
			V34.6z"/>
		<path id="XMLID_90_" class="st6" d="M76.7,34.6c0,0.5-0.5,1-1,1h-2.6c-0.5,0-1-0.5-1-1v-2.9c0-0.5,0.5-1,1-1h2.6c0.5,0,1,0.5,1,1
			V34.6z"/>
		<path id="XMLID_89_" class="st6" d="M82.6,34.6c0,0.5-0.5,1-1,1H79c-0.5,0-1-0.5-1-1v-2.9c0-0.5,0.5-1,1-1h2.6c0.5,0,1,0.5,1,1
			V34.6z"/>
		<path id="XMLID_88_" class="st6" d="M70.7,40.2c0,0.5-0.5,1-1,1h-2.6c-0.5,0-1-0.5-1-1v-2.6c0-0.5,0.5-1,1-1h2.6c0.5,0,1,0.5,1,1
			V40.2z"/>
		<path id="XMLID_87_" class="st6" d="M76.7,40.2c0,0.5-0.5,1-1,1h-2.6c-0.5,0-1-0.5-1-1v-2.6c0-0.5,0.5-1,1-1h2.6c0.5,0,1,0.5,1,1
			V40.2z"/>
		<path id="XMLID_86_" class="st6" d="M82.6,40.2c0,0.5-0.5,1-1,1H79c-0.5,0-1-0.5-1-1v-2.6c0-0.5,0.5-1,1-1h2.6c0.5,0,1,0.5,1,1
			V40.2z"/>
		<path id="XMLID_85_" class="st6" d="M70.7,46.1c0,0.5-0.5,1-1,1h-2.6c-0.5,0-1-0.5-1-1v-2.6c0-0.5,0.5-1,1-1h2.6c0.5,0,1,0.5,1,1
			V46.1z"/>
		<path id="XMLID_84_" class="st6" d="M76.7,46.1c0,0.5-0.5,1-1,1h-2.6c-0.5,0-1-0.5-1-1v-2.6c0-0.5,0.5-1,1-1h2.6c0.5,0,1,0.5,1,1
			V46.1z"/>
		<path id="XMLID_83_" class="st6" d="M82.6,46.1c0,0.5-0.5,1-1,1H79c-0.5,0-1-0.5-1-1v-2.6c0-0.5,0.5-1,1-1h2.6c0.5,0,1,0.5,1,1
			V46.1z"/>
	</g>
	<path id="XMLID_81_" class="st7" d="M63.8,36.3c0,0.9-0.7,1.6-1.6,1.6H41.8c-0.9,0-1.6-0.7-1.6-1.6v-1.2c0-0.9,0.7-1.6,1.6-1.6
		h20.4c0.9,0,1.6,0.7,1.6,1.6V36.3z"/>
	<path id="XMLID_78_" class="st7" d="M63.8,43.3c0,0.9-0.7,1.6-1.6,1.6H41.8c-0.9,0-1.6-0.7-1.6-1.6v-1.2c0-0.9,0.7-1.6,1.6-1.6
		h20.4c0.9,0,1.6,0.7,1.6,1.6V43.3z"/>
	<g id="XMLID_41_" class="st4">
		<path id="XMLID_74_" class="st5" d="M19.8,17.8v7.1H18v-7.1H19.8z"/>
		<path id="XMLID_72_" class="st5" d="M24.7,17.8v7.1h-1.6l-1-3.2v3.2h-1.6v-7.1h1.6l1,3.2v-3.2H24.7z"/>
		<path id="XMLID_70_" class="st5" d="M29.2,17.8v1.4h-1.1v5.7h-1.9v-5.7h-1.1v-1.4H29.2z"/>
		<path id="XMLID_68_" class="st5" d="M29.6,17.8h3.1v1.4h-1.2v1.4h1.2v1.4h-1.2v1.6h1.4v1.4h-3.2V17.8z"/>
		<path id="XMLID_65_" class="st5" d="M33.4,17.8h1.3c0.9,0,1.5,0,1.8,0.1c0.3,0.1,0.6,0.2,0.8,0.5s0.3,0.7,0.3,1.3
			c0,0.6-0.1,0.9-0.2,1.1c-0.1,0.2-0.4,0.3-0.8,0.3c0.4,0.1,0.6,0.2,0.7,0.4c0.1,0.2,0.2,0.3,0.2,0.4c0,0.1,0,0.5,0,1.1v1.9h-1.7
			v-2.4c0-0.4,0-0.6-0.1-0.7c-0.1-0.1-0.2-0.1-0.5-0.1v3.2h-1.9V17.8z M35.2,19v1.6c0.2,0,0.4,0,0.4-0.1c0.1-0.1,0.1-0.2,0.1-0.6
			v-0.4c0-0.2,0-0.4-0.1-0.4C35.6,19,35.5,19,35.2,19z"/>
		<path id="XMLID_63_" class="st5" d="M42.4,17.8v7.1h-1.6l-1-3.2v3.2h-1.6v-7.1h1.6l1,3.2v-3.2H42.4z"/>
		<path id="XMLID_61_" class="st5" d="M43.1,17.8h3.1v1.4H45v1.4h1.2v1.4H45v1.6h1.4v1.4h-3.2V17.8z"/>
		<path id="XMLID_59_" class="st5" d="M50.5,17.8v1.4h-1.1v5.7h-1.9v-5.7h-1.1v-1.4H50.5z"/>
		<path id="XMLID_55_" class="st5" d="M52.5,17.8h1.9c0.6,0,1,0,1.3,0.1c0.3,0.1,0.5,0.3,0.7,0.6c0.2,0.3,0.3,0.7,0.3,1.3
			c0,0.4-0.1,0.7-0.2,0.9c-0.1,0.2-0.4,0.3-0.8,0.4c0.4,0.1,0.7,0.3,0.9,0.5s0.2,0.6,0.2,1v0.7c0,0.5-0.1,0.8-0.2,1.1
			c-0.1,0.2-0.3,0.4-0.5,0.5c-0.2,0.1-0.7,0.1-1.5,0.1h-2.1V17.8z M54.4,19v1.6c0.1,0,0.1,0,0.2,0c0.2,0,0.3,0,0.3-0.1
			c0-0.1,0.1-0.3,0.1-0.8c0-0.2,0-0.4-0.1-0.5c0-0.1-0.1-0.1-0.2-0.2C54.7,19,54.6,19,54.4,19z M54.4,21.7v2c0.3,0,0.4-0.1,0.5-0.1
			c0.1-0.1,0.1-0.3,0.1-0.5v-0.7c0-0.3,0-0.5-0.1-0.6C54.8,21.8,54.6,21.7,54.4,21.7z"/>
		<path id="XMLID_52_" class="st5" d="M60.7,17.8l1.1,7.1h-1.9l-0.1-1.3h-0.7L59,24.9h-1.9l0.9-7.1H60.7z M59.7,22.4
			c-0.1-0.8-0.2-1.8-0.3-3c-0.2,1.4-0.3,2.4-0.4,3H59.7z"/>
		<path id="XMLID_50_" class="st5" d="M66.2,17.8v7.1h-1.6l-1-3.2v3.2h-1.6v-7.1h1.6l1,3.2v-3.2H66.2z"/>
		<path id="XMLID_48_" class="st5" d="M71.4,17.8L70.3,21l1.2,3.9h-1.9l-0.8-3.1v3.1H67v-7.1h1.9v2.8l0.8-2.8H71.4z"/>
		<path id="XMLID_46_" class="st5" d="M73.7,17.8v7.1h-1.9v-7.1H73.7z"/>
		<path id="XMLID_44_" class="st5" d="M78.6,17.8v7.1h-1.6l-1-3.2v3.2h-1.6v-7.1H76l1,3.2v-3.2H78.6z"/>
		<path id="XMLID_42_" class="st5" d="M83.6,20.4h-1.9v-0.6c0-0.4,0-0.7-0.1-0.8c0-0.1-0.1-0.2-0.3-0.2c-0.1,0-0.2,0-0.2,0.1
			c0,0.1-0.1,0.3-0.1,0.7v3.4c0,0.3,0,0.5,0.1,0.6c0,0.1,0.1,0.2,0.2,0.2c0.1,0,0.2-0.1,0.3-0.2c0-0.1,0.1-0.3,0.1-0.7v-0.8h-0.4
			v-1.1h2.2v3.8h-1.2l-0.2-0.5c-0.1,0.2-0.3,0.4-0.5,0.5c-0.2,0.1-0.4,0.2-0.7,0.2c-0.3,0-0.6-0.1-0.9-0.2c-0.3-0.2-0.5-0.3-0.6-0.6
			c-0.1-0.2-0.2-0.5-0.3-0.7c0-0.2-0.1-0.6-0.1-1.1v-2.1c0-0.7,0-1.2,0.1-1.5c0.1-0.3,0.3-0.6,0.6-0.8c0.3-0.3,0.8-0.4,1.4-0.4
			c0.5,0,1,0.1,1.4,0.3s0.6,0.5,0.7,0.8s0.2,0.8,0.2,1.3V20.4z"/>
	</g>
	<g id="XMLID_35_" class="st4">
		<g id="XMLID_36_">
			<path id="XMLID_37_" class="st6" d="M23.6,34.7v1.9h-0.1c-0.8,0-1.5,0.7-1.5,1.5v8.1c0,0.8,0.7,1.5,1.5,1.5h11.3
				c0.8,0,1.5-0.7,1.5-1.5v-8.1c0-0.8-0.7-1.5-1.5-1.5h0v-1.9c0-3.1-2.5-5.6-5.6-5.6C26.1,29.1,23.6,31.6,23.6,34.7z M30,42.5
				c-0.1,0.1-0.1,0.2-0.1,0.3c0,0.6,0,1.2,0,1.8l0,0c0,0.2-0.1,0.5-0.3,0.6c-0.5,0.3-1-0.1-1-0.6v0c0-0.6,0-1.2,0-1.8
				c0-0.1,0-0.2-0.1-0.3c-0.5-0.4-0.7-1.1-0.4-1.7c0.3-0.6,0.9-0.9,1.5-0.8c0.7,0.1,1.1,0.7,1.1,1.4C30.6,41.9,30.4,42.3,30,42.5z
				 M26.1,34.7c0-1.7,1.4-3.1,3.1-3.1c1.7,0,3.1,1.4,3.1,3.1v1.9h-6.3V34.7z"/>
		</g>
	</g>
	<path id="XMLID_34_" class="st8" d="M93.7,52.7V14.2c0-2.6-2.1-4.8-4.8-4.8H29.9L93.7,52.7z"/>
	<path id="XMLID_33_" class="st0" d="M10.5,75c-0.8-0.2-1.6-0.6-2.2-1.1l-0.3-0.3C1.1,68-1,58.5,2.8,50.5l7.2-15
		c1.4-2.9,4.9-4.1,7.8-2.7c2.9,1.4,4.1,4.9,2.7,7.8l-7.2,15c-1.5,3.1-0.7,6.9,2,9.1l0.3,0.3c2.5,2,2.8,5.7,0.8,8.2
		C15,74.9,12.6,75.6,10.5,75z"/>
	<path id="XMLID_32_" class="st1" d="M14,71.6l2,2c0.1-0.1,0.3-0.3,0.4-0.4c2-2.5,1.7-6.1-0.8-8.2l-0.3-0.3c-2.7-2.2-3.5-6-2-9.1
		l7.2-15c1.4-2.9,0.2-6.4-2.7-7.8c0,0,0,0,0,0L9.2,49.9C5.7,57.4,7.6,66.3,14,71.6z"/>
	<polygon id="XMLID_31_" class="st0" points="7.8,70.6 -3,100 31.3,100 37.5,83.1 	"/>
	<polygon id="XMLID_30_" class="st9" points="35.7,88.6 4.7,77.6 -5.2,103.2 25.8,114.2 	"/>
	<polygon id="XMLID_29_" class="st10" points="-0.3,90.4 15.2,95.9 20.2,83.1 4.7,77.6 	"/>
	<polygon id="XMLID_28_" class="st11" points="36.8,96.2 -1.2,82.6 -13.4,114.1 24.7,127.7 	"/>
	<polygon id="XMLID_27_" class="st12" points="17.8,89.4 -1.2,82.6 -13.4,114.1 5.7,120.9 	"/>
	<g id="XMLID_4_" class="st4">
		<g id="XMLID_24_">
			<path id="XMLID_26_" class="st13" d="M70.9,56.5c0.5-0.2,1.1-0.3,1.7-0.3c2.8,0,5,2.2,5,5v13.2c0,2.8-2.2,5-5,5c-2.8,0-5-2.2-5-5
				V61.2C67.6,59,69,57.2,70.9,56.5z"/>
			<path id="XMLID_25_" class="st14" d="M72.6,79.4c-2.8,0-5-2.2-5-5V61.2c0-2.2,1.4-4,3.3-4.7c0.5-0.2,1.1-0.3,1.7-0.3"/>
		</g>
		<g id="XMLID_21_">
			<path id="XMLID_23_" class="st13" d="M81.6,56.5c0.5-0.2,1.1-0.3,1.7-0.3c2.8,0,5,2.2,5,5v13.2c0,2.8-2.2,5-5,5c-2.8,0-5-2.2-5-5
				V61.2C78.3,59,79.7,57.2,81.6,56.5z"/>
			<path id="XMLID_22_" class="st14" d="M83.3,79.4c-2.8,0-5-2.2-5-5V61.2c0-2.2,1.4-4,3.3-4.7c0.5-0.2,1.1-0.3,1.7-0.3"/>
		</g>
		<g id="XMLID_18_">
			<path id="XMLID_20_" class="st13" d="M92.2,59.2c0.5-0.2,1.1-0.3,1.7-0.3c2.8,0,5,2.2,5,5v10.4c0,2.8-2.2,5-5,5c-2.8,0-5-2.2-5-5
				V63.9C88.9,61.8,90.3,59.9,92.2,59.2z"/>
			<path id="XMLID_19_" class="st14" d="M93.9,79.4c-2.8,0-5-2.2-5-5V63.9c0-2.2,1.4-4,3.3-4.7c0.5-0.2,1.1-0.3,1.7-0.3"/>
		</g>
		<path id="XMLID_17_" class="st13" d="M98.9,74.4h-42v17.5l5,4.1h1v20.6h30.7v-15.4c0-4.9,5.3-6.4,5.3-13V74.4z"/>
		<g id="XMLID_9_">
			<path id="XMLID_16_" class="st13" d="M60.2,43.1c0.5-0.2,1.1-0.3,1.7-0.3c2.8,0,5,2.2,5,5v26.6c0,2.8-2.2,5-5,5c-2.8,0-5-2.2-5-5
				V47.8C56.9,45.6,58.3,43.8,60.2,43.1z"/>
			<path id="XMLID_15_" class="st14" d="M61.9,96c-2.8,0-5-2.2-5-5V47.8c0-2.2,1.4-4,3.3-4.7c0.5-0.2,1.1-0.3,1.7-0.3L61.9,96z"/>
			<g id="XMLID_10_">
				<circle id="XMLID_14_" class="st15" cx="61.6" cy="48.5" r="3.9"/>
				<g id="XMLID_11_" class="st16">
					<path id="XMLID_13_" class="st5" d="M57.8,48.5c0,0,0,0,0-0.1c0-0.1,0-0.2,0-0.4c0-0.4,0-0.9,0.3-1.4c0.2-0.6,0.7-1.2,1.3-1.7
						c0.6-0.5,1.5-0.7,2.3-0.8c0.4,0,0.9,0.1,1.3,0.2c0.4,0.1,0.8,0.3,1.1,0.6c0.6,0.5,1.1,1.1,1.3,1.6c0.2,0.6,0.3,1.1,0.3,1.4
						c0,0.2,0,0.3,0,0.4c0,0.1,0,0.1,0,0.1s0-0.2-0.1-0.5c-0.1-0.3-0.3-0.7-0.6-1.2c-0.3-0.4-0.7-0.9-1.3-1.2
						c-0.3-0.2-0.6-0.3-0.9-0.4c-0.3-0.1-0.6-0.1-1-0.1c-0.7,0-1.3,0.2-1.9,0.5c-0.5,0.3-1,0.8-1.3,1.2c-0.3,0.4-0.5,0.9-0.6,1.2
						C57.8,48.3,57.8,48.5,57.8,48.5z"/>
				</g>
			</g>
		</g>
		<path id="XMLID_8_" class="st14" d="M73.2,116.6H62.7v-13.7L52,92.2c-3.3-3.3-3.3-8.6,0-11.8l4.9-4.9v8.2l16.3-0.4V116.6z"/>
		<path id="XMLID_5_" class="st13" d="M61.9,78.6l0,6.8l-5-5.1l0,0l-0.1,0.1c-3.3,3.3-3.3,8.6,0,11.8l10.7,10.7v13.7h5.7V78.4
			L61.9,78.6z"/>
	</g>
</g>
</svg>
