<?xml version="1.0" encoding="utf-8"?>
<!-- Generator: Adobe Illustrator 25.1.0, SVG Export Plug-In . SVG Version: 6.00 Build 0)  -->
<svg version="1.1" id="living_x5F_icon" xmlns="http://www.w3.org/2000/svg" xmlns:xlink="http://www.w3.org/1999/xlink" x="0px"
	 y="0px" viewBox="0 0 82.5 82.5" style="enable-background:new 0 0 82.5 82.5;" xml:space="preserve">
<style type="text/css">
	.st0{fill:#FFFFFF;}
</style>
<g>
	<circle class="st0" cx="26" cy="8.2" r="7"/>
	<circle class="st0" cx="56" cy="8.2" r="7"/>
	<path class="st0" d="M72.4,50c-1,0.5-2.1,0.4-2.8-0.1c-0.8-0.4-1.3-1.1-1.5-2L64,27.5v10.9l3.8,18.9H64v23.9h-6v-24h-4v24h-6V57.3
		h-3.8L48,38.4V27.5l-4.1,20.3c-0.1,0.7-0.5,1.3-1,1.7s-1.2,0.7-1.9,0.7c-1.4,0-2.7-1-2.9-2.4L34,27.5v53.7h-6v-31h-4v31h-6V27.5
		l-4.1,20.3c-0.2,1.4-1.5,2.4-2.9,2.4c-0.2,0-0.4,0-0.5-0.1c-1.7-0.3-2.7-1.9-2.4-3.5L12.6,23c2-2.1,4.4-3.7,7.1-4.7
		c2-0.7,4-1.1,6.2-1.1s4.3,0.4,6.2,1.1c2.8,1,5.2,2.6,7.1,4.7l1.8,8.9l1.6-8.9c2-2.1,4.4-3.7,7.1-4.7c2-0.7,4-1.1,6.2-1.1
		s4.3,0.4,6.2,1.1c2.8,1,5.2,2.6,7.1,4.7l4.7,23.6l0,0c0,0.1,0,0.1,0,0.2V47C74.1,48.1,73.8,49.4,72.4,50z"/>
</g>
</svg>
