<?xml version="1.0" encoding="utf-8"?>
<!-- Generator: Adobe Illustrator 25.1.0, SVG Export Plug-In . SVG Version: 6.00 Build 0)  -->
<svg version="1.1" xmlns="http://www.w3.org/2000/svg" xmlns:xlink="http://www.w3.org/1999/xlink" x="0px" y="0px"
	 viewBox="0 0 82.5 82.5" style="enable-background:new 0 0 82.5 82.5;" xml:space="preserve">
<style type="text/css">
	.st0{fill:#C48726;}
</style>
<g id="Calque_3">
	<polygon class="st0" points="74.8,55 74.8,59.7 60.8,59.7 60.8,67.4 60.8,67.4 60.8,67.4 46.6,67.4 46.6,75.9 46.6,75.9 46.6,76.1 
		32.4,76.1 32.4,81.3 27.6,81.3 27.6,71.4 41.9,71.4 41.9,62.8 55.9,62.8 55.9,59.7 55.9,59.7 55.9,55 	"/>
</g>
<g id="Calque_4">
	<path class="st0" d="M57.9,28c0,1.6-1.3,2.9-2.9,2.9c-0.1,0-0.1,0-0.2,0c-1.4,0.2-4.4,0.5-8.3,0.8c-5.4,0.3-10-5.1-10-5.1l-2.1,9.7
		c15.1,5.8,17.2,16.1,17.4,18v0c0.1,0.4,0.2,0.8,0.2,1.2c0,2.1-1.7,3.8-3.8,3.8c-2,0-3.6-1.5-3.8-3.4c0,0,0,0,0,0
		c-1.7-9.1-11.8-12.1-18.7-14.5c-6.8-2.3-5.6-8.6-5.6-8.6L23,20.9c-6.9,1.8-7.8,8-8,10c0,0.2,0,0.4,0,0.5v0c0,0,0,0.1,0,0.1
		c-0.2,1.4-1.4,2.4-2.8,2.4c-1.6,0-2.9-1.3-2.9-2.9c0-0.2,0-0.4,0.1-0.6l0,0c0,0-0.1-2.9,2.1-7.9c2.2-5,8.5-7.8,13.8-8.2
		C34.6,13.8,37,18,37,18l7.5,7.7L54.7,25l0,0.1c0.1,0,0.2,0,0.3,0C56.6,25.1,57.9,26.4,57.9,28z"/>
	<path class="st0" d="M15.1,31.4c0,0.1,0,0.1,0,0.1h0C15.1,31.5,15.1,31.5,15.1,31.4z"/>
	<path class="st0" d="M32,46.7c-2.2,8.9-10.6,17-11.2,17.5c0,0,0,0,0,0c-0.7,0.8-1.7,1.4-2.9,1.4c-2,0-3.7-1.7-3.7-3.7
		c0-1.5,0.9-2.9,2.3-3.4c4.5-4.2,8.6-14.4,8.6-14.4S25.4,43.9,32,46.7z"/>
	<circle class="st0" cx="33.7" cy="7" r="6.3"/>
	<path class="st0" d="M15.1,31.1c0,0.1,0,0.2,0,0.3c0-0.1,0-0.3,0-0.5C15.1,31,15.1,31,15.1,31.1z"/>
</g>
</svg>
