<?xml version="1.0" encoding="utf-8"?>
<!-- Generator: Adobe Illustrator 25.1.0, SVG Export Plug-In . SVG Version: 6.00 Build 0)  -->
<svg version="1.1" xmlns="http://www.w3.org/2000/svg" xmlns:xlink="http://www.w3.org/1999/xlink" x="0px" y="0px"
	 viewBox="0 0 82.5 82.5" style="enable-background:new 0 0 82.5 82.5;" xml:space="preserve">
<style type="text/css">
	.st0{fill:#C48726;}
	.st1{fill:none;stroke:#C48726;stroke-width:2;stroke-linecap:round;stroke-linejoin:round;stroke-miterlimit:10;}
</style>
<g id="Calque_4_1_">
	<g id="Layer_4">
		<g>
			<path class="st0" d="M40.7,38l-3.4,8.2c2.8,3.4,1.6,8.3,1.6,8.3l4.6,6.9l16.9,17.7l0,0h-8.3l-16.2-17l-4.6,17h-6l5.8-21.4
				C24.6,52.5,25.8,43,25.8,43c0.1-2.3,0.5-3.5,0.5-3.5l2.6-6.2L21.7,6.2h0c0,0,0-0.1,0-0.2c0-1.4,1.4-2,3-1.9
				c1.6,0.1,2.8,1,2.8,2.1v0l6,22.3l7,2.9l0-0.1l0.4,0.3l0,0L61.7,45l0,0c0.6,0.5,1.1,1.2,1.1,2.1c0,1.5-1.2,2.7-2.8,2.7
				c-0.4,0-0.8-0.1-1.2-0.2c0,0-0.1,0-0.1-0.1c0,0,0,0,0,0l-0.4-0.3c0,0,0,0,0,0L40.7,38z"/>
			<path class="st0" d="M58.8,49.5L58.8,49.5l-0.1-0.1C58.7,49.5,58.8,49.5,58.8,49.5z"/>
			<circle class="st0" cx="41.2" cy="23.6" r="6"/>
		</g>
	</g>
	<g id="fork">
		<path class="st0" d="M15.3,21.8l2.2,10.5c0.5,2.5-0.8,5.1-3,6.1L18,50.8c0.2,0.9,0,1.8-0.4,2.5c-0.5,0.7-1.2,1.2-2.1,1.4
			c-1.7,0.4-3.5-0.8-3.8-2.5l-1.6-12.9c-2.5-0.1-4.7-1.9-5.3-4.4L2.7,24.4c-0.1-0.4,0.1-0.9,0.4-1.1c0.5-0.3,1.2-0.2,1.5,0.3l3,4.3
			l0.5-4.3c0-0.4,0.2-0.7,0.6-0.8c0.5-0.3,1.2-0.1,1.5,0.4l2.1,3.7l1-5.2c0.1-0.5,0.5-0.9,1.1-0.9C14.8,20.9,15.3,21.3,15.3,21.8z"
			/>
	</g>
	<g id="icons">
		<g id="cart">
			<path class="st0" d="M76.1,22.1l-20.6-3.2c-0.9-0.1-1.5,0.6-1.5,1.3l0.6,8.2c0.1,1.2,1,2.3,2.3,2.5l14.3,2.2
				c1.3,0.2,2.5-0.5,2.9-1.7l3-7.7C77.4,23.1,76.9,22.2,76.1,22.1z M63.5,26.7c-0.1,0.6-0.7,1.2-1.5,1.1c-0.8-0.1-1.2-0.8-1.1-1.5
				l0.4-2.6c0.1-0.6,0.7-1.2,1.5-1.1c0.8,0.1,1.2,0.8,1.1,1.5L63.5,26.7z M68.7,27.5c-0.1,0.6-0.7,1.2-1.5,1.1
				c-0.8-0.1-1.2-0.8-1.1-1.5l0.4-2.6c0.1-0.6,0.7-1.2,1.5-1.1c0.8,0.1,1.2,0.8,1.1,1.5L68.7,27.5z"/>
			<path class="st0" d="M78.4,15.9l-2.8-0.4L74,8.9c-0.3-1.4-1.8-2.2-3.1-1.9c-1.4,0.3-2.2,1.8-1.9,3.1l1,4.5l-6.4-1l2.3-4
				c0.7-1.2,0.3-2.8-0.9-3.6s-2.8-0.3-3.6,0.9l-3.4,5.8l-2.8-0.4c-1.4-0.2-2.7,0.8-3,2.2l-0.2,1.3c-0.1,0.8,0.3,1.4,1.1,1.5l25.7,4
				c0.8,0.1,1.4-0.3,1.5-1.1l0.2-1.3C80.8,17.4,79.8,16.1,78.4,15.9z"/>
		</g>
	</g>
</g>
<g id="Calque_5">
	<path class="st1" d="M71.9,69.4l-11-6c-0.8-0.4-1-1.4-0.6-2.1l0,0c0.4-0.8,1.4-1,2.1-0.6"/>
	<path class="st0" d="M80.4,55.3l-6,11c-0.4,0.8-1.4,1-2.1,0.6l-11-6l-1.8-0.1l6.8-12.4c0.6-1.1,2.1-1.6,3.2-0.9l10.3,5.6
		C80.6,53.6,80.8,54.6,80.4,55.3z"/>
</g>
</svg>
