<?xml version="1.0" encoding="utf-8"?>
<!-- Generator: Adobe Illustrator 21.1.0, SVG Export Plug-In . SVG Version: 6.00 Build 0)  -->
<svg version="1.1" xmlns="http://www.w3.org/2000/svg" xmlns:xlink="http://www.w3.org/1999/xlink" x="0px" y="0px"
	 viewBox="0 0 960 1106.9" style="enable-background:new 0 0 960 1106.9;" xml:space="preserve">
<style type="text/css">
	.st0{fill:#CBE6F9;}
	.st1{fill:#0080C9;}
	.st2{fill:#1D1D1B;}
	.st3{font-family:'MyriadPro-CondIt';}
	.st4{font-size:18px;}
	.st5{font-family:'MyriadPro-Cond';}
	.st6{fill:#F18700;}
	.st7{font-family:'MyriadPro-BoldCond';}
	.st8{font-size:14.4552px;}
	.st9{fill:#2A6AB2;}
	.st10{font-family:'MyriadPro-SemiboldCond';}
	.st11{font-family:'MyriadPro-Bold';}
	.st12{font-size:41.1794px;}
	.st13{font-size:97.7242px;}
	.st14{fill:#B3B3B3;}
	.st15{fill:#E6E6E6;}
	.st16{fill:#231F20;}
	.st17{font-size:21.3571px;}
	.st18{fill:none;stroke:#231F20;stroke-width:2;stroke-miterlimit:10;}
	.st19{fill:none;}
	.st20{font-family:'MyriadPro-BlackSemiCn';}
	.st21{font-size:2.6007px;}
	.st22{fill:#929497;}
	.st23{fill:#BBBDBF;}
	.st24{fill:#A6A8AB;}
	.st25{fill:#D0D2D3;}
	.st26{fill:#EA5B0C;}
	.st27{font-family:'MyriadPro-Semibold';}
	.st28{font-size:36.8016px;}
	.st29{fill:#4D4D4D;}
	.st30{opacity:0.15;fill:#F2F2F2;}
	.st31{fill:#FFFFFF;}
	.st32{fill:#754C24;}
	.st33{fill:#8C6239;}
	.st34{fill:#8A9092;}
	.st35{fill:#333333;}
	.st36{fill:#C5C5C5;}
	.st37{fill:#9D9D9D;}
	.st38{fill:#CCCCCC;}
	.st39{fill:#999999;}
	.st40{font-size:10px;}
	.st41{opacity:0.22;fill:#F2F2F2;}
	.st42{fill:#F8E8D8;}
	.st43{fill:none;stroke:#000000;stroke-miterlimit:10;}
	.st44{font-size:36px;}
	.st45{fill:#034EA2;}
	.st46{fill:#FFF100;}
	.st47{font-size:17.2753px;}
</style>
<g id="Layer_4">
	
		<rect x="24.4" y="171.3" transform="matrix(2.344531e-11 -1 1 2.344531e-11 -171.3325 1131.3325)" class="st0" width="911.2" height="960"/>
	<rect class="st1" width="960" height="207.9"/>
</g>
<g id="Layer_2">
	<g>
		<text transform="matrix(1 0 0 1 851.0884 1082.3859)"><tspan x="0" y="0" class="st2 st3 st4">Source</tspan><tspan x="35.6" y="0" class="st2 st5 st4">: Eurostat</tspan></text>
	</g>
	<g>
		<text transform="matrix(1 0 0 1 836.6971 1060.3621)" class="st2 st5 st4">Data refer to 2018.</text>
	</g>
	<g>
		<text transform="matrix(1 0 0 1 841.5848 1038.3381)" class="st2 st5 st4">*Non-EU country.</text>
	</g>
	<text transform="matrix(1 0 0 1 342.3315 482.8621)" class="st6 st7 st8">24.2</text>
	<text transform="matrix(1 0 0 1 342.3311 521.8621)" class="st6 st7 st8">17.0</text>
	<text transform="matrix(1 0 0 1 342.332 561.8621)" class="st6 st7 st8">11.8</text>
	<text transform="matrix(1 0 0 1 342.3315 600.8621)" class="st6 st7 st8">9.3</text>
	<text transform="matrix(1 0 0 1 342.3311 640.8621)" class="st6 st7 st8">9.1</text>
	<text transform="matrix(1 0 0 1 342.3315 680.8625)" class="st6 st7 st8">8.8</text>
	<text transform="matrix(1 0 0 1 342.3315 719.8625)" class="st6 st7 st8">7.4</text>
	<text transform="matrix(1 0 0 1 342.332 759.8625)" class="st6 st7 st8">7.0</text>
	<text transform="matrix(1 0 0 1 642.1255 498.8625)" class="st6 st7 st8">6.4</text>
	<text transform="matrix(1 0 0 1 342.3315 798.8621)" class="st6 st7 st8">5.7</text>
	<text transform="matrix(1 0 0 1 342.3315 838.8621)" class="st6 st7 st8">5.7</text>
	<text transform="matrix(1 0 0 1 342.332 878.8621)" class="st6 st7 st8">5.2</text>
	<text transform="matrix(1 0 0 1 342.332 957.8621)" class="st6 st7 st8">4.0</text>
	<text transform="matrix(1 0 0 1 342.332 917.8618)" class="st6 st7 st8">4.0</text>
	<text transform="matrix(1 0 0 1 342.3315 997.3618)" class="st6 st7 st8">2.8</text>
	<text transform="matrix(1 0 0 1 342.3311 1014.3623)" class="st9 st7 st8">1.8</text>
	<text transform="matrix(1 0 0 1 342.3315 974.8621)" class="st9 st7 st8">3.5</text>
	<text transform="matrix(1 0 0 1 342.3315 934.8623)" class="st9 st7 st8">3.7</text>
	<g>
		<text transform="matrix(1 0 0 1 478.6606 1071.4473)" class="st6 st7 st8">3.9</text>
	</g>
	<text transform="matrix(1 0 0 1 477.8174 1088.5287)" class="st9 st7 st8">3.9</text>
	<text transform="matrix(1 0 0 1 342.3315 895.8623)" class="st9 st7 st8">4.8</text>
	<text transform="matrix(1 0 0 1 342.3315 855.8621)" class="st9 st7 st8">4.6</text>
	<text transform="matrix(1 0 0 1 342.3315 815.8625)" class="st9 st7 st8">5.3</text>
	<text transform="matrix(1 0 0 1 642.124 482.8623)" class="st9 st7 st8">8.4</text>
	<text transform="matrix(1 0 0 1 642.1255 538.8625)" class="st6 st7 st8">7.3</text>
	<text transform="matrix(1 0 0 1 642.124 521.8623)" class="st9 st7 st8">7.4</text>
	<text transform="matrix(1 0 0 1 642.1255 578.8625)" class="st6 st7 st8">5.4</text>
	<text transform="matrix(1 0 0 1 642.124 561.8623)" class="st9 st7 st8">6.9</text>
	<text transform="matrix(1 0 0 1 642.1255 617.8625)" class="st6 st7 st8">6.3</text>
	<text transform="matrix(1 0 0 1 642.124 600.8623)" class="st9 st7 st8">6.4</text>
	<text transform="matrix(1 0 0 1 642.1255 657.8625)" class="st6 st7 st8">5.6</text>
	<text transform="matrix(1 0 0 1 642.124 640.8623)" class="st9 st7 st8">6.3</text>
	<text transform="matrix(1 0 0 1 642.1255 696.8625)" class="st6 st7 st8">5.7</text>
	<text transform="matrix(1 0 0 1 642.124 680.8623)" class="st9 st7 st8">5.8</text>
	<text transform="matrix(1 0 0 1 642.1255 736.8625)" class="st6 st7 st8">4.7</text>
	<text transform="matrix(1 0 0 1 642.124 719.8623)" class="st9 st7 st8">5.7</text>
	<text transform="matrix(1 0 0 1 642.1255 776.8625)" class="st6 st7 st8">5.3</text>
	<text transform="matrix(1 0 0 1 642.124 759.8623)" class="st9 st7 st8">5.4</text>
	<text transform="matrix(1 0 0 1 642.1255 815.8625)" class="st6 st7 st8">4.7</text>
	<text transform="matrix(1 0 0 1 642.124 798.8623)" class="st9 st7 st8">5.0</text>
	<text transform="matrix(1 0 0 1 642.1255 855.8625)" class="st6 st7 st8">3.5</text>
	<text transform="matrix(1 0 0 1 642.124 838.8623)" class="st9 st7 st8">4.7</text>
	<text transform="matrix(1 0 0 1 642.1255 895.8623)" class="st6 st7 st8">4.0</text>
	<text transform="matrix(1 0 0 1 642.124 878.8623)" class="st9 st7 st8">4.1</text>
	<text transform="matrix(1 0 0 1 642.1255 934.8623)" class="st6 st7 st8">3.6</text>
	<text transform="matrix(1 0 0 1 642.124 917.8625)" class="st9 st7 st8">4.1</text>
	<text transform="matrix(1 0 0 1 642.1255 1014.3623)" class="st6 st7 st8">2.9</text>
	<text transform="matrix(1 0 0 1 642.124 997.3625)" class="st9 st7 st8">3.8</text>
	<text transform="matrix(1 0 0 1 642.1255 974.8625)" class="st6 st7 st8">3.6</text>
	<text transform="matrix(1 0 0 1 642.124 957.8623)" class="st9 st7 st8">3.8</text>
	<text transform="matrix(1 0 0 1 642.1255 1055.8625)" class="st6 st7 st8">2.6</text>
	<text transform="matrix(1 0 0 1 642.124 1038.8623)" class="st9 st7 st8">2.9</text>
	<text transform="matrix(1 0 0 1 342.3311 776.8621)" class="st9 st7 st8">6.1</text>
	<text transform="matrix(1 0 0 1 342.3315 736.8625)" class="st9 st7 st8">6.6</text>
	<text transform="matrix(1 0 0 1 342.3315 697.8625)" class="st9 st7 st8">8.1</text>
	<text transform="matrix(1 0 0 1 342.3311 657.8625)" class="st9 st7 st8">9.0</text>
	<text transform="matrix(1 0 0 1 342.3315 617.8621)" class="st9 st7 st8">7.7</text>
	<text transform="matrix(1 0 0 1 342.3315 578.8621)" class="st9 st7 st8">9.7</text>
	<text transform="matrix(1 0 0 1 342.3311 537.8621)" class="st9 st7 st8">13.7</text>
	<text transform="matrix(1 0 0 1 342.3311 498.8621)" class="st9 st7 st8">15.4</text>
	<g>
		<text transform="matrix(0.8758 0 0 1 410.7967 385.6722)" class="st2 st10 st4">% of active population</text>
	</g>
	<g>
		<text transform="matrix(0.8758 0 0 1 219.5002 413.7259)" class="st2 st10 st4">Member States in which</text>
	</g>
	<text transform="matrix(1 -6.300000e-04 6.300000e-04 1 276.2634 340.0185)" class="st2 st11 st12">Who has a higher rate?</text>
	<text transform="matrix(0.8758 0 0 1 219.5 429.3374)" class="st6 st11 st4">women</text>
	<text transform="matrix(0.8758 0 0 1 219.5 445.8643)" class="st2 st10 st4">have a higher unemployment rate</text>
	<g>
		<text transform="matrix(0.8758 0 0 1 567.9966 413.7258)" class="st2 st10 st4">Member States in which</text>
	</g>
	<text transform="matrix(0.8758 0 0 1 694.8816 429.3373)" class="st9 st11 st4">men</text>
	<text transform="matrix(0.8758 0 0 1 502.0232 445.8642)" class="st2 st10 st4">have a higher unemployment rate</text>
</g>
<g id="Layer_1">
</g>
<g id="Layer_6">
</g>
<g id="Layer_3">
</g>
<g id="Layer_5">
</g>
<g id="Layer_7">
	<text transform="matrix(1 0 0 1 219.8794 286.3311)" class="st1 st7 st13">Unemployment</text>
</g>
<g id="Layer_9">
	
		<rect x="401" y="30.2" transform="matrix(0.9951 -9.841403e-02 9.841403e-02 0.9951 -7.5573 49.5912)" class="st14" width="195.8" height="142.5"/>
	
		<rect x="403.6" y="33.3" transform="matrix(0.9979 -6.426609e-02 6.426609e-02 0.9979 -5.6825 32.4451)" class="st15" width="195.8" height="142.5"/>
	<text transform="matrix(0.9979 -6.427000e-02 6.427000e-02 0.9979 410.375 66.9928)" class="st16 st11 st17">NEWS</text>
	<line class="st18" x1="408.3" y1="75.4" x2="565.4" y2="65.3"/>
	<g>
		<line class="st19" x1="522.5" y1="145" x2="577.9" y2="141.4"/>
		<g>
			<g>
				<line class="st19" x1="522.5" y1="145" x2="522.4" y2="143.6"/>
				<line class="st19" x1="533.6" y1="144.3" x2="533.5" y2="142.9"/>
				<line class="st19" x1="544.7" y1="143.5" x2="544.6" y2="142.2"/>
				<line class="st19" x1="555.7" y1="142.8" x2="555.6" y2="141.4"/>
				<line class="st19" x1="566.8" y1="142.1" x2="566.7" y2="140.7"/>
				<line class="st19" x1="577.9" y1="141.4" x2="577.8" y2="140"/>
			</g>
		</g>
	</g>
	<g>
		<g>
			<text transform="matrix(0.9979 -6.427000e-02 6.427000e-02 0.9979 520.3485 146.0098)" class="st20 st21">0</text>
			<text transform="matrix(0.9979 -6.427000e-02 6.427000e-02 0.9979 518.3041 135.0208)" class="st20 st21">20</text>
			<text transform="matrix(0.9979 -6.427000e-02 6.427000e-02 0.9979 517.591 123.9491)" class="st20 st21">40</text>
			<text transform="matrix(0.9979 -6.427000e-02 6.427000e-02 0.9979 516.8777 112.8734)" class="st20 st21">60</text>
			<text transform="matrix(0.9979 -6.427000e-02 6.427000e-02 0.9979 516.1646 101.8017)" class="st20 st21">80</text>
			<text transform="matrix(0.9979 -6.427000e-02 6.427000e-02 0.9979 514.1198 90.8137)" class="st20 st21">100</text>
		</g>
		<line class="st19" x1="522.5" y1="145" x2="518.9" y2="89.6"/>
		<g>
			<g>
				<line class="st19" x1="522.5" y1="145" x2="523.9" y2="144.9"/>
				<line class="st19" x1="521.8" y1="133.9" x2="523.2" y2="133.8"/>
				<line class="st19" x1="521.1" y1="122.8" x2="522.5" y2="122.7"/>
				<line class="st19" x1="520.4" y1="111.7" x2="521.8" y2="111.7"/>
				<line class="st19" x1="519.7" y1="100.7" x2="521" y2="100.6"/>
				<line class="st19" x1="518.9" y1="89.6" x2="520.3" y2="89.5"/>
			</g>
		</g>
	</g>
	<g>
		<g>
			<g>
				
					<rect x="522.3" y="89.2" transform="matrix(0.9979 -6.426609e-02 6.426609e-02 0.9979 -6.4263 34.0628)" class="st22" width="8" height="55.5"/>
				
					<rect x="534.1" y="110.6" transform="matrix(0.9979 -6.426609e-02 6.426609e-02 0.9979 -7.0677 34.8417)" class="st22" width="8" height="33.3"/>
				
					<rect x="545.7" y="126.6" transform="matrix(0.9979 -6.426609e-02 6.426609e-02 0.9979 -7.5317 35.6034)" class="st23" width="8" height="16.6"/>
				
					<rect x="556.9" y="131.4" transform="matrix(0.9979 -6.426609e-02 6.426609e-02 0.9979 -7.6405 36.3307)" class="st24" width="8" height="11.1"/>
				
					<rect x="567.5" y="114" transform="matrix(0.9979 -6.426609e-02 6.426609e-02 0.9979 -7.0391 36.9894)" class="st24" width="8" height="27.7"/>
			</g>
		</g>
	</g>
	
		<rect x="412.2" y="83.8" transform="matrix(0.9979 -6.426609e-02 6.426609e-02 0.9979 -4.7266 29.8109)" class="st24" width="97.6" height="9.2"/>
	
		<rect x="413.2" y="102.1" transform="matrix(0.9979 -6.426609e-02 6.426609e-02 0.9979 -5.7363 29.7242)" class="st25" width="91.9" height="3.8"/>
	
		<rect x="413.8" y="110.8" transform="matrix(0.9979 -6.426609e-02 6.426609e-02 0.9979 -6.2916 29.7779)" class="st25" width="91.9" height="3.8"/>
	
		<rect x="414.3" y="119.4" transform="matrix(0.9979 -6.426609e-02 6.426609e-02 0.9979 -6.8469 29.8316)" class="st25" width="91.9" height="3.8"/>
	
		<rect x="414.9" y="128.1" transform="matrix(0.9979 -6.426609e-02 6.426609e-02 0.9979 -7.4021 29.8854)" class="st25" width="91.9" height="3.8"/>
	
		<rect x="415.4" y="136.8" transform="matrix(0.9979 -6.426609e-02 6.426609e-02 0.9979 -7.9574 29.9391)" class="st25" width="91.9" height="3.8"/>
	
		<rect x="416" y="145.4" transform="matrix(0.9979 -6.426609e-02 6.426609e-02 0.9979 -8.5127 29.9928)" class="st25" width="91.9" height="3.8"/>
	
		<rect x="416.6" y="154.1" transform="matrix(0.9979 -6.426609e-02 6.426609e-02 0.9979 -9.0679 30.0466)" class="st25" width="91.9" height="3.8"/>
	
		<rect x="417.1" y="162.7" transform="matrix(0.9979 -6.426609e-02 6.426609e-02 0.9979 -9.6232 30.1003)" class="st25" width="91.9" height="3.8"/>
	
		<rect x="522.6" y="148.3" transform="matrix(0.9979 -6.426609e-02 6.426609e-02 0.9979 -8.4538 35.7581)" class="st25" width="57.9" height="1.9"/>
</g>
<g id="Layer_8">
	<text transform="matrix(1 0 0 1 438.2246 140.7705)" class="st26 st27 st28">JOB</text>
	<rect x="496" y="151.8" transform="matrix(0.7071 -0.7071 0.7071 0.7071 35.1247 399.066)" width="6.7" height="10.6"/>
	
		<rect x="498.8" y="150.6" transform="matrix(0.7071 -0.7071 0.7071 0.7071 36.3244 399.5629)" class="st29" width="3.3" height="10.6"/>
	<path class="st29" d="M468.5,86.3c-22.5,0-40.7,18.2-40.7,40.7s18.2,40.7,40.7,40.7c22.5,0,40.7-18.2,40.7-40.7
		S491,86.3,468.5,86.3z M468.5,163.2c-20,0-36.2-16.2-36.2-36.2s16.2-36.2,36.2-36.2c20,0,36.2,16.2,36.2,36.2
		S488.5,163.2,468.5,163.2z"/>
	<circle class="st30" cx="468.2" cy="127.1" r="36.2"/>
	<circle class="st30" cx="468.5" cy="127.1" r="36.2"/>
	<path class="st31" d="M459.3,97.6c17.9,0,33.3,10.8,39.9,26.3c-1.6-15.6-14.8-27.8-30.8-27.8c-3.3,0-6.5,0.5-9.4,1.5
		C459.2,97.6,459.2,97.6,459.3,97.6z"/>
	
		<rect x="522.3" y="149.1" transform="matrix(0.7071 -0.7071 0.7071 0.7071 22.7497 428.942)" class="st32" width="13.7" height="75.8"/>
	
		<rect x="528.3" y="146.6" transform="matrix(0.7071 -0.7071 0.7071 0.7071 25.2436 429.9751)" class="st33" width="6.7" height="75.8"/>
	<path d="M494.3,152.5c-6.6,6.6-15.7,10.7-25.7,10.7c-20,0-36.2-16.2-36.2-36.2c0-10.1,4.1-19.2,10.7-25.7l-3.2-3.2
		c-7.5,7.4-12.1,17.6-12.1,28.9c0,22.5,18.2,40.7,40.7,40.7c11.3,0,21.6-4.6,28.9-12.1L494.3,152.5z"/>
	<path d="M202.9,31.5c-0.5-3.3-3.7-5.6-6.9-5.1l-74,11.2c-3.2,0.5-5.4,3.6-4.9,6.9l21.1,138.9c0.5,3.3,3.4,4.7,6.6,4.2l74-11.2
		c3.2-0.5,5.7-2.7,5.2-6L202.9,31.5z M217.7,160.9c0.5,3.3-1.5,5.9-4.7,6.4l-64.1,9.7c-3.2,0.5-5.6-1.4-6.1-4.7L124,49.2
		c-0.5-3.3,1.2-5.9,4.4-6.4l64.1-9.7c3.2-0.5,5.9,1.4,6.4,4.7L217.7,160.9z"/>
	<path class="st31" d="M214,167.5l-65.4,9.9c-2.9,0.4-5.6-1.6-6.1-4.5l-19-125.3c-0.4-2.9,1.6-5.6,4.5-6.1l65.4-9.9
		c2.9-0.4,5.6,1.6,6.1,4.5l19,125.3C218.9,164.4,216.9,167.1,214,167.5z"/>
	<path class="st34" d="M183,180.4l-2.5,0.4c-1.2,0.2-2.3-0.6-2.5-1.8l-0.4-2.5c-0.2-1.2,0.6-2.3,1.8-2.5l2.5-0.4
		c1.2-0.2,2.3,0.6,2.5,1.8l0.4,2.5C185,179,184.2,180.2,183,180.4z"/>
	<path class="st35" d="M179.6,174.2l2.3-0.3c1.1-0.2,2.1,0.6,2.3,1.7l0.3,2.3c0.2,1.1-0.6,2.1-1.7,2.3l-2.3,0.3
		c-1.1,0.2-2.1-0.6-2.3-1.7l-0.3-2.3C177.7,175.4,178.5,174.4,179.6,174.2z"/>
	<g>
		<path class="st36" d="M844.6,81.7c-1.8-0.8-2.4-3-1.6-4.7l33.4-71.8c0.8-1.8,2.7-2.6,4.5-1.7L960,40.3V26.1L903.2,0.2h-37.4
			l-58.4,125.5c-1,2.2-0.3,4.6,1.9,5.6L960,201.2v-65.8L844.6,81.7z M936.5,178.6c-0.8,1.8-3,2.6-4.7,1.7l-56.3-26.1
			c-1.8-0.8-2.6-3-1.7-4.7l16.7-35.9c0.8-1.8,3-2.6,4.7-1.7l56.3,26.1c1.8,0.8,2.6,3,1.7,4.7L936.5,178.6z"/>
		<path class="st37" d="M951.4,138l-56.3-26.1c-1.8-0.8-3.9-0.1-4.7,1.7l-16.7,35.9c-0.8,1.8-0.1,3.9,1.7,4.7l56.3,26.1
			c1.8,0.8,3.9,0.1,4.7-1.7l16.7-35.9C954,140.9,953.2,138.8,951.4,138z"/>
		<path class="st37" d="M876.4,5.2L843.1,77c-0.8,1.8-0.3,3.9,1.5,4.7L960,135.4v-21.3l-4.8-2.3c-0.7-0.3-0.9-1.2-0.6-2l2.5-5.2
			c0.3-0.7,1-1.1,1.8-0.7l1.1,0.6v-2.8l0-0.1c-0.7-0.3-1.2-1.2-0.8-2l0.9-2.1v-8.2l-0.6-0.4c-0.7-0.3-1.2-1.2-0.8-2l1.5-3.4v-6.7
			l-0.9-0.5c-0.7-0.3-1.2-1.2-0.8-2l1.7-3.9v-9.1l-0.3-0.2c-0.7-0.3-1.2-1.2-0.8-2l1.1-2.7V40.3L880.9,3.5
			C879.1,2.7,877.2,3.5,876.4,5.2z M870.8,33.7l2.4-5.2c0.3-0.7,1.2-1.1,2-0.7l10.5,4.9c0.7,0.3,1.1,1.2,0.7,2l-2.4,5.2
			c-0.3,0.7-1.2,1.1-2,0.7l-10.5-4.9C870.7,35.3,870.4,34.4,870.8,33.7z M928.5,78.9l-2.4,5.2c-0.3,0.7-1.2,1.1-2,0.7l-5.2-2.4
			c-0.7-0.3-1.1-1.2-0.7-2l2.4-5.2c0.3-0.7,1.2-1.1,2-0.7l5.2,2.4C928.5,77.3,928.9,78.2,928.5,78.9z M931,80.1
			c0.3-0.7,1.2-1.1,2-0.7l5.2,2.4c0.7,0.3,1.1,1.2,0.7,2l-2.4,5.2c-0.3,0.7-1.2,1.1-2,0.7l-5.2-2.4c-0.7-0.3-1.1-1.2-0.7-2L931,80.1
			z M907.9,75.7l2.4-5.2c0.3-0.7,1.2-1.1,2-0.7l5.2,2.4c0.7,0.3,1.1,1.2,0.7,2l-2.4,5.2c-0.3,0.7-1.2,1.1-2,0.7l-5.2-2.4
			C907.9,77.3,907.6,76.4,907.9,75.7z M905.5,74.6c-0.3,0.7-1.2,1.1-2,0.7l-5.2-2.4c-0.7-0.3-1.1-1.2-0.7-2l2.4-5.2
			c0.3-0.7,1.2-1.1,2-0.7l5.2,2.4c0.7,0.3,1.1,1.2,0.7,2L905.5,74.6z M925.5,71.5c-0.3,0.7-1.2,1.1-2,0.7l-5.2-2.4
			c-0.7-0.3-1.1-1.2-0.7-2l2.4-5.2c0.3-0.7,1.2-1.1,2-0.7l5.2,2.4c0.7,0.3,1.1,1.2,0.7,2L925.5,71.5z M917.6,61.5l-2.4,5.2
			c-0.3,0.7-1.2,1.1-2,0.7L908,65c-0.7-0.3-1.1-1.2-0.7-2l2.4-5.2c0.3-0.7,1.2-1.1,2-0.7l5.2,2.4C917.6,59.9,917.9,60.7,917.6,61.5z
			 M907.3,56.7l-2.4,5.2c-0.3,0.7-1.2,1.1-2,0.7l-5.2-2.4c-0.7-0.3-1.1-1.2-0.7-2l2.4-5.2c0.3-0.7,1.2-1.1,2-0.7l5.2,2.4
			C907.3,55.1,907.6,55.9,907.3,56.7z M897.6,64.6l-2.4,5.2c-0.3,0.7-1.2,1.1-2,0.7l-5.2-2.4c-0.7-0.3-1.1-1.2-0.7-2l2.4-5.2
			c0.3-0.7,1.2-1.1,2-0.7l5.2,2.4C897.6,63,897.9,63.8,897.6,64.6z M887.2,59.8l-2.4,5.2c-0.3,0.7-1.2,1.1-2,0.7l-5.2-2.4
			c-0.7-0.3-1.1-1.2-0.7-2l2.4-5.2c0.3-0.7,1.2-1.1,2-0.7l5.2,2.4C887.3,58.2,887.6,59,887.2,59.8z M884.9,71.1
			c0.3-0.7,1.2-1.1,2-0.7l5.2,2.4c0.7,0.3,1.1,1.2,0.7,2l-2.4,5.2c-0.3,0.7-1.2,1.1-2,0.7l-5.2-2.4c-0.7-0.3-1.1-1.2-0.7-2
			L884.9,71.1z M892.8,81.1l2.4-5.2c0.3-0.7,1.2-1.1,2-0.7l5.2,2.4c0.7,0.3,1.1,1.2,0.7,2l-2.4,5.2c-0.3,0.7-1.2,1.1-2,0.7l-5.2-2.4
			C892.8,82.7,892.5,81.9,892.8,81.1z M903.2,85.9l2.4-5.2c0.3-0.7,1.2-1.1,2-0.7l5.2,2.4c0.7,0.3,1.1,1.2,0.7,2l-2.4,5.2
			c-0.3,0.7-1.2,1.1-2,0.7l-5.2-2.4C903.1,87.5,902.8,86.7,903.2,85.9z M913.5,90.7l2.4-5.2c0.3-0.7,1.2-1.1,2-0.7l5.2,2.4
			c0.7,0.3,1.1,1.2,0.7,2l-2.4,5.2c-0.3,0.7-1.2,1.1-2,0.7l-5.2-2.4C913.5,92.3,913.1,91.4,913.5,90.7z M923.8,95.5l2.4-5.2
			c0.3-0.7,1.2-1.1,2-0.7l5.2,2.4c0.7,0.3,1.1,1.2,0.7,2l-2.4,5.2c-0.3,0.7-1.2,1.1-2,0.7l-5.2-2.4
			C923.8,97.1,923.5,96.2,923.8,95.5z M934.1,100.3l2.4-5.2c0.3-0.7,1.2-1.1,2-0.7l5.2,2.4c0.7,0.3,1.1,1.2,0.7,2l-2.4,5.2
			c-0.3,0.7-1.2,1.1-2,0.7l-5.2-2.4C934.1,101.9,933.8,101,934.1,100.3z M939.6,92c-0.7-0.3-1.1-1.2-0.7-2l2.4-5.2
			c0.3-0.7,1.2-1.1,2-0.7l5.2,2.4c0.7,0.3,1.1,1.2,0.7,2l-2.4,5.2c-0.3,0.7-1.2,1.1-2,0.7L939.6,92z M946.1,81
			c-0.3,0.7-1.2,1.1-2,0.7l-5.2-2.4c-0.7-0.3-1.1-1.2-0.7-2l2.4-5.2c0.3-0.7,1.2-1.1,2-0.7l5.2,2.4c0.7,0.3,1.1,1.2,0.7,2L946.1,81z
			 M938.2,71l-2.4,5.2c-0.3,0.7-1.2,1.1-2,0.7l-5.2-2.4c-0.7-0.3-1.1-1.2-0.7-2l2.4-5.2c0.3-0.7,1.2-1.1,2-0.7l5.2,2.4
			C938.3,69.4,938.6,70.3,938.2,71z M935.6,63.7c-0.3,0.7-1.2,1.1-2,0.7l-5.2-2.4c-0.7-0.3-1.1-1.2-0.7-2l2.4-5.2
			c0.3-0.7,1.2-1.1,2-0.7l5.2,2.4c0.7,0.3,1.1,1.2,0.7,2L935.6,63.7z M927.7,53.7l-2.4,5.2c-0.3,0.7-1.2,1.1-2,0.7l-5.2-2.4
			c-0.7-0.3-1.1-1.2-0.7-2l2.4-5.2c0.3-0.7,1.2-1.1,2-0.7l5.2,2.4C927.7,52.1,928,53,927.7,53.7z M917.3,49l-2.4,5.2
			c-0.3,0.7-1.2,1.1-2,0.7l-5.2-2.4c-0.7-0.3-1.1-1.2-0.7-2l2.4-5.2c0.3-0.7,1.2-1.1,2-0.7l5.2,2.4C917.4,47.3,917.7,48.2,917.3,49z
			 M907,44.2l-2.4,5.2c-0.3,0.7-1.2,1.1-2,0.7l-5.2-2.4c-0.7-0.3-1.1-1.2-0.7-2l2.4-5.2c0.3-0.7,1.2-1.1,2-0.7l5.2,2.4
			C907.1,42.5,907.4,43.4,907,44.2z M897,51.9l-2.4,5.2c-0.3,0.7-1.2,1.1-2,0.7l-5.2-2.4c-0.7-0.3-1.1-1.2-0.7-2l2.4-5.2
			c0.3-0.7,1.2-1.1,2-0.7l5.2,2.4C897,50.3,897.3,51.2,897,51.9z M886.6,47.1l-2.4,5.2c-0.3,0.7-1.2,1.1-2,0.7l-5.2-2.4
			c-0.7-0.3-1.1-1.2-0.7-2l2.4-5.2c0.3-0.7,1.2-1.1,2-0.7l5.2,2.4C886.7,45.5,887,46.4,886.6,47.1z M866,43.9l2.4-5.2
			c0.3-0.7,1.2-1.1,2-0.7l5.2,2.4c0.7,0.3,1.1,1.2,0.7,2l-2.4,5.2c-0.3,0.7-1.2,1.1-2,0.7l-5.2-2.4C866,45.5,865.7,44.6,866,43.9z
			 M861.3,54.1l2.4-5.2c0.3-0.7,1.2-1.1,2-0.7l10.5,4.9c0.7,0.3,1.1,1.2,0.7,2l-2.4,5.2c-0.3,0.7-1.2,1.1-2,0.7L862,56
			C861.3,55.7,860.9,54.8,861.3,54.1z M856.5,64.3l2.4-5.2c0.3-0.7,1.2-1.1,2-0.7l10.5,4.9c0.7,0.3,1.1,1.2,0.7,2l-2.4,5.2
			c-0.3,0.7-1.2,1.1-2,0.7l-10.5-4.9C856.5,65.9,856.2,65,856.5,64.3z M871.8,79.1l-2.4,5.2c-0.3,0.7-1.2,1.1-2,0.7l-16.2-7.5
			c-0.7-0.3-1.1-1.2-0.7-2l2.4-5.2c0.3-0.7,1.2-1.1,2-0.7l16.2,7.5C871.8,77.5,872.1,78.4,871.8,79.1z M872.2,71.6l2.4-5.2
			c0.3-0.7,1.2-1.1,2-0.7l5.2,2.4c0.7,0.3,1.1,1.2,0.7,2l-2.4,5.2c-0.3,0.7-1.2,1.1-2,0.7l-5.2-2.4
			C872.2,73.2,871.9,72.3,872.2,71.6z M884.5,85l-2.4,5.2c-0.3,0.7-1.2,1.1-2,0.7l-5.2-2.4c-0.7-0.3-1.1-1.2-0.7-2l2.4-5.2
			c0.3-0.7,1.2-1.1,2-0.7l5.2,2.4C884.5,83.4,884.8,84.3,884.5,85z M957.3,116.6c0.7,0.3,1.1,1.2,0.7,2l-3.4,7.4
			c-0.3,0.7-1.2,1.1-2,0.7l-65.2-30.3c-0.7-0.3-1.1-1.2-0.7-2l3.4-7.4c0.3-0.7,1.2-1.1,2-0.7L957.3,116.6z M954.7,103.5l-2.4,5.2
			c-0.3,0.7-1.2,1.1-2,0.7l-5.2-2.4c-0.7-0.3-1.1-1.2-0.7-2l2.4-5.2c0.3-0.7,1.2-1.1,2-0.7l5.2,2.4
			C954.8,101.9,955.1,102.8,954.7,103.5z M959.5,93.3l-2.4,5.2c-0.3,0.7-1.2,1.1-2,0.7l-5.2-2.4c-0.7-0.3-1.1-1.2-0.7-2l2.4-5.2
			c0.3-0.7,1.2-1.1,2-0.7l5.2,2.4C959.5,91.7,959.8,92.6,959.5,93.3z M958.9,80.6l-2.4,5.2c-0.3,0.7-1.2,1.1-2,0.7l-5.2-2.4
			c-0.7-0.3-1.1-1.2-0.7-2L951,77c0.3-0.7,1.2-1.1,2-0.7l5.2,2.4C958.9,79,959.2,79.9,958.9,80.6z M958.6,68.1l-2.4,5.2
			c-0.3,0.7-1.2,1.1-2,0.7l-5.2-2.4c-0.7-0.3-1.1-1.2-0.7-2l2.4-5.2c0.3-0.7,1.2-1.1,2-0.7l5.2,2.4C958.7,66.5,959,67.4,958.6,68.1z
			 M948.9,54.5l2.4-5.2c0.3-0.7,1.2-1.1,2-0.7l5.2,2.4c0.7,0.3,1.1,1.2,0.7,2l-2.4,5.2c-0.3,0.7-1.2,1.1-2,0.7l-5.2-2.4
			C948.9,56.1,948.5,55.2,948.9,54.5z M942.4,58.9l5.2,2.4c0.7,0.3,1.1,1.2,0.7,2l-2.4,5.2c-0.3,0.7-1.2,1.1-2,0.7l-5.2-2.4
			c-0.7-0.3-1.1-1.2-0.7-2l2.4-5.2C940.8,58.9,941.6,58.6,942.4,58.9z M932.6,39l5.2,2.4c0.7,0.3,1.1,1.2,0.7,2l-2.4,5.2
			c-0.3,0.7-1.2,1.1-2,0.7l-5.2-2.4c-0.7-0.3-1.1-1.2-0.7-2l2.4-5.2C931,38.9,931.9,38.6,932.6,39z M922.3,34.2l5.2,2.4
			c0.7,0.3,1.1,1.2,0.7,2l-2.4,5.2c-0.3,0.7-1.2,1.1-2,0.7l-5.2-2.4c-0.7-0.3-1.1-1.2-0.7-2l2.4-5.2
			C920.7,34.2,921.6,33.8,922.3,34.2z M912,29.4l5.2,2.4c0.7,0.3,1.1,1.2,0.7,2l-2.4,5.2c-0.3,0.7-1.2,1.1-2,0.7l-5.2-2.4
			c-0.7-0.3-1.1-1.2-0.7-2l2.4-5.2C910.4,29.4,911.2,29,912,29.4z M897.3,30.5l2.4-5.2c0.3-0.7,1.2-1.1,2-0.7l5.2,2.4
			c0.7,0.3,1.1,1.2,0.7,2l-2.4,5.2c-0.3,0.7-1.2,1.1-2,0.7l-5.2-2.4C897.3,32.1,897,31.3,897.3,30.5z M890.8,35l5.2,2.4
			c0.7,0.3,1.1,1.2,0.7,2l-2.4,5.2c-0.3,0.7-1.2,1.1-2,0.7l-5.2-2.4c-0.7-0.3-1.1-1.2-0.7-2l2.4-5.2C889.2,35,890,34.7,890.8,35z
			 M887,19.4l-2.4,5.2c-0.3,0.7-1.2,1.1-2,0.7l-5.2-2.4c-0.7-0.3-1.1-1.2-0.7-2l2.4-5.2c0.3-0.7,1.2-1.1,2-0.7l5.2,2.4
			C887,17.8,887.3,18.7,887,19.4z"/>
		<path d="M879.1,15.7l-2.4,5.2c-0.3,0.7,0,1.6,0.7,2l5.2,2.4c0.7,0.3,1.6,0,2-0.7l2.4-5.2c0.3-0.7,0-1.6-0.7-2L881,15
			C880.3,14.7,879.4,15,879.1,15.7z"/>
		<path d="M898,32.5l5.2,2.4c0.7,0.3,1.6,0,2-0.7l2.4-5.2c0.3-0.7,0-1.6-0.7-2l-5.2-2.4c-0.7-0.3-1.6,0-2,0.7l-2.4,5.2
			C897,31.3,897.3,32.1,898,32.5z"/>
		<path d="M908.3,37.3l5.2,2.4c0.7,0.3,1.6,0,2-0.7l2.4-5.2c0.3-0.7,0-1.6-0.7-2l-5.2-2.4c-0.7-0.3-1.6,0-2,0.7l-2.4,5.2
			C907.3,36.1,907.6,36.9,908.3,37.3z"/>
		<path d="M918.6,42.1l5.2,2.4c0.7,0.3,1.6,0,2-0.7l2.4-5.2c0.3-0.7,0-1.6-0.7-2l-5.2-2.4c-0.7-0.3-1.6,0-2,0.7l-2.4,5.2
			C917.6,40.8,917.9,41.7,918.6,42.1z"/>
		<path d="M929,46.9l5.2,2.4c0.7,0.3,1.6,0,2-0.7l2.4-5.2c0.3-0.7,0-1.6-0.7-2l-5.2-2.4c-0.7-0.3-1.6,0-2,0.7l-2.4,5.2
			C927.9,45.6,928.2,46.5,929,46.9z"/>
		<path d="M949.6,56.4l5.2,2.4c0.7,0.3,1.6,0,2-0.7l2.4-5.2c0.3-0.7,0-1.6-0.7-2l-5.2-2.4c-0.7-0.3-1.6,0-2,0.7l-2.4,5.2
			C948.5,55.2,948.9,56.1,949.6,56.4z"/>
		<path d="M959,59.3c-0.3,0.7-0.1,1.6,0.6,2l0.4,0.2v-4.9L959,59.3z"/>
		<path d="M871.5,35.6l10.5,4.9c0.7,0.3,1.6,0,2-0.7l2.4-5.2c0.3-0.7,0-1.6-0.7-2l-10.5-4.9c-0.7-0.3-1.6,0-2,0.7l-2.4,5.2
			C870.4,34.4,870.7,35.3,871.5,35.6z"/>
		<path d="M887.1,42.9l5.2,2.4c0.7,0.3,1.6,0,2-0.7l2.4-5.2c0.3-0.7,0-1.6-0.7-2l-5.2-2.4c-0.7-0.3-1.6,0-2,0.7l-2.4,5.2
			C886.1,41.7,886.4,42.5,887.1,42.9z"/>
		<path d="M906.3,42.2l-5.2-2.4c-0.7-0.3-1.6,0-2,0.7l-2.4,5.2c-0.3,0.7,0,1.6,0.7,2l5.2,2.4c0.7,0.3,1.6,0,2-0.7l2.4-5.2
			C907.4,43.4,907.1,42.5,906.3,42.2z"/>
		<path d="M916.6,47l-5.2-2.4c-0.7-0.3-1.6,0-2,0.7l-2.4,5.2c-0.3,0.7,0,1.6,0.7,2l5.2,2.4c0.7,0.3,1.6,0,2-0.7l2.4-5.2
			C917.7,48.2,917.4,47.3,916.6,47z"/>
		<path d="M927,51.8l-5.2-2.4c-0.7-0.3-1.6,0-2,0.7l-2.4,5.2c-0.3,0.7,0,1.6,0.7,2l5.2,2.4c0.7,0.3,1.6,0,2-0.7l2.4-5.2
			C928,53,927.7,52.1,927,51.8z"/>
		<path d="M937.3,56.6l-5.2-2.4c-0.7-0.3-1.6,0-2,0.7l-2.4,5.2c-0.3,0.7,0,1.6,0.7,2l5.2,2.4c0.7,0.3,1.6,0,2-0.7l2.4-5.2
			C938.3,57.8,938,56.9,937.3,56.6z"/>
		<path d="M938.7,66.8l5.2,2.4c0.7,0.3,1.6,0,2-0.7l2.4-5.2c0.3-0.7,0-1.6-0.7-2l-5.2-2.4c-0.7-0.3-1.6,0-2,0.7l-2.4,5.2
			C937.7,65.6,938,66.5,938.7,66.8z"/>
		<path d="M957.9,66.2l-5.2-2.4c-0.7-0.3-1.6,0-2,0.7l-2.4,5.2c-0.3,0.7,0,1.6,0.7,2l5.2,2.4c0.7,0.3,1.6,0,2-0.7l2.4-5.2
			C959,67.4,958.7,66.5,957.9,66.2z"/>
		<path d="M958.4,74.4c-0.3,0.7-0.1,1.6,0.6,2l1,0.5v-6.4L958.4,74.4z"/>
		<path d="M866.7,45.8l5.2,2.4c0.7,0.3,1.6,0,2-0.7l2.4-5.2c0.3-0.7,0-1.6-0.7-2l-5.2-2.4c-0.7-0.3-1.6,0-2,0.7l-2.4,5.2
			C865.7,44.6,866,45.5,866.7,45.8z"/>
		<path d="M885.9,45.1l-5.2-2.4c-0.7-0.3-1.6,0-2,0.7l-2.4,5.2c-0.3,0.7,0,1.6,0.7,2l5.2,2.4c0.7,0.3,1.6,0,2-0.7l2.4-5.2
			C887,46.4,886.7,45.5,885.9,45.1z"/>
		<path d="M891,47.5c-0.7-0.3-1.6,0-2,0.7l-2.4,5.2c-0.3,0.7,0,1.6,0.7,2l5.2,2.4c0.7,0.3,1.6,0,2-0.7l2.4-5.2c0.3-0.7,0-1.6-0.7-2
			L891,47.5z"/>
		<path d="M906.6,54.7l-5.2-2.4c-0.7-0.3-1.6,0-2,0.7l-2.4,5.2c-0.3,0.7,0,1.6,0.7,2l5.2,2.4c0.7,0.3,1.6,0,2-0.7l2.4-5.2
			C907.6,55.9,907.3,55.1,906.6,54.7z"/>
		<path d="M916.9,59.5l-5.2-2.4c-0.7-0.3-1.6,0-2,0.7l-2.4,5.2c-0.3,0.7,0,1.6,0.7,2l5.2,2.4c0.7,0.3,1.6,0,2-0.7l2.4-5.2
			C917.9,60.7,917.6,59.9,916.9,59.5z"/>
		<path d="M927.2,64.3l-5.2-2.4c-0.7-0.3-1.6,0-2,0.7l-2.4,5.2c-0.3,0.7,0,1.6,0.7,2l5.2,2.4c0.7,0.3,1.6,0,2-0.7l2.4-5.2
			C928.3,65.5,927.9,64.6,927.2,64.3z"/>
		<path d="M937.5,69.1l-5.2-2.4c-0.7-0.3-1.6,0-2,0.7l-2.4,5.2c-0.3,0.7,0,1.6,0.7,2l5.2,2.4c0.7,0.3,1.6,0,2-0.7l2.4-5.2
			C938.6,70.3,938.3,69.4,937.5,69.1z"/>
		<path d="M947.8,73.9l-5.2-2.4c-0.7-0.3-1.6,0-2,0.7l-2.4,5.2c-0.3,0.7,0,1.6,0.7,2l5.2,2.4c0.7,0.3,1.6,0,2-0.7l2.4-5.2
			C948.9,75.1,948.6,74.2,947.8,73.9z"/>
		<path d="M953,76.3c-0.7-0.3-1.6,0-2,0.7l-2.4,5.2c-0.3,0.7,0,1.6,0.7,2l5.2,2.4c0.7,0.3,1.6,0,2-0.7l2.4-5.2c0.3-0.7,0-1.6-0.7-2
			L953,76.3z"/>
		<path d="M958.7,87c-0.3,0.7-0.1,1.6,0.6,2l0.7,0.4v-5.7L958.7,87z"/>
		<path d="M890.1,87.1l-3.4,7.4c-0.3,0.7,0,1.6,0.7,2l65.2,30.3c0.7,0.3,1.6,0,2-0.7l3.4-7.4c0.3-0.7,0-1.6-0.7-2L892,86.3
			C891.3,86,890.4,86.3,890.1,87.1z"/>
		<path d="M862,56l10.5,4.9c0.7,0.3,1.6,0,2-0.7l2.4-5.2c0.3-0.7,0-1.6-0.7-2l-10.5-4.9c-0.7-0.3-1.6,0-2,0.7l-2.4,5.2
			C860.9,54.8,861.3,55.7,862,56z"/>
		<path d="M886.5,57.8l-5.2-2.4c-0.7-0.3-1.6,0-2,0.7l-2.4,5.2c-0.3,0.7,0,1.6,0.7,2l5.2,2.4c0.7,0.3,1.6,0,2-0.7l2.4-5.2
			C887.6,59,887.3,58.2,886.5,57.8z"/>
		<path d="M891.6,60.2c-0.7-0.3-1.6,0-2,0.7l-2.4,5.2c-0.3,0.7,0,1.6,0.7,2l5.2,2.4c0.7,0.3,1.6,0,2-0.7l2.4-5.2
			c0.3-0.7,0-1.6-0.7-2L891.6,60.2z"/>
		<path d="M907.2,67.4L902,65c-0.7-0.3-1.6,0-2,0.7l-2.4,5.2c-0.3,0.7,0,1.6,0.7,2l5.2,2.4c0.7,0.3,1.6,0,2-0.7l2.4-5.2
			C908.2,68.6,907.9,67.7,907.2,67.4z"/>
		<path d="M908.6,77.7l5.2,2.4c0.7,0.3,1.6,0,2-0.7l2.4-5.2c0.3-0.7,0-1.6-0.7-2l-5.2-2.4c-0.7-0.3-1.6,0-2,0.7l-2.4,5.2
			C907.6,76.4,907.9,77.3,908.6,77.7z"/>
		<path d="M927.8,77l-5.2-2.4c-0.7-0.3-1.6,0-2,0.7l-2.4,5.2c-0.3,0.7,0,1.6,0.7,2l5.2,2.4c0.7,0.3,1.6,0,2-0.7l2.4-5.2
			C928.9,78.2,928.5,77.3,927.8,77z"/>
		<path d="M929.3,87.2l5.2,2.4c0.7,0.3,1.6,0,2-0.7l2.4-5.2c0.3-0.7,0-1.6-0.7-2l-5.2-2.4c-0.7-0.3-1.6,0-2,0.7l-2.4,5.2
			C928.2,86,928.5,86.9,929.3,87.2z"/>
		<path d="M946.7,93.7l2.4-5.2c0.3-0.7,0-1.6-0.7-2l-5.2-2.4c-0.7-0.3-1.6,0-2,0.7l-2.4,5.2c-0.3,0.7,0,1.6,0.7,2l5.2,2.4
			C945.5,94.8,946.4,94.5,946.7,93.7z"/>
		<path d="M953.6,88.9c-0.7-0.3-1.6,0-2,0.7l-2.4,5.2c-0.3,0.7,0,1.6,0.7,2l5.2,2.4c0.7,0.3,1.6,0,2-0.7l2.4-5.2
			c0.3-0.7,0-1.6-0.7-2L953.6,88.9z"/>
		<path d="M959.3,99.6c-0.3,0.7-0.1,1.6,0.6,2l0.1,0.1v-4.2L959.3,99.6z"/>
		<path d="M857.3,66.2l10.5,4.9c0.7,0.3,1.6,0,2-0.7l2.4-5.2c0.3-0.7,0-1.6-0.7-2l-10.5-4.9c-0.7-0.3-1.6,0-2,0.7l-2.4,5.2
			C856.2,65,856.5,65.9,857.3,66.2z"/>
		<path d="M880.1,75.2l2.4-5.2c0.3-0.7,0-1.6-0.7-2l-5.2-2.4c-0.7-0.3-1.6,0-2,0.7l-2.4,5.2c-0.3,0.7,0,1.6,0.7,2l5.2,2.4
			C878.9,76.3,879.7,76,880.1,75.2z"/>
		<path d="M883.2,78.3l5.2,2.4c0.7,0.3,1.6,0,2-0.7l2.4-5.2c0.3-0.7,0-1.6-0.7-2l-5.2-2.4c-0.7-0.3-1.6,0-2,0.7l-2.4,5.2
			C882.2,77.1,882.5,78,883.2,78.3z"/>
		<path d="M893.6,83.1l5.2,2.4c0.7,0.3,1.6,0,2-0.7l2.4-5.2c0.3-0.7,0-1.6-0.7-2l-5.2-2.4c-0.7-0.3-1.6,0-2,0.7l-2.4,5.2
			C892.5,81.9,892.8,82.7,893.6,83.1z"/>
		<path d="M903.9,87.9l5.2,2.4c0.7,0.3,1.6,0,2-0.7l2.4-5.2c0.3-0.7,0-1.6-0.7-2l-5.2-2.4c-0.7-0.3-1.6,0-2,0.7l-2.4,5.2
			C902.8,86.7,903.1,87.5,903.9,87.9z"/>
		<path d="M914.2,92.7l5.2,2.4c0.7,0.3,1.6,0,2-0.7l2.4-5.2c0.3-0.7,0-1.6-0.7-2l-5.2-2.4c-0.7-0.3-1.6,0-2,0.7l-2.4,5.2
			C913.1,91.4,913.5,92.3,914.2,92.7z"/>
		<path d="M924.5,97.5l5.2,2.4c0.7,0.3,1.6,0,2-0.7l2.4-5.2c0.3-0.7,0-1.6-0.7-2l-5.2-2.4c-0.7-0.3-1.6,0-2,0.7l-2.4,5.2
			C923.5,96.2,923.8,97.1,924.5,97.5z"/>
		<path d="M934.8,102.2l5.2,2.4c0.7,0.3,1.6,0,2-0.7l2.4-5.2c0.3-0.7,0-1.6-0.7-2l-5.2-2.4c-0.7-0.3-1.6,0-2,0.7l-2.4,5.2
			C933.8,101,934.1,101.9,934.8,102.2z"/>
		<path d="M954,101.6l-5.2-2.4c-0.7-0.3-1.6,0-2,0.7l-2.4,5.2c-0.3,0.7,0,1.6,0.7,2l5.2,2.4c0.7,0.3,1.6,0,2-0.7l2.4-5.2
			C955.1,102.8,954.8,101.9,954,101.6z"/>
		<path d="M958.9,103.9c-0.7-0.3-1.5,0-1.8,0.7l-2.4,5.2c-0.3,0.7-0.2,1.6,0.5,2l4.8,2.3v-9.6L958.9,103.9z"/>
		<path d="M883.7,83.1l-5.2-2.4c-0.7-0.3-1.6,0-2,0.7l-2.4,5.2c-0.3,0.7,0,1.6,0.7,2l5.2,2.4c0.7,0.3,1.6,0,2-0.7l2.4-5.2
			C884.8,84.3,884.5,83.4,883.7,83.1z"/>
		<path d="M871.1,77.2l-16.2-7.5c-0.7-0.3-1.6,0-2,0.7l-2.4,5.2c-0.3,0.7,0,1.6,0.7,2l16.2,7.5c0.7,0.3,1.6,0,2-0.7l2.4-5.2
			C872.1,78.4,871.8,77.5,871.1,77.2z"/>
		<polygon class="st36" points="960,24 907.9,0.2 904.8,0.2 960,25.4 		"/>
		<polygon class="st36" points="960,26.1 960,25.4 904.8,0.2 903.2,0.2 		"/>
		<polygon points="960,0.2 907.9,0.2 960,24 		"/>
	</g>
	<path class="st26" d="M199.6,35.9c-0.4-3.1-3.2-5.2-6.1-4.7l-65.7,10.5c-2.9,0.5-4.9,3.3-4.5,6.4l2.6,18.2l76.2-12.7L199.6,35.9z"
		/>
	<text transform="matrix(0.9876 -0.157 0.157 0.9876 152.9282 57.2623)" class="st31 st7 st4">CV</text>
	<circle class="st26" cx="147" cy="82.7" r="13.4"/>
	<path class="st31" d="M152.5,79.4c0.5,2.9-1.3,6.9-4.4,7.5s-6.1-2.6-6.7-5.5c-0.5-2.9,1.6-5.7,4.6-6.2
		C149.1,74.5,152,76.5,152.5,79.4z"/>
	<path class="st31" d="M149.7,86.1c-0.5,0.3-1,0.6-1.6,0.7c-0.6,0.1-1.2,0.1-1.8-0.1l0,0l-3.1,4.6c0,0,3.3,1.7,5.9,1.2
		c2.6-0.5,5.1-3.1,5.1-3.1L149.7,86.1L149.7,86.1z"/>
	<path class="st38" d="M141.9,82.7l1.8-4.3l5.7,1.5l-2.7-1.3l4,0.9l-2.3-1.3l1.6,0.4l1.7,0.3l0.6,3.4c0,0,3.2-10.4-6.7-8.7
		C137,75.2,141.9,82.7,141.9,82.7z"/>
	<rect x="163.2" y="68" transform="matrix(0.9887 -0.1502 0.1502 0.9887 -8.6 27.711)" class="st38" width="31.8" height="5.5"/>
	
		<rect x="164.5" y="76.8" transform="matrix(0.9887 -0.1502 0.1502 0.9887 -9.9398 27.4978)" class="st38" width="25.1" height="5.5"/>
	
		<rect x="137.6" y="100.1" transform="matrix(0.9887 -0.1502 0.1502 0.9887 -13.75 23.7244)" class="st38" width="25.1" height="5.5"/>
	
		<rect x="138.6" y="106.7" transform="matrix(0.9887 -0.1502 0.1502 0.9887 -14.2401 26.9834)" class="st39" width="65.8" height="2.1"/>
	
		<rect x="139.3" y="111.5" transform="matrix(0.9887 -0.1502 0.1502 0.9887 -14.9526 27.1474)" class="st39" width="65.8" height="2.1"/>
	
		<rect x="140" y="116.3" transform="matrix(0.9887 -0.1502 0.1502 0.9887 -15.6652 27.3114)" class="st39" width="65.8" height="2.1"/>
	
		<rect x="140.8" y="121.1" transform="matrix(0.9887 -0.1502 0.1502 0.9887 -16.3778 27.4754)" class="st39" width="65.8" height="2.1"/>
	
		<rect x="142.7" y="133.9" transform="matrix(0.9887 -0.1502 0.1502 0.9887 -18.2894 27.9153)" class="st39" width="65.8" height="2.1"/>
	
		<rect x="143.5" y="138.7" transform="matrix(0.9887 -0.1502 0.1502 0.9887 -19.002 28.0793)" class="st39" width="65.8" height="2.1"/>
	
		<rect x="144.2" y="143.5" transform="matrix(0.9887 -0.1502 0.1502 0.9887 -19.7146 28.2433)" class="st39" width="65.8" height="2.1"/>
	
		<rect x="144.9" y="148.3" transform="matrix(0.9887 -0.1502 0.1502 0.9887 -20.4271 28.4073)" class="st39" width="65.8" height="2.1"/>
	
		<rect x="142" y="128.7" transform="matrix(0.9887 -0.1502 0.1502 0.9887 -17.9933 24.7009)" class="st38" width="25.1" height="5.5"/>
	<path class="st26" d="M207.3,164.6l-18.8,2.9c-3.6,0.5-7-1.9-7.5-5.5v0c-0.5-3.6,1.9-7,5.5-7.5l18.8-2.9c3.6-0.5,7,1.9,7.5,5.5v0
		C213.4,160.7,210.9,164,207.3,164.6z"/>
	<text transform="matrix(0.988 -0.1545 0.1545 0.988 188.339 163.9586)" class="st31 st7 st40">Send</text>
	<path class="st41" d="M193.7,28.5l-71.9,10.9c-1.5,0.2-2.8,0.8-3.8,1.7L189.1,183l27.4-4.2c4.1-0.6,7-4,6.4-8l-20.7-136
		C201.6,30.8,197.7,27.9,193.7,28.5z"/>
</g>
<g id="Layer_11">
</g>
<g id="Layer_12">
	<path class="st42" d="M774.4,322.4c0,4.3-3.6,9.6-8.1,9.6c-4.5,0-8.1-5.3-8.1-9.6c0-4.3,3.6-7.7,8.1-7.7
		C770.8,314.7,774.4,318.1,774.4,322.4z"/>
	<path class="st42" d="M768.8,331.4c-0.8,0.4-1.6,0.6-2.5,0.6c-0.9,0-1.7-0.2-2.5-0.6l0,0l-5.6,5.8l8.1,3.2l8.1-3.2L768.8,331.4
		L768.8,331.4z"/>
	<path class="st42" d="M749.5,380.9v6.6c0,0-3.3,0.4-3.8-2.8c-0.5-3.2-0.6-3.8-0.6-3.8H749.5z"/>
	<path class="st42" d="M783.6,380.9v6.6c0,0,3.3,0.4,3.8-2.8c0.5-3.2,0.6-3.8,0.6-3.8H783.6z"/>
	<path class="st33" d="M770.1,432.7v3.5H782c0,0-1.6-2.6-4-3.5H770.1z"/>
	<path class="st33" d="M761.9,432.7v3.5H750c0,0,1.6-2.6,4-3.5H761.9z"/>
	<g>
		<ellipse class="st33" cx="184.6" cy="325.2" rx="12.5" ry="12.6"/>
		<path class="st42" d="M191.3,324.9c0,4-3,8.9-6.7,8.9s-6.7-4.9-6.7-8.9c0-4,3-7.2,6.7-7.2S191.3,320.9,191.3,324.9z"/>
		<path class="st42" d="M186.7,333.3c-0.6,0.3-1.3,0.5-2.1,0.5c-0.7,0-1.4-0.2-2.1-0.5l0,0l-4.6,5.4l6.7,3l6.7-3L186.7,333.3
			L186.7,333.3z"/>
		<path class="st42" d="M170.4,382v6.5c0,0-3.3,0.4-3.7-2.8c-0.4-3.2-0.6-3.8-0.6-3.8H170.4z"/>
		<path class="st42" d="M198.8,382v6.5c0,0,3.3,0.4,3.7-2.8c0.4-3.2,0.6-3.8,0.6-3.8H198.8z"/>
		<path class="st6" d="M201.9,366.3c-0.4-7.4,0-15.4-0.3-19.3c-0.6-9.5-6.3-9.8-6.3-9.8l-3.4-0.6l-7,3.2l-7.4-3.2l-3.8,0.6
			c0,0-5.7,0.4-6.3,9.8c-0.2,4,0.1,11.9-0.3,19.3c-0.4,8.2-1.5,15.8-1.5,15.8l5.2,0.7l1.8-15.9l0.2-15.5l2.1,15.9l-0.3,5.6l10.2,4.6
			l9.2-4.3l0.4-6.4l1.6-15.5l0.2,15.5l1.8,15.9l5.2-0.7C203.5,382.1,202.4,374.5,201.9,366.3z"/>
		<path class="st6" d="M194.3,369.5l-9.8,1.4l-9.7-1.4c0,0-2.7,6-2.7,9.1c0,3.1,5.8,30.6,5.8,30.6h6.6h0h6.6c0,0,5.8-27.5,5.8-30.6
			C197,375.6,194.3,369.5,194.3,369.5z"/>
		<polygon class="st42" points="184.3,408.9 184.4,433.4 180.4,433.4 178.1,408.9 		"/>
		<polygon class="st42" points="184.8,408.9 184.8,433.4 188.8,433.4 191,408.9 		"/>
		<polygon class="st33" points="184.8,432.7 184.8,434.6 192.3,434.6 188.8,432.7 		"/>
		<polygon class="st33" points="184.4,432.7 184.4,434.6 176.9,434.6 180.4,432.7 		"/>
		<path class="st33" d="M186.1,319.1c-1.8-0.6-5.4,4.5-8.4,3.5c-3-1,2.8-5,6.9-5.2c2.6-0.1,5.5,0.8,5.5,0.8l0.9,2.4
			C191,320.7,187.9,319.7,186.1,319.1z"/>
		<path class="st33" d="M172.2,326.3c0,0-1.2,15-2.5,16c-1.3,1-3.1,0.3-3.1,0.3s1.4,2,3.1,2.2s3.6-0.9,3.6-0.9s-0.4,0.9-2,1.3
			c-0.8,0.2-2.3,0.4-3.2-0.1s1.5,1.8,3.5,1.8s3.1-1.2,3.1-1.2l4.2-5l3.7-7.5C181.3,332.7,172.2,326.3,172.2,326.3z"/>
		<path class="st33" d="M197,326.7c0,0,1.2,14.3,2.5,15.3c1.3,1,3.1,0.3,3.1,0.3s-1.4,1.9-3.1,2.1c-1.6,0.1-3.6-0.8-3.6-0.8
			s0.4,0.9,2,1.3c0.8,0.2,2.3,0.4,3.2-0.1c0.9-0.5-1.5,1.7-3.5,1.7c-2,0-3.1-1.1-3.1-1.1l-4.2-4.8l-3.7-7.1
			C187.9,332.8,197,326.7,197,326.7z"/>
	</g>
	<path class="st33" d="M758.4,324.5l3.6-5.7l7.8,3.6l-3.5-2.5l5.5,2.3l-3-2.4l2.3,0.9l2.4,0.9v5c0,0,7.2-14.1-7.4-14.1
		C753.2,312.5,758.4,324.5,758.4,324.5z"/>
	<polygon class="st9" points="767,376.4 754.2,376 754.2,384.6 755,432.7 762,432.8 766.2,391.7 770.1,432.8 777.2,432.7 779,383.3 
		779,376 	"/>
	<path class="st9" d="M785.7,365.3c0,0-1.1-22.8-1.7-25.1c-0.7-2.3-3.3-2.8-3.3-2.8l-9.7-3.8l-4.6,3.3l-4.6-3.3l-9.7,3.8
		c0,0-2.6,0.4-3.3,2.8c-0.7,2.3-1.7,25.1-1.7,25.1l-2.5,16.1l5.2,0.4l3.3-16.1l2.2-11.7l-1,22l13.1,1.3L779,376v-23.4l1.5,13
		l2.9,16.1l5-0.4L785.7,365.3z"/>
	<polygon class="st31" points="198.3,382.7 198.1,381.6 203.3,381 203.5,382.1 	"/>
	<polygon class="st31" points="165.7,382.1 170.9,382.7 171.1,381.6 165.9,381.1 	"/>
	<polygon class="st31" points="761.7,333.6 760.1,334.2 764,337.8 766.3,336.9 	"/>
	<polygon class="st31" points="766.3,336.9 767.9,338.1 772.7,334.3 770.9,333.6 	"/>
	<polygon class="st31" points="764,337.8 766.3,339.9 767.9,338.1 766.3,336.9 	"/>
	<polygon class="st31" points="749.6,381.7 750,379.7 744.7,379.1 744.4,381.3 	"/>
	<polygon class="st31" points="783.4,381.7 788.4,381.3 788,379.1 783,379.5 	"/>
	<text transform="matrix(0.8758 0 0 1 86.7057 341.3137)" class="st6 st7 st44">7.1 %</text>
	<text transform="matrix(0.8758 0 0 1 806.9531 341.3132)" class="st9 st7 st44">6.6 %</text>
	<g>
		<g>
			<rect x="807" y="361.8" class="st45" width="28.8" height="19.2"/>
		</g>
		<g>
			<polygon class="st46" points="820.7,366 821.3,365.6 822,366 821.7,365.3 822.3,364.9 821.6,364.9 821.3,364.1 821.1,364.9 
				820.4,364.9 821,365.3 			"/>
			<polygon class="st46" points="817.6,366.9 818.2,366.4 818.8,366.9 818.6,366.2 819.2,365.7 818.4,365.7 818.2,365 818,365.7 
				817.2,365.7 817.8,366.2 			"/>
			<polygon class="st46" points="815.9,367.3 815.7,368 814.9,368 815.5,368.5 815.3,369.2 815.9,368.7 816.5,369.2 816.3,368.5 
				816.9,368 816.1,368 			"/>
			<polygon class="st46" points="815.1,371.9 815.7,372.3 815.4,371.6 816,371.2 815.3,371.2 815.1,370.4 814.8,371.2 814.1,371.2 
				814.7,371.6 814.4,372.3 			"/>
			<polygon class="st46" points="816.1,374.3 815.9,373.6 815.7,374.3 814.9,374.3 815.5,374.7 815.3,375.5 815.9,375 816.5,375.5 
				816.3,374.7 816.9,374.3 			"/>
			<polygon class="st46" points="818.4,376.6 818.2,375.9 818,376.6 817.2,376.6 817.8,377.1 817.6,377.8 818.2,377.3 818.8,377.8 
				818.6,377.1 819.2,376.6 			"/>
			<polygon class="st46" points="821.6,377.4 821.3,376.7 821.1,377.4 820.4,377.4 821,377.9 820.7,378.6 821.3,378.2 822,378.6 
				821.7,377.9 822.3,377.4 			"/>
			<polygon class="st46" points="824.7,376.6 824.5,375.9 824.3,376.6 823.5,376.6 824.1,377.1 823.9,377.8 824.5,377.3 
				825.1,377.8 824.9,377.1 825.5,376.6 			"/>
			<polygon class="st46" points="827,374.3 826.8,373.6 826.6,374.3 825.8,374.3 826.4,374.7 826.2,375.5 826.8,375 827.4,375.5 
				827.2,374.7 827.8,374.3 			"/>
			<polygon class="st46" points="828.6,371.1 827.9,371.1 827.6,370.4 827.4,371.1 826.6,371.1 827.2,371.6 827,372.3 827.6,371.9 
				828.2,372.3 828,371.6 			"/>
			<polygon class="st46" points="826.2,369.2 826.8,368.7 827.4,369.2 827.2,368.5 827.8,368 827,368 826.8,367.3 826.6,368 
				825.8,368 826.4,368.5 			"/>
			<polygon class="st46" points="824.5,365 824.3,365.7 823.5,365.7 824.1,366.2 823.9,366.9 824.5,366.4 825.1,366.9 824.9,366.2 
				825.5,365.7 824.7,365.7 			"/>
		</g>
	</g>
	<g>
		<g>
			<rect x="119.2" y="362.9" class="st45" width="28.8" height="19.2"/>
		</g>
		<g>
			<polygon class="st46" points="133,367.1 133.6,366.6 134.2,367.1 133.9,366.3 134.6,365.9 133.8,365.9 133.6,365.2 133.3,365.9 
				132.6,365.9 133.2,366.3 			"/>
			<polygon class="st46" points="129.8,367.9 130.4,367.5 131,367.9 130.8,367.2 131.4,366.7 130.7,366.7 130.4,366 130.2,366.7 
				129.4,366.7 130.1,367.2 			"/>
			<polygon class="st46" points="128.1,368.3 127.9,369.1 127.1,369.1 127.8,369.5 127.5,370.2 128.1,369.8 128.7,370.2 
				128.5,369.5 129.1,369.1 128.4,369.1 			"/>
			<polygon class="st46" points="127.3,372.9 127.9,373.4 127.7,372.6 128.3,372.2 127.5,372.2 127.3,371.5 127.1,372.2 
				126.3,372.2 126.9,372.6 126.7,373.4 			"/>
			<polygon class="st46" points="128.4,375.3 128.1,374.6 127.9,375.3 127.1,375.3 127.8,375.8 127.5,376.5 128.1,376.1 
				128.7,376.5 128.5,375.8 129.1,375.3 			"/>
			<polygon class="st46" points="130.7,377.6 130.4,376.9 130.2,377.6 129.4,377.6 130.1,378.1 129.8,378.8 130.4,378.4 131,378.8 
				130.8,378.1 131.4,377.6 			"/>
			<polygon class="st46" points="133.8,378.5 133.6,377.8 133.3,378.5 132.6,378.5 133.2,378.9 133,379.6 133.6,379.2 134.2,379.6 
				133.9,378.9 134.6,378.5 			"/>
			<polygon class="st46" points="136.9,377.6 136.7,376.9 136.5,377.6 135.7,377.6 136.3,378.1 136.1,378.8 136.7,378.4 
				137.3,378.8 137.1,378.1 137.7,377.6 			"/>
			<polygon class="st46" points="139.3,375.3 139,374.6 138.8,375.3 138,375.3 138.6,375.8 138.4,376.5 139,376.1 139.6,376.5 
				139.4,375.8 140,375.3 			"/>
			<polygon class="st46" points="140.8,372.2 140.1,372.2 139.9,371.5 139.6,372.2 138.9,372.2 139.5,372.6 139.2,373.3 
				139.9,372.9 140.5,373.3 140.2,372.6 			"/>
			<polygon class="st46" points="138.4,370.2 139,369.8 139.6,370.2 139.4,369.5 140,369 139.3,369 139,368.3 138.8,369 138,369 
				138.6,369.5 			"/>
			<polygon class="st46" points="136.7,366 136.5,366.7 135.7,366.7 136.3,367.2 136.1,367.9 136.7,367.5 137.3,367.9 137.1,367.2 
				137.7,366.7 137,366.7 			"/>
		</g>
	</g>
</g>
<g id="Layer_10">
</g>
<g id="graph">
	<g>
		<text transform="matrix(0.8758 0 0 1 577.0146 488.407)" class="st2 st10 st47">LATVIA</text>
	</g>
	<g>
		<text transform="matrix(0.8758 0 0 1 377.3525 726.0334)" class="st2 st10 st47">PORTUGAL</text>
	</g>
	<g>
		<text transform="matrix(0.8758 0 0 1 567.0752 607.2205)" class="st2 st10 st47">SWEDEN</text>
	</g>
	<g>
		<text transform="matrix(0.8758 0 0 1 552.2324 567.6158)" class="st2 st10 st47">LITHUANIA</text>
	</g>
	<g>
		<text transform="matrix(0.8758 0 0 1 557.209 924.0552)" class="st2 st10 st47">NORWAY*</text>
	</g>
	<g>
		<text transform="matrix(0.8758 0 0 1 377.3525 607.2202)" class="st2 st10 st47">CROATIA</text>
	</g>
	<g>
		<text transform="matrix(0.8758 0 0 1 806.9531 358.0438)" class="st2 st10 st47">EU</text>
	</g>
	<g>
		<text transform="matrix(0.8758 0 0 1 127.3467 358.0442)" class="st2 st10 st47">EU</text>
	</g>
	<g>
		<text transform="matrix(0.8758 0 0 1 566.5752 765.6381)" class="st2 st10 st47">ESTONIA</text>
	</g>
	<g>
		<text transform="matrix(0.8758 0 0 1 377.3525 963.6604)" class="st2 st10 st47">HUNGARY</text>
	</g>
	<g>
		<text transform="matrix(0.8758 0 0 1 408.0117 1078.3619)" class="st2 st10 st47">POLAND</text>
	</g>
	<g>
		<text transform="matrix(0.8758 0 0 1 563.791 646.8245)" class="st2 st10 st47">BELGIUM</text>
	</g>
	<g>
		<text transform="matrix(0.8758 0 0 1 377.3525 924.0558)" class="st2 st10 st47">NETHERLANDS</text>
	</g>
	<g>
		<text transform="matrix(0.8758 0 0 1 377.3525 1003.2642)" class="st2 st10 st47">CZECHIA</text>
	</g>
	<g>
		<text transform="matrix(0.8758 0 0 1 564.8809 528.0115)" class="st2 st10 st47">FINLAND</text>
	</g>
	<g>
		<text transform="matrix(0.8758 0 0 1 377.3525 844.8466)" class="st2 st10 st47">SLOVENIA</text>
	</g>
	<g>
		<text transform="matrix(0.8758 0 0 1 377.3525 765.6378)" class="st2 st10 st47">SLOVAKIA</text>
	</g>
	<g>
		<text transform="matrix(0.8758 0 0 1 377.3525 567.6154)" class="st2 st10 st47">ITALY</text>
	</g>
	<g>
		<text transform="matrix(0.8758 0 0 1 557.0742 726.0331)" class="st2 st10 st47">BULGARIA</text>
	</g>
	<g>
		<text transform="matrix(0.8758 0 0 1 506.4365 884.4506)" class="st2 st10 st47">UNITED KINGDOM</text>
	</g>
	<g>
		<text transform="matrix(0.8758 0 0 1 377.252 646.8243)" class="st2 st10 st47">FRANCE</text>
	</g>
	<g>
		<text transform="matrix(0.8758 0 0 1 559.4336 844.8466)" class="st2 st10 st47">ROMANIA</text>
	</g>
	<g>
		<text transform="matrix(0.8758 0 0 1 377.3516 528.011)" class="st2 st10 st47">SPAIN</text>
	</g>
	<g>
		<text transform="matrix(0.8758 0 0 1 577.0088 963.6597)" class="st2 st10 st47">MALTA</text>
	</g>
	<text transform="matrix(0.8758 0 0 1 377.3525 488.4068)" class="st2 st10 st47">GREECE</text>
	<g>
		<text transform="matrix(0.8758 0 0 1 377.3525 884.451)" class="st2 st10 st47">DENMARK</text>
	</g>
	<g>
		<text transform="matrix(0.8758 0 0 1 557.3311 1003.2637)" class="st2 st10 st47">GERMANY</text>
	</g>
	<g>
		<text transform="matrix(0.8758 0 0 1 559.8076 1048.3619)" class="st2 st10 st47">ICELAND*</text>
	</g>
	<g>
		<text transform="matrix(0.8758 0 0 1 376.918 805.2425)" class="st2 st10 st47">LUXEMBOURG</text>
	</g>
	<g>
		<text transform="matrix(0.8758 0 0 1 377.3525 686.4286)" class="st2 st10 st47">CYPRUS</text>
	</g>
	<g>
		<text transform="matrix(0.8758 0 0 1 566.6211 686.4293)" class="st2 st10 st47">IRELAND</text>
	</g>
	<g>
		<text transform="matrix(0.8758 0 0 1 567.2109 805.2424)" class="st2 st10 st47">AUSTRIA</text>
	</g>
</g>
<g id="_x32_017data">
</g>
<g id="_x32_018data">
	<rect x="502.3" y="1056.3" class="st6" width="39.3" height="15"/>
	<g>
		<rect x="83.9" y="467.3" class="st6" width="243.7" height="15.2"/>
		<rect x="172.5" y="484.2" class="st9" width="155.1" height="15.2"/>
	</g>
	<g>
		<rect x="156.4" y="506.9" class="st6" width="171.2" height="15.2"/>
		<rect x="189.6" y="523.8" class="st9" width="138" height="15.2"/>
	</g>
	<g>
		<rect x="208.8" y="546.5" class="st6" width="118.8" height="15.2"/>
		<rect x="229.9" y="563.4" class="st9" width="97.7" height="15.2"/>
	</g>
	<g>
		<rect x="234" y="586.1" class="st6" width="93.7" height="15.2"/>
		<rect x="250.1" y="603" class="st9" width="77.6" height="15.2"/>
	</g>
	<g>
		<rect x="236" y="625.7" class="st6" width="91.7" height="15.2"/>
		<rect x="237" y="642.6" class="st9" width="90.6" height="15.2"/>
	</g>
	<g>
		<rect x="239" y="665.3" class="st6" width="88.6" height="15.2"/>
		<rect x="246" y="682.2" class="st9" width="81.6" height="15.2"/>
	</g>
	<g>
		<rect x="253.1" y="704.9" class="st6" width="74.5" height="15.2"/>
		<rect x="261.2" y="721.8" class="st9" width="66.5" height="15.2"/>
	</g>
	<g>
		<rect x="257.1" y="744.5" class="st6" width="70.5" height="15.2"/>
		<rect x="266.2" y="761.4" class="st9" width="61.4" height="15.2"/>
	</g>
	<g>
		<rect x="270.2" y="784.2" class="st6" width="57.4" height="15.2"/>
		<rect x="274.2" y="801" class="st9" width="53.4" height="15.2"/>
	</g>
	<g>
		<rect x="270.2" y="823.8" class="st6" width="57.4" height="15.2"/>
		<rect x="281.3" y="840.6" class="st9" width="46.3" height="15.2"/>
	</g>
	<g>
		<rect x="275.3" y="863.4" class="st6" width="52.4" height="15.2"/>
		<rect x="279.3" y="880.2" class="st9" width="48.3" height="15.2"/>
	</g>
	<g>
		<rect x="287.3" y="903" class="st6" width="40.3" height="15.2"/>
		<rect x="292.4" y="919.8" class="st9" width="35.3" height="15.2"/>
	</g>
	<g>
		<rect x="287.3" y="942.6" class="st6" width="40.3" height="15.2"/>
		<rect x="290.4" y="959.4" class="st9" width="37.3" height="15.2"/>
	</g>
	<g>
		<rect x="299.4" y="982.2" class="st6" width="28.2" height="15.2"/>
		<rect x="309.5" y="999" class="st9" width="18.1" height="15.2"/>
	</g>
	<g>
		<rect x="675" y="484.3" class="st6" width="64.5" height="15"/>
		<rect x="675" y="467.4" class="st9" width="84.6" height="15"/>
	</g>
	<g>
		<rect x="675" y="523.9" class="st6" width="73.5" height="15"/>
		<rect x="675" y="507" class="st9" width="74.5" height="15"/>
	</g>
	<g>
		<rect x="675" y="563.5" class="st6" width="54.4" height="15"/>
		<rect x="675" y="546.6" class="st9" width="69.5" height="15"/>
	</g>
	<g>
		<rect x="675" y="603.1" class="st6" width="63.5" height="15"/>
		<rect x="675" y="586.2" class="st9" width="64.5" height="15"/>
	</g>
	<g>
		<rect x="675" y="642.7" class="st6" width="56.4" height="15"/>
		<rect x="675" y="625.8" class="st9" width="63.5" height="15"/>
	</g>
	<g>
		<rect x="675" y="682.2" class="st6" width="57.4" height="15.2"/>
		<rect x="675" y="665.3" class="st9" width="58.4" height="15.2"/>
	</g>
	<g>
		<rect x="675" y="721.8" class="st6" width="47.3" height="15.2"/>
		<rect x="675" y="704.9" class="st9" width="57.4" height="15.2"/>
	</g>
	<g>
		<rect x="675" y="761.4" class="st6" width="53.4" height="15.2"/>
		<rect x="675" y="744.5" class="st9" width="54.4" height="15.2"/>
	</g>
	<g>
		<rect x="675" y="801" class="st6" width="47.3" height="15.2"/>
		<rect x="675" y="784.1" class="st9" width="50.4" height="15.2"/>
	</g>
	<g>
		<rect x="675" y="840.6" class="st6" width="35.3" height="15.2"/>
		<rect x="675" y="823.7" class="st9" width="47.3" height="15.2"/>
	</g>
	<g>
		<rect x="675" y="880.2" class="st6" width="40.3" height="15.2"/>
		<rect x="675" y="863.3" class="st9" width="41.3" height="15.2"/>
	</g>
	<g>
		<rect x="675" y="919.8" class="st6" width="36.3" height="15.2"/>
		<rect x="675" y="902.9" class="st9" width="41.3" height="15.2"/>
	</g>
	<g>
		<rect x="675" y="959.4" class="st6" width="29.2" height="15.2"/>
		<rect x="675" y="942.5" class="st9" width="38.3" height="15.2"/>
	</g>
	<g>
		<rect x="675" y="999" class="st6" width="36.3" height="15.2"/>
		<rect x="675" y="982.1" class="st9" width="38.3" height="15.2"/>
	</g>
	<g>
		<rect x="675" y="1041" class="st6" width="26.2" height="15.2"/>
		<rect x="675" y="1024.1" class="st9" width="29.2" height="15.2"/>
	</g>
	<rect x="502.3" y="1073.2" class="st9" width="39.3" height="15"/>
</g>
</svg>
