<svg xmlns="http://www.w3.org/2000/svg" viewBox="0 0 67.73 147.6"><defs><style>.cls-1{fill:#034ea2;}</style></defs><title>AE_3_3_2</title><g id="Layer_2" data-name="Layer 2"><g id="Layer_2-2" data-name="Layer 2"><path class="cls-1" d="M16,15.21A11.92,11.92,0,1,1,28,27.13,11.92,11.92,0,0,1,16,15.21"/><path class="cls-1" d="M42.08,31.77c8.24,1.8,12.45,7.15,14.42,15.94V80.63a4.63,4.63,0,0,1-9.25,0V52.28c0-1.05-.3-2.5-2.27-2.5-1.35,0-1.61,1.42-1.68,2.34v85.15a6.59,6.59,0,0,1-13.17,0V88.17a1.81,1.81,0,0,0-1.67-1.94h-.2A1.84,1.84,0,0,0,26.34,88q0,.08,0,.17v49.09a6.59,6.59,0,0,1-13.17,0V52.12c0-.92-.33-2.34-1.68-2.34-1.94,0-2.24,1.45-2.24,2.5V80.63a4.63,4.63,0,1,1-9.25,0V47.71c3.55-9.47,7.53-12.54,14.45-15.84H42.34"/><path class="cls-1" d="M63.76,83.22s-1.79-8.74-8-7.35-4,10.28-4,10.28l13.52,60c.21.94.9,1.59,1.54,1.45h0c.68-.15,1-1.09.82-2.09L54.39,85.57s-1.15-5.64,2.14-6.39S61.17,84,61.17,84Z"/><path class="cls-1" d="M15.5,14.32V7.94S20.74-2.34,27.7.49,42,7.16,42,7.16l-3.53,5.4Z"/></g></g></svg>