<svg xmlns="http://www.w3.org/2000/svg" viewBox="0 0 67.73 144.3"><defs><style>.cls-1{fill:#F26522;}</style></defs><title>AE_3_3_1</title><g id="Layer_2" data-name="Layer 2"><g id="Layer_2-2" data-name="Layer 2"><path class="cls-1" d="M51.7,11.92a11.92,11.92,0,1,0-12,11.92,11.92,11.92,0,0,0,12-11.92"/><path class="cls-1" d="M4,79.93s1.79-8.74,8-7.35,4,10.28,4,10.28l-13.52,60c-.21.94-.9,1.59-1.54,1.45h0c-.68-.15-1-1.09-.82-2.09L13.34,82.28s1.15-5.64-2.14-6.39-4.64,4.86-4.64,4.86Z"/><path class="cls-1" d="M53.28,28.58H25.39l.26-.1c-8.24,1.8-9.58,7.15-11.55,15.94L11.23,77.34a4.63,4.63,0,1,0,9.25,0L23.35,49c0-1.05.3-2.5,2.27-2.5a1.36,1.36,0,0,1,1.07.46l-12,67.75h9.73V134a6.59,6.59,0,1,0,13.17,0V114.7h3.79V134a6.59,6.59,0,1,0,13.17,0V114.7h8.91L52.29,47a1.41,1.41,0,0,1,1.08-.46c1.94,0,2.24,1.45,2.24,2.5l2.87,28.35a4.63,4.63,0,0,0,9.25,0L64.86,44.42C61.31,34.95,60.2,31.87,53.28,28.58Z"/></g></g></svg>