<?xml version="1.0" standalone="no"?>
<!DOCTYPE svg PUBLIC "-//W3C//DTD SVG 1.1//EN" "http://www.w3.org/Graphics/SVG/1.1/DTD/svg11.dtd" >
<svg xmlns="http://www.w3.org/2000/svg" xmlns:xlink="http://www.w3.org/1999/xlink" version="1.1">
<metadata>
Created by FontForge 20161013 at Fri Jan 15 02:52:44 2010
 By ,,,
(c) 1992, 1994, 1997, 2000, 2004 Adobe Systems Incorporated. All rights reserved.
</metadata>
<defs>
<font id="MyriadPro-CondIt" horiz-adv-x="330" >
  <font-face 
    font-family="Myriad Pro Cond"
    font-weight="400"
    font-style="italic"
    font-stretch="condensed"
    units-per-em="1000"
    panose-1="2 11 5 6 3 4 3 9 2 4"
    ascent="750"
    descent="-250"
    x-height="484"
    cap-height="674"
    bbox="-171 -250 991 933"
    underline-thickness="50"
    underline-position="-250"
    slope="-11"
    unicode-range="U+0020-FB04"
  />
<missing-glyph horiz-adv-x="500" 
d="M0 0v700h500v-700h-500zM250 395l170 255h-340zM280 350l170 -255v510zM80 50h340l-170 255zM50 605v-510l170 255z" />
    <glyph glyph-name="f_f_j" unicode="ffj" horiz-adv-x="614" 
d="M628 679l-22 -57q-32 17 -78 17q-101 0 -121 -140l-2 -15h209l-92 -482q-19 -107 -46 -148q-36 -54 -106 -54q-28 0 -42 5l7 58q24 -3 30 -3q29 0 48.5 24t33.5 94l84 450h-137l-81 -428h-72l81 428h-150l-82 -428h-71l82 428h-60l10 56h61l6 30q17 86 62 131
q43 43 105 43q33 0 59 -14l-26 -56q-17 10 -37 10q-30 0 -52 -22q-28 -28 -42 -98l-5 -24h151l5 24q37 192 198 192q55 0 92 -21z" />
    <glyph glyph-name="f_j" unicode="fj" horiz-adv-x="391" 
d="M405 679l-22 -57q-32 17 -78 17q-101 0 -121 -140l-2 -15h209l-92 -482q-19 -107 -46 -148q-36 -54 -106 -54q-28 0 -42 5l7 58q21 -3 29 -3q29 0 49 24t33 94l85 450h-137l-81 -428h-72l81 428h-60l10 56h61l5 24q37 192 198 192q55 0 92 -21z" />
    <glyph glyph-name="f_f" unicode="ff" horiz-adv-x="449" 
d="M560 692l-17 -58q-17 5 -37 5q-38 0 -63.5 -38.5t-33.5 -93.5l-4 -23h92l-10 -56h-92l-82 -428h-72l82 428h-152l-81 -428h-71l82 428h-60l10 56h61l4 22q18 95 64 141q41 41 103 41q27 0 50 -14l-23 -55q-13 9 -32 9q-69 0 -93 -128l-3 -16h152l6 29q20 100 67 145
q40 40 102 43q31 0 51 -9z" />
    <glyph glyph-name="f_f_i" unicode="ffi" horiz-adv-x="623" 
d="M628 679l-22 -57q-32 17 -78 17q-101 0 -121 -140l-2 -15h209l-92 -484h-72l81 428h-137l-81 -428h-72l81 428h-150l-82 -428h-71l82 428h-60l10 56h61l6 30q17 86 62 131q43 43 105 43q33 0 59 -14l-26 -56q-17 10 -37 10q-30 0 -52 -22q-28 -28 -42 -98l-5 -24h151
l5 24q37 192 198 192q55 0 92 -21z" />
    <glyph glyph-name="f_f_l" unicode="ffl" horiz-adv-x="623" 
d="M344 674l-25 -56q-18 10 -38 10q-30 0 -52 -22q-29 -31 -42 -98l-5 -24h151l5 26q20 106 77 151q48 39 126 39q67 0 108 -24l-128 -676h-71l119 631q-14 9 -46 9q-88 0 -111 -119l-8 -37h84l-11 -56h-83l-81 -428h-72l81 428h-150l-82 -428h-71l82 428h-60l10 56h61l6 30
q16 86 62 132q44 42 105 42q29 0 59 -14z" />
    <glyph glyph-name="f_i" unicode="fi" horiz-adv-x="401" 
d="M91 0h-72l81 428h-60l10 56h61l5 24q31 192 198 192q55 0 92 -21l-22 -57q-32 17 -78 17q-101 0 -121 -140l-2 -15h209l-92 -484h-72l81 428h-137z" />
    <glyph glyph-name="f_l" unicode="fl" horiz-adv-x="401" 
d="M91 0h-72l81 428h-60l10 56h61l5 26q20 106 77 151q48 39 126 39q69 0 108 -25l-128 -675h-71l119 631q-14 9 -46 9q-88 0 -111 -119l-7 -37h83l-11 -56h-83z" />
    <glyph glyph-name=".notdef" horiz-adv-x="500" 
d="M0 0v700h500v-700h-500zM250 395l170 255h-340zM280 350l170 -255v510zM80 50h340l-170 255zM50 605v-510l170 255z" />
    <glyph glyph-name=".null" horiz-adv-x="0" 
 />
    <glyph glyph-name="nonmarkingreturn" horiz-adv-x="333" 
 />
    <glyph glyph-name="space" unicode=" " horiz-adv-x="147" 
 />
    <glyph glyph-name="exclam" unicode="!" horiz-adv-x="204" 
d="M120 187h-63l83 487h84zM57 -8q-21 0 -33.5 14.5t-12.5 37.5q0 22 16.5 40.5t37.5 18.5q23 0 35 -14.5t12 -35.5q0 -25 -16 -43t-39 -18z" />
    <glyph glyph-name="quotedbl" unicode="&#x22;" horiz-adv-x="264" 
d="M108 683h71l-55 -233h-47zM247 683h71l-55 -233h-47z" />
    <glyph glyph-name="numbersign" unicode="#" horiz-adv-x="386" 
d="M146 250h78l45 155h-78zM73 0h-51l59 200h-64l9 50h70l46 155h-70l9 49h76l57 196h50l-58 -196h78l58 196h49l-58 -196h64l-9 -49h-69l-45 -155h70l-9 -49h-76l-59 -201h-51l60 201h-77z" />
    <glyph glyph-name="dollar" unicode="$" horiz-adv-x="386" 
d="M151 -83h-52l20 100q-64 6 -97 33l20 56q52 -31 97 -31q52 0 81.5 31.5t29.5 78.5q0 42 -14.5 69t-47.5 57q-91 81 -91 159q0 60 37.5 106.5t105.5 56.5l17 92h51l-17 -91q46 -3 82 -28l-25 -55q-36 26 -80 26q-43 0 -70.5 -27t-27.5 -70q0 -37 16.5 -62t55.5 -58
q79 -69 79 -156q0 -80 -42 -130t-108 -56z" />
    <glyph glyph-name="percent" unicode="%" horiz-adv-x="648" 
d="M219 658q50 0 73 -38t23 -92q0 -60 -18 -119.5t-56 -102t-87 -42.5q-48 0 -73 37t-25 94q0 59 17 117t55.5 102t90.5 44zM210 611q-25 0 -45 -25t-30.5 -61t-16 -69.5t-5.5 -57.5q0 -87 47 -87q25 0 45 26t31 63t16.5 71t5.5 57q0 83 -48 83zM131 -14h-51l459 677h52z
M523 388q50 0 73 -38t23 -92q0 -60 -18 -119.5t-56 -102t-87 -42.5q-48 0 -73 37t-25 94q0 59 17 117t55.5 102t90.5 44zM514 341q-25 0 -45 -25t-30.5 -61t-16 -69.5t-5.5 -57.5q0 -87 47 -87q25 0 45 26t31 63t16.5 71t5.5 57q0 83 -48 83z" />
    <glyph glyph-name="ampersand" unicode="&#x26;" horiz-adv-x="490" 
d="M422 0h-79q-28 51 -33 60q-66 -68 -151 -68q-69 0 -108.5 45.5t-39.5 111.5q0 136 149 225v3q-29 62 -29 122q0 77 43 130t110 53q58 0 86 -36t28 -85q0 -111 -157 -204v-3q48 -112 93 -194q52 89 79 202h66q-38 -147 -119 -253q18 -36 62 -109zM175 51q63 0 109 58
q-58 110 -103 216q-97 -65 -97 -165q0 -49 26 -79t65 -30zM275 628q-34 0 -55 -35.5t-21 -81.5q0 -53 21 -106q110 69 110 153q0 70 -55 70z" />
    <glyph glyph-name="quotesingle" unicode="'" horiz-adv-x="125" 
d="M108 683h71l-55 -233h-47z" />
    <glyph glyph-name="parenleft" unicode="(" horiz-adv-x="253" 
d="M256 692h64q-92 -103 -146 -241t-54 -281q0 -184 42 -290h-57q-49 113 -49 285q0 151 56 290t144 237z" />
    <glyph glyph-name="parenright" unicode=")" horiz-adv-x="253" 
d="M7 -120h-66q92 103 146 241t54 282q0 187 -42 289h58q48 -114 48 -284q0 -150 -55.5 -289.5t-142.5 -238.5z" />
    <glyph glyph-name="asterisk" unicode="*" horiz-adv-x="370" 
d="M305 682l56 -31l-98 -119v-2l136 19l-10 -65l-130 17l-1 -2l78 -115l-58 -32l-50 132l-2 -1l-69 -134l-53 35l99 118l-1 1l-133 -19l10 65l126 -18l1 2l-72 117l60 29l43 -128h2z" />
    <glyph glyph-name="plus" unicode="+" horiz-adv-x="596" 
d="M273 533h57v-238h230v-55h-230v-240h-57v240h-229v55h229v238z" />
    <glyph glyph-name="comma" unicode="," horiz-adv-x="191" 
d="M9 -119l-57 -7q57 111 91 233l88 10q-23 -60 -60 -131.5t-62 -104.5z" />
    <glyph glyph-name="hyphen" unicode="-" horiz-adv-x="279" 
d="M36 291h220l-11 -59h-220z" />
    <glyph glyph-name="period" unicode="." horiz-adv-x="191" 
d="M62 -8q-21 0 -33.5 15t-12.5 39t16 43t38 19q24 0 36 -15t12 -38q0 -26 -16 -44.5t-40 -18.5z" />
    <glyph glyph-name="slash" unicode="/" horiz-adv-x="281" 
d="M11 -40h-62l353 722h62z" />
    <glyph glyph-name="zero" unicode="0" horiz-adv-x="386" 
d="M269 658q119 0 119 -180q0 -64 -13 -141.5t-39.5 -157.5t-75.5 -133.5t-111 -53.5q-119 0 -119 191q0 71 15 150t42.5 153.5t75.5 123t106 48.5zM263 595q-39 0 -71.5 -47.5t-51 -116.5t-28.5 -135.5t-10 -113.5q0 -64 12.5 -95.5t47.5 -31.5q37 0 68.5 53t49 127.5
t27 143t9.5 110.5q0 106 -53 106z" />
    <glyph glyph-name="one" unicode="1" horiz-adv-x="386" 
d="M137 0l108 573h-2l-114 -61l-4 59l147 79h60l-123 -650h-72z" />
    <glyph glyph-name="two" unicode="2" horiz-adv-x="386" 
d="M295 0h-300l8 48l66 76q43 49 61 70.5t57.5 72t58 83t35 75t16.5 75.5q0 95 -81 95q-38 0 -86 -32l-14 55q59 40 119 40q70 0 102.5 -41t32.5 -103q0 -32 -7.5 -64t-25 -67t-32 -60.5t-44 -63t-44 -56t-48.5 -57.5t-43 -49l-27 -30l1 -2h205z" />
    <glyph glyph-name="three" unicode="3" horiz-adv-x="386" 
d="M7 13l19 61q38 -18 78 -18q61 0 100 44t39 107q0 59 -31.5 89.5t-76.5 29.5h-16l10 57h14q47 1 91.5 36.5t44.5 94.5q0 79 -78 79q-38 0 -70 -19l-6 60q42 24 101 24q63 0 96 -37t33 -91q0 -64 -36.5 -109.5t-87.5 -63.5v-2q39 -14 62.5 -52.5t23.5 -89.5
q0 -97 -61.5 -159t-153.5 -62q-60 0 -95 21z" />
    <glyph glyph-name="four" unicode="4" horiz-adv-x="386" 
d="M252 0h-65l34 182h-210l9 50l285 418h71l-78 -409h71l-11 -59h-71zM92 241h141l34 180q5 26 16 70.5t16 65.5h-3q-48 -83 -85 -138l-119 -176v-2z" />
    <glyph glyph-name="five" unicode="5" horiz-adv-x="386" 
d="M392 650l-15 -66h-155l-52 -174q4 1 11 1q21 0 51.5 -12.5t50.5 -34.5q42 -45 42 -125q0 -102 -66 -174.5t-166 -72.5q-59 0 -86 18l19 61q30 -15 68 -15q69 0 113 50t44 122q0 124 -121 124q-24 0 -41 -3l85 301h218z" />
    <glyph glyph-name="six" unicode="6" horiz-adv-x="386" 
d="M382 658l-7 -64q-4 0 -16 -2q-73 -10 -136 -70t-96 -165h2q48 57 110 57q56 0 84.5 -44t28.5 -108q0 -61 -21 -121.5t-66 -104.5t-103 -44q-69 0 -101.5 53.5t-32.5 138.5q0 103 40.5 205.5t99.5 161.5q93 97 199 106q7 1 15 1zM166 50q29 0 52 21.5t35.5 54.5t18.5 67
t6 65q0 98 -67 98q-24 0 -50 -19t-45 -52q-7 -17 -9 -23q-9 -46 -9 -91q0 -53 17.5 -87t50.5 -34z" />
    <glyph glyph-name="seven" unicode="7" horiz-adv-x="386" 
d="M112 650h307l-9 -46q-176 -347 -318 -604h-76q109 194 315 582l-1 2h-230z" />
    <glyph glyph-name="eight" unicode="8" horiz-adv-x="386" 
d="M258 658q61 0 92.5 -38.5t31.5 -90.5q0 -113 -116 -183l-1 -3q77 -66 77 -160q0 -79 -53.5 -135t-128.5 -56q-65 0 -104 41t-39 107q0 131 139 209v2q-64 61 -64 133q0 70 48 122t118 52zM166 46q46 0 75 40t29 96q0 80 -71 133q-43 -22 -76.5 -68t-33.5 -100
q0 -47 19.5 -74t57.5 -27zM252 604h-2q-37 0 -62.5 -34t-25.5 -84q0 -36 14.5 -60.5t43.5 -50.5q92 58 92 148q0 81 -60 81z" />
    <glyph glyph-name="nine" unicode="9" horiz-adv-x="386" 
d="M41 -8l5 64q30 6 38 8q49 14 93 52q72 62 110 177h-3q-45 -48 -102 -48q-56 0 -85.5 42t-29.5 108q0 96 56.5 179.5t139.5 83.5q67 0 96.5 -48.5t29.5 -120.5q-1 -108 -42 -217t-100 -173q-68 -76 -162 -100q-23 -6 -44 -7zM254 600q-35 0 -62.5 -35t-39.5 -78.5
t-12 -82.5q0 -103 66 -103q25 0 49 17t39 43q7 13 13 37q10 38 10 93q0 52 -13.5 80.5t-49.5 28.5z" />
    <glyph glyph-name="colon" unicode=":" horiz-adv-x="191" 
d="M132 360q-21 0 -33.5 14.5t-12.5 37.5q0 24 16.5 42.5t37.5 18.5q23 0 35 -15t12 -36q0 -26 -16 -44t-39 -18zM62 -8q-21 0 -33.5 14.5t-12.5 37.5q0 24 16.5 42.5t37.5 18.5q23 0 35 -15t12 -37q0 -25 -16 -43t-39 -18z" />
    <glyph glyph-name="semicolon" unicode=";" horiz-adv-x="191" 
d="M8 -119l-56 -7q57 111 91 233l87 10q-24 -61 -60.5 -132t-61.5 -104zM133 360q-21 0 -33.5 14.5t-12.5 37.5q0 24 16.5 42.5t37.5 18.5q23 0 35 -15t12 -36q0 -26 -16 -44t-39 -18z" />
    <glyph glyph-name="less" unicode="&#x3c;" horiz-adv-x="596" 
d="M71 243v47l464 242v-67l-388 -198v-2l388 -199v-66z" />
    <glyph glyph-name="equal" unicode="=" horiz-adv-x="596" 
d="M566 336h-516v55h516v-55zM566 147h-516v55h516v-55z" />
    <glyph glyph-name="greater" unicode="&#x3e;" horiz-adv-x="596" 
d="M547 295v-58l-464 -237v66l400 199v2l-400 199v66z" />
    <glyph glyph-name="question" unicode="?" horiz-adv-x="306" 
d="M159 184h-67q1 5 1 15q5 98 81 196q3 4 25 31t31 40t19 39.5t10 52.5q0 30 -17.5 47t-47.5 17q-42 0 -69 -22l-9 57q47 29 102 29q63 0 91 -34.5t28 -85.5q0 -17 -3 -34t-11.5 -34.5t-14.5 -29.5t-19.5 -30.5t-19 -25.5t-22 -26.5t-18.5 -22.5q-61 -76 -67 -162
q0 -1 -1 -7t-2 -10zM94 -8q-21 0 -33 14.5t-12 37.5q0 22 16 40.5t37 18.5q24 0 36 -14.5t12 -35.5q0 -25 -16 -43t-40 -18z" />
    <glyph glyph-name="at" unicode="@" horiz-adv-x="581" 
d="M342 234l29 146q-9 4 -28 4q-55 0 -95.5 -65.5t-40.5 -142.5q0 -63 40 -63q30 0 58 37.5t37 83.5zM403 -28l13 -35q-63 -38 -148 -38q-105 0 -172 74t-67 214q0 168 91 287.5t225 119.5q99 0 154 -66.5t55 -173.5q0 -138 -42.5 -213.5t-111.5 -75.5q-29 0 -45 20.5
t-13 59.5h-3q-44 -80 -109 -80q-37 0 -59 28.5t-22 81.5q0 58 23 114.5t73.5 97.5t117.5 41q40 0 70 -14l-40 -202q-20 -105 22 -105q37 0 65.5 65t28.5 163q0 105 -42.5 162.5t-128.5 57.5q-107 0 -185.5 -105t-78.5 -264q0 -120 54 -183t152 -63q64 0 123 32z" />
    <glyph glyph-name="A" unicode="A" horiz-adv-x="425" 
d="M284 204h-151l-82 -204h-72l279 674h80l21 -674h-70zM153 261h131l-3 174v156h-3q-45 -130 -56 -156z" />
    <glyph glyph-name="B" unicode="B" horiz-adv-x="407" 
d="M14 7l125 660q50 10 105 10q80 0 123 -39q39 -39 39 -104q0 -60 -37.5 -108t-98.5 -68v-3q95 -31 95 -149q0 -95 -73 -156q-62 -53 -176 -53q-65 0 -102 10zM199 615l-43 -227h28q64 0 106.5 39.5t42.5 101.5q0 42 -23 66.5t-70 24.5q-28 0 -41 -5zM145 332l-51 -271
q17 -5 42 -5q72 0 114 44t42 112q0 55 -30 87.5t-88 32.5h-29z" />
    <glyph glyph-name="C" unicode="C" horiz-adv-x="357" 
d="M294 73l4 -64q-30 -15 -89 -15q-50 0 -85.5 20.5t-54 56t-26.5 74t-8 83.5q0 107 32 206t96 165q80 81 181 81q49 0 67 -12l-22 -64q-19 9 -53 9q-73 0 -125 -62q-46 -54 -72.5 -135.5t-26.5 -167.5q0 -90 26 -139t88 -49q40 0 68 13z" />
    <glyph glyph-name="D" unicode="D" horiz-adv-x="437" 
d="M13 7l125 660q52 10 101 10q101 0 151 -66q46 -60 44 -164q0 -115 -39.5 -222.5t-95.5 -159.5q-73 -68 -187 -68q-62 0 -99 10zM199 613l-105 -550q30 -3 38 -3q82 0 142 81q37 48 61 134t24 176q0 165 -122 165q-25 0 -38 -3z" />
    <glyph glyph-name="E" unicode="E" horiz-adv-x="347" 
d="M323 384l-12 -62h-166l-49 -257h190l-13 -65h-261l128 674h249l-13 -64h-176l-44 -226h167z" />
    <glyph glyph-name="F" unicode="F" horiz-adv-x="338" 
d="M12 0l128 674h249l-13 -64h-176l-46 -241h166l-12 -62h-166l-58 -307h-72z" />
    <glyph glyph-name="G" unicode="G" horiz-adv-x="429" 
d="M402 351l-63 -335q-52 -22 -110 -22q-97 0 -147 70q-44 62 -44 170q0 101 32.5 199t98.5 165q82 82 194 82q47 0 83 -14l-24 -65q-24 12 -67 12q-74 0 -135 -60q-47 -48 -76.5 -136t-29.5 -177q0 -182 119 -182q27 0 48 8l41 224h-86l12 61h154z" />
    <glyph glyph-name="H" unicode="H" horiz-adv-x="453" 
d="M140 674h72l-56 -291h188l55 291h73l-128 -674h-72l59 317h-187l-60 -317h-72z" />
    <glyph glyph-name="I" unicode="I" horiz-adv-x="194" 
d="M140 674h72l-128 -674h-72z" />
    <glyph glyph-name="J" unicode="J" horiz-adv-x="257" 
d="M116 175l95 499h72l-96 -505q-19 -102 -59.5 -139.5t-107.5 -37.5q-35 0 -58 9l13 64q23 -7 45 -7q40 0 62 26.5t34 90.5z" />
    <glyph glyph-name="K" unicode="K" horiz-adv-x="387" 
d="M12 0l128 674h71l-63 -326h3q54 82 59 89l167 237h82l-218 -289l95 -385h-75l-76 329l-52 -64l-50 -265h-71z" />
    <glyph glyph-name="L" unicode="L" horiz-adv-x="322" 
d="M12 0l127 674h73l-116 -610h185l-12 -64h-257z" />
    <glyph glyph-name="M" unicode="M" horiz-adv-x="586" 
d="M493 0h-66l54 384q8 54 30 181h-5q-35 -103 -74 -190l-165 -371h-48l-24 380q-5 98 -4 181h-3q-6 -30 -18.5 -90t-19.5 -92l-89 -383h-66l165 674h80l24 -390q5 -90 4 -155h3q19 56 61 156l168 389h83z" />
    <glyph glyph-name="N" unicode="N" horiz-adv-x="454" 
d="M76 0h-64l128 674h69l69 -364q26 -136 33 -193h2q21 167 33 230l62 327h64l-128 -674h-64l-71 351q-23 111 -33 209h-2q-16 -124 -37 -235z" />
    <glyph glyph-name="O" unicode="O" horiz-adv-x="441" 
d="M300 682q139 0 139 -218q0 -105 -37 -229.5t-98 -185.5q-56 -57 -126 -57q-37 0 -64.5 15.5t-42.5 38t-23.5 54t-11 55.5t-2.5 50q0 108 37.5 233t102.5 189q56 55 126 55zM288 617q-33 0 -63 -30q-52 -52 -84 -171t-32 -207q0 -29 2 -49t9 -47t24 -41.5t44 -14.5
q31 0 62 29q53 53 83.5 176t30.5 200q0 36 -2 59t-9 47.5t-23.5 36.5t-41.5 12z" />
    <glyph glyph-name="P" unicode="P" horiz-adv-x="390" 
d="M12 0l126 667q53 10 106 10q87 0 127 -47q37 -41 37 -109q0 -104 -68 -180q-65 -68 -160 -68q-28 0 -45 4l-52 -277h-71zM199 612l-52 -273q16 -4 38 -4q72 0 110.5 56t38.5 122q0 103 -97 103q-23 0 -38 -4z" />
    <glyph glyph-name="Q" unicode="Q" horiz-adv-x="441" 
d="M368 -29l-38 -59q-74 31 -141 71q-14 9 -20 9q-51 2 -82.5 37.5t-42 79t-10.5 96.5q0 107 36.5 230.5t101.5 188.5q58 58 126 58q39 0 67.5 -17t42 -39t21.5 -56.5t9 -55.5t1 -51q0 -97 -36 -222.5t-96 -185.5q-24 -24 -52 -36l-1 -3q50 -24 114 -45zM288 617
q-34 0 -64 -30q-53 -53 -84 -175t-31 -208q0 -148 80 -148q29 0 60 29q52 52 83.5 176.5t31.5 203.5q0 26 -0.5 39.5t-4.5 38.5t-11 38.5t-22.5 24.5t-37.5 11z" />
    <glyph glyph-name="R" unicode="R" horiz-adv-x="398" 
d="M12 0l126 667q57 10 106 10q82 0 122 -42q37 -40 37 -104q0 -71 -39 -128.5t-101 -77.5v-3q61 -24 62 -151q1 -126 10 -171h-72q-4 18 -8 167q-2 71 -21 100.5t-64 29.5h-32l-55 -297h-71zM198 613l-48 -258h35q61 0 102 49t41 121q0 42 -21.5 67.5t-66.5 25.5
q-27 0 -42 -5z" />
    <glyph glyph-name="S" unicode="S" horiz-adv-x="342" 
d="M-5 21l21 64q36 -25 90 -25q58 -1 90.5 36.5t32.5 93.5q0 67 -70 135q-83 83 -83 167q0 80 53 134t138 54q59 0 89 -22l-22 -62q-33 18 -74 18q-49 0 -79 -32t-31 -82q0 -62 71 -128q82 -77 82 -168q0 -93 -54 -151.5t-147 -58.5q-35 0 -65 8.5t-42 18.5z" />
    <glyph glyph-name="T" unicode="T" horiz-adv-x="341" 
d="M85 0l115 607h-122l13 67h315l-13 -67h-121l-115 -607h-72z" />
    <glyph glyph-name="U" unicode="U" horiz-adv-x="446" 
d="M137 674h73l-86 -452q-8 -39 -8 -79q0 -41 20 -63.5t53 -22.5q47 0 74.5 37.5t44.5 123.5l86 456h73l-85 -449q-23 -123 -71.5 -178t-130.5 -55q-62 0 -99.5 37.5t-37.5 105.5q0 42 10 92z" />
    <glyph glyph-name="V" unicode="V" horiz-adv-x="415" 
d="M190 0h-74l-24 674h78l7 -414q0 -120 -5 -163h4q19 69 56 163l162 414h78z" />
    <glyph glyph-name="W" unicode="W" horiz-adv-x="644" 
d="M163 0h-69l3 674h74l-6 -399q-2 -54 -12 -170h3q22 81 55 166l154 403h68l-1 -398q-1 -55 -9 -171h3q37 126 51 167l146 402h73l-255 -674h-72l-3 381q0 46 8 170h-2q-45 -141 -60 -176z" />
    <glyph glyph-name="X" unicode="X" horiz-adv-x="379" 
d="M319 0h-74l-32 171q-6 38 -19 112h-3q-33 -63 -60 -116l-90 -167h-77l199 345l-67 329h74l30 -154q2 -14 8.5 -50.5t10.5 -64.5h2q19 41 58 116l83 153h78l-193 -329z" />
    <glyph glyph-name="Y" unicode="Y" horiz-adv-x="391" 
d="M180 0h-73l55 285l-73 389h77l32 -198q3 -21 14 -122h2q49 103 58 121l109 199h78l-226 -388z" />
    <glyph glyph-name="Z" unicode="Z" horiz-adv-x="349" 
d="M-29 0l9 47l329 560v2h-204l13 65h288l-10 -54l-326 -553v-2h220l-13 -65h-306z" />
    <glyph glyph-name="bracketleft" unicode="[" horiz-adv-x="253" 
d="M149 -112h-146l152 798h146l-11 -52h-84l-133 -694h86z" />
    <glyph glyph-name="backslash" unicode="\" horiz-adv-x="281" 
d="M275 -40h-57l-173 722h57z" />
    <glyph glyph-name="bracketright" unicode="]" horiz-adv-x="253" 
d="M113 686h147l-152 -798h-147l10 52h86l132 694h-87z" />
    <glyph glyph-name="asciicircum" unicode="^" horiz-adv-x="596" 
d="M540 189h-65l-168 388h-3l-168 -388h-64l206 461h56z" />
    <glyph glyph-name="underscore" unicode="_" horiz-adv-x="500" 
d="M-59 -75h500l-10 -50h-500z" />
    <glyph glyph-name="grave" unicode="`" 
d="M118 674h78l69 -135h-51z" />
    <glyph glyph-name="a" unicode="a" horiz-adv-x="380" 
d="M295 0h-65q0 6 7 92h-3q-57 -100 -125 -100q-43 0 -67 35.5t-24 100.5q0 58 15.5 119t46 117t83.5 91.5t120 35.5q52 0 89 -16l-56 -276q-23 -113 -21 -199zM255 246l36 183q-12 4 -30 4q-50 0 -90.5 -50t-59.5 -113t-20 -120q-3 -96 44 -96q36 0 70.5 58t49.5 134z" />
    <glyph glyph-name="b" unicode="b" horiz-adv-x="384" 
d="M135 692h72l-52 -270h2q48 69 109 69q51 0 73 -41t22 -96q0 -57 -15.5 -118t-44 -116.5t-77 -91.5t-107.5 -36q-47 0 -71.5 24t-24.5 64q0 22 5 54zM131 294l-32 -148q-4 -30 -4 -48q0 -48 41 -48q46 0 82 55t52 118.5t16 112.5q0 92 -52 92q-32 0 -62 -38t-41 -96z" />
    <glyph glyph-name="c" unicode="c" horiz-adv-x="288" 
d="M232 68l1 -60q-32 -14 -79 -14q-68 0 -100 48t-32 125q0 54 16 110t45 104.5t76 79t104 30.5q34 0 48 -8l-19 -61q-18 6 -36 6q-47 0 -85 -41t-56.5 -98t-18.5 -114q0 -119 77 -119q26 0 59 12z" />
    <glyph glyph-name="d" unicode="d" horiz-adv-x="382" 
d="M339 692h72l-99 -522q-19 -101 -22 -170h-62l6 75h-2q-18 -37 -49.5 -60t-66.5 -23q-45 0 -71 39t-26 106q0 85 26.5 165t80 135t120.5 55q30 0 51 -17zM246 194l38 217q-15 22 -45 22q-43 0 -78.5 -51t-52 -114.5t-16.5 -116.5q0 -97 53 -97q29 0 58.5 36.5t42.5 103.5z
" />
    <glyph glyph-name="e" unicode="e" horiz-adv-x="338" 
d="M261 80l10 -56q-55 -30 -114 -30q-135 0 -135 171q0 70 23 142.5t73.5 128t115.5 55.5q49 0 74 -31.5t25 -77.5q0 -84 -65 -126t-171 -42q-9 -60 3 -98q17 -62 74 -62q41 0 87 26zM266 377q0 53 -43 53q-34 0 -65.5 -41t-51.5 -117q67 0 113.5 25t46.5 80z" />
    <glyph glyph-name="f" unicode="f" horiz-adv-x="226" 
d="M90 0h-71l81 428h-60l10 56h61l6 30q18 96 67 145q41 41 102 41q33 0 51 -8l-17 -58q-17 5 -37 5q-38 0 -63.5 -38.5t-33.5 -93.5l-4 -23h92l-10 -56h-92z" />
    <glyph glyph-name="g" unicode="g" horiz-adv-x="381" 
d="M-9 -177l21 58q38 -21 78 -21q52 0 79.5 35.5t42.5 107.5l16 75h-2q-50 -82 -115 -82q-43 0 -67 36.5t-25 103.5q0 56 14.5 116t43.5 115t78.5 90t111.5 35q56 0 102 -24l-78 -419q-30 -153 -77 -198q-48 -51 -128 -51q-60 0 -95 23zM248 210l42 214q-15 8 -42 8
q-46 0 -83 -47.5t-54.5 -108t-18.5 -115.5q-2 -105 48 -105q36 0 67 49.5t41 104.5z" />
    <glyph glyph-name="h" unicode="h" horiz-adv-x="393" 
d="M77 0h-72l131 692h72l-52 -275l2 -1q51 76 120 76q41 0 61.5 -27.5t20.5 -69.5q0 -33 -9 -81l-59 -314h-72l60 316q6 33 6 65q0 49 -41 49q-36 0 -70 -45.5t-46 -107.5z" />
    <glyph glyph-name="i" unicode="i" horiz-adv-x="179" 
d="M77 0h-72l92 484h72zM150 560q-39 0 -37 46q2 21 15.5 36.5t33.5 15.5t30.5 -13.5t8.5 -33.5q-1 -24 -15.5 -37.5t-35.5 -13.5z" />
    <glyph glyph-name="j" unicode="j" horiz-adv-x="181" 
d="M102 484h72l-91 -482q-21 -111 -47 -148q-34 -54 -106 -54q-28 0 -42 5l7 58q24 -3 30 -3q29 0 48.5 24t32.5 94zM155 560q-39 0 -37 46q2 21 15.5 36.5t32.5 15.5q21 0 31.5 -13.5t8.5 -33.5q-1 -24 -16 -37.5t-35 -13.5z" />
    <glyph glyph-name="k" unicode="k" horiz-adv-x="342" 
d="M76 0h-70l130 692h71l-79 -417h2q26 35 33 46l123 163h83l-165 -203l94 -281h-74l-75 239l-36 -46z" />
    <glyph glyph-name="l" unicode="l" horiz-adv-x="179" 
d="M77 0h-72l131 692h72z" />
    <glyph glyph-name="m" unicode="m" horiz-adv-x="593" 
d="M76 0h-71l60 318q12 68 25 166h63l-8 -78h2q54 85 125 85q36 0 56.5 -24.5t22.5 -60.5q54 85 128 85q40 0 60.5 -27.5t20.5 -69.5q0 -34 -11 -87l-58 -307h-71l58 308q8 42 8 75q0 47 -40 47q-34 0 -66.5 -45.5t-46.5 -114.5l-51 -270h-70l58 308q8 40 8 74q0 48 -39 48
q-31 0 -65.5 -47t-46.5 -113z" />
    <glyph glyph-name="n" unicode="n" horiz-adv-x="393" 
d="M77 0h-72l60 318q12 68 25 166h63l-8 -76h2q56 84 130 84q42 0 62.5 -27.5t20.5 -69.5q0 -28 -9 -80l-59 -315h-72l59 314q7 38 7 67q0 49 -42 49q-34 0 -68.5 -46.5t-47.5 -113.5z" />
    <glyph glyph-name="o" unicode="o" horiz-adv-x="369" 
d="M234 491q112 0 112 -157q0 -50 -12 -106t-36 -110.5t-66 -90t-95 -35.5q-62 0 -89.5 46t-27.5 118q0 51 13.5 107.5t38.5 108.5t67.5 85.5t94.5 33.5zM222 432q-37 0 -68 -48.5t-46 -109t-15 -111.5q0 -34 2.5 -55t15.5 -39t37 -18q31 0 56.5 33t39.5 81t21.5 93.5
t7.5 79.5q0 94 -51 94z" />
    <glyph glyph-name="p" unicode="p" horiz-adv-x="384" 
d="M40 -192h-71l95 505q9 47 27 171h64l-10 -79h2q24 40 57 63.5t67 22.5q89 0 89 -137q0 -79 -24.5 -160t-77 -141.5t-120.5 -60.5q-37 0 -59 16h-2zM124 259l-35 -191q23 -18 47 -18q39 0 70 35t47.5 85.5t25 96.5t8.5 77q0 84 -47 84q-36 0 -69.5 -50t-46.5 -119z" />
    <glyph glyph-name="q" unicode="q" horiz-adv-x="382" 
d="M244 -192h-71l55 270h-2q-45 -86 -114 -86q-43 0 -68.5 37t-25.5 108q0 54 15 113.5t44 114.5t79.5 91t112.5 36q50 0 102 -23zM248 208l43 217q-14 7 -38 7q-65 0 -112 -88t-49 -191q-2 -99 50 -99q35 0 65.5 49.5t40.5 104.5z" />
    <glyph glyph-name="r" unicode="r" horiz-adv-x="250" 
d="M77 0h-72l61 325q14 77 21 159h63q-6 -75 -8 -91h3q49 99 121 99q9 0 13 -1l-14 -76q-1 0 -4.5 0.5t-5.5 0.5q-45 0 -82 -51t-49 -111z" />
    <glyph glyph-name="s" unicode="s" horiz-adv-x="282" 
d="M-15 20l22 55q35 -23 75 -23q36 0 57 23t21 59q0 50 -49 94q-63 57 -63 118q0 63 41.5 104.5t108.5 41.5q49 0 76 -18l-20 -56q-25 15 -56 15q-36 0 -57 -21t-21 -54q0 -42 45 -81q68 -59 68 -127q0 -75 -44 -115.5t-114 -40.5q-57 0 -90 26z" />
    <glyph glyph-name="t" unicode="t" horiz-adv-x="240" 
d="M123 566l80 31l-23 -113h91l-11 -55h-91l-52 -276q-7 -36 -7 -61q0 -37 34 -37q20 0 29 2l-6 -56q-20 -7 -52 -7q-38 0 -59 20.5t-21 56.5q0 29 9 79l53 279h-58l10 55h59z" />
    <glyph glyph-name="u" unicode="u" horiz-adv-x="392" 
d="M308 484h72l-60 -318q-11 -62 -22 -166h-64l6 76h-2q-53 -84 -130 -84q-40 0 -60.5 28.5t-20.5 70.5q0 35 8 77l59 316h72l-57 -304q-9 -40 -9 -76q0 -50 42 -50q36 0 69 43.5t45 107.5z" />
    <glyph glyph-name="v" unicode="v" horiz-adv-x="337" 
d="M52 484h74l8 -274q0 -95 -2 -119h4q16 48 43 116l112 277h73l-215 -484h-69z" />
    <glyph glyph-name="w" unicode="w" horiz-adv-x="552" 
d="M55 484h74l3 -271q-2 -93 -5 -123h3q22 65 44 118l118 276h57l10 -274q2 -85 -3 -120h4q21 69 42 124l107 270h71l-209 -484h-61l-13 262q-3 57 3 122h-3q-26 -84 -42 -122l-114 -262h-63z" />
    <glyph glyph-name="x" unicode="x" horiz-adv-x="320" 
d="M51 484h75l26 -104q17 -82 18 -84h2q27 48 47 81l63 107h78l-162 -241l68 -243h-75l-25 107q0 2 -7.5 34t-11.5 54h-2q-5 -8 -21 -37.5t-26 -47.5l-65 -110h-78l164 246z" />
    <glyph glyph-name="y" unicode="y" horiz-adv-x="338" 
d="M50 484h74l16 -270q1 -26 2.5 -67t2.5 -54h2q5 19 12 38.5t16 44.5t14 40l101 268h74l-162 -393q-77 -182 -159 -253q-47 -39 -75 -48l-29 61q41 19 72 47q52 42 78 105q5 13 4 26z" />
    <glyph glyph-name="z" unicode="z" horiz-adv-x="296" 
d="M-34 0l6 48l191 280q57 82 65 92l2 2h-169l13 62h247l-8 -52l-190 -277q-38 -55 -66 -91v-2h186l-12 -62h-265z" />
    <glyph glyph-name="braceleft" unicode="{" horiz-adv-x="253" 
d="M32 262l10 51q68 0 81 70q6 31 11 89t10 86q22 128 137 128h23l-10 -51h-16q-58 -1 -71 -73q-7 -33 -11.5 -86t-6.5 -69q-9 -55 -31 -81.5t-58 -36.5v-2q49 -15 49 -74q0 -27 -25 -112q-24 -86 -24 -108q0 -24 10 -37.5t38 -16.5h13l-9 -51h-12q-47 0 -75 23.5t-28 68.5
q0 40 27 125q26 88 26 107q0 50 -58 50z" />
    <glyph glyph-name="bar" unicode="|" horiz-adv-x="185" 
d="M78 750h58v-1000h-58v1000z" />
    <glyph glyph-name="braceright" unicode="}" horiz-adv-x="253" 
d="M235 312l-10 -51q-68 0 -81 -70q-6 -31 -11 -89t-10 -86q-22 -128 -137 -128h-23l10 51h16q58 1 71 73q7 33 11.5 86t6.5 69q9 55 31 81.5t58 36.5v2q-49 15 -49 74q0 23 24 111q24 86 24 109q0 24 -10 37.5t-38 16.5h-13l9 51h12q47 0 75 -23.5t28 -68.5q0 -39 -26 -125
t-26 -106q0 -51 58 -51z" />
    <glyph glyph-name="asciitilde" unicode="~" horiz-adv-x="596" 
d="M133 221h-54q-2 64 28.5 99t82.5 35q47 0 129 -42q76 -40 110 -40q50 0 48 78h53q4 -66 -23.5 -100.5t-78.5 -34.5q-56 0 -139 45q-72 38 -106 38q-50 0 -50 -78z" />
    <glyph glyph-name="uni00A0" unicode="&#xa0;" horiz-adv-x="147" 
 />
    <glyph glyph-name="exclamdown" unicode="&#xa1;" horiz-adv-x="204" 
d="M59 -189h-84l104 486h63zM143 496q21 0 33 -14.5t12 -37.5q0 -22 -16 -40.5t-37 -18.5q-24 0 -36 14.5t-12 35.5q0 25 16 43t40 18z" />
    <glyph glyph-name="cent" unicode="&#xa2;" horiz-adv-x="386" 
d="M202 -6h-51l18 99q-50 12 -74 57q-22 39 -22 101q0 68 22.5 133t66.5 113t99 60l18 94h51l-18 -90q39 0 56 -17l-22 -55q-21 13 -56 13q-61 0 -102.5 -78.5t-41.5 -168.5q0 -49 19.5 -78.5t58.5 -29.5q33 0 67 16l3 -54q-30 -17 -74 -19z" />
    <glyph glyph-name="sterling" unicode="&#xa3;" horiz-adv-x="386" 
d="M320 0h-318l9 46q38 18 76 67.5t49 106.5q6 34 10 86h-82l11 55h73q0 67 10 123q14 83 58 128.5t115 45.5q37 0 67 -19l-21 -56q-24 13 -52 13q-80 0 -98 -115q-8 -54 -8 -120h103l-10 -55h-95q-6 -53 -13 -82q-21 -99 -97 -160l-1 -2h227z" />
    <glyph glyph-name="currency" unicode="&#xa4;" horiz-adv-x="386" 
d="M209 528q55 0 89 -39l63 71l40 -41l-73 -73q24 -48 24 -117q0 -70 -24 -118l73 -73l-39 -41l-64 72q-16 -18 -42 -29t-50 -11q-25 0 -50 10.5t-40 28.5l-62 -71l-40 41l72 72q-25 49 -25 117q0 67 26 119l-73 72l41 42l62 -72q15 18 40.5 29t51.5 11zM206 474
q-38 0 -61.5 -39.5t-23.5 -106.5t24 -106t62 -39q39 -1 62 39t23 107q0 65 -23 105t-63 40z" />
    <glyph glyph-name="yen" unicode="&#xa5;" horiz-adv-x="386" 
d="M174 0h-68l36 188h-122l8 45h122l15 75h-122l9 45h105l-64 297h72l31 -191q10 -66 13 -102h2q16 34 54 104l106 189h72l-183 -297h106l-10 -45h-124l-14 -75h124l-8 -45h-124z" />
    <glyph glyph-name="brokenbar" unicode="&#xa6;" horiz-adv-x="185" 
d="M78 174h58v-350h-58v350zM78 674h58v-350h-58v350z" />
    <glyph glyph-name="section" unicode="&#xa7;" horiz-adv-x="402" 
d="M114 346q0 -29 15.5 -48t47.5 -37q51 -29 79 -52q58 27 58 91q0 55 -66 90q-18 9 -70 44q-28 -14 -46 -38t-18 -50zM400 651l-25 -49q-40 26 -91 26q-45 0 -70.5 -23t-25.5 -56q0 -29 18.5 -49.5t59.5 -40.5q112 -53 112 -144q0 -87 -85 -140q20 -36 20 -71
q0 -70 -47.5 -112t-123.5 -42q-38 0 -73.5 11.5t-55.5 27.5l24 53q48 -38 114 -38q45 0 70.5 23.5t25.5 59.5q0 33 -20.5 56.5t-66.5 49.5q-110 59 -110 133q0 85 94 143q-22 29 -22 65q0 63 46.5 105.5t123.5 42.5q70 0 108 -31z" />
    <glyph glyph-name="dieresis" unicode="&#xa8;" 
d="M152 560q-17 0 -28.5 12.5t-11.5 32.5t13.5 34.5t32.5 14.5t30 -13t11 -31q0 -21 -13 -35.5t-34 -14.5zM303 560q-17 0 -28.5 12.5t-11.5 32.5t13.5 34.5t32.5 14.5t30 -13t11 -31q0 -21 -13 -35.5t-34 -14.5z" />
    <glyph glyph-name="copyright" unicode="&#xa9;" horiz-adv-x="671" 
d="M356 648q125 0 211.5 -90t86.5 -218q0 -129 -86.5 -219.5t-212.5 -90.5t-213.5 90.5t-87.5 219.5q0 128 88 218t214 90zM354 608q-107 0 -179.5 -78t-72.5 -193q0 -113 73 -190t180 -77q106 -2 178.5 76.5t72.5 193.5q0 113 -73 190.5t-179 77.5zM489 493l-11 -41
q-42 24 -98 24q-67 0 -102.5 -38.5t-35.5 -100.5q0 -60 36.5 -100t101.5 -40q63 0 102 27l12 -40q-47 -31 -124 -31q-83 0 -132 51.5t-49 129.5q0 82 56 134t135 52q36 0 67 -8.5t42 -18.5z" />
    <glyph glyph-name="ordfeminine" unicode="&#xaa;" horiz-adv-x="294" 
d="M261 263h-48q-1 8 3 55h-1q-35 -60 -86 -60q-30 0 -48.5 26t-18.5 75q0 87 47 158t131 71q38 0 68 -13l-40 -221q-7 -46 -7 -91zM229 417l21 121q-10 5 -29 5q-43 0 -73 -55.5t-31 -119.5q-2 -63 34 -63q23 0 46.5 35t31.5 77z" />
    <glyph glyph-name="guillemotleft" unicode="&#xab;" horiz-adv-x="354" 
d="M213 427l-129 -177l79 -172h-59l-81 174l127 175h63zM356 427l-129 -177l79 -172h-59l-81 174l127 175h63z" />
    <glyph glyph-name="logicalnot" unicode="&#xac;" horiz-adv-x="596" 
d="M44 398h516v-277h-56v222h-460v55z" />
    <glyph glyph-name="uni00AD" unicode="&#xad;" horiz-adv-x="279" 
d="M36 291h220l-11 -59h-220z" />
    <glyph glyph-name="registered" unicode="&#xae;" horiz-adv-x="363" 
d="M212 508v-62h-33v156q33 5 56 5q34 0 52 -13q16 -11 16 -33q0 -26 -33 -37v-2q20 -6 28 -38q7 -32 12 -38h-36q-5 6 -12 38q-4 24 -33 24h-17zM213 578v-44h17q36 0 36 22q0 24 -33 24q-12 0 -20 -2zM238 683q65 0 110.5 -45.5t45.5 -110.5t-45.5 -111t-111.5 -46
q-65 0 -111 46t-46 111t46 110.5t112 45.5zM236 651q-50 0 -84 -36.5t-34 -87.5q0 -52 34.5 -88t85.5 -36q50 -1 84 35.5t34 87.5q0 52 -34.5 88.5t-85.5 36.5z" />
    <glyph glyph-name="macron" unicode="&#xaf;" 
d="M141 632h193l-10 -48h-193z" />
    <glyph glyph-name="degree" unicode="&#xb0;" horiz-adv-x="280" 
d="M208 685q51 0 84.5 -36.5t33.5 -89.5q0 -56 -37.5 -93.5t-87.5 -37.5q-51 0 -85 36t-34 90q-1 53 37 92t89 39zM206 644q-31 0 -54 -26.5t-23 -63.5q0 -36 21 -60.5t52 -24.5q33 0 55.5 25.5t22.5 62.5t-20 62t-54 25z" />
    <glyph glyph-name="plusminus" unicode="&#xb1;" horiz-adv-x="596" 
d="M273 567h57v-194h230v-55h-230v-201h-57v201h-229v55h229v194zM44 55h516v-55h-516v55z" />
    <glyph glyph-name="twosuperior" unicode="&#xb2;" horiz-adv-x="244" 
d="M259 403h-219l8 38l50 48q43 42 66 66t48 64.5t25 71.5q0 56 -55 56q-27 0 -64 -22l-10 44q46 29 92 29q50 0 74.5 -27.5t24.5 -69.5q0 -39 -25 -82.5t-48 -67.5t-63 -61l-33 -33v-2h138z" />
    <glyph glyph-name="threesuperior" unicode="&#xb3;" horiz-adv-x="229" 
d="M117 729l-7 42q35 27 84 27q43 0 66 -23t23 -60q0 -33 -21 -59t-55 -39l-1 -2q28 -10 44.5 -33.5t15.5 -57.5q-2 -54 -42 -90t-105 -36q-50 0 -82 22l17 45q32 -19 70 -19q36 0 58 22t22 59q0 66 -79 66h-9l8 41h8q36 0 63.5 20t27.5 52q0 45 -46 45q-30 0 -60 -22z" />
    <glyph glyph-name="acute" unicode="&#xb4;" 
d="M266 674h80l-112 -135h-53z" />
    <glyph glyph-name="mu" unicode="&#xb5;" horiz-adv-x="391" 
d="M165 484l-61 -321q-22 -108 44 -108q22 0 43 21t31.5 41t18.5 41q8 18 13 43l52 283h72l-65 -349q-6 -32 -6.5 -49t4.5 -25t16 -8l-19 -58q-6 -3 -20 -3q-50 0 -46 80h-2q-18 -33 -45.5 -54t-58.5 -21q-42 0 -59 35l-13 -71q-20 -105 -17 -153h-64q-11 37 11 151l99 525
h72z" />
    <glyph glyph-name="paragraph" unicode="&#xb6;" horiz-adv-x="402" 
d="M177 -50h-46l62 324q-1 1 -5 1q-38 3 -77.5 44t-39.5 116q0 106 71.5 172.5t193.5 66.5q44 0 84 -6l-138 -718h-46l131 681h-59z" />
    <glyph glyph-name="periodcentered" unicode="&#xb7;" horiz-adv-x="191" 
d="M87 204q-21 0 -33.5 15t-12.5 39t16 43t38 19q24 0 36 -15t12 -38q0 -26 -16 -44.5t-40 -18.5z" />
    <glyph glyph-name="cedilla" unicode="&#xb8;" 
d="M110 5h44l-38 -56q24 -8 38.5 -26t14.5 -42q0 -38 -28.5 -59.5t-65.5 -21.5q-42 0 -64 18l16 39q26 -14 50 -14q18 0 30 8.5t13 25.5q0 38 -64 45z" />
    <glyph glyph-name="onesuperior" unicode="&#xb9;" horiz-adv-x="193" 
d="M171 403h-58l64 333h-2l-79 -39l-2 48l102 48h50z" />
    <glyph glyph-name="ordmasculine" unicode="&#xba;" horiz-adv-x="302" 
d="M209 588q48 0 71.5 -33.5t23.5 -81.5q0 -82 -39 -148.5t-107 -66.5q-47 0 -71.5 33t-24.5 84q0 81 39.5 147t107.5 66zM198 542q-33 0 -56 -51t-24 -113q0 -74 48 -74q38 0 59.5 51.5t21.5 113.5q0 73 -49 73z" />
    <glyph glyph-name="guillemotright" unicode="&#xbb;" horiz-adv-x="354" 
d="M127 257l-79 170h58l82 -175l-126 -174h-64zM270 257l-79 170h58l82 -175l-126 -174h-64z" />
    <glyph glyph-name="onequarter" unicode="&#xbc;" horiz-adv-x="623" 
d="M500 0h-56l20 107h-147l7 37l189 249h61l-45 -240h46l-9 -46h-46zM473 153l20 100q1 4 17 73h-2q-26 -37 -49 -69l-73 -102l-1 -2h88zM167 263h-58l64 333h-2l-79 -39l-2 48l102 48h50zM117 -8h-54l453 666h54z" />
    <glyph glyph-name="onehalf" unicode="&#xbd;" horiz-adv-x="623" 
d="M162 263h-58l64 333h-2l-79 -39l-3 48l103 48h50zM98 -8h-53l453 666h53zM544 0h-216l8 38l49 48q82 82 107 118q32 47 32 84q0 56 -54 56q-32 0 -63 -23l-10 45q43 29 92 29t73 -27.5t24 -69.5q0 -30 -11.5 -59t-37 -60t-41 -47t-46.5 -45l-33 -33v-2h137z" />
    <glyph glyph-name="threequarters" unicode="&#xbe;" horiz-adv-x="623" 
d="M139 -8h-54l453 666h53zM115 589l-7 42q33 27 84 27q43 0 66 -23t23 -60q0 -33 -21 -59t-55 -39v-2q59 -23 59 -91q-3 -54 -42.5 -90t-104.5 -36q-50 0 -82 22l17 45q32 -19 69 -19t59 22t22 59q0 66 -79 66h-9l8 41h8q36 1 63.5 20.5t27.5 51.5q0 45 -46 45
q-33 0 -60 -22zM503 0h-56l20 107h-147l7 37l188 249h62l-46 -240h47l-9 -46h-46zM476 153l19 100q4 18 10.5 43t7.5 30h-2q-26 -37 -49 -69l-74 -102v-2h88z" />
    <glyph glyph-name="questiondown" unicode="&#xbf;" horiz-adv-x="306" 
d="M145 302h67q0 -10 -1 -15q-3 -97 -80 -197q-2 -2 -25 -30.5t-31 -40.5t-18.5 -38t-10.5 -51q0 -31 18 -48.5t49 -17.5q38 0 69 20l9 -58q-46 -26 -102 -26q-63 0 -92 35t-29 86q0 36 19.5 77.5t36 63t51.5 62.5q32 40 48 76t20 85zM213 496q21 0 33 -14.5t12 -37.5
q0 -22 -16 -40.5t-38 -18.5q-23 0 -35 14.5t-12 35.5q0 25 16 43t40 18z" />
    <glyph glyph-name="Agrave" unicode="&#xc0;" horiz-adv-x="425" 
d="M284 204h-151l-82 -204h-72l279 674h80l21 -674h-70zM153 261h131l-3 174v156h-3q-45 -130 -56 -156zM167 823h88l92 -113h-59z" />
    <glyph glyph-name="Aacute" unicode="&#xc1;" horiz-adv-x="425" 
d="M284 204h-151l-82 -204h-72l279 674h80l21 -674h-70zM153 261h131l-3 174v156h-3q-45 -130 -56 -156zM366 823h90l-136 -113h-60z" />
    <glyph glyph-name="Acircumflex" unicode="&#xc2;" horiz-adv-x="425" 
d="M284 204h-151l-82 -204h-72l279 674h80l21 -674h-70zM153 261h132l-4 174v156h-3q-45 -130 -56 -156zM291 823h56l64 -113h-60l-36 70h-2l-61 -70h-64z" />
    <glyph glyph-name="Atilde" unicode="&#xc3;" horiz-adv-x="425" 
d="M284 204h-151l-82 -204h-72l279 674h80l21 -674h-70zM153 261h131l-3 174v156h-3q-45 -130 -56 -156zM232 716l-43 1q5 42 25 66t48 24q19 0 47 -17q28 -18 38 -18q22 0 31 37h42q-13 -87 -76 -87q-22 0 -48 17q-26 16 -35 16q-21 0 -29 -39z" />
    <glyph glyph-name="Adieresis" unicode="&#xc4;" horiz-adv-x="425" 
d="M284 204h-151l-82 -204h-72l279 674h80l22 -674h-71zM153 261h131l-3 174v156h-3q-45 -130 -56 -156zM227 725q-17 0 -29 12.5t-12 31.5t14 33.5t33 14.5q20 0 31 -13t11 -31q0 -19 -14 -33.5t-34 -14.5zM383 725q-17 0 -29 12.5t-12 31.5t14 33.5t33 14.5q20 0 31 -13
t11 -31q0 -19 -14 -33.5t-34 -14.5z" />
    <glyph glyph-name="Aring" unicode="&#xc5;" horiz-adv-x="425" 
d="M284 204h-151l-82 -204h-72l279 674h80l21 -674h-70zM153 261h131l-3 174v156h-3q-45 -130 -56 -156zM311 864q44 0 67.5 -22t23.5 -59q0 -39 -29.5 -63.5t-69.5 -24.5q-41 0 -65.5 22t-24.5 56q0 38 28.5 64.5t69.5 26.5zM309 831q-21 0 -35 -15.5t-14 -39.5
q0 -21 12 -34t33 -13t35 15t14 39q0 21 -11.5 34.5t-33.5 13.5z" />
    <glyph glyph-name="AE" unicode="&#xc6;" horiz-adv-x="539" 
d="M30 0h-73l325 674h292l-12 -64h-177l-31 -231h167l-11 -62h-163l-33 -252h181l-12 -65h-245l28 222h-133zM160 282h112l29 207q11 76 20 131h-5q-21 -45 -66 -144z" />
    <glyph glyph-name="Ccedilla" unicode="&#xc7;" horiz-adv-x="366" 
d="M295 73l4 -63q-30 -15 -74 -15l-30 -45q24 -7 38.5 -24.5t14.5 -43.5q0 -38 -28.5 -59.5t-65.5 -21.5q-40 0 -64 19l16 39q24 -14 50 -14q18 0 31 9t12 25q0 35 -64 44l49 73q-81 10 -115 76t-34 159q0 104 32 203.5t97 165.5q79 80 181 80q48 0 66 -12l-21 -64
q-22 9 -54 9q-70 0 -124 -62q-46 -52 -73 -135.5t-27 -166.5q0 -189 113 -189q40 0 70 13z" />
    <glyph glyph-name="Egrave" unicode="&#xc8;" horiz-adv-x="347" 
d="M323 384l-12 -62h-166l-49 -257h190l-13 -65h-261l128 674h249l-13 -64h-176l-44 -226h167zM135 823h89l91 -113h-58z" />
    <glyph glyph-name="Eacute" unicode="&#xc9;" horiz-adv-x="347" 
d="M323 384l-13 -62h-165l-49 -257h190l-13 -65h-261l127 674h250l-13 -64h-176l-44 -226h167zM336 823h90l-136 -113h-60z" />
    <glyph glyph-name="Ecircumflex" unicode="&#xca;" horiz-adv-x="347" 
d="M323 384l-12 -62h-166l-49 -257h190l-13 -65h-261l128 674h249l-13 -64h-176l-44 -226h167zM263 823h56l64 -113h-60l-36 70h-2l-60 -70h-65z" />
    <glyph glyph-name="Edieresis" unicode="&#xcb;" horiz-adv-x="347" 
d="M323 384l-12 -62h-166l-48 -257h189l-13 -65h-260l127 674h249l-13 -64h-175l-44 -226h166zM191 725q-17 0 -29 12.5t-12 31.5t14 33.5t33 14.5q20 0 31 -13t11 -31q0 -19 -14 -33.5t-34 -14.5zM346 725q-17 0 -29 12.5t-12 31.5t14 33.5t33 14.5q20 0 31 -13t11 -31
q0 -19 -14 -33.5t-34 -14.5z" />
    <glyph glyph-name="Igrave" unicode="&#xcc;" horiz-adv-x="194" 
d="M140 674h72l-128 -674h-72zM46 823h88l92 -113h-59z" />
    <glyph glyph-name="Iacute" unicode="&#xcd;" horiz-adv-x="194" 
d="M140 674h72l-128 -674h-72zM247 823h90l-137 -113h-60z" />
    <glyph glyph-name="Icircumflex" unicode="&#xce;" horiz-adv-x="194" 
d="M140 674h72l-128 -674h-72zM171 823h56l64 -113h-60l-36 70h-2l-61 -70h-64z" />
    <glyph glyph-name="Idieresis" unicode="&#xcf;" horiz-adv-x="194" 
d="M140 674h73l-129 -674h-72zM110 725q-17 0 -29 12.5t-12 31.5t14 33.5t33 14.5q20 0 31 -13t11 -31q0 -19 -14 -33.5t-34 -14.5zM266 725q-17 0 -29 12.5t-12 31.5t14 33.5t33 14.5q20 0 31 -13t11 -31q0 -19 -14 -33.5t-34 -14.5z" />
    <glyph glyph-name="Eth" unicode="&#xd0;" horiz-adv-x="445" 
d="M14 323l11 57h67l54 286q49 11 101 11q106 0 152 -67q45 -60 43 -166q0 -117 -39 -222t-96 -157q-75 -68 -188 -68q-61 0 -98 10l60 316h-67zM269 380l-11 -57h-106l-50 -259q20 -4 39 -4q81 0 141 81q36 48 60.5 134.5t24.5 172.5q0 168 -122 168q-26 0 -38 -4l-44 -232
h106z" />
    <glyph glyph-name="Ntilde" unicode="&#xd1;" horiz-adv-x="454" 
d="M76 0h-64l128 674h69l69 -364q26 -136 33 -193h2q27 192 34 230l62 327h64l-128 -674h-65l-71 351q-21 98 -33 209h-2q-16 -124 -37 -235zM248 719h-43q5 43 25 67t48 24q22 0 47 -17q28 -18 38 -18q23 0 32 37h42q-13 -87 -76 -87q-23 0 -49 17q-26 16 -35 16
q-21 0 -29 -39z" />
    <glyph glyph-name="Ograve" unicode="&#xd2;" horiz-adv-x="441" 
d="M178 -8q-37 0 -64.5 15.5t-42.5 38t-23.5 54t-11 55.5t-2.5 50q0 108 37.5 233t102.5 189q56 55 126 55q139 0 139 -218q0 -105 -37 -229.5t-98 -185.5q-56 -57 -126 -57zM188 57q31 0 62 29q53 53 83.5 176t30.5 200q0 36 -2 59t-9 47.5t-23.5 36.5t-41.5 12
q-33 0 -63 -30q-52 -52 -84 -171t-32 -207q0 -29 2 -49t9 -47t24 -41.5t44 -14.5zM168 823h89l92 -113h-59z" />
    <glyph glyph-name="Oacute" unicode="&#xd3;" horiz-adv-x="441" 
d="M178 -8q-37 0 -64.5 15.5t-42.5 38t-23.5 54t-11 55.5t-2.5 50q0 108 37.5 233t102.5 189q56 55 126 55q139 0 139 -218q0 -105 -37 -229.5t-98 -185.5q-56 -57 -126 -57zM188 57q31 0 62 29q53 53 83.5 176t30.5 200q0 36 -2 59t-9 47.5t-23.5 36.5t-41.5 12
q-33 0 -63 -30q-52 -52 -84 -171t-32 -207q0 -29 2 -49t9 -47t24 -41.5t44 -14.5zM369 823h89l-136 -113h-60z" />
    <glyph glyph-name="Ocircumflex" unicode="&#xd4;" horiz-adv-x="441" 
d="M178 -8q-37 0 -64.5 15.5t-42.5 38t-23.5 54t-11 55.5t-2.5 50q0 108 37.5 233t102.5 189q56 55 126 55q139 0 139 -218q0 -105 -37 -229.5t-98 -185.5q-56 -57 -126 -57zM188 57q31 0 62 29q53 53 83.5 176t30.5 200q0 36 -2 59t-9 47.5t-23.5 36.5t-41.5 12
q-33 0 -63 -30q-52 -52 -84 -171t-32 -207q0 -29 2 -49t9 -47t24 -41.5t44 -14.5zM292 823h57l63 -113h-60l-36 70h-2l-61 -70h-64z" />
    <glyph glyph-name="Otilde" unicode="&#xd5;" horiz-adv-x="441" 
d="M177 -8q-45 0 -76 22t-44.5 58.5t-18 67.5t-4.5 65q0 108 37.5 233t102.5 189q55 55 125 55q140 0 140 -218q0 -105 -37 -229.5t-98 -185.5q-57 -57 -127 -57zM188 57q32 0 61 29q53 53 84 176t31 200q0 36 -2 59t-9 47.5t-23.5 36.5t-41.5 12q-33 0 -63 -30
q-52 -51 -84 -170t-32 -208q0 -29 2 -49t9 -47t24 -41.5t44 -14.5zM236 719h-43q5 43 25 67t49 24q21 0 46 -17q28 -18 38 -18q23 0 32 37h42q-13 -87 -76 -87q-23 0 -49 17q-24 16 -35 16q-21 0 -29 -39z" />
    <glyph glyph-name="Odieresis" unicode="&#xd6;" horiz-adv-x="441" 
d="M178 -8q-37 0 -64.5 15.5t-42.5 38t-23.5 54t-11 55.5t-2.5 50q0 108 37.5 233t103.5 189q55 55 125 55q139 0 139 -218q0 -105 -37 -229.5t-98 -185.5q-56 -57 -126 -57zM189 57q32 0 61 29q53 53 83.5 176t30.5 200q0 36 -2 59t-9 47.5t-23.5 36.5t-41.5 12
q-32 0 -62 -30q-52 -51 -84.5 -170.5t-32.5 -207.5q0 -29 2 -49t9 -47t24.5 -41.5t44.5 -14.5zM229 725q-17 0 -29 12.5t-12 31.5t14 33.5t33 14.5q20 0 31 -13t11 -31q0 -19 -14 -33.5t-34 -14.5zM386 725h-2q-17 0 -29 12.5t-12 31.5t14 33.5t33 14.5q20 0 31 -13t11 -31
q0 -19 -13.5 -33.5t-32.5 -14.5z" />
    <glyph glyph-name="multiply" unicode="&#xd7;" horiz-adv-x="596" 
d="M54 487l37 40l222 -225l220 225l39 -40l-222 -224l222 -222l-39 -41l-221 224l-220 -224l-36 41l219 222z" />
    <glyph glyph-name="Oslash" unicode="&#xd8;" horiz-adv-x="437" 
d="M30 -37l-35 25l59 96q-22 50 -22 128q0 108 33.5 222t86.5 174q62 74 142 74q65 0 97 -49l46 78l39 -22l-59 -98q18 -48 18 -124q1 -100 -31.5 -218.5t-82.5 -180.5q-64 -76 -144 -76q-66 0 -99 51zM109 167l240 400q-18 52 -69 52t-90 -64t-62 -159q-27 -115 -23 -229h4
zM358 503l-239 -396q16 -52 70 -52q50 0 87.5 61t60.5 154q30 116 25 233h-4z" />
    <glyph glyph-name="Ugrave" unicode="&#xd9;" horiz-adv-x="446" 
d="M137 674h73l-86 -452q-8 -39 -8 -79q0 -41 20 -63.5t53 -22.5q47 0 74.5 37.5t44.5 123.5l86 456h73l-85 -449q-23 -123 -71.5 -178t-130.5 -55q-62 0 -99.5 37.5t-37.5 105.5q0 42 10 92zM172 823h89l91 -113h-58z" />
    <glyph glyph-name="Uacute" unicode="&#xda;" horiz-adv-x="446" 
d="M137 674h73l-86 -452q-8 -39 -8 -79q0 -41 20 -63.5t53 -22.5q47 0 74.5 37.5t44.5 123.5l86 456h73l-85 -449q-23 -123 -71.5 -178t-130.5 -55q-62 0 -99.5 37.5t-37.5 105.5q0 42 10 92zM350 823h90l-136 -113h-60z" />
    <glyph glyph-name="Ucircumflex" unicode="&#xdb;" horiz-adv-x="446" 
d="M137 674h73l-86 -452q-8 -39 -8 -79q0 -41 20 -63.5t53 -22.5q47 0 74.5 37.5t44.5 123.5l86 456h73l-85 -449q-23 -123 -71.5 -178t-130.5 -55q-62 0 -99.5 37.5t-37.5 105.5q0 42 10 92zM299 823h56l64 -113h-60l-36 70h-2l-60 -70h-65z" />
    <glyph glyph-name="Udieresis" unicode="&#xdc;" horiz-adv-x="446" 
d="M137 674h73l-86 -452q-8 -39 -8 -79q0 -42 20.5 -64t53.5 -22q47 0 74.5 37.5t43.5 123.5l87 456h72l-85 -449q-23 -123 -71 -178t-131 -55q-62 0 -99.5 37.5t-37.5 105.5q0 42 10 92zM235 725q-17 0 -29 12.5t-12 31.5t14 33.5t32 14.5q21 0 32 -12.5t11 -31.5
t-14 -33.5t-34 -14.5zM391 725q-17 0 -29 12.5t-12 31.5t14 33.5t33 14.5q20 0 31 -13t11 -31q0 -19 -14 -33.5t-34 -14.5z" />
    <glyph glyph-name="Yacute" unicode="&#xdd;" horiz-adv-x="391" 
d="M180 0h-73l55 285l-73 389h77l32 -198q3 -21 14 -122h2q49 103 58 121l109 199h78l-226 -388zM344 823h90l-136 -113h-60z" />
    <glyph glyph-name="Thorn" unicode="&#xde;" horiz-adv-x="389" 
d="M13 0l127 674h72l-26 -133q20 3 43 3q74 0 117 -44q38 -39 38 -109q0 -103 -64 -167t-162 -64q-7 0 -43 3l-32 -163h-70zM174 479l-48 -255q33 -3 35 -3q70 0 110 48t40 113q0 101 -97 101q-18 0 -40 -4z" />
    <glyph glyph-name="germandbls" unicode="&#xdf;" horiz-adv-x="419" 
d="M77 0h-72l86 450q23 119 71 184.5t139 65.5q66 0 96 -37.5t30 -87.5q0 -71 -43 -112q-74 -37 -74 -94q0 -40 24 -82q40 -68 40 -129q0 -73 -48 -119.5t-122 -46.5q-50 0 -82 16l17 57q28 -15 66 -15q41 0 68 28t27 70q0 44 -29 97q-35 62 -35 107q0 87 95 137
q24 27 25 86q-1 28 -17 46.5t-47 18.5q-95 0 -128 -180z" />
    <glyph glyph-name="agrave" unicode="&#xe0;" horiz-adv-x="380" 
d="M295 0h-65q0 6 7 92h-3q-57 -100 -125 -100q-43 0 -67 35.5t-24 100.5q0 58 15.5 119t46 117t83.5 91.5t120 35.5q52 0 89 -16l-56 -276q-23 -113 -21 -199zM255 246l36 183q-12 4 -30 4q-50 0 -90.5 -50t-59.5 -113t-20 -120q-3 -96 44 -96q36 0 70.5 58t49.5 134z
M155 674h79l68 -135h-50z" />
    <glyph glyph-name="aacute" unicode="&#xe1;" horiz-adv-x="380" 
d="M295 0h-65q0 6 7 92h-3q-57 -100 -125 -100q-43 0 -67 35.5t-24 100.5q0 58 15.5 119t46 117t83.5 91.5t120 35.5q52 0 89 -16l-56 -276q-23 -113 -21 -199zM255 246l36 183q-12 4 -30 4q-50 0 -90.5 -50t-59.5 -113t-20 -120q-3 -96 44 -96q36 0 70.5 58t49.5 134z
M311 674h80l-112 -135h-53z" />
    <glyph glyph-name="acircumflex" unicode="&#xe2;" horiz-adv-x="380" 
d="M295 0h-65q0 6 7 92h-3q-57 -100 -125 -100q-43 0 -67 35.5t-24 100.5q0 58 15.5 119t46 117t83.5 91.5t120 35.5q52 0 89 -16l-56 -276q-23 -113 -21 -199zM255 246l36 183q-12 4 -30 4q-50 0 -90.5 -50t-59.5 -113t-20 -120q-3 -96 44 -96q36 0 70.5 58t49.5 134z
M264 674h47l56 -135h-54l-31 83h-2l-60 -83h-56z" />
    <glyph glyph-name="atilde" unicode="&#xe3;" horiz-adv-x="380" 
d="M295 0h-65q0 6 7 92h-3q-57 -100 -125 -100q-43 0 -67 35.5t-24 100.5q0 58 15.5 119t46 117t83.5 91.5t120 35.5q52 0 89 -16l-56 -276q-23 -113 -21 -199zM255 246l36 183q-12 4 -30 4q-50 0 -90.5 -50t-59.5 -113t-20 -120q-3 -96 44 -96q36 0 70.5 58t49.5 134z
M203 563h-43q2 39 19 64.5t46 25.5q19 0 47 -17q28 -18 37 -18q21 0 26 37h42q-7 -85 -68 -85q-23 0 -46 17q-27 18 -36 18q-19 0 -24 -42z" />
    <glyph glyph-name="adieresis" unicode="&#xe4;" horiz-adv-x="380" 
d="M295 0h-65q0 6 7 92h-3q-57 -100 -125 -100q-43 0 -67 35.5t-24 100.5q0 58 15.5 119t46 117t83.5 91.5t120 35.5q52 0 89 -16l-56 -276q-23 -113 -21 -199zM255 246l36 183q-12 4 -30 4q-50 0 -90.5 -50t-59.5 -113t-20 -120q-3 -96 44 -96q36 0 70.5 58t49.5 134z
M192 560q-17 0 -28.5 12.5t-11.5 32.5t13.5 34.5t32.5 14.5t30 -13t11 -31q0 -21 -13 -35.5t-34 -14.5zM342 560q-17 0 -28.5 12.5t-11.5 32.5t13.5 34.5t32.5 14.5t30 -13t11 -31q0 -21 -13 -35.5t-34 -14.5z" />
    <glyph glyph-name="aring" unicode="&#xe5;" horiz-adv-x="380" 
d="M295 0h-65q0 6 7 92h-3q-57 -100 -125 -100q-43 0 -67 35.5t-24 100.5q0 58 15.5 119t46 117t83.5 91.5t120 35.5q52 0 89 -16l-56 -276q-23 -113 -21 -199zM255 246l36 183q-13 4 -30 4q-50 0 -90.5 -50t-59.5 -113t-20 -120q-3 -96 44 -96q35 0 69.5 58t50.5 134z
M272 707q41 0 64.5 -22.5t23.5 -61.5q0 -41 -29 -65.5t-67 -24.5q-40 0 -64.5 22.5t-24.5 57.5q0 41 27.5 67.5t69.5 26.5zM269 672q-21 0 -35.5 -16t-14.5 -40q0 -21 12.5 -34.5t34.5 -13.5t36 15.5t14 38.5q0 22 -12 36t-35 14z" />
    <glyph glyph-name="ae" unicode="&#xe6;" horiz-adv-x="532" 
d="M454 79l10 -52q-47 -35 -118 -35q-87 0 -116 86h-2q-46 -86 -124 -86q-49 0 -76 34t-27 79q0 97 67.5 147.5t164.5 46.5l6 30q9 45 -8 74.5t-60 29.5q-41 0 -81 -21l-12 50q45 29 107 29q43 0 72.5 -21t34.5 -66h2q50 87 134 87q50 0 74.5 -30.5t24.5 -70.5
q0 -156 -236 -149q-16 -78 -5 -127q15 -62 82 -62q39 0 86 27zM210 175l14 71q-67 2 -110.5 -30t-43.5 -101q0 -28 14 -46t37 -18q28 0 52.5 29.5t36.5 94.5zM459 382q0 19 -11 34t-36 15q-38 0 -66.5 -39.5t-41.5 -96.5q155 -3 155 87z" />
    <glyph glyph-name="ccedilla" unicode="&#xe7;" horiz-adv-x="289" 
d="M232 68l1 -56q-31 -15 -60 -17l-31 -45q24 -7 39 -25.5t15 -42.5q0 -37 -29 -59t-66 -22q-41 0 -63 18l16 39q26 -14 50 -14q18 0 30.5 9t11.5 26q0 36 -63 45l46 72q-55 8 -81 55.5t-26 115.5q0 54 16 110t45 104.5t76.5 79t104.5 30.5q29 0 47 -8l-19 -62q-19 7 -36 7
q-47 0 -85 -41t-56.5 -98t-18.5 -114q0 -119 77 -119q26 0 59 12z" />
    <glyph glyph-name="egrave" unicode="&#xe8;" horiz-adv-x="338" 
d="M261 80l10 -56q-55 -30 -114 -30q-135 0 -135 171q0 70 23 142.5t73.5 128t115.5 55.5q49 0 74 -31.5t25 -77.5q0 -84 -65 -126t-171 -42q-9 -60 3 -98q17 -62 74 -62q41 0 87 26zM266 377q0 53 -43 53q-34 0 -65.5 -41t-51.5 -117q67 0 113.5 25t46.5 80zM127 674h79
l69 -135h-51z" />
    <glyph glyph-name="eacute" unicode="&#xe9;" horiz-adv-x="338" 
d="M261 80l10 -56q-55 -30 -114 -30q-135 0 -135 171q0 70 23 142.5t73.5 128t115.5 55.5q49 0 74 -31.5t25 -77.5q0 -84 -65 -126t-171 -42q-9 -60 3 -98q17 -62 74 -62q41 0 87 26zM266 377q0 53 -43 53q-34 0 -65.5 -41t-51.5 -117q67 0 113.5 25t46.5 80zM289 674h80
l-113 -135h-53z" />
    <glyph glyph-name="ecircumflex" unicode="&#xea;" horiz-adv-x="338" 
d="M261 80l10 -56q-55 -30 -114 -30q-135 0 -135 171q0 70 23 142.5t73.5 128t115.5 55.5q49 0 74 -31.5t25 -77.5q0 -84 -65 -126t-171 -42q-9 -60 3 -98q17 -62 74 -62q41 0 87 26zM266 377q0 53 -43 53q-34 0 -65.5 -41t-51.5 -117q67 0 113.5 25t46.5 80zM237 674h47
l57 -135h-54l-32 83h-2l-59 -83h-57z" />
    <glyph glyph-name="edieresis" unicode="&#xeb;" horiz-adv-x="338" 
d="M261 80l10 -56q-55 -30 -114 -30q-135 0 -135 171q0 70 23 142.5t73.5 128t115.5 55.5q49 0 74 -31.5t25 -77.5q0 -84 -65 -126t-171 -42q-9 -60 3 -98q17 -62 74 -62q41 0 87 26zM266 377q0 53 -43 53q-34 0 -65.5 -41t-51.5 -117q67 0 113.5 25t46.5 80zM174 560h-2
q-17 0 -28.5 12.5t-11.5 32.5t13.5 34.5t32.5 14.5t30 -13t11 -31q0 -21 -12.5 -35.5t-32.5 -14.5zM323 560q-17 0 -28.5 12.5t-11.5 32.5t13.5 34.5t32.5 14.5t30 -13t11 -31q0 -21 -13 -35.5t-34 -14.5z" />
    <glyph glyph-name="igrave" unicode="&#xec;" horiz-adv-x="179" 
d="M77 0h-72l93 484h71zM33 674h78l69 -135h-51z" />
    <glyph glyph-name="iacute" unicode="&#xed;" horiz-adv-x="179" 
d="M77 0h-72l93 484h71zM191 674h80l-113 -135h-52z" />
    <glyph glyph-name="icircumflex" unicode="&#xee;" horiz-adv-x="179" 
d="M77 0h-72l92 484h72zM141 674h47l57 -135h-54l-32 83h-2l-59 -83h-56z" />
    <glyph glyph-name="idieresis" unicode="&#xef;" horiz-adv-x="179" 
d="M76 0h-71l92 484h72zM77 560q-17 0 -28.5 12.5t-11.5 32.5t13.5 34.5t32.5 14.5t30 -13t11 -31q0 -21 -13 -35.5t-34 -14.5zM228 560q-17 0 -28.5 12.5t-11.5 32.5t13.5 34.5t32.5 14.5t30 -13t11 -31q0 -21 -13 -35.5t-34 -14.5z" />
    <glyph glyph-name="eth" unicode="&#xf0;" horiz-adv-x="372" 
d="M150 51q31 0 55 28t37.5 71.5t21 83.5t9.5 76q4 45 4 72q-2 20 -15 34.5t-39 14.5q-40 0 -71 -48.5t-45 -109t-14 -114.5q0 -108 57 -108zM129 505l-18 34l101 52q-18 33 -58 77l46 37q42 -41 71 -84l91 49l18 -35l-89 -48q58 -108 58 -235q0 -53 -11.5 -112t-34 -116.5
t-64.5 -94.5t-95 -37q-37 0 -63 16.5t-38.5 43.5t-17.5 53.5t-5 55.5q0 70 19.5 140t66.5 126t111 59q30 2 49 -12l1 3q-10 41 -35 83z" />
    <glyph glyph-name="ntilde" unicode="&#xf1;" horiz-adv-x="393" 
d="M77 0h-72l60 318q12 68 25 166h63l-8 -76h2q56 84 130 84q42 0 62.5 -27.5t20.5 -69.5q0 -28 -9 -80l-59 -315h-72l59 314q7 38 7 67q0 49 -42 49q-34 0 -68.5 -46.5t-47.5 -113.5zM189 563h-43q2 39 19 64.5t46 25.5q20 0 48 -17q28 -18 37 -18q21 0 26 37h42
q-7 -85 -68 -85q-22 0 -47 17q-25 18 -36 18q-19 0 -24 -42z" />
    <glyph glyph-name="ograve" unicode="&#xf2;" horiz-adv-x="369" 
d="M137 -8q-62 0 -89.5 46t-27.5 118q0 51 13.5 107.5t38.5 108.5t67.5 85.5t94.5 33.5q112 0 112 -157q0 -50 -12 -106t-36 -110.5t-66 -90t-95 -35.5zM148 51q31 0 56.5 33t39.5 81t21.5 93.5t7.5 79.5q0 94 -51 94q-37 0 -68 -48.5t-46 -109t-15 -111.5q0 -34 2.5 -55
t15.5 -39t37 -18zM124 674h79l69 -135h-51z" />
    <glyph glyph-name="oacute" unicode="&#xf3;" horiz-adv-x="369" 
d="M137 -8q-62 0 -89.5 46t-27.5 118q0 51 13.5 107.5t38.5 108.5t67.5 85.5t94.5 33.5q112 0 112 -157q0 -50 -12 -106t-36 -110.5t-66 -90t-95 -35.5zM148 51q31 0 56.5 33t39.5 81t21.5 93.5t7.5 79.5q0 94 -51 94q-37 0 -68 -48.5t-46 -109t-15 -111.5q0 -34 2.5 -55
t15.5 -39t37 -18zM286 674h80l-113 -135h-53z" />
    <glyph glyph-name="ocircumflex" unicode="&#xf4;" horiz-adv-x="369" 
d="M137 -8q-62 0 -89.5 46t-27.5 118q0 51 13.5 107.5t38.5 108.5t67.5 85.5t94.5 33.5q112 0 112 -157q0 -50 -12 -106t-36 -110.5t-66 -90t-95 -35.5zM148 51q31 0 56.5 33t39.5 81t21.5 93.5t7.5 79.5q0 94 -51 94q-37 0 -68 -48.5t-46 -109t-15 -111.5q0 -34 2.5 -55
t15.5 -39t37 -18zM240 674h47l56 -135h-53l-32 83h-2l-60 -83h-56z" />
    <glyph glyph-name="otilde" unicode="&#xf5;" horiz-adv-x="369" 
d="M137 -8q-62 0 -89.5 46t-27.5 118q0 51 13.5 107.5t38.5 108.5t67.5 85.5t94.5 33.5q112 0 112 -157q0 -50 -12 -106t-36 -110.5t-66 -90t-95 -35.5zM148 51q31 0 56.5 33t39.5 81t21.5 93.5t7.5 79.5q0 94 -51 94q-37 0 -68 -48.5t-46 -109t-15 -111.5q0 -34 2.5 -55
t15.5 -39t37 -18zM177 563h-43q2 39 19 64.5t46 25.5q18 0 48 -17q28 -18 37 -18q21 0 26 37h42q-7 -85 -68 -85q-24 0 -47 17q-25 18 -36 18q-19 0 -24 -42z" />
    <glyph glyph-name="odieresis" unicode="&#xf6;" horiz-adv-x="369" 
d="M137 -8q-62 0 -89.5 46t-27.5 118q0 51 13.5 107.5t38.5 108.5t67.5 85.5t94.5 33.5q112 0 112 -157q0 -50 -12 -106t-36 -110.5t-66 -90t-95 -35.5zM148 51q31 0 56.5 33t39.5 81t21.5 93.5t7.5 79.5q0 94 -51 94q-37 0 -68 -48.5t-46 -109t-15 -111.5q0 -34 2.5 -55
t15.5 -39t37 -18zM172 560q-17 0 -28.5 12.5t-11.5 32.5t13.5 34.5t32.5 14.5t30 -13t11 -31q0 -21 -13 -35.5t-34 -14.5zM323 560q-17 0 -28.5 12.5t-11.5 32.5t13.5 34.5t32.5 14.5t30 -13t11 -31q0 -21 -13 -35.5t-34 -14.5z" />
    <glyph glyph-name="divide" unicode="&#xf7;" horiz-adv-x="596" 
d="M300 396q-19 0 -31 13t-12 33t12.5 33.5t32.5 13.5t32 -13t12 -34q0 -20 -12 -33t-34 -13zM559 239h-516v55h516v-55zM300 44q-19 0 -31 13t-12 33t12.5 33.5t32.5 13.5t32 -13t12 -34q0 -20 -12 -33t-34 -13z" />
    <glyph glyph-name="oslash" unicode="&#xf8;" horiz-adv-x="372" 
d="M23 -33l-31 26l46 69q-18 39 -18 96q0 51 13.5 107t38 108t67 85.5t93.5 33.5q45 0 74 -29l35 52l34 -22l-43 -65q16 -39 16 -94q0 -51 -12.5 -108.5t-36.5 -110.5t-64.5 -88t-90.5 -35q-52 0 -81 33zM97 134l169 271q-14 29 -45 29q-40 0 -70 -45t-43 -99t-14 -103
q-1 -27 0 -52zM275 351l-170 -267q10 -34 46 -34q31 0 56 28.5t39 71.5t21 83t8 72q1 8 1.5 23t0.5 23h-2z" />
    <glyph glyph-name="ugrave" unicode="&#xf9;" horiz-adv-x="392" 
d="M308 484h72l-60 -318q-11 -62 -22 -166h-64l6 76h-2q-53 -84 -130 -84q-40 0 -60.5 28.5t-20.5 70.5q0 35 8 77l59 316h72l-57 -304q-9 -40 -9 -76q0 -50 42 -50q36 0 69 43.5t45 107.5zM132 674h79l69 -135h-51z" />
    <glyph glyph-name="uacute" unicode="&#xfa;" horiz-adv-x="392" 
d="M308 484h72l-60 -318q-11 -62 -22 -166h-64l6 76h-2q-53 -84 -130 -84q-40 0 -60.5 28.5t-20.5 70.5q0 35 8 77l59 316h72l-57 -304q-9 -40 -9 -76q0 -50 42 -50q36 0 69 43.5t45 107.5zM295 674h81l-113 -135h-53z" />
    <glyph glyph-name="ucircumflex" unicode="&#xfb;" horiz-adv-x="392" 
d="M308 484h72l-60 -318q-11 -62 -22 -166h-64l7 76h-3q-52 -84 -130 -84q-40 0 -60.5 28.5t-20.5 70.5q0 35 8 77l59 316h72l-57 -304q-9 -40 -9 -76q0 -50 42 -50q36 0 69.5 43.5t45.5 107.5zM245 674h47l56 -135h-54l-31 83h-2l-60 -83h-57z" />
    <glyph glyph-name="udieresis" unicode="&#xfc;" horiz-adv-x="392" 
d="M308 484h72l-60 -318q-11 -62 -22 -166h-64l6 76h-2q-53 -84 -130 -84q-40 0 -60.5 28.5t-20.5 70.5q0 35 8 77l59 316h72l-57 -304q-9 -40 -9 -76q0 -50 42 -50q36 0 69 43.5t45 107.5zM183 560h-2q-17 0 -28.5 12.5t-11.5 32.5t13.5 34.5t32.5 14.5t30 -13t11 -31
q0 -21 -12.5 -35.5t-32.5 -14.5zM332 560q-17 0 -28.5 12.5t-11.5 32.5t13.5 34.5t32.5 14.5t30 -13t11 -31q0 -21 -13 -35.5t-34 -14.5z" />
    <glyph glyph-name="yacute" unicode="&#xfd;" horiz-adv-x="338" 
d="M50 484h74l16 -270q1 -26 2.5 -67t2.5 -54h2q5 19 12 38.5t16 44.5t14 40l101 268h74l-162 -393q-77 -182 -159 -253q-47 -39 -75 -48l-29 61q41 19 72 47q52 42 78 105q5 13 4 26zM262 674h81l-113 -135h-53z" />
    <glyph glyph-name="thorn" unicode="&#xfe;" horiz-adv-x="384" 
d="M-31 -192l161 857h72l-52 -257h2q55 83 120 83q46 0 67.5 -37.5t20.5 -99.5q-1 -85 -27 -166.5t-78 -138.5t-116 -57q-38 0 -60 15h-2l-37 -199h-71zM122 252l-34 -185q21 -18 48 -18q39 0 70 35t47.5 85.5t25 96t8.5 77.5q0 85 -47 85q-35 0 -69.5 -50.5t-48.5 -125.5z
" />
    <glyph glyph-name="ydieresis" unicode="&#xff;" horiz-adv-x="338" 
d="M50 484h74l16 -270q1 -26 2.5 -67t2.5 -54h2q5 19 12 38.5t16 44.5t14 40l101 268h74l-162 -393q-77 -182 -159 -253q-47 -39 -75 -48l-29 61q41 19 72 47q52 42 78 105q5 13 4 26zM146 560q-17 0 -28.5 12.5t-11.5 32.5t13.5 34.5t32.5 14.5t30 -13t11 -31
q0 -21 -13 -35.5t-34 -14.5zM296 560q-17 0 -28.5 12.5t-11.5 32.5t13.5 34.5t32.5 14.5t30 -13t11 -31q0 -21 -13 -35.5t-34 -14.5z" />
    <glyph glyph-name="Amacron" unicode="&#x100;" horiz-adv-x="425" 
d="M284 204h-151l-82 -204h-72l279 674h80l21 -674h-70zM153 261h131l-3 174v156h-3q-45 -130 -56 -156zM214 785h200l-10 -50h-200z" />
    <glyph glyph-name="amacron" unicode="&#x101;" horiz-adv-x="380" 
d="M295 0h-65q0 6 7 92h-3q-57 -100 -125 -100q-43 0 -67 35.5t-24 100.5q0 58 15.5 119t46 117t83.5 91.5t120 35.5q52 0 89 -16l-56 -276q-23 -113 -21 -199zM255 246l36 183q-12 4 -30 4q-50 0 -90.5 -50t-59.5 -113t-20 -120q-3 -96 44 -96q36 0 70.5 58t49.5 134z
M167 632h193l-10 -48h-193z" />
    <glyph glyph-name="Abreve" unicode="&#x102;" horiz-adv-x="425" 
d="M284 204h-151l-82 -204h-72l279 674h80l21 -674h-70zM153 261h131l-3 174v156h-3q-45 -130 -56 -156zM215 828h44q-2 -21 13.5 -36.5t41.5 -15.5q28 0 47.5 15.5t23.5 36.5h46q-6 -43 -36.5 -71t-84.5 -28q-53 0 -77.5 28t-17.5 71z" />
    <glyph glyph-name="abreve" unicode="&#x103;" horiz-adv-x="380" 
d="M295 0h-65q0 6 7 92h-3q-57 -100 -125 -100q-43 0 -67 35.5t-24 100.5q0 58 15.5 119t46 117t83.5 91.5t120 35.5q52 0 89 -16l-56 -276q-23 -113 -21 -199zM255 246l36 183q-12 4 -30 4q-50 0 -90.5 -50t-59.5 -113t-20 -120q-3 -96 44 -96q36 0 70.5 58t49.5 134z
M165 665h42q-1 -28 12.5 -45t39.5 -17q28 0 47 17t25 45h43q-6 -51 -38 -81t-81 -30q-51 0 -74.5 31t-15.5 80z" />
    <glyph glyph-name="Aogonek" unicode="&#x104;" horiz-adv-x="425" 
d="M338 674l21 -674h-20q-52 -64 -52 -109q0 -17 10.5 -27.5t26.5 -10.5q22 0 42 10l11 -41q-29 -23 -75 -23q-35 0 -55 20t-20 57q0 53 62 130l-5 198h-151l-82 -204h-72l279 674h80zM153 261h131l-4 174q0 24 0.5 77t0.5 79h-3q-41 -119 -56 -156z" />
    <glyph glyph-name="aogonek" unicode="&#x105;" horiz-adv-x="380" 
d="M372 475l-56 -276q-23 -113 -21 -199h-15q-52 -60 -52 -109q0 -17 10.5 -27.5t26.5 -10.5q22 0 42 10l11 -41q-29 -23 -75 -23q-35 0 -55 20t-20 57q0 53 62 130q0 4 7 86h-3q-57 -100 -125 -100q-43 0 -67 35.5t-24 100.5q0 58 15.5 119t46 117t83.5 91.5t120 35.5
q52 0 89 -16zM255 246l36 183q-12 4 -30 4q-50 0 -90.5 -50t-59.5 -113t-20 -120q-3 -96 44 -96q36 0 70.5 58t49.5 134z" />
    <glyph glyph-name="Cacute" unicode="&#x106;" horiz-adv-x="357" 
d="M294 73l4 -64q-30 -15 -89 -15q-50 0 -85.5 20.5t-54 56t-26.5 74t-8 83.5q0 107 32 206t96 165q80 81 181 81q49 0 67 -12l-22 -64q-19 9 -53 9q-73 0 -125 -62q-46 -54 -72.5 -135.5t-26.5 -167.5q0 -90 26 -139t88 -49q40 0 68 13zM358 823h90l-137 -113h-60z" />
    <glyph glyph-name="cacute" unicode="&#x107;" horiz-adv-x="288" 
d="M232 68l1 -60q-32 -14 -79 -14q-68 0 -100 48t-32 125q0 54 16 110t45 104.5t76 79t104 30.5q35 0 48 -9l-19 -60q-18 6 -36 6q-47 0 -85 -41t-56.5 -98t-18.5 -114q0 -119 77 -119q26 0 59 12zM268 674h80l-112 -135h-53z" />
    <glyph glyph-name="Ccircumflex" unicode="&#x108;" horiz-adv-x="357" 
d="M294 73l4 -64q-30 -15 -89 -15q-50 0 -85.5 20.5t-54 56t-26.5 74t-8 83.5q0 107 32 206t96 165q80 81 181 81q49 0 67 -12l-22 -64q-19 9 -53 9q-73 0 -125 -62q-46 -54 -72.5 -135.5t-26.5 -167.5q0 -90 26 -139t88 -49q40 0 68 13zM291 823h56l64 -113h-60l-37 70h-2
l-60 -70h-64z" />
    <glyph glyph-name="ccircumflex" unicode="&#x109;" horiz-adv-x="288" 
d="M232 68l1 -60q-32 -14 -79 -14q-68 0 -100 48t-32 125q0 54 16 110t45 104.5t76 79t104 30.5q35 0 48 -9l-19 -60q-18 6 -36 6q-47 0 -85 -41t-56.5 -98t-18.5 -114q0 -119 77 -119q26 0 59 12zM219 674h47l57 -135h-54l-32 83h-2l-59 -83h-57z" />
    <glyph glyph-name="Cdotaccent" unicode="&#x10a;" horiz-adv-x="357" 
d="M295 73l3 -64q-30 -15 -89 -15q-50 0 -85.5 20.5t-54 56t-26.5 74t-8 83.5q0 107 32 206t96 165q80 81 181 81q49 0 67 -12l-22 -64q-21 9 -53 9q-71 0 -125 -62q-46 -54 -72.5 -135.5t-26.5 -167.5q0 -90 26 -139t88 -49q39 0 69 13zM314 725q-19 0 -31 12.5t-12 32.5
t14.5 34.5t33.5 14.5q21 0 32.5 -13t11.5 -31q0 -20 -14 -35t-35 -15z" />
    <glyph glyph-name="cdotaccent" unicode="&#x10b;" horiz-adv-x="288" 
d="M232 68l1 -60q-32 -14 -79 -14q-68 0 -100 48t-32 125q0 54 16 110t45 104.5t76 79t104 30.5q35 0 48 -9l-19 -60q-18 6 -35 6q-48 0 -86 -41t-56.5 -98t-18.5 -114q0 -119 77 -119q26 0 59 12zM243 560q-17 0 -28.5 12.5t-11.5 32.5t13.5 34.5t32.5 14.5t30 -13t11 -31
q0 -21 -13 -35.5t-34 -14.5z" />
    <glyph glyph-name="Ccaron" unicode="&#x10c;" horiz-adv-x="357" 
d="M294 73l4 -64q-30 -15 -89 -15q-50 0 -85.5 20.5t-54 56t-26.5 74t-8 83.5q0 107 32 206t96 165q80 81 181 81q49 0 67 -12l-22 -64q-19 9 -53 9q-73 0 -125 -62q-46 -54 -72.5 -135.5t-26.5 -167.5q0 -90 26 -139t88 -49q40 0 68 13zM337 710h-57l-63 113h60l36 -70h2
l60 70h65z" />
    <glyph glyph-name="ccaron" unicode="&#x10d;" horiz-adv-x="288" 
d="M232 68l1 -60q-32 -14 -79 -14q-68 0 -100 48t-32 125q0 54 16 110t45 104.5t76 79t104 30.5q35 0 48 -9l-19 -60q-18 6 -36 6q-47 0 -85 -41t-56.5 -98t-18.5 -114q0 -119 77 -119q26 0 59 12zM250 539h-47l-57 135h54l31 -83h2l60 83h56z" />
    <glyph glyph-name="Dcaron" unicode="&#x10e;" horiz-adv-x="437" 
d="M13 7l125 660q52 10 101 10q101 0 151 -66q46 -60 44 -164q0 -115 -39.5 -222.5t-95.5 -159.5q-73 -68 -187 -68q-62 0 -99 10zM199 613l-105 -550q30 -3 38 -3q82 0 142 81q37 48 61 134t24 176q0 165 -122 165q-25 0 -38 -3zM293 710h-57l-63 113h60l36 -70h2l60 70h64
z" />
    <glyph glyph-name="dcaron" unicode="&#x10f;" horiz-adv-x="389" 
d="M339 692h72l-99 -522q-19 -101 -22 -170h-62l6 75h-2q-18 -37 -49.5 -60t-66.5 -23q-45 0 -71 39t-26 106q0 85 26.5 165t80 135t120.5 55q30 0 51 -17zM246 194l38 217q-15 22 -45 22q-43 0 -78.5 -51t-52 -114.5t-16.5 -116.5q0 -97 53 -97q29 0 58.5 36.5t42.5 103.5z
M430 527l-15 36q55 24 55 73q0 32 -23 51l57 12q26 -19 26 -58q0 -46 -31.5 -76t-68.5 -38z" />
    <glyph glyph-name="Dcroat" unicode="&#x110;" horiz-adv-x="445" 
d="M14 323l11 57h67l54 286q49 11 101 11q106 0 152 -67q45 -60 43 -166q0 -117 -39 -222t-96 -157q-75 -68 -188 -68q-61 0 -98 10l60 316h-67zM269 380l-11 -57h-106l-50 -259q20 -4 39 -4q81 0 141 81q36 48 60.5 134.5t24.5 172.5q0 168 -122 168q-26 0 -38 -4l-44 -232
h106z" />
    <glyph glyph-name="dcroat" unicode="&#x111;" horiz-adv-x="382" 
d="M246 194l38 217q-15 22 -45 22q-43 0 -78.5 -51t-52 -114.5t-16.5 -116.5q0 -97 53 -97q29 0 58.5 36.5t42.5 103.5zM190 597h131l18 95h72l-18 -95h59l-10 -52h-59l-71 -375q-19 -101 -22 -170h-62l6 75h-2q-18 -37 -49.5 -60t-66.5 -23q-45 0 -71 39t-26 106
q0 85 26.5 165t80 135t120.5 55q30 0 51 -17l14 70h-131z" />
    <glyph glyph-name="Emacron" unicode="&#x112;" horiz-adv-x="347" 
d="M323 384l-12 -62h-166l-49 -257h190l-13 -65h-261l128 674h249l-13 -64h-176l-44 -226h167zM175 785h200l-10 -50h-200z" />
    <glyph glyph-name="emacron" unicode="&#x113;" horiz-adv-x="338" 
d="M261 80l10 -56q-55 -30 -114 -30q-135 0 -135 171q0 70 23 142.5t73.5 128t115.5 55.5q49 0 74 -31.5t25 -77.5q0 -84 -65 -126t-171 -42q-9 -60 3 -98q17 -62 74 -62q41 0 87 26zM266 377q0 53 -43 53q-34 0 -65.5 -41t-51.5 -117q67 0 113.5 25t46.5 80zM144 632h194
l-9 -48h-194z" />
    <glyph glyph-name="Ebreve" unicode="&#x114;" horiz-adv-x="347" 
d="M323 384l-12 -62h-166l-49 -257h190l-13 -65h-261l128 674h249l-13 -64h-176l-44 -226h167zM176 815h44q-2 -21 13 -36.5t42 -15.5q28 0 47.5 15.5t23.5 36.5h46q-6 -43 -37 -71t-84 -28t-77.5 28t-17.5 71z" />
    <glyph glyph-name="ebreve" unicode="&#x115;" horiz-adv-x="338" 
d="M261 80l10 -56q-55 -30 -114 -30q-135 0 -135 171q0 70 23 142.5t73.5 128t115.5 55.5q49 0 74 -31.5t25 -77.5q0 -84 -65 -126t-171 -42q-9 -60 3 -98q17 -62 74 -62q41 0 87 26zM266 377q0 53 -43 53q-34 0 -65.5 -41t-51.5 -117q67 0 113.5 25t46.5 80zM143 665h42
q-1 -28 12.5 -45t39.5 -17q29 0 47.5 17t24.5 45h43q-6 -51 -38 -81t-81 -30q-52 0 -75.5 31t-14.5 80z" />
    <glyph glyph-name="Edotaccent" unicode="&#x116;" horiz-adv-x="347" 
d="M323 384l-12 -62h-166l-49 -257h190l-13 -65h-261l128 674h249l-13 -64h-176l-44 -226h167zM267 725q-19 0 -31 12.5t-12 32.5t14.5 34.5t33.5 14.5q21 0 32.5 -13t11.5 -31q0 -20 -14 -35t-35 -15z" />
    <glyph glyph-name="edotaccent" unicode="&#x117;" horiz-adv-x="338" 
d="M261 80l10 -56q-55 -30 -114 -30q-135 0 -135 171q0 70 23 142.5t73.5 128t115.5 55.5q49 0 74 -31.5t25 -77.5q0 -84 -65 -126t-171 -42q-9 -60 3 -98q17 -62 74 -62q41 0 87 26zM266 377q0 53 -43 53q-34 0 -65.5 -41t-51.5 -117q67 0 113.5 25t46.5 80zM237 560h-2
q-17 0 -28.5 12.5t-11.5 32.5t13.5 34.5t32.5 14.5t30 -13t11 -31q0 -21 -12.5 -35.5t-32.5 -14.5z" />
    <glyph glyph-name="Eogonek" unicode="&#x118;" horiz-adv-x="347" 
d="M13 0l127 674h250l-13 -64h-176l-44 -226h167l-12 -62h-167l-48 -257h190l-13 -65h-13q-82 -69 -82 -112q0 -15 9.5 -25t25.5 -10q25 0 44 8l12 -40q-29 -22 -75 -22q-35 0 -55.5 18.5t-20.5 52.5q0 58 86 130h-192z" />
    <glyph glyph-name="eogonek" unicode="&#x119;" horiz-adv-x="338" 
d="M266 377q0 53 -43 53q-34 0 -65 -41t-51 -117q66 0 112.5 25t46.5 80zM215 -128l13 -41q-30 -23 -76 -23q-35 0 -55.5 20t-20.5 55q0 29 23 59.5t55 50.5v1h-7q-66 3 -95.5 50t-29.5 121q0 70 23 142.5t73.5 128t115.5 55.5q49 0 74 -31.5t25 -77.5q0 -84 -65 -126
t-171 -42q-8 -56 3 -98q17 -62 75 -62q40 0 86 26l10 -56q-10 -6 -32 -14q-103 -55 -103 -110q0 -17 9.5 -27.5t25.5 -10.5q24 0 44 10z" />
    <glyph glyph-name="Ecaron" unicode="&#x11a;" horiz-adv-x="347" 
d="M323 384l-12 -62h-166l-49 -257h190l-13 -65h-261l128 674h249l-13 -64h-176l-44 -226h167zM294 710h-56l-64 113h60l36 -70h2l60 70h65z" />
    <glyph glyph-name="ecaron" unicode="&#x11b;" horiz-adv-x="338" 
d="M261 80l10 -56q-55 -30 -114 -30q-135 0 -135 171q0 70 23 142.5t73.5 128t115.5 55.5q49 0 74 -31.5t25 -77.5q0 -84 -65 -126t-171 -42q-9 -60 3 -98q17 -62 74 -62q41 0 87 26zM266 377q0 53 -43 53q-34 0 -65.5 -41t-51.5 -117q67 0 113.5 25t46.5 80zM252 539h-47
l-57 135h54l32 -83h2l59 83h56z" />
    <glyph glyph-name="Gcircumflex" unicode="&#x11c;" horiz-adv-x="429" 
d="M402 351l-63 -335q-52 -22 -110 -22q-97 0 -147 70q-44 62 -44 170q0 101 32.5 199t98.5 165q82 82 194 82q47 0 83 -14l-24 -65q-24 12 -67 12q-74 0 -135 -60q-47 -48 -76.5 -136t-29.5 -177q0 -182 119 -182q27 0 48 8l41 224h-86l12 61h154zM322 823h56l64 -113h-60
l-37 70h-2l-60 -70h-64z" />
    <glyph glyph-name="gcircumflex" unicode="&#x11d;" horiz-adv-x="381" 
d="M-9 -177l21 58q38 -21 78 -21q52 0 79.5 35.5t42.5 107.5l16 75h-2q-50 -82 -115 -82q-43 0 -67 36.5t-25 103.5q0 56 14.5 116t43.5 115t78.5 90t111.5 35q56 0 102 -24l-78 -419q-30 -153 -77 -198q-48 -51 -128 -51q-60 0 -95 23zM248 210l42 214q-15 8 -42 8
q-46 0 -83 -47.5t-54.5 -108t-18.5 -115.5q-2 -105 48 -105q36 0 67 49.5t41 104.5zM245 674h47l57 -135h-54l-32 83h-2l-59 -83h-57z" />
    <glyph glyph-name="Gbreve" unicode="&#x11e;" horiz-adv-x="429" 
d="M402 351l-63 -335q-52 -22 -110 -22q-97 0 -147 70q-44 62 -44 170q0 101 32.5 199t98.5 165q82 82 194 82q47 0 83 -14l-24 -65q-24 12 -67 12q-74 0 -135 -60q-47 -48 -76.5 -136t-29.5 -177q0 -182 119 -182q27 0 48 8l41 224h-86l12 61h154zM234 828h44
q-2 -21 13 -36.5t42 -15.5q28 0 47.5 15.5t23.5 36.5h46q-6 -43 -37 -71t-84 -28t-77.5 28t-17.5 71z" />
    <glyph glyph-name="gbreve" unicode="&#x11f;" horiz-adv-x="381" 
d="M-9 -177l21 58q38 -21 78 -21q52 0 79.5 35.5t42.5 107.5l16 75h-2q-50 -82 -115 -82q-43 0 -67 36.5t-25 103.5q0 56 14.5 116t43.5 115t78.5 90t111.5 35q56 0 102 -24l-78 -419q-30 -153 -77 -198q-48 -51 -128 -51q-60 0 -95 23zM248 210l42 214q-15 8 -42 8
q-46 0 -83 -47.5t-54.5 -108t-18.5 -115.5q-2 -105 48 -105q36 0 67 49.5t41 104.5zM164 665h42q-2 -28 11.5 -45t39.5 -17q29 0 48 17t25 45h43q-6 -51 -38 -81t-81 -30q-52 0 -75.5 31t-14.5 80z" />
    <glyph glyph-name="Gdotaccent" unicode="&#x120;" horiz-adv-x="429" 
d="M403 351l-63 -335q-52 -22 -111 -22q-97 0 -147 70q-44 62 -44 170q0 101 33 199.5t99 164.5q82 82 194 82q47 0 83 -14l-24 -65q-26 12 -67 12q-74 0 -135 -60q-48 -48 -77.5 -136t-29.5 -177q0 -182 119 -182q29 0 48 8l42 224h-86l12 61h154zM339 725q-19 0 -31 12.5
t-12 32.5t14.5 34.5t33.5 14.5q21 0 32.5 -13t11.5 -31q0 -20 -14 -35t-35 -15z" />
    <glyph glyph-name="gdotaccent" unicode="&#x121;" horiz-adv-x="381" 
d="M-9 -177l21 58q38 -21 78 -21q52 0 79.5 35.5t42.5 107.5l17 75h-2q-50 -82 -116 -82q-43 0 -67 36.5t-25 103.5q0 56 14.5 116t43.5 115t78.5 90t111.5 35q55 0 103 -24l-79 -419q-28 -150 -76 -198q-48 -51 -129 -51q-60 0 -95 23zM249 210l41 214q-13 8 -42 8
q-46 0 -83 -47.5t-54.5 -108t-18.5 -115.5q-2 -105 49 -105q36 0 66.5 49.5t41.5 104.5zM256 560q-17 0 -28.5 12.5t-11.5 32.5t13.5 34.5t32.5 14.5t30 -13t11 -31q0 -21 -13 -35.5t-34 -14.5z" />
    <glyph glyph-name="Gcommaaccent" unicode="&#x122;" horiz-adv-x="429" 
d="M402 351l-63 -335q-52 -22 -110 -22q-97 0 -147 70q-44 62 -44 170q0 101 32.5 199t98.5 165q82 82 194 82q47 0 83 -14l-24 -65q-24 12 -67 12q-74 0 -135 -60q-47 -48 -76.5 -136t-29.5 -177q0 -182 119 -182q27 0 48 8l41 224h-86l12 61h154zM120 -214l-11 36
q30 7 51.5 26t21.5 47q0 31 -25 52l59 11q26 -20 26 -56q0 -48 -36 -78t-86 -38z" />
    <glyph glyph-name="gcommaaccent" unicode="&#x123;" horiz-adv-x="381" 
d="M-9 -177l21 58q38 -21 78 -21q52 0 79.5 35.5t42.5 107.5l17 75h-2q-50 -82 -116 -82q-43 0 -67 36.5t-25 103.5q0 56 14.5 116t43.5 115t78.5 90t111.5 35q56 0 102 -24l-78 -419q-30 -152 -76 -198q-48 -51 -129 -51q-60 0 -95 23zM248 210l42 214q-15 8 -42 8
q-46 0 -83 -47.5t-54.5 -108t-18.5 -115.5q-2 -105 48 -105q36 0 67 49.5t41 104.5zM333 695l10 -36q-32 -6 -54 -25t-22 -48q0 -32 25 -51l-57 -12q-26 22 -26 56q0 49 36 79t88 37z" />
    <glyph glyph-name="Hcircumflex" unicode="&#x124;" horiz-adv-x="453" 
d="M140 674h72l-56 -291h188l55 291h73l-128 -674h-72l59 317h-187l-60 -317h-72zM305 823h56l64 -113h-60l-36 70h-2l-61 -70h-64z" />
    <glyph glyph-name="hcircumflex" unicode="&#x125;" horiz-adv-x="393" 
d="M77 0h-72l131 692h72l-52 -275l2 -1q51 76 120 76q41 0 61.5 -27.5t20.5 -69.5q0 -33 -9 -81l-59 -314h-72l60 316q6 33 6 65q0 49 -41 49q-36 0 -70 -45.5t-46 -107.5zM171 826h57l63 -113h-60l-36 70h-2l-60 -70h-65z" />
    <glyph glyph-name="Hbar" unicode="&#x126;" horiz-adv-x="453" 
d="M363 480h-188l-20 -103h188zM59 534h54l27 140h72l-27 -140h188l27 140h72l-26 -140h45l-11 -54h-45l-91 -480h-72l58 311h-188l-58 -311h-72l91 480h-55z" />
    <glyph glyph-name="hbar" unicode="&#x127;" horiz-adv-x="393" 
d="M55 597h63l18 95h72l-18 -95h128l-10 -51h-127l-25 -129l2 -1q51 76 120 76q41 0 61.5 -27.5t20.5 -69.5q0 -33 -9 -81l-59 -314h-72l60 316q6 33 6 65q0 49 -41 49q-36 0 -70 -45.5t-46 -107.5l-52 -277h-72l103 546h-63z" />
    <glyph glyph-name="Itilde" unicode="&#x128;" horiz-adv-x="194" 
d="M140 674h73l-129 -674h-72zM123 716h-43q5 43 25 67t48 24q21 0 47 -17q28 -18 38 -18q23 0 32 37h42q-13 -87 -76 -87q-22 0 -49 16q-25 17 -35 17q-22 0 -29 -39z" />
    <glyph glyph-name="itilde" unicode="&#x129;" horiz-adv-x="179" 
d="M77 0h-72l92 484h72zM92 563h-43q2 39 19 64.5t46 25.5q20 0 48 -17q28 -18 37 -18q21 0 26 37h42q-7 -85 -68 -85q-24 0 -47 17q-25 18 -36 18q-19 0 -24 -42z" />
    <glyph glyph-name="Imacron" unicode="&#x12a;" horiz-adv-x="194" 
d="M140 674h72l-128 -674h-72zM97 785h200l-10 -50h-200z" />
    <glyph glyph-name="imacron" unicode="&#x12b;" horiz-adv-x="179" 
d="M77 0h-72l93 484h71zM65 632h194l-10 -48h-193z" />
    <glyph glyph-name="Ibreve" unicode="&#x12c;" horiz-adv-x="194" 
d="M140 674h72l-128 -674h-72zM96 818h44q-2 -21 13 -36.5t42 -15.5q28 0 47.5 15.5t23.5 36.5h46q-6 -43 -37 -71t-84 -28t-77.5 28t-17.5 71z" />
    <glyph glyph-name="ibreve" unicode="&#x12d;" horiz-adv-x="179" 
d="M77 0h-72l93 484h71zM64 665h42q-2 -28 11.5 -45t39.5 -17q29 0 48 17.5t24 44.5h44q-6 -51 -38 -81t-81 -30q-52 0 -75.5 31t-14.5 80z" />
    <glyph glyph-name="Iogonek" unicode="&#x12e;" horiz-adv-x="194" 
d="M212 674l-128 -674h-21q-52 -60 -52 -109q0 -17 10.5 -27.5t26.5 -10.5q22 0 42 10l11 -41q-29 -23 -75 -23q-35 0 -55 20t-20 57q0 53 62 130l127 668h72z" />
    <glyph glyph-name="iogonek" unicode="&#x12f;" horiz-adv-x="179" 
d="M150 561q-20 0 -30.5 14t-8.5 36q1 22 16 38.5t36 16.5q22 0 33 -14t9 -36q-1 -26 -17 -40.5t-38 -14.5zM169 484l-92 -484h-22q-52 -60 -52 -109q0 -17 10.5 -27.5t26.5 -10.5q24 0 42 10l12 -41q-30 -23 -76 -23q-35 0 -55 20t-20 57q0 53 62 130l92 478h72z" />
    <glyph glyph-name="Idotaccent" unicode="&#x130;" horiz-adv-x="194" 
d="M140 674h73l-128 -674h-72zM194 725q-19 0 -31 12.5t-12 32.5t14.5 34.5t33.5 14.5q21 0 32.5 -13t11.5 -31q0 -20 -14 -35t-35 -15z" />
    <glyph glyph-name="dotlessi" unicode="&#x131;" horiz-adv-x="179" 
d="M77 0h-72l92 484h72z" />
    <glyph glyph-name="IJ" unicode="&#x132;" horiz-adv-x="451" 
d="M140 674h72l-128 -674h-72zM310 175l95 499h72l-96 -505q-19 -102 -59.5 -139.5t-107.5 -37.5q-33 0 -58 9l14 64q21 -7 44 -7q40 0 62 26.5t34 90.5z" />
    <glyph glyph-name="ij" unicode="&#x133;" horiz-adv-x="360" 
d="M77 0h-72l93 484h71zM150 560q-39 0 -37 46q2 21 15.5 36.5t32.5 15.5q21 0 31.5 -13.5t8.5 -33.5q-1 -24 -16 -37.5t-35 -13.5zM281 484h72l-91 -482q-21 -111 -47 -148q-34 -54 -106 -54q-29 0 -41 5l7 58q21 -3 29 -3q29 0 48.5 24t33.5 94zM334 560q-39 0 -37 46
q2 21 15.5 36.5t32.5 15.5q21 0 31.5 -13.5t8.5 -33.5q-1 -24 -16 -37.5t-35 -13.5z" />
    <glyph glyph-name="Jcircumflex" unicode="&#x134;" horiz-adv-x="257" 
d="M116 175l95 499h72l-96 -505q-19 -102 -59.5 -139.5t-107.5 -37.5q-35 0 -58 9l13 64q23 -7 45 -7q40 0 62 26.5t34 90.5zM234 823h56l64 -113h-60l-36 70h-2l-61 -70h-64z" />
    <glyph glyph-name="jcircumflex" unicode="&#x135;" horiz-adv-x="181" 
d="M102 484h72l-92 -482q-21 -110 -46 -148q-36 -54 -106 -54q-28 0 -42 5l7 58q24 -3 30 -3q29 0 48.5 24t33.5 94zM140 674h42l57 -135h-51l-32 84h-2l-60 -84h-54z" />
    <glyph glyph-name="Kcommaaccent" unicode="&#x136;" horiz-adv-x="387" 
d="M13 0l127 674h71l-62 -326h2q45 68 60 89l167 237h82l-219 -289l95 -385h-74l-77 329l-51 -64l-51 -265h-70zM71 -214l-11 36q30 7 51.5 26t21.5 47q0 31 -25 52l59 11q26 -20 26 -56q0 -48 -36 -78t-86 -38z" />
    <glyph glyph-name="kcommaaccent" unicode="&#x137;" horiz-adv-x="342" 
d="M75 0h-70l131 692h70l-78 -417h2q15 20 32 46l124 163h82l-164 -203l93 -281h-74l-74 239l-37 -46zM48 -214l-11 36q30 7 51.5 26t21.5 47q0 31 -25 52l59 11q26 -20 26 -56q0 -48 -36 -78t-86 -38z" />
    <glyph glyph-name="kgreenlandic" unicode="&#x138;" horiz-adv-x="342" 
d="M76 0h-70l91 484h71l-40 -209h2q26 35 33 46l123 163h83l-165 -203l94 -281h-74l-75 239l-36 -46z" />
    <glyph glyph-name="Lacute" unicode="&#x139;" horiz-adv-x="322" 
d="M12 0l128 674h72l-116 -610h185l-12 -64h-257zM261 823h90l-136 -113h-60z" />
    <glyph glyph-name="lacute" unicode="&#x13a;" horiz-adv-x="179" 
d="M77 0h-72l131 692h72zM240 834h90l-137 -113h-60z" />
    <glyph glyph-name="Lcommaaccent" unicode="&#x13b;" horiz-adv-x="322" 
d="M12 0l128 674h72l-116 -610h185l-12 -64h-257zM42 -214l-11 36q30 7 51.5 26t21.5 47q0 31 -25 52l59 11q26 -20 26 -56q0 -48 -36 -78t-86 -38z" />
    <glyph glyph-name="lcommaaccent" unicode="&#x13c;" horiz-adv-x="179" 
d="M76 0h-71l130 692h73zM-33 -214l-11 36q30 7 51.5 26t21.5 47q0 31 -25 52l59 11q26 -20 26 -56q0 -48 -36 -78t-86 -38z" />
    <glyph glyph-name="Lcaron" unicode="&#x13d;" horiz-adv-x="322" 
d="M12 0l128 674h72l-116 -610h185l-12 -64h-257zM238 505l-11 36q30 7 51.5 25.5t21.5 47.5q0 32 -25 51l59 12q26 -20 26 -56q0 -49 -36 -78.5t-86 -37.5z" />
    <glyph glyph-name="lcaron" unicode="&#x13e;" horiz-adv-x="179" 
d="M77 0h-72l131 692h72zM234 527l-14 35q54 26 54 74q0 32 -23 51l57 12q26 -19 26 -58q0 -46 -31.5 -76t-68.5 -38z" />
    <glyph glyph-name="Ldot" unicode="&#x13f;" horiz-adv-x="327" 
d="M12 0l128 674h72l-116 -610h185l-12 -64h-257zM268 314q-19 0 -31 13t-12 33t14.5 34t33.5 14q21 0 32.5 -13t11.5 -31q0 -20 -14 -35t-35 -15z" />
    <glyph glyph-name="ldot" unicode="&#x140;" horiz-adv-x="224" 
d="M77 0h-72l131 692h72zM212 295q-17 0 -28.5 12.5t-11.5 32.5t13.5 34.5t32.5 14.5t30 -13t11 -31q0 -21 -13 -35.5t-34 -14.5z" />
    <glyph glyph-name="Lslash" unicode="&#x141;" horiz-adv-x="331" 
d="M278 0h-257l48 256l-80 -65l13 70l80 65l67 348h71l-54 -287l125 103l-14 -71l-125 -103l-47 -252h185z" />
    <glyph glyph-name="lslash" unicode="&#x142;" horiz-adv-x="195" 
d="M86 0h-72l56 296l-73 -63l13 68l74 64l61 327h71l-50 -268l77 67l-14 -70l-76 -66z" />
    <glyph glyph-name="Nacute" unicode="&#x143;" horiz-adv-x="454" 
d="M76 0h-64l128 674h69l69 -364q26 -136 33 -193h2q21 167 33 230l62 327h64l-128 -674h-64l-71 351q-23 111 -33 209h-2q-16 -124 -37 -235zM366 823h90l-136 -113h-60z" />
    <glyph glyph-name="nacute" unicode="&#x144;" horiz-adv-x="393" 
d="M77 0h-72l60 318q12 68 25 166h63l-8 -76h2q56 84 130 84q42 0 62.5 -27.5t20.5 -69.5q0 -28 -9 -80l-59 -315h-72l59 314q7 38 7 67q0 49 -42 49q-34 0 -68.5 -46.5t-47.5 -113.5zM297 674h81l-113 -135h-52z" />
    <glyph glyph-name="Ncommaaccent" unicode="&#x145;" horiz-adv-x="454" 
d="M77 0h-64l127 674h69l69 -364q21 -104 34 -193h2q21 167 33 230l62 327h64l-128 -674h-65l-70 351q-22 98 -33 209h-2q-16 -124 -37 -235zM105 -214l-11 36q30 7 51.5 26t21.5 47q0 31 -25 52l59 11q26 -20 26 -56q0 -48 -36 -78t-86 -38z" />
    <glyph glyph-name="ncommaaccent" unicode="&#x146;" horiz-adv-x="393" 
d="M77 0h-72l60 318q12 68 25 166h63l-8 -76h2q56 84 130 84q42 0 62.5 -27.5t20.5 -69.5q0 -28 -9 -80l-59 -315h-72l59 314q7 38 7 67q0 49 -42 49q-34 0 -68.5 -46.5t-47.5 -113.5zM75 -214l-12 36q30 7 51.5 26t21.5 47q0 31 -25 52l59 11q26 -20 26 -56q0 -48 -36 -78
t-85 -38z" />
    <glyph glyph-name="Ncaron" unicode="&#x147;" horiz-adv-x="454" 
d="M76 0h-64l128 674h69l69 -364q26 -136 33 -193h2q21 167 33 230l62 327h64l-128 -674h-64l-71 351q-23 111 -33 209h-2q-16 -124 -37 -235zM331 710h-57l-63 113h60l36 -70h2l60 70h65z" />
    <glyph glyph-name="ncaron" unicode="&#x148;" horiz-adv-x="393" 
d="M77 0h-72l60 318q12 68 25 166h63l-8 -76h2q56 84 130 84q42 0 62.5 -27.5t20.5 -69.5q0 -28 -9 -80l-59 -315h-72l59 314q7 38 7 67q0 49 -42 49q-34 0 -68.5 -46.5t-47.5 -113.5zM255 539h-47l-56 135h53l32 -83h2l60 83h56z" />
    <glyph glyph-name="napostrophe" unicode="&#x149;" horiz-adv-x="393" 
d="M77 0h-72l60 318q12 68 25 166h63l-8 -76h2q56 84 130 84q42 0 62.5 -27.5t20.5 -69.5q0 -28 -9 -80l-59 -315h-72l59 314q7 38 7 67q0 49 -42 49q-34 0 -68.5 -46.5t-47.5 -113.5zM43 532l-13 35q54 26 54 74q0 32 -23 51l57 11q26 -19 26 -58q0 -46 -32 -76t-69 -37z
" />
    <glyph glyph-name="Eng" unicode="&#x14a;" horiz-adv-x="454" 
d="M184 -171l-9 57q40 5 65 30.5t38 83.5l-69 351q-24 114 -33 209h-2q-16 -124 -37 -235l-61 -325h-64l128 674h69l69 -364q25 -130 33 -193h2q20 163 33 231l62 326h64l-120 -637q-21 -111 -61.5 -156.5t-106.5 -51.5z" />
    <glyph glyph-name="eng" unicode="&#x14b;" horiz-adv-x="393" 
d="M125 -166l-12 58q46 8 73 39.5t38 91.5l55 291q7 38 7 67q0 49 -42 49q-34 0 -68.5 -46.5t-47.5 -113.5l-51 -270h-72l60 318q12 68 25 166h63l-8 -76h2q56 84 128 84q43 0 64 -28t21 -71q0 -26 -9 -78l-54 -286q-18 -99 -61 -142.5t-111 -52.5z" />
    <glyph glyph-name="Omacron" unicode="&#x14c;" horiz-adv-x="441" 
d="M178 -8q-37 0 -64.5 15.5t-42.5 38t-23.5 54t-11 55.5t-2.5 50q0 108 37.5 233t102.5 189q56 55 126 55q139 0 139 -218q0 -105 -37 -229.5t-98 -185.5q-56 -57 -126 -57zM188 57q31 0 62 29q53 53 83.5 176t30.5 200q0 36 -2 59t-9 47.5t-23.5 36.5t-41.5 12
q-33 0 -63 -30q-52 -52 -84 -171t-32 -207q0 -29 2 -49t9 -47t24 -41.5t44 -14.5zM221 785h200l-10 -50h-200z" />
    <glyph glyph-name="omacron" unicode="&#x14d;" horiz-adv-x="369" 
d="M137 -8q-62 0 -89.5 46t-27.5 118q0 51 13.5 107.5t38.5 108.5t67.5 85.5t94.5 33.5q112 0 112 -157q0 -50 -12 -106t-36 -110.5t-66 -90t-95 -35.5zM148 51q31 0 56.5 33t39.5 81t21.5 93.5t7.5 79.5q0 94 -51 94q-37 0 -68 -48.5t-46 -109t-15 -111.5q0 -34 2.5 -55
t15.5 -39t37 -18zM160 632h194l-10 -48h-194z" />
    <glyph glyph-name="Obreve" unicode="&#x14e;" horiz-adv-x="441" 
d="M178 -8q-37 0 -64.5 15.5t-42.5 38t-23.5 54t-11 55.5t-2.5 50q0 108 37.5 233t102.5 189q56 55 126 55q139 0 139 -218q0 -105 -37 -229.5t-98 -185.5q-56 -57 -126 -57zM188 57q31 0 62 29q53 53 83.5 176t30.5 200q0 36 -2 59t-9 47.5t-23.5 36.5t-41.5 12
q-33 0 -63 -30q-52 -52 -84 -171t-32 -207q0 -29 2 -49t9 -47t24 -41.5t44 -14.5zM219 825h45q-2 -21 13 -36.5t42 -15.5q28 0 48 15.5t23 36.5h46q-6 -43 -36.5 -71t-84.5 -28q-53 0 -78 28.5t-18 70.5z" />
    <glyph glyph-name="obreve" unicode="&#x14f;" horiz-adv-x="369" 
d="M137 -8q-62 0 -89.5 46t-27.5 118q0 51 13.5 107.5t38.5 108.5t67.5 85.5t94.5 33.5q112 0 112 -157q0 -50 -12 -106t-36 -110.5t-66 -90t-95 -35.5zM148 51q31 0 56.5 33t39.5 81t21.5 93.5t7.5 79.5q0 94 -51 94q-37 0 -68 -48.5t-46 -109t-15 -111.5q0 -34 2.5 -55
t15.5 -39t37 -18zM158 665h42q-1 -28 12.5 -45t39.5 -17q29 0 47.5 17t24.5 45h44q-6 -51 -38.5 -81t-81.5 -30q-51 0 -74.5 31t-15.5 80z" />
    <glyph glyph-name="Ohungarumlaut" unicode="&#x150;" horiz-adv-x="441" 
d="M178 -8q-37 0 -64.5 15.5t-42.5 38t-23.5 54t-11 55.5t-2.5 50q0 108 37.5 233t102.5 189q56 55 126 55q139 0 139 -218q0 -105 -37 -229.5t-98 -185.5q-56 -57 -126 -57zM188 57q31 0 62 29q53 53 83.5 176t30.5 200q0 36 -2 59t-9 47.5t-23.5 36.5t-41.5 12
q-33 0 -63 -30q-52 -52 -84 -171t-32 -207q0 -29 2 -49t9 -47t24 -41.5t44 -14.5zM305 822h80l-121 -103h-55zM433 822h80l-120 -103h-55z" />
    <glyph glyph-name="ohungarumlaut" unicode="&#x151;" horiz-adv-x="369" 
d="M137 -8q-62 0 -89.5 46t-27.5 118q0 51 13.5 107.5t38.5 108.5t67.5 85.5t94.5 33.5q112 0 112 -157q0 -50 -12 -106t-36 -110.5t-66 -90t-95 -35.5zM148 51q31 0 56.5 33t39.5 81t21.5 93.5t7.5 79.5q0 94 -51 94q-37 0 -68 -48.5t-46 -109t-15 -111.5q0 -34 2.5 -55
t15.5 -39t37 -18zM223 674h76l-110 -135h-47zM349 674h76l-109 -135h-47z" />
    <glyph glyph-name="OE" unicode="&#x152;" horiz-adv-x="598" 
d="M537 65l-10 -65h-225q-15 0 -51 -6q-20 -2 -38 -2q-177 0 -177 241q0 55 10 114.5t33.5 119.5t57 107.5t85 77.5t112.5 30q24 0 46 -3q30 -5 49 -5h211l-11 -64h-178l-43 -226h166l-10 -62h-168l-48 -257h189zM276 66l102 543q-24 8 -56 8q-63 0 -113 -63.5t-73.5 -147.5
t-23.5 -163q0 -186 117 -186q27 0 47 9z" />
    <glyph glyph-name="oe" unicode="&#x153;" horiz-adv-x="576" 
d="M497 78l10 -56q-51 -30 -111 -30q-94 0 -118 103q-20 -47 -56 -75t-81 -28q-60 0 -90.5 46t-30.5 119q0 54 13.5 111t38 108t66 83.5t91.5 32.5q44 0 69.5 -30.5t30.5 -76.5h1q23 49 61 78t83 29t70.5 -31t25.5 -74q0 -86 -64.5 -128t-171.5 -45q-7 -58 3 -99
q17 -64 75 -63q37 0 85 26zM150 51h2q33 0 59 32.5t39.5 80.5t20 93t6.5 80q0 96 -58 96q-54 0 -90 -90t-36 -179q0 -113 57 -113zM502 378q0 24 -11.5 38.5t-31.5 14.5q-34 0 -65 -41.5t-51 -117.5q67 3 113 27.5t46 78.5z" />
    <glyph glyph-name="Racute" unicode="&#x154;" horiz-adv-x="398" 
d="M12 0l126 667q57 10 106 10q82 0 122 -42q37 -40 37 -104q0 -71 -39 -128.5t-101 -77.5v-3q61 -24 62 -151q1 -126 10 -171h-72q-4 18 -8 167q-2 71 -21 100.5t-64 29.5h-32l-55 -297h-71zM198 613l-48 -258h35q61 0 102 49t41 121q0 42 -21.5 67.5t-66.5 25.5
q-27 0 -42 -5zM323 823h90l-136 -113h-60z" />
    <glyph glyph-name="racute" unicode="&#x155;" horiz-adv-x="250" 
d="M77 0h-72l61 325q14 77 21 159h63q-6 -75 -8 -91h3q49 99 121 99q9 0 13 -1l-14 -76q-1 0 -4.5 0.5t-5.5 0.5q-45 0 -82 -51t-49 -111zM226 674h80l-113 -135h-52z" />
    <glyph glyph-name="Rcommaaccent" unicode="&#x156;" horiz-adv-x="398" 
d="M13 0l125 667q57 10 106 10q82 0 122 -42q37 -40 37 -104q0 -71 -39 -128.5t-101 -77.5v-3q61 -24 62 -151q1 -126 10 -171h-72q-5 21 -7 167q-2 71 -21.5 100.5t-64.5 29.5h-31l-56 -297h-70zM199 613l-49 -258h35q61 0 102 49t41 121q0 42 -21.5 67.5t-66.5 25.5
q-27 0 -41 -5zM77 -214l-11 36q30 7 51.5 26t21.5 47q0 31 -25 52l59 11q26 -20 26 -56q0 -48 -36 -78t-86 -38z" />
    <glyph glyph-name="rcommaaccent" unicode="&#x157;" horiz-adv-x="250" 
d="M77 0h-72l61 325q14 77 21 159h63q-6 -75 -8 -91h3q49 99 121 99q9 0 13 -1l-14 -76q-1 0 -4.5 0.5t-5.5 0.5q-45 0 -82 -51t-49 -111zM3 -214l-11 36q30 7 51.5 26t21.5 47q0 31 -25 52l59 11q26 -20 26 -56q0 -48 -36 -78t-86 -38z" />
    <glyph glyph-name="Rcaron" unicode="&#x158;" horiz-adv-x="398" 
d="M12 0l126 667q57 10 106 10q82 0 122 -42q37 -40 37 -104q0 -71 -39 -128.5t-101 -77.5v-3q61 -24 62 -151q1 -126 10 -171h-72q-4 18 -8 167q-2 71 -21 100.5t-64 29.5h-32l-55 -297h-71zM198 613l-48 -258h35q61 0 102 49t41 121q0 42 -21.5 67.5t-66.5 25.5
q-27 0 -42 -5zM290 710h-57l-63 113h60l36 -70h2l60 70h64z" />
    <glyph glyph-name="rcaron" unicode="&#x159;" horiz-adv-x="250" 
d="M77 0h-72l61 325q14 77 21 159h63q-6 -75 -8 -91h3q49 99 121 99q9 0 13 -1l-14 -76q-1 0 -4.5 0.5t-5.5 0.5q-45 0 -82 -51t-49 -111zM207 539h-47l-56 135h54l31 -83h2l60 83h56z" />
    <glyph glyph-name="Sacute" unicode="&#x15a;" horiz-adv-x="342" 
d="M-5 21l21 64q36 -25 90 -25q58 -1 90.5 36.5t32.5 93.5q0 67 -70 135q-83 83 -83 167q0 80 53 134t138 54q59 0 89 -22l-22 -62q-33 18 -74 18q-49 0 -79 -32t-31 -82q0 -62 71 -128q82 -77 82 -168q0 -93 -54 -151.5t-147 -58.5q-35 0 -65 8.5t-42 18.5zM307 823h90
l-136 -113h-60z" />
    <glyph glyph-name="sacute" unicode="&#x15b;" horiz-adv-x="282" 
d="M-15 20l22 55q35 -23 75 -23q36 0 57 23t21 59q0 50 -49 94q-63 57 -63 118q0 63 41.5 104.5t108.5 41.5q49 0 76 -18l-20 -56q-25 15 -56 15q-36 0 -57 -21t-21 -54q0 -42 45 -81q68 -59 68 -127q0 -75 -44 -115.5t-114 -40.5q-57 0 -90 26zM238 674h81l-113 -135h-53z
" />
    <glyph glyph-name="Scircumflex" unicode="&#x15c;" horiz-adv-x="342" 
d="M-5 21l21 64q36 -25 90 -25q58 -1 90.5 36.5t32.5 93.5q0 67 -70 135q-83 83 -83 167q0 80 53 134t138 54q59 0 89 -22l-22 -62q-33 18 -74 18q-49 0 -79 -32t-31 -82q0 -62 71 -128q82 -77 82 -168q0 -93 -54 -151.5t-147 -58.5q-35 0 -65 8.5t-42 18.5zM249 823h56
l64 -113h-60l-37 70h-2l-60 -70h-64z" />
    <glyph glyph-name="scircumflex" unicode="&#x15d;" horiz-adv-x="282" 
d="M-15 20l22 55q35 -23 75 -23q36 0 57 23t21 59q0 50 -49 94q-63 57 -63 118q0 63 41.5 104.5t108.5 41.5q49 0 76 -18l-20 -56q-25 15 -56 15q-36 0 -57 -21t-21 -54q0 -42 45 -81q68 -59 68 -127q0 -75 -44 -115.5t-114 -40.5q-57 0 -90 26zM186 674h47l57 -135h-54
l-32 83h-2l-60 -83h-56z" />
    <glyph glyph-name="Scedilla" unicode="&#x15e;" horiz-adv-x="342" 
d="M356 658l-22 -62q-33 18 -74 18q-49 0 -79 -32t-31 -82q0 -62 71 -128q82 -77 82 -168q0 -79 -38.5 -133.5t-108.5 -70.5l-33 -50q24 -8 38.5 -26t14.5 -42q0 -38 -28.5 -59.5t-65.5 -21.5q-42 0 -64 18l16 39q26 -14 50 -14q18 0 30.5 9t12.5 25q0 38 -64 45l46 71h-9
q-31 0 -61.5 8t-43.5 19l21 64q36 -25 90 -25q58 -1 90.5 36.5t32.5 93.5q0 67 -70 135q-83 83 -83 167q0 80 53 134t138 54q59 0 89 -22z" />
    <glyph glyph-name="scedilla" unicode="&#x15f;" horiz-adv-x="282" 
d="M274 474l-20 -56q-25 15 -56 15q-36 0 -57 -21t-21 -54q0 -42 45 -81q68 -59 68 -127q0 -60 -28.5 -98.5t-77.5 -51.5l-34 -50q24 -7 38.5 -25.5t14.5 -42.5q0 -38 -28.5 -59.5t-65.5 -21.5q-42 0 -64 18l16 39q26 -14 50 -14q18 0 30.5 9t12.5 26q0 36 -64 45l46 70h-6
q-25 0 -51 8.5t-37 17.5l22 55q35 -23 75 -23q36 0 57 23t21 59q0 50 -49 94q-63 57 -63 118q0 63 41.5 104.5t108.5 41.5q49 0 76 -18z" />
    <glyph glyph-name="Scaron" unicode="&#x160;" horiz-adv-x="342" 
d="M-5 21l21 64q36 -25 90 -25q58 -1 90.5 36.5t32.5 93.5q0 67 -70 135q-83 83 -83 167q0 80 53 134t138 54q59 0 89 -22l-22 -62q-33 18 -74 18q-49 0 -79 -32t-31 -82q0 -62 71 -128q82 -77 82 -168q0 -93 -54 -151.5t-147 -58.5q-35 0 -65 8.5t-42 18.5zM278 710h-57
l-64 113h61l36 -70h2l60 70h64z" />
    <glyph glyph-name="scaron" unicode="&#x161;" horiz-adv-x="282" 
d="M-15 20l22 55q35 -23 75 -23q36 0 57 23t21 59q0 50 -49 94q-63 57 -63 118q0 63 41.5 104.5t108.5 41.5q49 0 76 -18l-20 -56q-25 15 -56 15q-36 0 -57 -21t-21 -54q0 -42 45 -81q68 -59 68 -127q0 -75 -44 -115.5t-114 -40.5q-57 0 -90 26zM214 539h-47l-57 135h54
l32 -83h2l60 83h56z" />
    <glyph glyph-name="Tcommaaccent" unicode="&#x162;" horiz-adv-x="341" 
d="M85 0l115 607h-121l13 67h314l-13 -67h-121l-115 -607h-72zM44 -214l-11 36q30 7 51.5 26t21.5 47q0 31 -25 52l59 11q26 -20 26 -56q0 -48 -36 -78t-86 -38z" />
    <glyph glyph-name="tcommaaccent" unicode="&#x163;" horiz-adv-x="240" 
d="M123 566l80 31l-23 -113h91l-11 -55h-91l-52 -276q-7 -36 -7 -61q0 -37 34 -37q20 0 29 2l-6 -56q-20 -7 -52 -7q-38 0 -59 20.5t-21 56.5q0 29 9 79l53 279h-58l10 55h59zM4 -214l-11 36q30 7 51.5 26t21.5 47q0 31 -25 52l59 11q26 -20 26 -56q0 -48 -36 -78t-86 -38z
" />
    <glyph glyph-name="Tcaron" unicode="&#x164;" horiz-adv-x="341" 
d="M85 0l115 607h-122l13 67h315l-13 -67h-121l-115 -607h-72zM285 710h-57l-64 113h61l36 -70h2l60 70h64z" />
    <glyph glyph-name="tcaron" unicode="&#x165;" horiz-adv-x="240" 
d="M123 566l79 31l-22 -113h91l-11 -55h-91l-52 -276q-7 -36 -7 -61q0 -37 34 -37q20 0 29 2l-6 -56q-20 -7 -52 -7q-38 0 -59 20.5t-21 56.5q0 29 9 79l53 279h-58l10 55h59zM257 533l-14 35q54 26 54 74q0 32 -23 51l57 12q26 -19 26 -58q0 -46 -31.5 -76t-68.5 -38z" />
    <glyph glyph-name="Tbar" unicode="&#x166;" horiz-adv-x="341" 
d="M306 324h-88l-61 -324h-72l61 324h-85l11 55h85l43 228h-122l13 67h315l-13 -67h-122l-43 -228h89z" />
    <glyph glyph-name="tbar" unicode="&#x167;" horiz-adv-x="240" 
d="M17 307h57l23 122h-58l10 55h59l15 82l80 31l-23 -113h91l-11 -55h-91l-23 -122h73l-10 -52h-73l-19 -103q-7 -35 -7 -61q0 -18 8.5 -27.5t25.5 -8.5q20 0 29 2l-6 -56q-20 -7 -52 -7q-38 0 -59 20.5t-21 56.5q0 29 9 79l21 105h-58z" />
    <glyph glyph-name="Utilde" unicode="&#x168;" horiz-adv-x="446" 
d="M138 674h72l-86 -452q-8 -39 -8 -79q0 -42 20.5 -64t53.5 -22q47 0 74.5 37.5t43.5 123.5l86 456h73l-86 -449q-23 -123 -70.5 -178t-129.5 -55q-63 0 -100.5 37.5t-37.5 105.5q0 42 10 92zM249 719h-43q5 43 25 67t48 24q19 0 47 -17q26 -18 37 -18q23 0 32 37h42
q-13 -87 -76 -87q-21 0 -48 16q-25 17 -35 17q-22 0 -29 -39z" />
    <glyph glyph-name="utilde" unicode="&#x169;" horiz-adv-x="392" 
d="M308 484h72l-60 -318q-11 -62 -22 -166h-65l7 76h-2q-53 -84 -130 -84q-40 0 -60.5 28.5t-20.5 70.5q0 35 8 77l59 316h72l-57 -304q-9 -40 -9 -76q0 -50 42 -50q36 0 69 43.5t45 107.5zM198 563h-43q2 39 19 64.5t47 25.5q19 0 47 -17q28 -18 37 -18q21 0 26 37h42
q-7 -85 -68 -85q-25 0 -46 17q-27 18 -37 18q-19 0 -24 -42z" />
    <glyph glyph-name="Umacron" unicode="&#x16a;" horiz-adv-x="446" 
d="M137 674h73l-86 -452q-8 -39 -8 -79q0 -41 20 -63.5t53 -22.5q47 0 74.5 37.5t44.5 123.5l86 456h73l-85 -449q-23 -123 -71.5 -178t-130.5 -55q-62 0 -99.5 37.5t-37.5 105.5q0 42 10 92zM219 785h200l-10 -50h-200z" />
    <glyph glyph-name="umacron" unicode="&#x16b;" horiz-adv-x="392" 
d="M308 484h72l-60 -318q-11 -62 -22 -166h-64l6 76h-2q-53 -84 -130 -84q-40 0 -60.5 28.5t-20.5 70.5q0 35 8 77l59 316h72l-57 -304q-9 -40 -9 -76q0 -50 42 -50q36 0 69 43.5t45 107.5zM172 632h193l-9 -48h-194z" />
    <glyph glyph-name="Ubreve" unicode="&#x16c;" horiz-adv-x="446" 
d="M137 674h73l-86 -452q-8 -39 -8 -79q0 -41 20 -63.5t53 -22.5q47 0 74.5 37.5t44.5 123.5l86 456h73l-85 -449q-23 -123 -71.5 -178t-130.5 -55q-62 0 -99.5 37.5t-37.5 105.5q0 42 10 92zM215 818h44q-2 -21 13.5 -36.5t41.5 -15.5q28 0 47.5 15.5t23.5 36.5h46
q-6 -43 -36.5 -71t-84.5 -28q-53 0 -77.5 28t-17.5 71z" />
    <glyph glyph-name="ubreve" unicode="&#x16d;" horiz-adv-x="392" 
d="M308 484h72l-60 -318q-11 -62 -22 -166h-64l6 76h-2q-53 -84 -130 -84q-40 0 -60.5 28.5t-20.5 70.5q0 35 8 77l59 316h72l-57 -304q-9 -40 -9 -76q0 -50 42 -50q36 0 69 43.5t45 107.5zM153 665h41q-1 -28 12.5 -45t39.5 -17q29 0 48 17t25 45h43q-6 -51 -38 -81
t-81 -30q-52 0 -75.5 31t-14.5 80z" />
    <glyph glyph-name="Uring" unicode="&#x16e;" horiz-adv-x="446" 
d="M138 674h72l-86 -452q-8 -39 -8 -79q0 -42 20.5 -64t53.5 -22q47 0 74.5 37.5t43.5 123.5l86 456h73l-86 -449q-23 -123 -70.5 -178t-129.5 -55q-63 0 -100.5 37.5t-37.5 105.5q0 42 10 92zM318 861q43 0 66.5 -22t23.5 -59q0 -39 -29.5 -63.5t-68.5 -24.5
q-41 0 -65.5 22t-24.5 56q0 38 28.5 64.5t69.5 26.5zM316 828q-21 0 -35 -15.5t-14 -39.5q0 -21 12 -34t33 -13t34.5 15t13.5 39q0 21 -11.5 34.5t-32.5 13.5z" />
    <glyph glyph-name="uring" unicode="&#x16f;" horiz-adv-x="392" 
d="M308 484h72l-60 -318q-11 -62 -22 -166h-64l6 76h-2q-53 -84 -130 -84q-40 0 -60.5 28.5t-20.5 70.5q0 35 8 77l59 316h72l-57 -304q-9 -40 -9 -76q0 -50 42 -50q36 0 69 43.5t45 107.5zM270 707q41 0 64.5 -22.5t23.5 -61.5q0 -41 -29 -65.5t-67 -24.5q-40 0 -64.5 22.5
t-24.5 57.5q0 41 27.5 67.5t69.5 26.5zM267 672q-21 0 -35.5 -16t-14.5 -40q0 -21 12.5 -34.5t34.5 -13.5t36 15.5t14 38.5q0 22 -12 36t-35 14z" />
    <glyph glyph-name="Uhungarumlaut" unicode="&#x170;" horiz-adv-x="446" 
d="M137 674h73l-86 -452q-8 -39 -8 -79q0 -41 20 -63.5t53 -22.5q47 0 74.5 37.5t44.5 123.5l86 456h73l-85 -449q-23 -123 -71.5 -178t-130.5 -55q-62 0 -99.5 37.5t-37.5 105.5q0 42 10 92zM295 822h81l-121 -103h-54zM424 822h80l-120 -103h-55z" />
    <glyph glyph-name="uhungarumlaut" unicode="&#x171;" horiz-adv-x="392" 
d="M308 484h72l-60 -318q-11 -62 -22 -166h-64l6 76h-2q-53 -84 -130 -84q-40 0 -60.5 28.5t-20.5 70.5q0 35 8 77l59 316h72l-57 -304q-9 -40 -9 -76q0 -50 42 -50q36 0 69 43.5t45 107.5zM226 674h76l-110 -135h-47zM352 674h76l-109 -135h-47z" />
    <glyph glyph-name="Uogonek" unicode="&#x172;" horiz-adv-x="446" 
d="M247 -128l12 -41q-29 -23 -75 -23q-35 0 -55.5 20t-20.5 55q0 54 66 110h-7q-55 3 -89.5 40t-34.5 102q0 42 10 92l84 447h73l-86 -452q-8 -39 -8 -79q0 -41 20 -63.5t53 -22.5q47 0 74.5 37.5t43.5 123.5l87 456h72l-85 -449q-33 -173 -119 -215q-32 -16 -59 -43
q-35 -33 -35 -66q0 -39 35 -39q24 0 44 10z" />
    <glyph glyph-name="uogonek" unicode="&#x173;" horiz-adv-x="392" 
d="M380 484l-60 -318q-11 -62 -22 -166h-15q-52 -60 -52 -109q0 -17 10.5 -27.5t26.5 -10.5q22 0 42 10l11 -41q-29 -23 -75 -23q-35 0 -55 20t-20 57q0 55 63 130l6 70h-2q-53 -84 -130 -84q-40 0 -60.5 28.5t-20.5 70.5q0 35 8 77l59 316h72l-57 -304q-9 -40 -9 -76
q0 -50 42 -50q36 0 69 43.5t45 107.5l52 279h72z" />
    <glyph glyph-name="Wcircumflex" unicode="&#x174;" horiz-adv-x="644" 
d="M163 0h-69l3 674h74l-6 -399q-2 -54 -12 -170h3q22 81 55 166l154 403h68l-1 -398q-1 -55 -9 -171h3q37 126 51 167l146 402h73l-255 -674h-72l-3 381q0 46 8 170h-2q-45 -141 -60 -176zM394 823h56l64 -113h-60l-36 70h-2l-61 -70h-64z" />
    <glyph glyph-name="wcircumflex" unicode="&#x175;" horiz-adv-x="552" 
d="M55 484h74l3 -271q-2 -97 -4 -123h3q18 58 43 118l118 276h57l10 -274q2 -85 -2 -120h3q33 99 42 124l107 270h72l-210 -484h-61l-12 262q-3 53 2 122h-3q-26 -84 -42 -122l-114 -262h-63zM332 674h47l57 -135h-54l-32 83h-2l-59 -83h-57z" />
    <glyph glyph-name="Ycircumflex" unicode="&#x176;" horiz-adv-x="391" 
d="M180 0h-73l55 285l-73 389h77l32 -198q3 -21 14 -122h2q49 103 58 121l109 199h78l-226 -388zM267 823h56l64 -113h-60l-37 70h-2l-60 -70h-64z" />
    <glyph glyph-name="ycircumflex" unicode="&#x177;" horiz-adv-x="338" 
d="M50 484h74l16 -270q1 -26 2.5 -67t2.5 -54h2q5 19 12 38.5t16 44.5t14 40l101 268h74l-162 -393q-77 -182 -159 -253q-47 -39 -75 -48l-29 61q41 19 72 47q52 42 78 105q5 13 4 26zM213 674h47l57 -135h-54l-31 83h-2l-60 -83h-56z" />
    <glyph glyph-name="Ydieresis" unicode="&#x178;" horiz-adv-x="391" 
d="M179 0h-72l55 285l-73 389h77l32 -198q9 -68 13 -122h2q8 15 27 55.5t32 65.5l109 199h78l-226 -388zM204 725q-17 0 -29 12.5t-12 31.5t14 33.5t33 14.5q20 0 31 -13t11 -31q0 -19 -14 -33.5t-34 -14.5zM360 725q-17 0 -29 12.5t-12 31.5t14 33.5t33 14.5q20 0 31 -13
t11 -31q0 -19 -14 -33.5t-34 -14.5z" />
    <glyph glyph-name="Zacute" unicode="&#x179;" horiz-adv-x="349" 
d="M-29 0l9 47l329 560v2h-204l13 65h288l-10 -54l-326 -553v-2h220l-13 -65h-306zM325 823h90l-137 -113h-60z" />
    <glyph glyph-name="zacute" unicode="&#x17a;" horiz-adv-x="296" 
d="M-34 0l6 48l191 280q57 82 65 92l2 2h-169l13 62h247l-8 -52l-190 -277q-38 -55 -66 -91v-2h186l-12 -62h-265zM249 674h80l-112 -135h-53z" />
    <glyph glyph-name="Zdotaccent" unicode="&#x17b;" horiz-adv-x="349" 
d="M-29 0l9 47l328 560v2h-203l13 65h288l-11 -54l-325 -553v-2h220l-13 -65h-306zM267 725q-19 0 -31 12.5t-12 32.5t14.5 34.5t33.5 14.5q21 0 32.5 -13t11.5 -31q0 -20 -14 -35t-35 -15z" />
    <glyph glyph-name="zdotaccent" unicode="&#x17c;" horiz-adv-x="296" 
d="M-34 0l7 48l190 280q19 27 38.5 55t26.5 37l2 2h-168l12 62h247l-8 -52l-190 -277q-47 -67 -65 -91v-2h185l-12 -62h-265zM211 560q-17 0 -28.5 12.5t-11.5 32.5t13.5 34.5t32.5 14.5t30 -13t11 -31q0 -21 -13 -35.5t-34 -14.5z" />
    <glyph glyph-name="Zcaron" unicode="&#x17d;" horiz-adv-x="349" 
d="M-29 0l9 47l329 560v2h-204l13 65h288l-10 -54l-326 -553v-2h220l-13 -65h-306zM292 710h-56l-64 112h60l36 -69h2l60 69h65z" />
    <glyph glyph-name="zcaron" unicode="&#x17e;" horiz-adv-x="296" 
d="M-34 0l6 48l191 280q57 82 65 92l2 2h-169l13 62h247l-8 -52l-190 -277q-38 -55 -66 -91v-2h186l-12 -62h-265zM229 539h-47l-57 135h54l32 -83h2l59 83h56z" />
    <glyph glyph-name="florin" unicode="&#x192;" horiz-adv-x="386" 
d="M92 347l9 57h80l5 23q27 117 64.5 174t115.5 57q32 0 54 -14l-19 -55q-15 9 -43 9q-38 0 -59 -37.5t-44 -133.5l-4 -23h93l-9 -57h-96l-53 -231q-23 -98 -58.5 -147t-104.5 -49q-37 0 -61 16l16 55q19 -11 46 -11q34 0 57 36t45 135l44 196h-78z" />
    <glyph glyph-name="Ohorn" unicode="&#x1a0;" horiz-adv-x="441" 
d="M441 728l60 9q7 -21 7 -48q0 -40 -24 -68t-63 -29q18 -46 18 -128q0 -104 -37 -229t-98 -186q-57 -57 -126 -57q-37 0 -64.5 15.5t-42.5 38t-23.5 54t-11 55.5t-2.5 50q0 108 38 233t103 189q55 55 124 55q40 0 67 -17q7 -3 16.5 -9.5t17 -10.5t15.5 -4q33 0 33 46
q0 18 -7 41zM288 617q-33 0 -63 -30q-51 -51 -83 -170.5t-32 -207.5q0 -29 2 -49t8.5 -47t24 -41.5t43.5 -14.5q31 0 62 29q52 53 83 176.5t31 199.5q0 36 -2 59.5t-9.5 47.5t-23.5 36t-41 12z" />
    <glyph glyph-name="ohorn" unicode="&#x1a1;" horiz-adv-x="375" 
d="M222 433q-38 0 -69 -48.5t-45.5 -109.5t-14.5 -112q0 -34 2.5 -55t15.5 -39t37 -18q31 0 56.5 33t40 81t22 94t7.5 80q0 94 -52 94zM360 548l58 8q7 -21 7 -46q0 -44 -24 -70t-66 -25q11 -35 11 -81q0 -50 -12 -106t-36 -110.5t-66 -90t-95 -35.5q-61 0 -88.5 46
t-27.5 118q0 51 13.5 107.5t38.5 108.5t67.5 85.5t93.5 33.5q30 0 52 -11q34 -17 46 -17q35 0 35 46q0 20 -7 39z" />
    <glyph glyph-name="Uhorn" unicode="&#x1af;" horiz-adv-x="446" 
d="M458 629l-76 -404q-23 -123 -71 -178t-130 -55q-63 0 -100 37.5t-37 105.5q0 47 9 92l85 447h72l-86 -452q-8 -39 -8 -79q0 -41 20 -63.5t53 -22.5q47 0 74.5 37.5t43.5 123.5l87 456h43q46 0 46 48q0 20 -6 40l57 9q7 -15 7 -43q0 -90 -83 -99z" />
    <glyph glyph-name="uhorn" unicode="&#x1b0;" horiz-adv-x="400" 
d="M403 572l56 9q7 -18 7 -44q0 -94 -95 -100l-51 -272q-12 -70 -22 -165h-64l6 75l-2 1q-52 -84 -129 -84q-41 0 -61.5 28.5t-20.5 70.5q0 36 8 76l59 317h72l-57 -305q-9 -41 -9 -76q0 -23 10.5 -36.5t31.5 -12.5q36 0 69 43t45 107l52 280h55q46 0 46 49q0 15 -6 39z" />
    <glyph glyph-name="Aringacute" unicode="&#x1fa;" horiz-adv-x="425" 
d="M308 688q-38 0 -59.5 19.5t-21.5 49.5q0 33 26.5 55.5t65.5 22.5q35 0 56.5 -19t21.5 -50q0 -34 -25.5 -56t-63.5 -22zM310 722q19 0 31 12t12 30q0 16 -10.5 27t-28.5 11q-19 0 -30.5 -12.5t-11.5 -30.5q0 -17 10.5 -27t27.5 -10zM389 933h97l-130 -79h-65zM284 204
h-151l-82 -204h-72l279 674h80l22 -674h-71zM153 261h131l-3 174v156h-3q-45 -130 -56 -156z" />
    <glyph glyph-name="aringacute" unicode="&#x1fb;" horiz-adv-x="380" 
d="M295 0h-65q0 6 7 92h-2q-59 -100 -126 -100q-43 0 -67 35.5t-24 100.5q0 58 15.5 119t46 117t83.5 91.5t120 35.5q52 0 89 -16l-56 -276q-23 -113 -21 -199zM255 246l36 183q-12 4 -29 4q-50 0 -91 -50t-60 -113t-20 -120q-3 -96 44 -96q36 0 70.5 58t49.5 134zM360 824
h83l-133 -113h-56zM286 689q41 0 64.5 -22.5t23.5 -60.5q0 -41 -29 -66t-68 -25t-63.5 22.5t-24.5 57.5q0 41 27.5 67.5t69.5 26.5zM283 654q-21 0 -35.5 -16t-14.5 -40q0 -21 12.5 -34.5t34.5 -13.5t36 15.5t14 38.5q0 22 -12 36t-35 14z" />
    <glyph glyph-name="AEacute" unicode="&#x1fc;" horiz-adv-x="539" 
d="M30 0h-73l325 674h292l-12 -64h-177l-31 -231h167l-11 -62h-163l-33 -252h181l-12 -65h-245l28 222h-133zM160 282h112l29 207q11 76 20 131h-5q-21 -45 -66 -144zM458 823h90l-136 -113h-60z" />
    <glyph glyph-name="aeacute" unicode="&#x1fd;" horiz-adv-x="532" 
d="M454 79l10 -52q-47 -35 -118 -35q-87 0 -116 86h-2q-46 -86 -124 -86q-49 0 -76 34t-27 79q0 97 67.5 147.5t164.5 46.5l6 30q9 45 -8 74.5t-60 29.5q-41 0 -81 -21l-12 50q45 29 107 29q43 0 72.5 -21t34.5 -66h2q50 87 134 87q50 0 74.5 -30.5t24.5 -70.5
q0 -156 -236 -149q-16 -78 -5 -127q15 -62 82 -62q39 0 86 27zM210 175l14 71q-67 2 -110.5 -30t-43.5 -101q0 -28 14 -46t37 -18q28 0 52.5 29.5t36.5 94.5zM459 382q0 19 -11 34t-36 15q-38 0 -66.5 -39.5t-41.5 -96.5q155 -3 155 87zM367 674h80l-113 -135h-52z" />
    <glyph glyph-name="Oslashacute" unicode="&#x1fe;" horiz-adv-x="437" 
d="M30 -37l-35 25l59 96q-22 50 -22 128q0 108 33.5 222t86.5 174q62 74 142 74q65 0 97 -49l46 78l39 -22l-59 -98q18 -48 18 -124q1 -100 -31.5 -218.5t-82.5 -180.5q-64 -76 -144 -76q-66 0 -99 51zM109 167l240 400q-18 52 -69 52t-90 -64t-62 -159q-27 -115 -23 -229h4
zM358 503l-239 -396q16 -52 70 -52q50 0 87.5 61t60.5 154q30 116 25 233h-4zM366 823h90l-137 -113h-60z" />
    <glyph glyph-name="oslashacute" unicode="&#x1ff;" horiz-adv-x="372" 
d="M23 -33l-31 26l46 69q-18 39 -18 96q0 51 13.5 107t38 108t67 85.5t93.5 33.5q45 0 74 -29l35 52l34 -22l-43 -65q16 -39 16 -94q0 -51 -12.5 -108.5t-36.5 -110.5t-64.5 -88t-90.5 -35q-52 0 -81 33zM97 134l169 271q-14 29 -45 29q-40 0 -70 -45t-43 -99t-14 -103
q-1 -27 0 -52zM275 351l-170 -267q10 -34 46 -34q31 0 56 28.5t39 71.5t21 83t8 72q1 8 1.5 23t0.5 23h-2zM287 674h80l-113 -135h-52z" />
    <glyph glyph-name="Scommaaccent" unicode="&#x218;" horiz-adv-x="342" 
d="M-5 21l21 64q36 -25 90 -25q58 -1 90.5 36.5t32.5 93.5q0 67 -70 135q-83 83 -83 167q0 80 53 134t138 54q59 0 89 -22l-22 -62q-33 18 -74 18q-49 0 -79 -32t-31 -82q0 -62 71 -128q82 -77 82 -168q0 -93 -54 -151.5t-147 -58.5q-35 0 -65 8.5t-42 18.5zM48 -214l-11 36
q30 7 51.5 26t21.5 47q0 31 -25 52l59 11q26 -20 26 -56q0 -48 -36 -78t-86 -38z" />
    <glyph glyph-name="scommaaccent" unicode="&#x219;" horiz-adv-x="282" 
d="M-15 20l22 55q35 -23 75 -23q36 0 57 23t21 59q0 50 -49 94q-63 57 -63 118q0 63 41.5 104.5t108.5 41.5q49 0 76 -18l-20 -56q-25 15 -56 15q-36 0 -57 -21t-21 -54q0 -42 45 -81q68 -59 68 -127q0 -75 -44 -115.5t-114 -40.5q-57 0 -90 26zM15 -213l-11 35
q30 7 51.5 26t21.5 48q0 32 -25 51l59 12q26 -22 26 -57q0 -48 -36 -78t-86 -37z" />
    <glyph glyph-name="uni021A" unicode="&#x21a;" horiz-adv-x="341" 
d="M85 0l115 607h-121l13 67h314l-13 -67h-121l-115 -607h-72zM44 -214l-11 36q30 7 51.5 26t21.5 47q0 31 -25 52l59 11q26 -20 26 -56q0 -48 -36 -78t-86 -38z" />
    <glyph glyph-name="uni021B" unicode="&#x21b;" horiz-adv-x="240" 
d="M123 566l80 31l-23 -113h91l-11 -55h-91l-52 -276q-7 -36 -7 -61q0 -37 34 -37q20 0 29 2l-6 -56q-20 -7 -52 -7q-38 0 -59 20.5t-21 56.5q0 29 9 79l53 279h-58l10 55h59zM4 -214l-11 36q30 7 51.5 26t21.5 47q0 31 -25 52l59 11q26 -20 26 -56q0 -48 -36 -78t-86 -38z
" />
    <glyph glyph-name="uni021C" unicode="&#x21c;" horiz-adv-x="317" 
d="M-46 -106l-6 62q55 3 112.5 30.5t101.5 83.5t44 126q0 48 -26.5 80.5t-70.5 32.5q-23 0 -51 -9l-9 54q68 19 126.5 71t58.5 114q0 39 -21.5 59.5t-49.5 20.5q-35 0 -75 -20l-12 53q54 30 109 30q53 0 87 -36.5t34 -89.5q0 -119 -133 -196v-3q48 -14 78 -55.5t30 -97.5
q0 -89 -51.5 -161t-125 -108.5t-150.5 -40.5z" />
    <glyph glyph-name="uni021D" unicode="&#x21d;" horiz-adv-x="299" 
d="M-66 -199l-6 60q103 16 178 70.5t75 138.5q0 38 -23.5 62.5t-64.5 24.5q-26 0 -56 -9l-10 54q66 16 116.5 57t50.5 102q0 32 -17 49.5t-47 17.5q-29 0 -67 -19l-14 50q58 32 106 32q51 0 81.5 -32.5t30.5 -78.5q0 -58 -32.5 -102t-83.5 -70v-2q47 -9 75.5 -42t28.5 -86
q0 -75 -49.5 -137.5t-121.5 -97t-150 -42.5z" />
    <glyph glyph-name="uni0232" unicode="&#x232;" horiz-adv-x="391" 
d="M180 0h-73l55 285l-73 389h77l32 -198q3 -21 14 -122h2q49 103 58 121l109 199h78l-226 -388zM195 785h200l-10 -50h-200z" />
    <glyph glyph-name="uni0233" unicode="&#x233;" horiz-adv-x="338" 
d="M50 484h74l16 -270q1 -26 2.5 -67t2.5 -54h2q5 19 12 38.5t16 44.5t14 40l101 268h74l-162 -393q-77 -182 -159 -253q-47 -39 -75 -48l-29 61q41 19 72 47q52 42 78 105q5 13 4 26zM145 632h193l-10 -48h-193z" />
    <glyph glyph-name="circumflex" unicode="&#x2c6;" 
d="M220 674h47l57 -135h-54l-32 83h-2l-59 -83h-57z" />
    <glyph glyph-name="caron" unicode="&#x2c7;" 
d="M247 539h-47l-57 135h54l32 -83h2l59 83h57z" />
    <glyph glyph-name="uni02C9" unicode="&#x2c9;" 
d="M141 632h193l-10 -48h-193z" />
    <glyph glyph-name="breve" unicode="&#x2d8;" 
d="M139 665h42q-2 -28 11.5 -45t39.5 -17q29 0 48 17.5t24 44.5h44q-6 -51 -38 -81t-81 -30q-52 0 -75.5 31t-14.5 80z" />
    <glyph glyph-name="dotaccent" unicode="&#x2d9;" 
d="M231 560q-17 0 -28.5 12.5t-11.5 32.5t13.5 34.5t32.5 14.5t30 -13t11 -31q0 -21 -13 -35.5t-34 -14.5z" />
    <glyph glyph-name="ring" unicode="&#x2da;" horiz-adv-x="335" 
d="M242 707q41 0 64.5 -22.5t23.5 -61.5q0 -41 -29 -65.5t-67 -24.5q-40 0 -64.5 22.5t-24.5 57.5q0 41 27.5 67.5t69.5 26.5zM239 672q-21 0 -35.5 -16t-14.5 -40q0 -21 12.5 -34.5t34.5 -13.5t36 15.5t14 38.5q0 22 -12 36t-35 14z" />
    <glyph glyph-name="ogonek" unicode="&#x2db;" 
d="M110 2h53q-65 -67 -65 -112q0 -17 10.5 -27t26.5 -10q22 0 42 10l11 -41q-30 -23 -76 -23q-34 0 -54 19t-20 53q0 61 72 131z" />
    <glyph glyph-name="tilde" unicode="&#x2dc;" 
d="M167 563h-43q2 39 19 64.5t46 25.5q20 0 48 -17q28 -18 37 -18q21 0 26 37h42q-7 -85 -68 -85q-24 0 -47 17q-25 18 -36 18q-19 0 -24 -42z" />
    <glyph glyph-name="hungarumlaut" unicode="&#x2dd;" 
d="M186 674h76l-110 -135h-47zM312 674h76l-110 -135h-47z" />
    <glyph glyph-name="uni037E" unicode="&#x37e;" horiz-adv-x="193" 
d="M18 -118l-56 -7q52 112 82 233l86 4q-61 -157 -112 -230zM127 332q-22 0 -35 15.5t-13 39.5t17 43.5t39 19.5q25 0 37.5 -15.5t12.5 -38.5q0 -26 -17 -45t-41 -19z" />
    <glyph glyph-name="tonos" unicode="&#x384;" 
d="M267 674h77l-113 -135h-49z" />
    <glyph glyph-name="dieresistonos" unicode="&#x385;" horiz-adv-x="350" 
d="M231 682h69l-82 -147h-41zM124 559q-16 0 -26.5 11t-10.5 28q0 18 12.5 31t29.5 13q18 0 28 -11.5t10 -27.5q0 -18 -12 -31t-31 -13zM334 559q-16 0 -26.5 11t-10.5 28q0 18 12.5 31t29.5 13q18 0 28 -11.5t10 -27.5q0 -18 -12 -31t-31 -13z" />
    <glyph glyph-name="Alphatonos" unicode="&#x386;" horiz-adv-x="425" 
d="M284 204h-151l-82 -204h-72l279 674h80l21 -674h-70zM153 261h131l-3 174v156h-3q-45 -130 -56 -156zM89 674h66l-45 -148h-39z" />
    <glyph glyph-name="anoteleia" unicode="&#x387;" horiz-adv-x="193" 
d="M101 259q-23 0 -36 15.5t-13 40.5q0 26 17 45.5t40 19.5q25 0 38 -15.5t13 -39.5q0 -28 -17 -47t-42 -19z" />
    <glyph glyph-name="Epsilontonos" unicode="&#x388;" horiz-adv-x="361" 
d="M337 384l-12 -62h-166l-49 -257h190l-13 -65h-261l128 674h249l-13 -64h-176l-44 -226h167zM36 674h66l-45 -148h-39z" />
    <glyph glyph-name="Etatonos" unicode="&#x389;" horiz-adv-x="466" 
d="M153 674h72l-56 -291h188l55 291h73l-128 -674h-72l59 317h-187l-60 -317h-72zM36 674h67l-46 -148h-39z" />
    <glyph glyph-name="Iotatonos" unicode="&#x38a;" horiz-adv-x="204" 
d="M150 674h72l-128 -674h-72zM36 674h66l-45 -148h-40z" />
    <glyph glyph-name="Omicrontonos" unicode="&#x38c;" horiz-adv-x="448" 
d="M184 -8q-45 0 -76 22t-44.5 58.5t-18 67.5t-4.5 65q0 104 34.5 221t89.5 183q63 73 141 73q139 0 139 -218q0 -96 -34 -216.5t-86 -182.5q-61 -73 -141 -73zM195 57q42 0 77.5 49.5t55.5 119t31 133t11 103.5q0 36 -2 59t-9 47.5t-23.5 36.5t-41.5 12q-41 0 -76.5 -46
t-56.5 -112t-33 -133t-12 -117q0 -29 2 -49t9 -47t24 -41.5t44 -14.5zM35 674h66l-45 -148h-39z" />
    <glyph glyph-name="Upsilontonos" unicode="&#x38e;" horiz-adv-x="449" 
d="M108 617l20 63q38 -4 74 -43q35 -40 53 -114t9 -170h4q25 89 66.5 159t85.5 110q48 45 91 58l11 -66q-60 -31 -121.5 -113t-103.5 -204q-21 -65 -31 -118l-33 -179h-72l33 179q13 76 15 116q7 138 -20.5 218.5t-80.5 103.5zM18 674h66l-45 -148h-40z" />
    <glyph glyph-name="Omegatonos" unicode="&#x38f;" horiz-adv-x="465" 
d="M107 62l1 4q-47 88 -47 203q0 181 75.5 297t175.5 116q71 0 110.5 -52.5t39.5 -147.5q0 -133 -47 -243.5t-108 -172.5v-4h95l-12 -62h-171l10 51q60 54 108.5 176t48.5 248q0 144 -82 144q-68 0 -119 -109.5t-51 -257.5q0 -140 41 -201l-10 -51h-169l12 62h99zM35 674h66
l-45 -148h-39z" />
    <glyph glyph-name="iotadieresistonos" unicode="&#x390;" horiz-adv-x="179" 
d="M167 484l-73 -383q-5 -27 -0.5 -38t23.5 -11l-16 -57q-13 -3 -27 -3q-56 0 -56 69q0 25 16 105l61 318h72zM154 682h69l-81 -147h-41zM48 559q-16 0 -26.5 11t-10.5 28q0 18 12 31t29 13q19 0 29 -11.5t10 -27.5q0 -18 -12 -31t-31 -13zM257 559q-16 0 -26.5 11t-10.5 28
q0 18 12.5 31t29.5 13q18 0 28 -11.5t10 -27.5q0 -18 -12 -31t-31 -13z" />
    <glyph glyph-name="Alpha" unicode="&#x391;" horiz-adv-x="425" 
d="M284 204h-151l-82 -204h-72l279 674h80l21 -674h-70zM153 261h131l-3 174v156h-3q-45 -130 -56 -156z" />
    <glyph glyph-name="Beta" unicode="&#x392;" horiz-adv-x="406" 
d="M12 7l125 660q50 10 105 10q80 0 123 -39q39 -39 39 -104q0 -60 -37.5 -108t-98.5 -68v-3q95 -31 95 -149q0 -95 -73 -156q-62 -53 -176 -53q-65 0 -102 10zM197 615l-43 -227h28q64 0 106.5 39.5t42.5 101.5q0 42 -23 66.5t-70 24.5q-28 0 -41 -5zM143 332l-51 -271
q17 -5 42 -5q72 0 114 44t42 112q0 55 -30 87.5t-88 32.5h-29z" />
    <glyph glyph-name="Gamma" unicode="&#x393;" horiz-adv-x="322" 
d="M140 674h257l-12 -65h-183l-115 -609h-75z" />
    <glyph glyph-name="uni0394" unicode="&#x394;" horiz-adv-x="432" 
d="M-26 0l8 44l274 630h83l31 -630l-9 -44h-387zM63 62h238l-14 329q-2 67 -5 200h-4q-19 -60 -68 -179z" />
    <glyph glyph-name="Epsilon" unicode="&#x395;" horiz-adv-x="347" 
d="M323 384l-12 -62h-166l-49 -257h190l-13 -65h-261l128 674h249l-13 -64h-176l-44 -226h167z" />
    <glyph glyph-name="Zeta" unicode="&#x396;" horiz-adv-x="349" 
d="M-29 0l9 47l329 560v2h-204l13 65h288l-10 -54l-326 -553v-2h220l-13 -65h-306z" />
    <glyph glyph-name="Eta" unicode="&#x397;" horiz-adv-x="453" 
d="M140 674h72l-56 -291h188l55 291h73l-128 -674h-72l59 317h-187l-60 -317h-72z" />
    <glyph glyph-name="Theta" unicode="&#x398;" horiz-adv-x="441" 
d="M177 -8q-45 0 -76 22t-44.5 58.5t-18 67.5t-4.5 65q0 104 34.5 221t89.5 183q61 73 141 73q139 0 139 -218q0 -97 -33.5 -217.5t-86.5 -181.5q-61 -73 -141 -73zM188 55q42 0 78 49.5t56 119.5t31 134t11 104q0 36 -2 59.5t-9.5 48.5t-23.5 37t-41 12q-41 0 -77 -46
t-57.5 -113t-33.5 -134t-12 -117q0 -29 2 -49.5t9 -47.5t24.5 -42t44.5 -15zM172 381h144l-12 -63h-143z" />
    <glyph glyph-name="Iota" unicode="&#x399;" horiz-adv-x="194" 
d="M140 674h72l-128 -674h-72z" />
    <glyph glyph-name="Kappa" unicode="&#x39a;" horiz-adv-x="387" 
d="M12 0l128 674h71l-63 -326h3q54 82 59 89l167 237h82l-218 -289l95 -385h-75l-76 329l-52 -64l-50 -265h-71z" />
    <glyph glyph-name="Lambda" unicode="&#x39b;" horiz-adv-x="429" 
d="M364 0h-71l-13 405q-1 71 2 183h-4q-23 -80 -63 -184l-161 -404h-75l281 674h79z" />
    <glyph glyph-name="Mu" unicode="&#x39c;" horiz-adv-x="586" 
d="M493 0h-66l54 384q8 54 30 181h-5q-35 -103 -74 -190l-165 -371h-48l-24 380q-5 98 -4 181h-3q-6 -30 -18.5 -90t-19.5 -92l-89 -383h-66l165 674h80l24 -390q5 -90 4 -155h3q19 56 61 156l168 389h83z" />
    <glyph glyph-name="Nu" unicode="&#x39d;" horiz-adv-x="454" 
d="M76 0h-64l128 674h69l69 -364q26 -136 33 -193h2q21 167 33 230l62 327h64l-128 -674h-64l-71 351q-23 111 -33 209h-2q-16 -124 -37 -235z" />
    <glyph glyph-name="Xi" unicode="&#x39e;" horiz-adv-x="370" 
d="M111 674h294l-11 -64h-294zM78 382h255l-11 -64h-256zM-4 65h305l-11 -65h-305z" />
    <glyph glyph-name="Omicron" unicode="&#x39f;" horiz-adv-x="441" 
d="M178 -8q-37 0 -64.5 15.5t-42.5 38t-23.5 54t-11 55.5t-2.5 50q0 104 34.5 221t89.5 183q63 73 142 73q139 0 139 -218q0 -96 -34 -216.5t-86 -182.5q-63 -73 -141 -73zM188 57q42 0 78 49.5t56 118.5t31 133t11 104q0 36 -2 59t-9 47.5t-23.5 36.5t-41.5 12
q-54 0 -97 -78t-62.5 -169.5t-19.5 -160.5q0 -29 2 -49t9 -47t24 -41.5t44 -14.5z" />
    <glyph glyph-name="Pi" unicode="&#x3a0;" horiz-adv-x="445" 
d="M463 674l-126 -674h-73l114 608h-180l-114 -608h-72l127 674h324z" />
    <glyph glyph-name="Rho" unicode="&#x3a1;" horiz-adv-x="390" 
d="M12 0l126 667q53 10 106 10q87 0 127 -47q37 -41 37 -109q0 -104 -68 -180q-65 -68 -160 -68q-28 0 -45 4l-52 -277h-71zM199 612l-52 -273q16 -4 38 -4q72 0 110.5 56t38.5 122q0 103 -97 103q-23 0 -38 -4z" />
    <glyph glyph-name="Sigma" unicode="&#x3a3;" horiz-adv-x="390" 
d="M74 70l-1 -5h275l-12 -65h-366l8 49l245 287l-130 287l8 51h330l-12 -65h-241l-1 -3l124 -274z" />
    <glyph glyph-name="Tau" unicode="&#x3a4;" horiz-adv-x="341" 
d="M85 0l115 607h-122l13 67h315l-13 -67h-121l-115 -607h-72z" />
    <glyph glyph-name="Upsilon" unicode="&#x3a5;" horiz-adv-x="401" 
d="M60 617l20 63q38 -4 74 -43q35 -40 53 -114t9 -170h4q25 89 66.5 159t85.5 110q48 45 91 58l11 -66q-60 -31 -121.5 -113t-103.5 -204q-21 -65 -31 -118l-33 -179h-72l33 179q13 76 15 116q7 138 -20.5 218.5t-80.5 103.5z" />
    <glyph glyph-name="Phi" unicode="&#x3a6;" horiz-adv-x="485" 
d="M157 -14l12 54q-55 15 -94.5 68.5t-39.5 149.5t32.5 182t90.5 140.5t127 55.5l9 52h65l-9 -52q58 -11 95 -68.5t37 -153.5q0 -146 -70.5 -256.5t-178.5 -117.5l-10 -54h-66zM180 98l93 480q-48 -2 -87.5 -53.5t-59.5 -122.5t-20 -141q0 -145 74 -163zM337 578l-93 -481
q50 4 89.5 56t58.5 123.5t19 143.5t-20.5 112t-53.5 46z" />
    <glyph glyph-name="Chi" unicode="&#x3a7;" horiz-adv-x="379" 
d="M318 0h-73l-32 171q-4 21 -20 112h-2q-12 -21 -22 -40.5t-21 -41t-18 -34.5l-90 -167h-77l200 345l-68 329h74l30 -154q2 -14 8.5 -50.5t10.5 -64.5h2q19 41 58 116l84 153h77l-193 -329z" />
    <glyph glyph-name="Psi" unicode="&#x3a8;" horiz-adv-x="479" 
d="M525 674l-39 -208q-22 -115 -73 -178.5t-147 -71.5l-41 -216h-68l41 216q-64 12 -99.5 55t-35.5 117q0 34 9 87l37 199h70l-38 -200q-9 -46 -9 -84q0 -104 77 -117l75 401h66l-75 -401q60 4 93 56.5t51 149.5l37 195h69z" />
    <glyph glyph-name="uni03A9" unicode="&#x3a9;" horiz-adv-x="447" 
d="M90 62l1 4q-47 88 -47 203q0 181 75.5 297t175.5 116q71 0 110.5 -52.5t39.5 -147.5q0 -131 -47.5 -242t-108.5 -174v-4h96l-12 -62h-171l10 51q60 54 108.5 176t48.5 248q0 144 -82 144q-68 0 -119 -109.5t-51 -257.5q0 -140 41 -201l-10 -51h-169l12 62h99z" />
    <glyph glyph-name="Iotadieresis" unicode="&#x3aa;" horiz-adv-x="194" 
d="M105 709q-18 0 -29.5 12.5t-11.5 31.5q0 20 13.5 34t32.5 14q21 0 31.5 -12.5t10.5 -31.5t-13.5 -33.5t-33.5 -14.5zM258 709q-18 0 -29.5 12.5t-11.5 31.5q0 20 13.5 34t32.5 14q21 0 31.5 -12.5t10.5 -31.5t-13.5 -33.5t-33.5 -14.5zM140 674h72l-128 -674h-72z" />
    <glyph glyph-name="Upsilondieresis" unicode="&#x3ab;" horiz-adv-x="401" 
d="M199 696q-18 0 -29.5 12.5t-11.5 31.5q0 20 13.5 34t32.5 14q21 0 31.5 -12.5t10.5 -31.5t-13.5 -33.5t-33.5 -14.5zM353 696q-18 0 -29.5 12.5t-11.5 31.5q0 20 13.5 34t32.5 14q21 0 31.5 -12.5t10.5 -31.5t-13.5 -33.5t-33.5 -14.5zM59 617l21 63q38 -4 74 -43
q35 -40 53 -114t9 -170h4q25 89 66.5 159t85.5 110q48 45 91 58l11 -66q-60 -31 -121.5 -113.5t-103.5 -203.5q-21 -65 -31 -118l-33 -179h-72l33 179q13 76 15 116q14 272 -102 322z" />
    <glyph glyph-name="alphatonos" unicode="&#x3ac;" horiz-adv-x="375" 
d="M274 674h76l-112 -135h-49zM236 70h-4q-18 -34 -48.5 -56t-64.5 -22q-49 0 -76 37.5t-27 104.5q0 146 61.5 252t133.5 106q65 0 79 -70h4q10 38 20 62h58q-15 -46 -30 -124q-7 -36 -20 -108t-20 -109q-7 -35 -7 -54.5t5.5 -27.5t17.5 -8l-17 -59q-12 -2 -18 -2
q-52 0 -47 78zM88 142q0 -89 51 -89q31 0 58 38.5t39 91.5q8 31 17 79q9 52 9 78q0 42 -13 66.5t-35 24.5q-34 0 -63.5 -45.5t-46 -112t-16.5 -131.5z" />
    <glyph glyph-name="epsilontonos" unicode="&#x3ad;" horiz-adv-x="306" 
d="M270 674h77l-113 -135h-49zM241 231h-29q-49 -1 -89.5 -28.5t-40.5 -75.5q0 -35 25 -54.5t63 -19.5q47 0 83 18l3 -55q-40 -24 -106 -24q-62 0 -103 31.5t-41 89.5q0 56 36.5 97.5t82.5 50.5l1 5q-28 10 -44.5 35t-16.5 58q0 54 45 93.5t111 39.5t95 -26l-21 -53
q-25 19 -73 19q-38 0 -62.5 -22.5t-24.5 -53.5q0 -68 102 -70h13z" />
    <glyph glyph-name="etatonos" unicode="&#x3ae;" horiz-adv-x="393" 
d="M293 674h77l-113 -135h-49zM144 408h3q56 84 130 84q42 0 62.5 -27.5t20.5 -69.5q0 -28 -9 -80l-64 -341q-21 -118 -20 -166h-66q-12 31 12 152l66 354q7 38 7 67q0 49 -42 49q-35 0 -69.5 -46.5t-47.5 -113.5l-50 -270h-72l60 318q22 120 18 166h64q3 -38 -3 -76z" />
    <glyph glyph-name="iotatonos" unicode="&#x3af;" horiz-adv-x="179" 
d="M193 674h77l-113 -135h-49zM167 484l-73 -381q-6 -29 -0.5 -40.5t23.5 -10.5l-16 -57q-13 -3 -26 -3q-57 0 -57 68q0 23 16 103l61 321h72z" />
    <glyph glyph-name="upsilondieresistonos" unicode="&#x3b0;" horiz-adv-x="371" 
d="M267 484h67q13 -26 13 -78q0 -71 -13 -141.5t-38.5 -133t-68.5 -101t-97 -38.5q-46 0 -77 30.5t-31 85.5q0 13 8 59l28 148q26 136 22 169h68q9 -22 -4 -94l-42 -220q-8 -53 -8 -57q0 -30 14.5 -45.5t34.5 -15.5q53 0 93 114.5t40 241.5q0 45 -9 76zM218 682h68l-81 -147
h-41zM111 559q-16 0 -26.5 11t-10.5 28q0 18 12.5 31t29.5 13q18 0 28 -11.5t10 -27.5q0 -18 -12 -31t-31 -13zM320 559q-16 0 -26.5 11t-10.5 28q0 18 12.5 31t29.5 13q18 0 28 -11.5t10 -27.5q0 -18 -12 -31t-31 -13z" />
    <glyph glyph-name="alpha" unicode="&#x3b1;" horiz-adv-x="375" 
d="M236 70h-4q-18 -34 -48.5 -56t-64.5 -22q-48 0 -75.5 37.5t-27.5 104.5q0 146 61.5 252t133.5 106q65 0 79 -70h4q10 38 20 62h58q-15 -46 -30 -124q-7 -36 -20 -108t-20 -109q-7 -35 -7 -54.5t5.5 -27.5t17.5 -8l-17 -59q-12 -2 -18 -2q-52 0 -47 78zM88 142
q0 -89 51 -89q31 0 58 38.5t39 91.5q8 31 17 79q9 52 9 78q0 42 -13 66.5t-35 24.5q-34 0 -63.5 -45.5t-46 -112t-16.5 -131.5z" />
    <glyph glyph-name="beta" unicode="&#x3b2;" horiz-adv-x="392" 
d="M50 -192h-66q-12 34 10 151l96 518q26 133 78 182q41 41 97 41t85.5 -39t29.5 -98q0 -63 -30.5 -115t-76.5 -71v-5q30 -11 55.5 -49.5t25.5 -98.5q0 -107 -55 -169.5t-123 -62.5q-60 0 -93 43l-3 -2l-13 -71q-20 -121 -17 -154zM183 339l11 58q7 0 19 2q40 13 68 53
t28 103q0 84 -52 84q-64 0 -90 -144l-74 -393q27 -48 75 -48q45 0 78.5 48t33.5 117q0 51 -21.5 83t-59.5 35q-12 2 -16 2z" />
    <glyph glyph-name="gamma" unicode="&#x3b3;" horiz-adv-x="324" 
d="M106 -192h-72q37 176 40 262q2 59 -12.5 193t-34.5 221h76q32 -169 31 -369h4q105 209 124 320q4 26 4 49h70q2 -24 -2 -47q-31 -167 -176 -383q-13 -23 -15 -35q-26 -153 -37 -211z" />
    <glyph glyph-name="delta" unicode="&#x3b4;" horiz-adv-x="368" 
d="M370 640l-32 -44q-36 45 -84 45q-20 0 -32 -13t-12 -31q0 -29 35 -79l45 -71q52 -81 52 -177q0 -41 -12 -87.5t-35 -90t-62 -72t-87 -28.5q-56 0 -93 45.5t-37 130.5q0 105 50.5 186.5t120.5 118.5v4l-15 26q-33 57 -33 94q0 39 30.5 71t80.5 32q78 0 120 -60zM239 392
l-20 36q-59 -36 -94.5 -107t-35.5 -155q0 -62 19.5 -88.5t46.5 -26.5q51 0 82.5 73t31.5 147q0 71 -30 121z" />
    <glyph glyph-name="epsilon" unicode="&#x3b5;" horiz-adv-x="305" 
d="M241 231h-29q-49 -1 -89.5 -28.5t-40.5 -75.5q0 -35 25 -54.5t63 -19.5q47 0 83 18l3 -57q-38 -22 -106 -22q-62 0 -103 31.5t-41 89.5q0 56 36.5 97.5t82.5 50.5l1 5q-28 10 -44.5 35t-16.5 58q0 54 45 93.5t111 39.5q67 0 94 -27l-20 -51q-29 18 -73 18
q-38 0 -62.5 -22.5t-24.5 -53.5q0 -68 102 -70h13z" />
    <glyph glyph-name="zeta" unicode="&#x3b6;" horiz-adv-x="322" 
d="M381 687l4 -54q-93 -59 -190 -193.5t-97 -244.5q0 -54 21 -84t63 -49q36 -15 86 -25q7 -2 7 -11q0 -33 -25 -83t-50 -73l-52 17q42 58 52 102q-37 8 -67 21q-51 24 -80.5 64t-29.5 113q0 106 86.5 239t180.5 199v3q-12 0 -32 0.5t-28 0.5q-59 2 -81 11l15 53q24 -6 90 -6
h127z" />
    <glyph glyph-name="eta" unicode="&#x3b7;" horiz-adv-x="393" 
d="M144 408h2q56 84 131 84q42 0 62.5 -27.5t20.5 -69.5q0 -28 -9 -80l-64 -341q-21 -119 -20 -166h-66q-11 26 11 152l67 354q7 38 7 67q0 49 -42 49q-35 0 -69.5 -46.5t-47.5 -113.5l-51 -270h-71l59 318q24 119 18 166h63q4 -34 -1 -76z" />
    <glyph glyph-name="theta" unicode="&#x3b8;" horiz-adv-x="376" 
d="M145 -8q-49 0 -82 44.5t-33 140.5q0 80 20 188q64 335 213 335q48 0 80 -45t32 -133q0 -77 -15 -165q-36 -200 -88 -282.5t-127 -82.5zM129 385h163q13 81 13 136q0 120 -52 120q-75 0 -124 -256zM280 327h-163q-17 -99 -17 -151q0 -125 56 -125q42 0 70 66.5t54 209.5z
" />
    <glyph glyph-name="iota" unicode="&#x3b9;" horiz-adv-x="179" 
d="M167 484l-73 -380q-5 -30 0 -41t24 -11l-17 -57q-12 -3 -27 -3q-25 0 -40.5 16t-15.5 50q0 19 20 127l57 299h72z" />
    <glyph glyph-name="kappa" unicode="&#x3ba;" horiz-adv-x="354" 
d="M190 257l-1 -3q39 -17 73 -142l36 -112h-76l-32 108q-31 113 -65 113h-8l-42 -221h-71l68 358q17 97 13 126h67q10 -25 -2 -89l-24 -132h2q96 115 175 221h80v-3q-110 -129 -193 -224z" />
    <glyph glyph-name="lambda" unicode="&#x3bb;" horiz-adv-x="327" 
d="M200 0l-11 261q-2 60 -2 113h-4q-18 -59 -41 -111l-111 -263h-75l205 453q8 17 8 36q0 15 -1 26q-5 64 -20 89t-40 27q-3 1 -9 1l16 63q16 0 28 -2q27 -5 46 -22t29 -47t14.5 -60t7.5 -75l33 -489h-73z" />
    <glyph glyph-name="uni03BC" unicode="&#x3bc;" horiz-adv-x="391" 
d="M165 484l-61 -321q-22 -108 44 -108q22 0 43 21t31.5 41t18.5 41q8 18 13 43l52 283h72l-65 -349q-6 -32 -6.5 -49t4.5 -25t16 -8l-19 -58q-6 -3 -20 -3q-50 0 -46 80h-2q-18 -33 -45.5 -54t-58.5 -21q-42 0 -59 35l-13 -71q-20 -105 -17 -153h-64q-11 37 11 151l99 525
h72z" />
    <glyph glyph-name="nu" unicode="&#x3bd;" horiz-adv-x="336" 
d="M42 484h74q4 -67 11 -253q2 -102 2 -140h3q112 241 129 330q8 37 6 63h68q4 -21 -2 -57q-11 -68 -68.5 -191t-127.5 -236h-64q-14 246 -31 484z" />
    <glyph glyph-name="xi" unicode="&#x3be;" horiz-adv-x="337" 
d="M295 355h-18q-75 -2 -129 -49t-54 -121q0 -89 92 -123q41 -17 94 -27q7 -1 7 -11q0 -33 -25.5 -82t-50.5 -72l-52 16q42 56 53 103q-36 5 -73 22q-120 50 -120 163q0 86 53 144.5t118 76.5v5q-36 16 -56.5 49t-20.5 76q0 72 51.5 123.5t129.5 51.5q55 0 87 -22l-19 -52
q-26 14 -69 14q-47 0 -77.5 -35.5t-30.5 -82.5q0 -46 28.5 -74.5t74.5 -32.5q7 -2 18 -2z" />
    <glyph glyph-name="omicron" unicode="&#x3bf;" horiz-adv-x="369" 
d="M137 -8q-62 0 -89.5 46t-27.5 118q0 51 13.5 107.5t38.5 108.5t67.5 85.5t94.5 33.5q112 0 112 -157q0 -50 -12 -106t-36 -110.5t-66 -90t-95 -35.5zM148 51q31 0 56.5 33t39.5 81t21.5 93.5t7.5 79.5q0 94 -51 94q-37 0 -68 -48.5t-46 -109t-15 -111.5q0 -34 2.5 -55
t15.5 -39t37 -18z" />
    <glyph glyph-name="pi" unicode="&#x3c0;" horiz-adv-x="394" 
d="M400 423h-48l-55 -292q-18 -94 -13 -131h-68q-9 38 10 135l55 288h-98q-4 -16 -10.5 -48.5t-9.5 -48.5q-55 -252 -114 -326h-70q61 84 113 323q4 17 11 50t11 50q-49 0 -69 -9l-3 46q26 24 111 24h260z" />
    <glyph glyph-name="rho" unicode="&#x3c1;" horiz-adv-x="383" 
d="M46 -192h-65q-10 36 10 141l53 284q27 148 87 210q45 49 110 49q55 0 86.5 -44t31.5 -114q0 -133 -55.5 -237.5t-137.5 -104.5q-30 0 -52 16.5t-31 42.5h-3l-16 -88q-21 -111 -18 -155zM118 245l-8 -43q-7 -37 -7 -65q0 -32 15.5 -58.5t45.5 -26.5q49 0 85.5 89.5
t36.5 198.5q0 38 -15.5 64.5t-43.5 26.5q-33 0 -62 -44.5t-47 -141.5z" />
    <glyph glyph-name="uni03C2" unicode="&#x3c2;" horiz-adv-x="307" 
d="M180 -130l-52 17q40 54 53 103q-38 10 -67 27q-90 54 -90 170q0 121 70.5 213t158.5 92q49 0 68 -15l-20 -56q-19 8 -48 8q-61 0 -107.5 -68.5t-46.5 -163.5q0 -91 71 -131q35 -20 79 -30q7 -3 7 -11q0 -32 -25.5 -81t-50.5 -74z" />
    <glyph glyph-name="sigma" unicode="&#x3c3;" horiz-adv-x="380" 
d="M315 442v-3q30 -40 30 -113q0 -46 -12 -100.5t-35.5 -108.5t-65.5 -89.5t-94 -35.5q-63 0 -90.5 46t-27.5 118q0 70 22 144.5t72 132.5t116 58h51h37h97l-11 -55q-32 0 -89 6zM148 51q31 0 56.5 33t39.5 81t21.5 93.5t7.5 79.5q0 94 -49 94q-39 0 -70.5 -48.5t-46 -109
t-14.5 -111.5q0 -34 2.5 -55t15.5 -39t37 -18z" />
    <glyph glyph-name="tau" unicode="&#x3c4;" horiz-adv-x="290" 
d="M198 54l-12 -57q-11 -5 -29 -5q-39 0 -62 23t-23 62q0 18 11 86l49 260h-42q-36 0 -62 -10l-2 47q26 24 90 24h211l-13 -61h-110l-50 -276q-7 -39 -7 -53q0 -41 34 -41q11 0 17 1z" />
    <glyph glyph-name="upsilon" unicode="&#x3c5;" horiz-adv-x="371" 
d="M267 484h67q13 -26 13 -83q0 -69 -13 -138.5t-38 -131.5t-68 -100.5t-97 -38.5q-46 0 -77.5 30.5t-31.5 84.5q0 12 8 58l28 150q26 134 23 169h68q8 -23 -5 -94l-41 -220q-9 -50 -9 -57q0 -30 15 -45.5t34 -15.5q36 0 67 54t48.5 135.5t17.5 166.5q0 45 -9 76z" />
    <glyph glyph-name="phi" unicode="&#x3c6;" horiz-adv-x="472" 
d="M164 48l56 307q12 69 37 103t73 34q49 0 82.5 -43.5t33.5 -126.5q0 -141 -69.5 -233t-155.5 -97l-36 -184h-69l37 184q-53 13 -91 59.5t-38 132.5q0 113 49.5 195t104.5 109l32 -37q-45 -33 -79 -104t-34 -159q0 -116 67 -140zM293 383l-62 -334q58 5 101 88t43 190
q0 51 -13.5 78.5t-35.5 27.5q-24 0 -33 -50z" />
    <glyph glyph-name="chi" unicode="&#x3c7;" horiz-adv-x="323" 
d="M51 484h72l20 -150q9 -62 13 -113h6q27 63 45 99q13 27 40 81.5t41 82.5h76q-61 -112 -183 -332l54 -340l-70 -15l-23 160q-9 67 -16 133h-6q-9 -20 -25 -55.5t-24 -52.5q-55 -115 -89 -185l-64 23q129 246 184 347z" />
    <glyph glyph-name="psi" unicode="&#x3c8;" horiz-adv-x="474" 
d="M380 484h64q9 -32 9 -72q0 -184 -65 -300t-168 -120l-34 -184h-70l35 184q-122 18 -122 154q0 41 9 81l26 146q16 77 12 111h65q7 -22 -4 -85l-30 -164q-9 -50 -9 -83q0 -95 64 -104l102 537h68l-101 -538q60 2 107 104.5t47 258.5q0 51 -5 74z" />
    <glyph glyph-name="omega" unicode="&#x3c9;" horiz-adv-x="505" 
d="M364 484h64q21 -24 34.5 -72t13.5 -98q0 -125 -47.5 -223.5t-121.5 -98.5q-70 0 -85 77h-3q-38 -77 -104 -77q-43 0 -71.5 37.5t-28.5 110.5q0 112 44.5 211.5t88.5 132.5h71l-1 -2q-47 -43 -89 -138t-42 -203q0 -87 47 -87q50 0 74 132l26 147h66l-30 -147
q-7 -37 -7 -61q0 -71 44 -71q40 0 69 88.5t29 171.5q0 110 -41 168v2z" />
    <glyph glyph-name="iotadieresis" unicode="&#x3ca;" horiz-adv-x="179" 
d="M70 558q-18 0 -29.5 12.5t-11.5 31.5q0 20 13.5 34t32.5 14q21 0 31.5 -12t10.5 -31q0 -20 -13.5 -34.5t-33.5 -14.5zM219 558q-18 0 -29.5 12.5t-11.5 31.5q0 20 13.5 34t32.5 14q21 0 31.5 -12t10.5 -31q0 -20 -13.5 -34.5t-33.5 -14.5zM167 484l-72 -381
q-6 -28 -1 -40t24 -12l-17 -56q-13 -3 -27 -3q-24 0 -39.5 17t-15.5 51q0 24 15 101l61 323h72z" />
    <glyph glyph-name="upsilondieresis" unicode="&#x3cb;" horiz-adv-x="371" 
d="M154 558q-18 0 -29.5 12.5t-11.5 31.5q0 20 13.5 34t32.5 14q21 0 31.5 -12t10.5 -31q0 -20 -13.5 -34.5t-33.5 -14.5zM303 558q-18 0 -29.5 12.5t-11.5 31.5q0 20 13.5 34t32.5 14q21 0 31.5 -12t10.5 -31q0 -20 -13.5 -34.5t-33.5 -14.5zM266 484h68q13 -26 13 -78
q0 -71 -13 -141.5t-38.5 -133t-68.5 -101t-97 -38.5q-46 0 -77 30.5t-31 85.5q0 13 8 59l28 148q26 136 22 169h68q9 -22 -4 -94l-42 -220q-1 -8 -3 -20.5t-3.5 -21.5t-1.5 -15q0 -30 14.5 -45.5t34.5 -15.5q53 0 93 114.5t40 241.5q0 48 -10 76z" />
    <glyph glyph-name="omicrontonos" unicode="&#x3cc;" horiz-adv-x="369" 
d="M275 674h77l-113 -135h-49zM137 -8q-62 0 -89.5 46t-27.5 118q0 51 13.5 107.5t38.5 108.5t67.5 85.5t94.5 33.5q112 0 112 -157q0 -50 -12 -106t-36 -110.5t-66 -90t-95 -35.5zM148 51q31 0 56.5 33t39.5 81t21.5 93.5t7.5 79.5q0 94 -51 94q-37 0 -68 -48.5t-46 -109
t-15 -111.5q0 -34 2.5 -55t15.5 -39t37 -18z" />
    <glyph glyph-name="upsilontonos" unicode="&#x3cd;" horiz-adv-x="371" 
d="M258 674h77l-113 -135h-50zM267 484h67q13 -26 13 -78q0 -71 -13 -141.5t-38.5 -133t-68.5 -101t-97 -38.5q-46 0 -77 30t-31 85q0 12 8 60l28 148q26 136 22 169h68q9 -22 -4 -94l-42 -220q-1 -8 -3 -20.5t-3.5 -21.5t-1.5 -15q0 -30 14.5 -45.5t34.5 -15.5
q53 0 93 114.5t40 241.5q0 45 -9 76z" />
    <glyph glyph-name="omegatonos" unicode="&#x3ce;" horiz-adv-x="503" 
d="M345 674h77l-113 -135h-49zM365 484h63q21 -24 34.5 -72t13.5 -98q0 -80 -20 -153t-59.5 -121t-88.5 -48q-70 0 -85 77h-3q-38 -77 -104 -77q-43 0 -71.5 37.5t-28.5 110.5q0 112 44.5 211.5t88.5 132.5h71l-1 -2q-47 -43 -89 -138t-42 -203q0 -87 47 -87q50 0 74 132
l26 147h65l-29 -147q-7 -37 -7 -61q0 -71 43 -71q40 0 69 88.5t29 171.5q0 110 -41 168z" />
    <glyph glyph-name="uni0401" unicode="&#x401;" horiz-adv-x="347" 
d="M323 384l-12 -62h-166l-48 -257h189l-13 -65h-260l127 674h249l-13 -64h-175l-44 -226h166zM191 725q-17 0 -29 12.5t-12 31.5t14 33.5t33 14.5q20 0 31 -13t11 -31q0 -19 -14 -33.5t-34 -14.5zM346 725q-17 0 -29 12.5t-12 31.5t14 33.5t33 14.5q20 0 31 -13t11 -31
q0 -19 -14 -33.5t-34 -14.5z" />
    <glyph glyph-name="uni0402" unicode="&#x402;" horiz-adv-x="462" 
d="M91 674h338l-13 -67h-150l-37 -196h2q35 24 81 24q57 0 86 -49.5t29 -118.5q0 -85 -28 -173.5t-75 -141.5q-49 -56 -115 -81l-18 64q47 20 87 69q32 43 53 118t21 137q0 44 -17.5 78t-53.5 34q-34 0 -64 -22l-66 -349h-71l114 607h-117z" />
    <glyph glyph-name="uni0403" unicode="&#x403;" horiz-adv-x="325" 
d="M139 674h250l-13 -68h-177l-115 -606h-72zM330 823h90l-137 -113h-59z" />
    <glyph glyph-name="uni0404" unicode="&#x404;" horiz-adv-x="357" 
d="M411 666l-22 -63q-20 10 -55 10q-44 0 -81 -21.5t-61 -58.5t-40 -75.5t-26 -82.5h198l-12 -63h-197q-5 -30 -5 -79q0 -40 9 -76.5t37 -67t71 -30.5q37 0 72 15l3 -63q-36 -18 -91 -18q-64 0 -104.5 37t-55.5 90.5t-15 122.5q0 92 28.5 182.5t79.5 154.5q82 100 195 100
q42 0 72 -14z" />
    <glyph glyph-name="uni0405" unicode="&#x405;" horiz-adv-x="342" 
d="M-5 21l21 64q36 -25 90 -25q58 -1 90.5 36.5t32.5 93.5q0 67 -70 135q-83 83 -83 167q0 80 53 134t138 54q59 0 89 -22l-22 -62q-33 18 -74 18q-49 0 -79 -32t-31 -82q0 -62 71 -128q82 -77 82 -168q0 -93 -54 -151.5t-147 -58.5q-35 0 -65 8.5t-42 18.5z" />
    <glyph glyph-name="uni0406" unicode="&#x406;" horiz-adv-x="194" 
d="M140 674h72l-128 -674h-72z" />
    <glyph glyph-name="uni0407" unicode="&#x407;" horiz-adv-x="194" 
d="M140 674h73l-129 -674h-72zM110 725q-17 0 -29 12.5t-12 31.5t14 33.5t33 14.5q20 0 31 -13t11 -31q0 -19 -14 -33.5t-34 -14.5zM266 725q-17 0 -29 12.5t-12 31.5t14 33.5t33 14.5q20 0 31 -13t11 -31q0 -19 -14 -33.5t-34 -14.5z" />
    <glyph glyph-name="uni0408" unicode="&#x408;" horiz-adv-x="257" 
d="M116 175l95 499h72l-96 -505q-19 -102 -59.5 -139.5t-107.5 -37.5q-35 0 -58 9l13 64q23 -7 45 -7q40 0 62 26.5t34 90.5z" />
    <glyph glyph-name="uni0409" unicode="&#x409;" horiz-adv-x="641" 
d="M179 674h279l-53 -273q23 6 52 6q72 0 111.5 -45t39.5 -120q0 -109 -64 -176q-68 -70 -186 -70q-64 0 -99 7l115 607h-138l-45 -235q-46 -235 -100 -306q-49 -72 -117 -77l-9 63q43 6 75 58q45 68 79 253zM394 341l-53 -281q20 -4 36 -4q73 0 115 51.5t42 124.5
q0 115 -95 115q-23 0 -45 -6z" />
    <glyph glyph-name="uni040A" unicode="&#x40a;" horiz-adv-x="639" 
d="M140 674h73l-56 -284h173l53 284h72l-52 -273q24 6 50 6q73 0 113 -46t40 -124q0 -104 -64 -171q-68 -70 -186 -70q-64 0 -99 7l61 323h-173l-61 -326h-71zM392 342l-53 -282q20 -4 36 -4q71 0 114 51t43 122q0 118 -101 118q-14 0 -39 -5z" />
    <glyph glyph-name="uni040B" unicode="&#x40b;" horiz-adv-x="479" 
d="M92 674h333l-13 -67h-146l-39 -207h3q47 44 107 44q48 0 72 -31.5t24 -79.5q0 -46 -15 -116l-40 -217h-71l41 216q14 68 14 100q0 27 -15 45t-45 18q-50 0 -87 -45l-62 -334h-72l113 607h-115z" />
    <glyph glyph-name="uni040C" unicode="&#x40c;" horiz-adv-x="381" 
d="M140 674h71l-59 -308h18l205 308h81l-227 -318q48 -14 65 -56.5t20 -118.5q4 -144 11 -181h-71q-7 34 -9 171q-2 71 -20 106t-70 35h-11l-61 -312h-71zM340 823h90l-137 -113h-60z" />
    <glyph glyph-name="uni040E" unicode="&#x40e;" horiz-adv-x="371" 
d="M89 674h77l37 -276q3 -23 9 -70l5 -46h2q20 62 44 122l104 270h79l-158 -371q-79 -185 -124 -245q-51 -66 -118 -66q-26 0 -48 9l11 61q17 -5 34 -5q62 0 117 133q8 16 4 36zM162 814h52q0 -23 13.5 -39.5t39.5 -16.5q28 0 46 16t24 40h54q-9 -43 -41 -70.5t-86 -27.5
q-51 0 -77 27.5t-25 70.5z" />
    <glyph glyph-name="uni040F" unicode="&#x40f;" horiz-adv-x="443" 
d="M140 674h71l-115 -609h179l116 609h71l-128 -674h-126l-34 -146h-59l22 146h-125z" />
    <glyph glyph-name="uni0410" unicode="&#x410;" horiz-adv-x="425" 
d="M284 204h-151l-82 -204h-72l279 674h80l21 -674h-70zM153 261h131l-3 174v156h-3q-45 -130 -56 -156z" />
    <glyph glyph-name="uni0411" unicode="&#x411;" horiz-adv-x="397" 
d="M140 674h259l-10 -66h-191l-39 -206q22 7 54 7q71 0 110.5 -47t39.5 -120q0 -109 -63 -174q-67 -72 -190 -72q-64 0 -97 7zM148 343l-54 -283q20 -4 37 -4q69 0 112.5 50.5t43.5 123.5q0 119 -98 119q-25 0 -41 -6z" />
    <glyph glyph-name="uni0412" unicode="&#x412;" horiz-adv-x="406" 
d="M12 7l125 660q50 10 105 10q80 0 123 -39q39 -39 39 -104q0 -60 -37.5 -108t-98.5 -68v-3q95 -31 95 -149q0 -95 -73 -156q-62 -53 -176 -53q-65 0 -102 10zM197 615l-43 -227h28q64 0 106.5 39.5t42.5 101.5q0 42 -23 66.5t-70 24.5q-28 0 -41 -5zM143 332l-51 -271
q17 -5 42 -5q72 0 114 44t42 112q0 55 -30 87.5t-88 32.5h-29z" />
    <glyph glyph-name="uni0413" unicode="&#x413;" horiz-adv-x="325" 
d="M139 674h250l-13 -68h-177l-115 -606h-72z" />
    <glyph glyph-name="uni0414" unicode="&#x414;" horiz-adv-x="455" 
d="M197 674h269l-116 -609l45 -2l-45 -203h-60l23 140h-286l-31 -140h-59l33 203l39 2q54 90 90 189q41 116 70 268zM252 609l-21 -109q-27 -144 -67 -261q-30 -91 -80 -174h194l103 544h-129z" />
    <glyph glyph-name="uni0415" unicode="&#x415;" horiz-adv-x="347" 
d="M323 384l-12 -62h-166l-49 -257h190l-13 -65h-261l128 674h249l-13 -64h-176l-44 -226h167z" />
    <glyph glyph-name="uni0416" unicode="&#x416;" horiz-adv-x="554" 
d="M94 674h72l82 -308h16l59 308h68l-59 -307h18l200 307h80l-224 -321q32 -10 50.5 -37t24 -56.5t6.5 -72.5q0 -16 1 -51t1.5 -51.5t2.5 -41t6 -43.5h-71q-6 29 -8 169q-1 72 -18.5 108t-67.5 36h-10l-60 -313h-69l60 314h-11q-52 0 -80.5 -34.5t-58.5 -110.5
q-46 -120 -70 -169h-75q22 41 80 181q15 38 27.5 63.5t30.5 51.5t41.5 41t52.5 19z" />
    <glyph glyph-name="uni0417" unicode="&#x417;" horiz-adv-x="353" 
d="M97 327l10 60h19q58 0 100.5 39.5t42.5 98.5q0 39 -21 66t-58 27q-48 0 -90 -29l-14 53q56 39 123 39q61 0 98 -39t37 -101q0 -67 -36 -113t-92 -66v-4q44 -13 70.5 -54t26.5 -99q0 -91 -61.5 -151.5t-152.5 -60.5q-72 0 -121 31l25 60q42 -27 95 -27q61 0 100.5 42
t39.5 108q0 54 -32 87t-85 33h-24z" />
    <glyph glyph-name="uni0418" unicode="&#x418;" horiz-adv-x="454" 
d="M139 674h68l-60 -315q-21 -107 -54 -237h3q41 84 127 236l180 316h69l-127 -674h-67l63 331q21 110 50 225h-3q-44 -97 -123 -235l-182 -321h-71z" />
    <glyph glyph-name="uni0419" unicode="&#x419;" horiz-adv-x="454" 
d="M140 674h67l-60 -315q-14 -74 -53 -237h2q35 73 128 236l179 316h70l-128 -674h-66l63 331q21 110 50 225h-3q-44 -97 -123 -235l-182 -321h-71zM215 814h52q0 -23 13.5 -39.5t39.5 -16.5q28 0 46 16t24 40h54q-9 -43 -41 -70.5t-86 -27.5q-51 0 -77 27.5t-25 70.5z" />
    <glyph glyph-name="uni041A" unicode="&#x41a;" horiz-adv-x="381" 
d="M140 674h71l-59 -308h18l205 308h81l-227 -318q48 -14 65 -56.5t20 -118.5q4 -144 11 -181h-71q-7 34 -9 171q-2 71 -20 106t-70 35h-11l-61 -312h-71z" />
    <glyph glyph-name="uni041B" unicode="&#x41b;" horiz-adv-x="443" 
d="M178 674h284l-129 -674h-72l116 610h-142l-46 -235q-24 -123 -44 -192.5t-52 -112.5q-50 -72 -119 -78l-9 63q45 7 79 61q38 58 75 250z" />
    <glyph glyph-name="uni041C" unicode="&#x41c;" horiz-adv-x="586" 
d="M493 0h-66l54 384q8 54 30 181h-5q-35 -103 -74 -190l-165 -371h-48l-24 380q-5 98 -4 181h-3q-6 -30 -18.5 -90t-19.5 -92l-89 -383h-66l165 674h80l24 -390q5 -90 4 -155h3q19 56 61 156l168 389h83z" />
    <glyph glyph-name="uni041D" unicode="&#x41d;" horiz-adv-x="453" 
d="M140 674h72l-56 -291h188l55 291h73l-128 -674h-72l59 317h-187l-60 -317h-72z" />
    <glyph glyph-name="uni041E" unicode="&#x41e;" horiz-adv-x="441" 
d="M178 -8q-37 0 -64.5 15.5t-42.5 38t-23.5 54t-11 55.5t-2.5 50q0 104 34.5 221t89.5 183q63 73 142 73q139 0 139 -218q0 -96 -34 -216.5t-86 -182.5q-63 -73 -141 -73zM188 57q42 0 78 49.5t56 118.5t31 133t11 104q0 36 -2 59t-9 47.5t-23.5 36.5t-41.5 12
q-54 0 -97 -78t-62.5 -169.5t-19.5 -160.5q0 -29 2 -49t9 -47t24 -41.5t44 -14.5z" />
    <glyph glyph-name="uni041F" unicode="&#x41f;" horiz-adv-x="447" 
d="M140 674h326l-128 -674h-72l116 610h-183l-115 -610h-72z" />
    <glyph glyph-name="uni0420" unicode="&#x420;" horiz-adv-x="390" 
d="M12 0l126 667q53 10 106 10q87 0 127 -47q37 -41 37 -109q0 -106 -68 -180q-62 -68 -160 -68q-28 0 -45 4l-52 -277h-71zM199 612l-52 -273q16 -4 38 -4q72 0 110.5 56t38.5 122q0 103 -97 103q-23 0 -38 -4z" />
    <glyph glyph-name="uni0421" unicode="&#x421;" horiz-adv-x="356" 
d="M294 73l4 -64q-30 -15 -89 -15q-50 0 -85.5 20.5t-54 56t-26.5 74t-8 83.5q0 107 32 206t96 165q80 81 181 81q49 0 67 -12l-22 -64q-19 9 -53 9q-73 0 -125 -62q-46 -54 -72.5 -135.5t-26.5 -167.5q0 -90 26 -139t88 -49q40 0 68 13z" />
    <glyph glyph-name="uni0422" unicode="&#x422;" horiz-adv-x="340" 
d="M85 0l115 607h-122l13 67h315l-13 -67h-121l-115 -607h-72z" />
    <glyph glyph-name="uni0423" unicode="&#x423;" horiz-adv-x="371" 
d="M89 674h77l37 -276q3 -23 9 -70l5 -46h2q9 27 44 122l104 270h79l-158 -371q-79 -185 -124 -245q-52 -66 -118 -66q-26 0 -48 9l11 61q17 -5 34 -5q62 0 117 133q8 16 4 36z" />
    <glyph glyph-name="uni0424" unicode="&#x424;" horiz-adv-x="502" 
d="M166 -14l12 59q-134 33 -134 214q0 157 72 266t178 111l9 52h65l-9 -55q59 -11 95.5 -66t36.5 -154q0 -92 -26.5 -173.5t-85 -138.5t-137.5 -61l-10 -54h-66zM189 103l93 475q-48 -2 -87.5 -52t-59.5 -121.5t-20 -144.5q0 -67 19.5 -107.5t54.5 -49.5zM346 575l-93 -478
q42 3 76 36t53 82.5t28.5 102.5t9.5 103q0 70 -21 109.5t-53 44.5z" />
    <glyph glyph-name="uni0425" unicode="&#x425;" horiz-adv-x="379" 
d="M319 0h-74l-32 171q-6 38 -19 112h-3q-33 -63 -60 -116l-90 -167h-77l199 345l-67 329h74l30 -154q2 -14 8.5 -50.5t10.5 -64.5h2q28 61 58 116l83 153h78l-193 -329z" />
    <glyph glyph-name="uni0426" unicode="&#x426;" horiz-adv-x="452" 
d="M140 674h72l-116 -609h180l115 609h73l-116 -609l45 -2l-45 -203h-61l24 140h-299z" />
    <glyph glyph-name="uni0427" unicode="&#x427;" horiz-adv-x="410" 
d="M123 674h72l-37 -190q-14 -77 -14 -101q0 -71 69 -71q46 0 79 23l64 339h72l-127 -674h-72l51 271h-2q-42 -21 -91 -21q-57 0 -88 30t-31 83q0 32 17 117z" />
    <glyph glyph-name="uni0428" unicode="&#x428;" horiz-adv-x="615" 
d="M140 674h71l-116 -609h139l115 609h71l-115 -609h142l115 609h71l-128 -674h-493z" />
    <glyph glyph-name="uni0429" unicode="&#x429;" horiz-adv-x="621" 
d="M140 674h70l-115 -609h139l115 609h71l-116 -609h142l116 609h70l-116 -609l45 -2l-45 -203h-61l24 140h-467z" />
    <glyph glyph-name="uni042A" unicode="&#x42a;" horiz-adv-x="472" 
d="M90 674h194l-52 -273q28 6 50 6q74 0 114 -46t40 -121q0 -104 -62 -171q-67 -73 -191 -73q-64 0 -97 7l115 604h-123zM221 340l-54 -280q20 -4 37 -4q71 0 113.5 51.5t42.5 122.5q0 117 -95 117q-21 0 -44 -7z" />
    <glyph glyph-name="uni042B" unicode="&#x42b;" horiz-adv-x="563" 
d="M139 674h71l-51 -273q21 6 50 6q73 0 113.5 -45.5t40.5 -120.5q0 -105 -62 -170q-67 -75 -191 -75q-64 0 -97 7zM147 342l-53 -282q20 -4 36 -4q70 0 113.5 51t43.5 123q0 117 -101 117q-22 0 -39 -5zM509 674h73l-128 -674h-72z" />
    <glyph glyph-name="uni042C" unicode="&#x42c;" horiz-adv-x="396" 
d="M139 674h71l-51 -273q19 6 50 6q73 0 113.5 -45.5t40.5 -121.5q0 -104 -62 -169q-67 -75 -191 -75q-64 0 -97 7zM147 341l-53 -281q20 -4 37 -4q69 0 112.5 51t43.5 123q0 117 -102 117q-18 0 -38 -6z" />
    <glyph glyph-name="uni042D" unicode="&#x42d;" horiz-adv-x="371" 
d="M88 308l11 65h184q4 27 4 61q0 32 -5.5 61.5t-17.5 58t-35.5 46t-55.5 17.5q-38 0 -70 -16l-14 57q50 23 98 23q46 0 80.5 -21t54 -58.5t29 -82.5t9.5 -98q0 -87 -26 -181.5t-85 -165.5q-69 -81 -170 -81q-59 0 -102 25l21 60q38 -20 80 -20q43 0 79 24.5t58.5 64
t36.5 80t21 81.5h-185z" />
    <glyph glyph-name="uni042E" unicode="&#x42e;" horiz-adv-x="600" 
d="M140 674h72l-56 -292h80q34 149 96 227q58 73 132 73q133 0 133 -218q0 -95 -32 -216t-81 -184q-57 -72 -131 -72q-44 0 -74 22t-43 58.5t-17.5 67.5t-4.5 65q0 46 10 113h-80l-60 -318h-72zM361 57q39 0 72 49.5t52 118.5t29 133t10 104q0 36 -2 59t-8.5 47.5
t-21.5 36.5t-39 12q-38 0 -71 -46t-53 -112t-31 -133t-11 -116q0 -29 2 -49.5t8.5 -47.5t22.5 -41.5t41 -14.5z" />
    <glyph glyph-name="uni042F" unicode="&#x42f;" horiz-adv-x="389" 
d="M408 665l-122 -665h-72l55 297h-24q-30 0 -53.5 -12.5t-40 -37t-25.5 -44.5t-20 -51q-4 -10 -12 -36.5t-13.5 -42t-14.5 -37t-17 -36.5h-76q23 39 67 171q46 131 122 154v2q-38 15 -63 52t-25 91q0 96 68 152q61 55 162 55q65 0 104 -12zM278 352l49 262q-15 3 -32 3
q-67 1 -106.5 -41.5t-39.5 -106.5q0 -53 28 -85t79 -32h22z" />
    <glyph glyph-name="uni0430" unicode="&#x430;" horiz-adv-x="380" 
d="M295 0h-65q0 6 7 92h-3q-57 -100 -125 -100q-43 0 -67 35.5t-24 100.5q0 58 15.5 119t46 117t83.5 91.5t120 35.5q52 0 89 -16l-56 -276q-23 -113 -21 -199zM255 246l36 183q-12 4 -30 4q-50 0 -90.5 -50t-59.5 -113t-20 -120q-3 -96 44 -96q36 0 70.5 58t49.5 134z" />
    <glyph glyph-name="uni0431" unicode="&#x431;" horiz-adv-x="370" 
d="M408 700l-7 -65q-23 -9 -68 -16q-103 -22 -155 -100q-34 -52 -48 -109h4q46 74 113 74q38 0 61.5 -24.5t31.5 -56t7 -69.5q0 -47 -11.5 -102t-33.5 -111t-63.5 -92.5t-95.5 -36.5q-58 0 -87 47t-29 128q0 97 29.5 200.5t71.5 165.5q73 122 205 149q47 7 75 18zM156 51
q29 0 53 32.5t37.5 79t20.5 90.5t7 74q0 97 -51 97q-27 0 -52.5 -25.5t-40.5 -60.5q-32 -81 -32 -191q0 -41 15 -68.5t43 -27.5z" />
    <glyph glyph-name="uni0432" unicode="&#x432;" horiz-adv-x="374" 
d="M246 492h2q42 0 72 -26t30 -72q0 -82 -108 -130v-3q81 -15 81 -107q0 -74 -52.5 -117t-124.5 -43q-66 0 -94 35.5t-28 100.5q0 75 31.5 177.5t84.5 144.5q47 40 106 40zM231 435q-32 0 -58.5 -31.5t-38.5 -64.5t-19 -67q84 16 123 44q43 32 43 67q0 24 -12.5 38t-37.5 14
zM179 232q-33 0 -75 -16q-11 -47 -11 -88q0 -76 65 -76q39 0 66 27.5t27 74.5q0 78 -72 78z" />
    <glyph glyph-name="uni0433" unicode="&#x433;" horiz-adv-x="290" 
d="M95 414l-11 51q44 27 96 27q51 0 79 -29t28 -78q0 -27 -9.5 -50.5t-30 -44t-37 -33.5t-45.5 -33q-93 -62 -93 -114q0 -25 13 -41.5t40 -16.5q38 0 86 24l11 -53q-48 -29 -110 -29q-51 0 -82.5 28.5t-31.5 82.5q0 30 9.5 54.5t32 47.5t39 36t51.5 37q28 19 42 30t30 32
t16 41q0 22 -13.5 36t-40.5 14q-36 0 -69 -19z" />
    <glyph glyph-name="uni0434" unicode="&#x434;" horiz-adv-x="374" 
d="M116 637v63q27 -8 67 -12q93 -14 128 -61q51 -46 51 -169q0 -56 -12 -128.5t-37 -151.5t-73.5 -132.5t-110.5 -53.5q-59 0 -84.5 46t-25.5 115q0 64 22 138t71 133.5t112 59.5q58 0 74 -69h1q3 19 3 47q2 74 -31 116q-26 37 -93 48q-58 10 -62 11zM140 51q29 0 56 33.5
t43 80t25.5 91.5t9.5 73q0 95 -52 95q-39 0 -70.5 -51t-45.5 -111.5t-14 -109.5q0 -101 48 -101z" />
    <glyph glyph-name="uni0435" unicode="&#x435;" horiz-adv-x="338" 
d="M261 80l10 -56q-55 -30 -114 -30q-135 0 -135 171q0 70 23 142.5t73.5 128t115.5 55.5q49 0 74 -31.5t25 -77.5q0 -84 -65 -126t-171 -42q-9 -60 3 -98q17 -62 74 -62q41 0 87 26zM266 377q0 53 -43 53q-34 0 -65.5 -41t-51.5 -117q67 0 113.5 25t46.5 80z" />
    <glyph glyph-name="uni0436" unicode="&#x436;" horiz-adv-x="495" 
d="M51 484h77l78 -219h9l41 219h68l-43 -219h9l163 219h79l-185 -226q37 -7 57 -43t22 -93q3 -97 13 -122h-70q-7 18 -10 119q-2 52 -19.5 77t-57.5 25h-9l-43 -221h-68l44 221h-5q-45 0 -73 -26.5t-48 -81.5q-34 -89 -47 -113h-73q20 33 51 115q24 65 56 102.5t84 41.5z
" />
    <glyph glyph-name="uni0437" unicode="&#x437;" horiz-adv-x="323" 
d="M74 231l6 52h15q45 0 85.5 26t40.5 63q0 28 -17 45.5t-45 17.5q-42 0 -88 -27l-19 46q58 38 123 38q50 0 82.5 -28.5t32.5 -77.5q0 -46 -30.5 -79t-77.5 -47l-1 -1q40 -9 66 -38.5t26 -74.5q0 -74 -54 -113t-131 -39q-74 0 -116 31l22 52q34 -25 93 -25q47 0 81 24.5
t34 69.5q0 38 -31.5 61.5t-76.5 23.5h-20z" />
    <glyph glyph-name="uni0438" unicode="&#x438;" horiz-adv-x="392" 
d="M94 484h72l-57 -304q-9 -40 -9 -76q0 -50 42 -50q36 0 69 43.5t45 107.5l52 279h72l-60 -318q-11 -62 -22 -166h-64l6 76h-2q-53 -84 -130 -84q-40 0 -60.5 28.5t-20.5 70.5q0 35 8 77z" />
    <glyph glyph-name="uni0439" unicode="&#x439;" horiz-adv-x="392" 
d="M94 484h72l-57 -304q-9 -40 -9 -76q0 -50 42 -50q35 0 68 43.5t46 107.5l52 279h72l-60 -318q-11 -62 -22 -166h-64l6 76h-2q-53 -84 -130 -84q-40 0 -60.5 28.5t-20.5 70.5q0 35 8 77zM163 665h52q-5 -68 50 -68q54 0 66 68h54q-10 -52 -42 -81.5t-82 -29.5
q-52 0 -76.5 30.5t-21.5 80.5z" />
    <glyph glyph-name="uni043A" unicode="&#x43a;" horiz-adv-x="337" 
d="M98 484h70l-42 -219h9l159 219h81l-182 -226q71 -14 75 -134q2 -95 14 -124h-70q-5 15 -12 123q-3 97 -72 97h-10l-42 -220h-71z" />
    <glyph glyph-name="uni043B" unicode="&#x43b;" horiz-adv-x="390" 
d="M133 484h248l-92 -484h-71l80 425h-109l-29 -150q-11 -62 -21 -101t-36 -87t-62 -69q-32 -21 -69 -21l-5 57q27 5 42 16q24 17 42 56.5t24.5 66.5t15.5 74z" />
    <glyph glyph-name="uni043C" unicode="&#x43c;" horiz-adv-x="539" 
d="M122 484h85l21 -223q9 -82 12 -156h2q12 29 73 160l104 219h85l-58 -484h-68l29 207q15 119 30 196h-5q-45 -107 -76 -172l-108 -228h-59l-19 217q-12 161 -13 183h-2q-5 -27 -12.5 -60t-17.5 -74t-16 -66l-48 -203h-63z" />
    <glyph glyph-name="uni043D" unicode="&#x43d;" horiz-adv-x="392" 
d="M96 484h73l-39 -202h142l39 202h72l-93 -484h-71l42 224h-142l-42 -224h-72z" />
    <glyph glyph-name="uni043E" unicode="&#x43e;" horiz-adv-x="369" 
d="M137 -8q-62 0 -89.5 46t-27.5 118q0 51 13.5 107.5t38.5 108.5t67.5 85.5t94.5 33.5q112 0 112 -157q0 -50 -12 -106t-36 -110.5t-66 -90t-95 -35.5zM148 51q31 0 56.5 33t39.5 81t21.5 93.5t7.5 79.5q0 94 -51 94q-37 0 -68 -48.5t-46 -109t-15 -111.5q0 -34 2.5 -55
t15.5 -39t37 -18z" />
    <glyph glyph-name="uni043F" unicode="&#x43f;" horiz-adv-x="393" 
d="M77 0h-72l60 318q12 68 25 166h63l-8 -76h2q56 84 130 84q42 0 62.5 -27.5t20.5 -69.5q0 -28 -9 -80l-59 -315h-72l59 314q7 38 7 67q0 49 -42 49q-34 0 -68.5 -46.5t-47.5 -113.5z" />
    <glyph glyph-name="uni0440" unicode="&#x440;" horiz-adv-x="384" 
d="M40 -192h-71l95 505q9 47 27 171h64l-10 -79h2q24 40 57 63.5t67 22.5q89 0 89 -137q0 -79 -24.5 -160t-77 -141.5t-120.5 -60.5q-37 0 -59 16h-2zM124 259l-35 -191q23 -18 47 -18q39 0 70 35t47.5 85.5t25 96.5t8.5 77q0 84 -47 84q-36 0 -69.5 -50t-46.5 -119z" />
    <glyph glyph-name="uni0441" unicode="&#x441;" horiz-adv-x="288" 
d="M232 68l1 -60q-32 -14 -79 -14q-68 0 -100 48t-32 125q0 54 16 110t45 104.5t76 79t104 30.5q34 0 48 -8l-19 -61q-18 6 -36 6q-47 0 -85 -41t-56.5 -98t-18.5 -114q0 -119 77 -119q26 0 59 12z" />
    <glyph glyph-name="uni0442" unicode="&#x442;" horiz-adv-x="593" 
d="M76 0h-71l60 318q12 68 25 166h63l-8 -78h2q54 85 125 85q36 0 56.5 -24.5t22.5 -60.5q54 85 128 85q40 0 60.5 -27.5t20.5 -69.5q0 -34 -11 -87l-58 -307h-71l58 308q8 42 8 75q0 47 -40 47q-34 0 -66.5 -45.5t-46.5 -114.5l-51 -270h-70l58 308q8 40 8 74q0 48 -39 48
q-31 0 -65.5 -47t-46.5 -113z" />
    <glyph glyph-name="uni0443" unicode="&#x443;" horiz-adv-x="335" 
d="M48 484h75l17 -272q5 -75 7 -120h2q5 15 13.5 39.5t15.5 44t13 39.5l96 269h74q-8 -20 -41 -107.5t-62.5 -163t-54.5 -132.5q-73 -168 -160 -243q-46 -38 -76 -48l-29 61q41 18 73 47q23 18 45.5 48t33.5 57q5 13 4 27z" />
    <glyph glyph-name="uni0444" unicode="&#x444;" horiz-adv-x="530" 
d="M143 -192l49 228h-2q-38 -44 -87 -44q-37 0 -60.5 36.5t-23.5 106.5q0 44 12 101.5t34 116t61.5 98.5t86.5 40q22 0 36 -13t19 -32h1l47 246h68l-53 -258h2q41 57 89 57q45 0 64.5 -43t19.5 -99q0 -48 -11.5 -106.5t-33.5 -116t-59.5 -96t-83.5 -38.5q-43 0 -60 43h-1
l-44 -227h-70zM212 433q-28 0 -52.5 -34.5t-39 -83t-23 -96t-8.5 -79.5q0 -87 40 -87q59 0 80 95l35 170q7 33 7 64q-1 20 -12 35.5t-27 15.5zM396 429q-22 0 -41.5 -20t-29.5 -45q-11 -31 -26 -106q-7 -38 -21 -118q-1 -18 4 -34q4 -20 16 -35.5t31 -12.5q34 5 60 63
t36.5 118.5t10.5 101.5q0 88 -40 88z" />
    <glyph glyph-name="uni0445" unicode="&#x445;" horiz-adv-x="320" 
d="M51 484h75l26 -104q17 -82 18 -84h2q27 48 47 81l63 107h78l-162 -241l68 -243h-75l-25 107q0 2 -7.5 34t-11.5 54h-2q-5 -8 -21 -37.5t-26 -47.5l-65 -110h-78l164 246z" />
    <glyph glyph-name="uni0446" unicode="&#x446;" horiz-adv-x="406" 
d="M94 484h72l-57 -304q-9 -40 -9 -76q0 -50 42 -50q36 0 69 43t45 107l52 280h72l-55 -296q-13 -65 -13 -92q0 -28 12 -41.5t39 -14.5l-59 -173h-53l36 134q-17 3 -28 26q-11 19 -7 54h-2q-53 -89 -139 -89q-41 0 -62.5 28.5t-21.5 70.5q0 35 8 77z" />
    <glyph glyph-name="uni0447" unicode="&#x447;" horiz-adv-x="368" 
d="M82 484h72l-29 -155q-8 -36 -8 -62q0 -49 50 -49q37 0 76 33l44 233h72l-93 -490h-71l38 200h-3q-37 -32 -92 -32q-44 0 -69.5 24.5t-25.5 67.5q0 24 12 82z" />
    <glyph glyph-name="uni0448" unicode="&#x448;" horiz-adv-x="594" 
d="M96 484h71l-58 -309q-8 -42 -8 -75q0 -47 40 -47q34 0 66.5 45.5t46.5 115.5l51 270h70l-58 -309q-8 -40 -8 -74q0 -48 39 -48q31 0 65.5 47.5t46.5 113.5l51 270h71l-59 -317q-14 -72 -20 -167h-65q5 41 6 79h-2q-55 -87 -127 -87q-36 0 -56.5 24.5t-22.5 60.5
q-54 -85 -128 -85q-40 0 -60.5 27.5t-20.5 69.5q0 33 11 88z" />
    <glyph glyph-name="uni0449" unicode="&#x449;" horiz-adv-x="608" 
d="M96 484h71l-58 -309q-8 -42 -8 -75q0 -47 40 -47q34 0 66.5 45.5t46.5 115.5l51 270h70l-58 -309q-8 -40 -8 -74q0 -48 39 -48q31 0 65.5 47.5t46.5 113.5l51 270h71l-52 -278q-16 -80 -16 -109q0 -28 12 -41.5t39 -14.5l-60 -173h-52l35 134q-18 6 -29 30t-9 49h-2
q-55 -89 -132 -89q-36 0 -57 24.5t-23 60.5q-54 -85 -128 -85q-40 0 -60.5 27.5t-20.5 69.5q0 33 11 88z" />
    <glyph glyph-name="uni044A" unicode="&#x44a;" horiz-adv-x="408" 
d="M53 484h224q-86 -143 -115 -219h2q49 55 109 55q45 0 69.5 -31t24.5 -81q0 -77 -54.5 -145t-144.5 -68q-47 0 -77.5 28t-30.5 85q0 61 36 154.5t81 161.5h-136zM185 53q41 0 74.5 43t33.5 93q0 71 -52 71q-30 0 -55.5 -25t-38.5 -56q-15 -31 -15 -69q0 -23 14 -40t39 -17
z" />
    <glyph glyph-name="uni044B" unicode="&#x44b;" horiz-adv-x="506" 
d="M98 484h72l-48 -211h1q44 47 104 47q45 0 70.5 -31t25.5 -80t-20.5 -96t-68.5 -82.5t-112 -35.5q-43 0 -73 19.5t-30 64.5q0 24 7 61zM136 53q48 0 80.5 42.5t32.5 95.5q0 69 -50 69q-33 0 -59 -27.5t-37 -68.5q-12 -43 -12 -65q0 -21 11.5 -33.5t33.5 -12.5zM425 484h71
l-92 -484h-72z" />
    <glyph glyph-name="uni044C" unicode="&#x44c;" horiz-adv-x="366" 
d="M98 484h72l-49 -212h2q46 48 105 48q45 0 71.5 -31.5t26.5 -81.5q0 -35 -12 -71t-36 -68t-65 -52.5t-92 -20.5q-43 0 -73 21.5t-30 67.5q0 27 10 65zM134 53q52 0 85.5 41.5t33.5 94.5q0 71 -52 71q-34 0 -62.5 -30.5t-38.5 -70.5q-9 -32 -9 -58q0 -48 43 -48z" />
    <glyph glyph-name="uni044D" unicode="&#x44d;" 
d="M60 218l9 55h159q0 4 0.5 14t0.5 16q0 56 -24.5 94t-73.5 38q-35 0 -62 -12l-12 53q44 18 89 18q76 0 115 -55.5t39 -145.5q0 -73 -23 -138.5t-76.5 -113t-129.5 -47.5q-55 0 -97 25l22 56q36 -21 81 -20q57 -1 96 47t49 116h-162z" />
    <glyph glyph-name="uni044E" unicode="&#x44e;" horiz-adv-x="523" 
d="M96 484h73l-39 -202h65q25 91 72 150t118 59q44 0 71.5 -27.5t35.5 -60.5t8 -71q0 -50 -12 -106t-35 -110t-64 -89t-93 -35q-57 0 -87.5 45t-30.5 119q0 32 6 69h-64l-43 -225h-72zM306 51q31 0 55.5 32.5t38.5 80t21 93t7 79.5q0 96 -55 96q-30 0 -55 -30.5t-39 -75
t-22 -88t-8 -75.5q0 -112 57 -112z" />
    <glyph glyph-name="uni044F" unicode="&#x44f;" horiz-adv-x="367" 
d="M358 481l-93 -481h-72l40 206h-26q-45 0 -72 -24.5t-47 -72.5q-35 -85 -51 -109h-77q28 46 59 125q40 93 106 108v2q-74 30 -74 109q0 76 56 111.5t142 35.5q59 0 109 -10zM244 260l33 172q-14 3 -44 3q-44 0 -77 -22t-33 -69q0 -41 30.5 -62.5t72.5 -21.5h18z" />
    <glyph glyph-name="uni0451" unicode="&#x451;" horiz-adv-x="338" 
d="M261 80l10 -56q-55 -30 -114 -30q-135 0 -135 171q0 70 23 142.5t73.5 128t115.5 55.5q49 0 74 -31.5t25 -77.5q0 -84 -65 -126t-171 -42q-9 -60 3 -98q17 -62 74 -62q41 0 87 26zM266 377q0 53 -43 53q-34 0 -65.5 -41t-51.5 -117q67 0 113.5 25t46.5 80zM174 560h-2
q-17 0 -28.5 12.5t-11.5 32.5t13.5 34.5t32.5 14.5t30 -13t11 -31q0 -21 -12.5 -35.5t-32.5 -14.5zM323 560q-17 0 -28.5 12.5t-11.5 32.5t13.5 34.5t32.5 14.5t30 -13t11 -31q0 -21 -13 -35.5t-34 -14.5z" />
    <glyph glyph-name="uni0452" unicode="&#x452;" horiz-adv-x="404" 
d="M135 692h72l-15 -79h183l-10 -50h-182l-25 -130h2q48 56 105 56q105 0 105 -163q0 -103 -30 -210.5t-79 -165.5q-58 -66 -128 -81l-17 60q62 17 102 79q32 48 53.5 136t21.5 178q0 105 -55 105q-36 0 -65.5 -42t-39.5 -90l-57 -295h-71l107 563h-48l11 50h46z" />
    <glyph glyph-name="uni0453" unicode="&#x453;" horiz-adv-x="290" 
d="M95 414l-11 51q44 27 96 27q51 0 79 -29t28 -78q0 -27 -9.5 -50.5t-30 -44t-37 -33.5t-45.5 -33q-93 -62 -93 -114q0 -25 13 -41.5t40 -16.5q38 0 86 24l11 -53q-48 -29 -110 -29q-51 0 -82.5 28.5t-31.5 82.5q0 30 9.5 54.5t32 47.5t39 36t51.5 37q28 19 42 30t30 32
t16 41q0 22 -13.5 36t-40.5 14q-36 0 -69 -19zM262 674h80l-112 -135h-52z" />
    <glyph glyph-name="uni0454" unicode="&#x454;" horiz-adv-x="299" 
d="M327 475l-21 -56q-24 14 -56 14q-56 0 -93.5 -48.5t-49.5 -110.5h157l-7 -55h-158q-3 -25 -3 -43q0 -49 23 -86t69 -37q32 0 59 12l13 -52q-32 -20 -90 -20q-75 0 -111.5 54t-36.5 134q0 138 73 229q64 82 158 82q44 0 74 -17z" />
    <glyph glyph-name="uni0455" unicode="&#x455;" horiz-adv-x="282" 
d="M-15 20l22 55q35 -23 75 -23q36 0 57 23t21 59q0 50 -49 94q-63 57 -63 118q0 63 41.5 104.5t108.5 41.5q49 0 76 -18l-20 -56q-25 15 -56 15q-36 0 -57 -21t-21 -54q0 -42 45 -81q68 -59 68 -127q0 -75 -44 -115.5t-114 -40.5q-57 0 -90 26z" />
    <glyph glyph-name="uni0456" unicode="&#x456;" horiz-adv-x="179" 
d="M77 0h-72l92 484h72zM152 569q-20 0 -30.5 13.5t-8.5 36.5q1 22 16 38.5t36 16.5q22 0 33 -14t9 -36q-1 -26 -17 -40.5t-38 -14.5z" />
    <glyph glyph-name="uni0457" unicode="&#x457;" horiz-adv-x="179" 
d="M76 0h-71l92 484h72zM77 560q-17 0 -28.5 12.5t-11.5 32.5t13.5 34.5t32.5 14.5t30 -13t11 -31q0 -21 -13 -35.5t-34 -14.5zM228 560q-17 0 -28.5 12.5t-11.5 32.5t13.5 34.5t32.5 14.5t30 -13t11 -31q0 -21 -13 -35.5t-34 -14.5z" />
    <glyph glyph-name="uni0458" unicode="&#x458;" horiz-adv-x="181" 
d="M102 484h71l-91 -482q-21 -110 -46 -148q-36 -54 -106 -54q-28 0 -42 5l7 58q21 -3 29 -3q29 0 49 24t33 94zM156 569q-18 0 -28.5 12.5t-10.5 33.5q0 22 14.5 40.5t37.5 18.5q20 0 31 -12.5t11 -32.5q0 -26 -15.5 -43t-39.5 -17z" />
    <glyph glyph-name="uni0459" unicode="&#x459;" horiz-adv-x="581" 
d="M132 484h250l-44 -214h2q46 50 103 50q43 0 71 -29.5t28 -84.5q0 -83 -56 -147t-146 -64q-105 0 -105 84q0 25 8 61l56 285h-111l-29 -154q-21 -111 -47.5 -169t-72.5 -84q-31 -21 -67 -21l-5 57q26 5 39 17q28 20 47.5 62t35.5 129zM352 53q49 0 83 42t34 94
q0 71 -52 71q-32 0 -57 -26.5t-37 -58.5q-15 -39 -15 -77q0 -20 11 -32.5t33 -12.5z" />
    <glyph glyph-name="uni045A" unicode="&#x45a;" horiz-adv-x="577" 
d="M97 484h72l-37 -192h135l38 193l71 -1l-42 -212h2q42 48 103 48q44 0 71 -31t27 -82q0 -85 -56.5 -148.5t-150.5 -63.5q-45 0 -72.5 21t-27.5 64q0 16 6 50l20 105h-134l-45 -235h-72zM347 53q51 0 84 42t33 94q0 71 -52 71q-34 0 -62.5 -32t-38.5 -77q-8 -30 -8 -55
q0 -43 44 -43z" />
    <glyph glyph-name="uni045B" unicode="&#x45b;" horiz-adv-x="396" 
d="M138 692h72l-14 -80h164l-9 -49h-165l-28 -147h2q53 75 120 75q40 0 61.5 -27t21.5 -70q0 -32 -9 -81l-60 -313h-71l59 316q7 30 7 57q0 57 -42 57q-36 0 -70 -46t-45 -107l-53 -277h-72l107 563h-55l10 49h54z" />
    <glyph glyph-name="uni045C" unicode="&#x45c;" horiz-adv-x="337" 
d="M98 484h70l-42 -219h9l159 219h81l-182 -226q71 -14 75 -134q2 -95 14 -124h-70q-5 15 -12 123q-3 97 -72 97h-10l-42 -220h-71zM277 674h80l-113 -135h-52z" />
    <glyph glyph-name="uni045E" unicode="&#x45e;" horiz-adv-x="335" 
d="M48 484h75l17 -272q5 -75 7 -120h2q5 15 13.5 39.5t15.5 44t13 39.5l96 269h74q-8 -20 -41 -107.5t-62.5 -163t-54.5 -132.5q-73 -168 -160 -243q-46 -38 -76 -48l-29 61q41 18 73 47q23 18 45.5 48t33.5 57q5 13 4 27zM120 665h52q-2 -32 10.5 -50t38.5 -18q54 0 67 68
h54q-10 -52 -42 -81.5t-82 -29.5q-52 0 -76.5 30.5t-21.5 80.5z" />
    <glyph glyph-name="uni045F" unicode="&#x45f;" horiz-adv-x="392" 
d="M94 484h72l-57 -304q-9 -40 -9 -76q0 -50 42 -50q36 0 69 43.5t45 107.5l52 279h72l-60 -318q-11 -62 -22 -166h-64l6 76h-2q-53 -84 -130 -84q-40 0 -60.5 28.5t-20.5 70.5q0 35 8 77zM140 -177l-53 -8l28 144l63 7z" />
    <glyph glyph-name="uni0490" unicode="&#x490;" horiz-adv-x="320" 
d="M139 674h182l39 111h57l-45 -179h-174l-114 -606h-72z" />
    <glyph glyph-name="uni0491" unicode="&#x491;" horiz-adv-x="296" 
d="M96 484h165l37 102h57l-45 -162h-153l-79 -424h-73z" />
    <glyph glyph-name="uni04D9" unicode="&#x4d9;" horiz-adv-x="334" 
d="M72 406l-15 53q56 33 115 33q72 0 104.5 -48t32.5 -126q0 -70 -23 -142.5t-73.5 -127t-115.5 -54.5q-50 0 -75 31.5t-25 77.5q0 84 65 126t171 42q3 12 3.5 42t-4.5 54q-17 65 -75 65q-40 0 -85 -26zM109 55q33 0 64 41t51 117q-67 0 -113.5 -25t-46.5 -79t45 -54z" />
    <glyph glyph-name="Wgrave" unicode="&#x1e80;" horiz-adv-x="644" 
d="M163 0h-69l3 674h74l-6 -399q-2 -54 -12 -170h3q22 81 55 166l154 403h68l-1 -398q-1 -55 -9 -171h3q37 126 51 167l146 402h73l-255 -674h-72l-3 381q0 46 8 170h-2q-45 -141 -60 -176zM281 823h88l91 -113h-58z" />
    <glyph glyph-name="wgrave" unicode="&#x1e81;" horiz-adv-x="552" 
d="M55 484h74l3 -271q-2 -93 -5 -123h3q22 65 44 118l118 276h57l10 -274q2 -85 -3 -120h4q21 69 42 124l107 270h71l-209 -484h-61l-13 262q-3 57 3 122h-3q-26 -84 -42 -122l-114 -262h-63zM200 674h78l69 -135h-51z" />
    <glyph glyph-name="Wacute" unicode="&#x1e82;" horiz-adv-x="644" 
d="M163 0h-69l3 674h74l-6 -399q-2 -54 -12 -170h3q22 81 55 166l154 403h68l-1 -398q-1 -55 -9 -171h3q37 126 51 167l146 402h73l-255 -674h-72l-3 381q0 46 8 170h-2q-45 -141 -60 -176zM465 823h90l-137 -113h-60z" />
    <glyph glyph-name="wacute" unicode="&#x1e83;" horiz-adv-x="552" 
d="M55 484h74l3 -271q-2 -93 -5 -123h3q22 65 44 118l118 276h57l10 -274q2 -85 -3 -120h4q21 69 42 124l107 270h71l-209 -484h-61l-13 262q-3 57 3 122h-3q-26 -84 -42 -122l-114 -262h-63zM377 674h80l-112 -135h-53z" />
    <glyph glyph-name="Wdieresis" unicode="&#x1e84;" horiz-adv-x="644" 
d="M163 0h-69l3 674h74l-6 -399q-2 -54 -12 -170h3q22 81 55 166l154 403h68l-1 -398q-1 -55 -9 -171h3q37 126 51 167l146 402h73l-255 -674h-72l-3 381q0 46 8 170h-2q-45 -141 -60 -176zM332 725q-17 0 -29 12.5t-12 31.5t14 33.5t33 14.5q20 0 31 -13t11 -31
q0 -19 -14 -33.5t-34 -14.5zM488 725q-17 0 -29 12.5t-12 31.5t14 33.5t33 14.5q20 0 31 -13t11 -31q0 -19 -14 -33.5t-34 -14.5z" />
    <glyph glyph-name="wdieresis" unicode="&#x1e85;" horiz-adv-x="552" 
d="M55 484h74l3 -271q-2 -97 -4 -123h3q18 58 43 118l118 276h57l10 -274q3 -74 -2 -120h3q33 99 42 124l107 270h72l-210 -484h-62l-12 262q-3 53 2 122h-2q-26 -84 -42 -122l-114 -262h-63zM264 560q-17 0 -28.5 12.5t-11.5 32.5t13 34.5t32 14.5q20 0 31 -13t11 -31
q0 -21 -13 -35.5t-34 -14.5zM415 560q-17 0 -28.5 12.5t-11.5 32.5t13.5 34.5t32.5 14.5t30 -13t11 -31q0 -21 -13 -35.5t-34 -14.5z" />
    <glyph glyph-name="uni1EA0" unicode="&#x1ea0;" horiz-adv-x="425" 
d="M284 204h-151l-82 -204h-72l279 674h80l21 -674h-70zM153 261h131l-3 174v156h-3q-45 -130 -56 -156zM151 -169q-18 0 -31 13t-13 31q0 19 13 32t32 13t31.5 -13t12.5 -32q0 -18 -13 -31t-32 -13z" />
    <glyph glyph-name="uni1EA1" unicode="&#x1ea1;" horiz-adv-x="380" 
d="M295 0h-65q0 6 7 92h-3q-57 -100 -125 -100q-43 0 -67 35.5t-24 100.5q0 58 15.5 119t46 117t83.5 91.5t120 35.5q52 0 89 -16l-56 -276q-23 -113 -21 -199zM255 246l36 183q-12 4 -30 4q-50 0 -90.5 -50t-59.5 -113t-20 -120q-3 -96 44 -96q36 0 70.5 58t49.5 134z
M125 -169q-18 0 -31 12.5t-13 31.5t13 32t32 13q18 0 30 -12.5t12 -32.5q0 -19 -12 -31.5t-31 -12.5z" />
    <glyph glyph-name="uni1EA2" unicode="&#x1ea2;" horiz-adv-x="425" 
d="M284 204h-151l-82 -204h-72l279 674h80l21 -674h-70zM153 261h131l-3 174v156h-3q-45 -130 -56 -156zM315 706l-39 9q6 15 29 39.5t23 41.5q0 12 -8 19.5t-19 7.5q-20 0 -45 -31l-24 20q34 56 87 56q29 0 47.5 -16.5t18.5 -42.5q0 -20 -11 -36t-30.5 -34.5t-28.5 -32.5z
" />
    <glyph glyph-name="uni1EA3" unicode="&#x1ea3;" horiz-adv-x="380" 
d="M295 0h-65q0 6 7 92h-3q-57 -100 -125 -100q-43 0 -67 35.5t-24 100.5q0 58 15.5 119t46 117t83.5 91.5t120 35.5q52 0 89 -16l-56 -276q-23 -113 -21 -199zM255 246l36 183q-12 4 -30 4q-50 0 -90.5 -50t-59.5 -113t-20 -120q-3 -96 44 -96q36 0 70.5 58t49.5 134z
M267 530l-39 12q7 17 32 45.5t25 47.5q0 13 -7.5 21.5t-20.5 8.5q-21 0 -45 -33l-26 21q35 61 92 61q28 0 46 -18t18 -45q0 -23 -12.5 -42.5t-33 -41.5t-29.5 -37z" />
    <glyph glyph-name="uni1EA4" unicode="&#x1ea4;" horiz-adv-x="425" 
d="M284 204h-151l-82 -204h-72l279 674h80l21 -674h-70zM153 261h131l-3 174v156h-3q-45 -130 -56 -156zM294 808h56l57 -98h-61l-29 57h-2l-53 -57h-65zM462 880h77l-110 -98h-44z" />
    <glyph glyph-name="uni1EA5" unicode="&#x1ea5;" horiz-adv-x="380" 
d="M295 0h-65q0 6 7 92h-3q-57 -100 -125 -100q-43 0 -67 35.5t-24 100.5q0 58 15.5 119t46 117t83.5 91.5t120 35.5q52 0 89 -16l-56 -276q-23 -113 -21 -199zM255 246l36 183q-12 4 -30 4q-50 0 -90.5 -50t-59.5 -113t-20 -120q-3 -96 44 -96q36 0 70.5 58t49.5 134z
M253 682h55l41 -135h-54l-20 84h-4l-44 -84h-57zM417 741h72l-100 -117h-45z" />
    <glyph glyph-name="uni1EA6" unicode="&#x1ea6;" horiz-adv-x="425" 
d="M284 204h-151l-82 -204h-72l279 674h80l21 -674h-70zM153 261h131l-3 174v156h-3q-45 -130 -56 -156zM338 868h75l51 -101h-42zM289 808h56l57 -98h-61l-29 57h-2l-53 -57h-65z" />
    <glyph glyph-name="uni1EA7" unicode="&#x1ea7;" horiz-adv-x="380" 
d="M295 0h-65q0 6 7 92h-2q-59 -100 -126 -100q-43 0 -67 35.5t-24 100.5q0 58 15.5 119t46 117t83.5 91.5t120 35.5q52 0 89 -16l-56 -276q-23 -113 -21 -199zM255 246l36 183q-12 4 -30 4q-50 0 -90.5 -50t-59.5 -113t-20 -120q-3 -96 44 -96q36 0 70.5 58t49.5 134z
M296 743h66l47 -117h-39zM243 682h55l41 -135h-54l-20 84h-4l-45 -84h-56z" />
    <glyph glyph-name="uni1EA8" unicode="&#x1ea8;" horiz-adv-x="425" 
d="M284 204h-151l-82 -204h-72l279 674h80l21 -674h-70zM153 261h131l-3 174v156h-3q-45 -130 -56 -156zM429 752l-35 15q6 14 29 35t23 37q0 10 -8 17.5t-20 7.5q-23 0 -39 -22l-25 20q31 47 80 47q28 0 47.5 -16.5t19.5 -42.5q0 -21 -12 -36.5t-31.5 -32t-28.5 -29.5z
M291 808h56l57 -98h-61l-29 57h-2l-53 -57h-65z" />
    <glyph glyph-name="uni1EA9" unicode="&#x1ea9;" horiz-adv-x="380" 
d="M295 0h-65q0 6 7 92h-2q-59 -100 -126 -100q-43 0 -67 35.5t-24 100.5q0 58 15.5 119t46 117t83.5 91.5t120 35.5q52 0 89 -16l-56 -276q-23 -113 -21 -199zM255 246l36 183q-12 4 -30 4q-50 0 -90.5 -50t-59.5 -113t-20 -120q-3 -96 44 -96q36 0 70.5 58t49.5 134z
M243 682h55l41 -135h-54l-20 84h-4l-45 -84h-56zM377 625l-36 15q7 13 30 34.5t23 37.5q0 10 -8.5 17.5t-20.5 7.5q-21 0 -39 -22l-25 19q31 48 81 48q28 0 47.5 -16.5t19.5 -42.5q0 -21 -12 -36.5t-31.5 -32t-28.5 -29.5z" />
    <glyph glyph-name="uni1EAA" unicode="&#x1eaa;" horiz-adv-x="425" 
d="M284 204h-151l-82 -204h-72l279 674h80l21 -674h-70zM153 261h131l-3 174v156h-3q-45 -130 -56 -156zM263 819h-41q3 34 20.5 58.5t45.5 24.5q15 0 45 -17q26 -16 37 -16q20 0 26 35h42q-8 -82 -67 -82q-17 0 -46 16q-26 16 -35 16q-19 0 -27 -35zM294 808h55l57 -98h-61
l-29 57h-2l-53 -57h-65z" />
    <glyph glyph-name="uni1EAB" unicode="&#x1eab;" horiz-adv-x="380" 
d="M295 0h-65q0 6 7 92h-3q-57 -100 -126 -100q-42 0 -66 35.5t-24 100.5q0 58 15.5 119t46 117t83.5 91.5t120 35.5q52 0 89 -16l-56 -276q-23 -113 -21 -199zM255 246l36 183q-12 4 -30 4q-50 0 -90.5 -50t-59.5 -113t-20 -120q-3 -96 44 -96q35 0 69.5 58t50.5 134z
M206 663h-41q3 34 20.5 58.5t45.5 24.5q15 0 45 -17q23 -16 37 -16q20 0 26 35h42q-8 -82 -67 -82q-18 0 -45 16q-28 16 -36 16q-19 0 -27 -35zM240 651h48l52 -106h-53l-27 60h-2l-43 -60h-59z" />
    <glyph glyph-name="uni1EAC" unicode="&#x1eac;" horiz-adv-x="425" 
d="M284 204h-151l-82 -204h-72l279 674h80l21 -674h-70zM153 261h131l-3 174v156h-3q-45 -130 -56 -156zM292 823h56l64 -113h-60l-36 70h-2l-61 -70h-64zM156 -169q-18 0 -31 13t-13 31q0 19 13 32t32 13t31.5 -13t12.5 -32q0 -18 -13 -31t-32 -13z" />
    <glyph glyph-name="uni1EAD" unicode="&#x1ead;" horiz-adv-x="380" 
d="M295 0h-65q0 6 7 92h-3q-57 -100 -125 -100q-43 0 -67 35.5t-24 100.5q0 58 15.5 119t46 117t83.5 91.5t120 35.5q52 0 89 -16l-56 -276q-23 -113 -21 -199zM255 246l36 183q-12 4 -30 4q-50 0 -90.5 -50t-59.5 -113t-20 -120q-3 -96 44 -96q36 0 70.5 58t49.5 134z
M245 674h47l57 -135h-54l-32 83h-2l-59 -83h-57zM128 -169q-18 0 -31 12.5t-13 31.5t13 32t32 13q18 0 30 -12.5t12 -32.5q0 -19 -12 -31.5t-31 -12.5z" />
    <glyph glyph-name="uni1EAE" unicode="&#x1eae;" horiz-adv-x="425" 
d="M284 204h-151l-82 -204h-72l279 674h80l21 -674h-70zM153 261h131l-3 174v156h-3q-45 -130 -56 -156zM358 874h78l-107 -101h-46zM210 785h41q-2 -18 14 -32t42 -14q28 0 48.5 14t23.5 32h44q-7 -39 -37 -64.5t-83 -25.5q-51 0 -75.5 26t-17.5 64z" />
    <glyph glyph-name="uni1EAF" unicode="&#x1eaf;" horiz-adv-x="380" 
d="M295 0h-65q0 6 7 92h-3q-57 -100 -125 -100q-43 0 -67 35.5t-24 100.5q0 58 15.5 119t46 117t83.5 91.5t120 35.5q52 0 89 -16l-56 -276q-23 -113 -21 -199zM255 246l36 183q-13 4 -30 4q-50 0 -90.5 -50t-59.5 -113t-20 -120q-3 -96 44 -96q35 0 69.5 58t50.5 134z
M312 740h74l-93 -117h-47zM175 644h42q-2 -28 12.5 -45t41.5 -17q30 0 50 17.5t26 44.5h43q-6 -51 -39 -81t-83 -30q-52 0 -76.5 31t-16.5 80z" />
    <glyph glyph-name="uni1EB0" unicode="&#x1eb0;" horiz-adv-x="425" 
d="M284 204h-151l-82 -204h-72l279 674h80l21 -674h-70zM153 261h131l-3 174v156h-3q-45 -130 -56 -156zM212 876h79l57 -101h-45zM211 785h41q-2 -18 14 -32t42 -14q27 0 47.5 14t23.5 32h43q-6 -39 -36 -64.5t-82 -25.5t-76 26t-17 64z" />
    <glyph glyph-name="uni1EB1" unicode="&#x1eb1;" horiz-adv-x="380" 
d="M295 0h-65q0 6 7 92h-2q-59 -100 -126 -100q-43 0 -67 35.5t-24 100.5q0 58 15.5 119t46 117t83.5 91.5t120 35.5q52 0 89 -16l-56 -276q-23 -113 -21 -199zM255 246l36 183q-12 4 -30 4q-50 0 -90.5 -50t-59.5 -113t-20 -120q-3 -96 45 -96q35 0 69.5 58t49.5 134z
M178 740h73l53 -117h-45zM169 644h41q-2 -28 13 -45t42 -17q29 0 49 17.5t26 44.5h43q-6 -50 -39.5 -80.5t-82.5 -30.5q-52 0 -76 31t-16 80z" />
    <glyph glyph-name="uni1EB2" unicode="&#x1eb2;" horiz-adv-x="425" 
d="M284 204h-151l-82 -204h-71l278 674h80l21 -674h-70zM154 261h130l-3 174v156h-3q-45 -130 -56 -156zM324 764l-36 15q6 12 29.5 34t23.5 38q0 10 -8 17.5t-20 7.5q-23 0 -39 -22l-26 19q32 47 81 47q28 0 47.5 -16t19.5 -42q0 -28 -33.5 -59t-38.5 -39zM214 786l42 -1
q-2 -18 13.5 -32.5t41.5 -14.5q27 0 47.5 14.5t23.5 32.5h44q-6 -39 -36.5 -64.5t-82.5 -25.5q-51 0 -75.5 26t-17.5 65z" />
    <glyph glyph-name="uni1EB3" unicode="&#x1eb3;" horiz-adv-x="380" 
d="M295 0h-65q0 6 7 92h-2q-59 -100 -126 -100q-43 0 -67 35.5t-24 100.5q0 58 15.5 119t46 117t83.5 91.5t120 35.5q52 0 89 -16l-56 -276q-23 -113 -21 -199zM255 246l36 183q-12 4 -29 4q-50 0 -91 -50t-60 -113t-20 -120q-3 -96 45 -96q35 0 69.5 58t49.5 134zM169 643
h41q-2 -28 13 -45t42 -17q30 0 49.5 17t25.5 45h43q-6 -50 -39 -80t-83 -30q-52 0 -76 30.5t-16 79.5zM277 619l-36 15q6 12 29.5 34t23.5 38q0 10 -8.5 17.5t-20.5 7.5q-21 0 -39 -22l-25 19q30 47 81 47q28 0 47.5 -16t19.5 -42q0 -21 -12 -36.5t-31.5 -32t-28.5 -29.5z
" />
    <glyph glyph-name="uni1EB4" unicode="&#x1eb4;" horiz-adv-x="425" 
d="M284 204h-151l-82 -204h-72l279 674h80l21 -674h-70zM153 261h131l-3 174v156h-3q-45 -130 -56 -156zM208 785h43q-2 -18 13 -32t41 -14q28 0 47.5 14t22.5 32h45q-6 -39 -36 -64.5t-83 -25.5q-51 0 -75.5 26t-17.5 64zM252 811h-43q5 36 24.5 59t46.5 23q21 0 47 -18
q28 -18 38 -18q22 0 31 38h42q-13 -88 -76 -88q-25 0 -48 17q-25 17 -35 17q-19 0 -27 -30z" />
    <glyph glyph-name="uni1EB5" unicode="&#x1eb5;" horiz-adv-x="380" 
d="M295 0h-65q0 6 7 92h-3q-57 -100 -125 -100q-43 0 -67 35.5t-24 100.5q0 58 15.5 119t46 117t83.5 91.5t120 35.5q52 0 89 -16l-56 -276q-23 -113 -21 -199zM255 246l36 183q-12 4 -30 4q-50 0 -90.5 -50t-59.5 -113t-20 -120q-3 -96 44 -96q35 0 69.5 58t50.5 134z
M171 644h42q-1 -28 12.5 -45t39.5 -17q28 0 47 17t25 45h43q-6 -50 -38 -80.5t-81 -30.5q-52 0 -75 31t-15 80zM217 675h-42q5 36 24.5 58.5t46.5 22.5q19 0 47 -17q26 -18 37 -18q23 0 32 37h42q-13 -88 -76 -88q-24 0 -48 18q-28 17 -35 17q-18 0 -28 -30z" />
    <glyph glyph-name="uni1EB6" unicode="&#x1eb6;" horiz-adv-x="425" 
d="M284 204h-151l-82 -204h-72l279 674h80l21 -674h-70zM153 261h131l-3 174v156h-3q-45 -130 -56 -156zM216 828h44q-2 -21 13 -36.5t42 -15.5q28 0 47.5 15.5t23.5 36.5h46q-6 -43 -37 -71t-84 -28t-77.5 28t-17.5 71zM150 -169q-18 0 -31 13t-13 31q0 19 13 32t32 13
t31.5 -13t12.5 -32q0 -18 -13 -31t-32 -13z" />
    <glyph glyph-name="uni1EB7" unicode="&#x1eb7;" horiz-adv-x="380" 
d="M295 0h-65q0 6 7 92h-3q-57 -100 -125 -100q-43 0 -67 35.5t-24 100.5q0 58 15.5 119t46 117t83.5 91.5t120 35.5q52 0 89 -16l-56 -276q-23 -113 -21 -199zM255 246l36 183q-12 4 -30 4q-50 0 -90.5 -50t-59.5 -113t-20 -120q-3 -96 44 -96q36 0 70.5 58t49.5 134z
M178 665h42q-2 -28 11.5 -45t39.5 -17q29 0 48 17.5t24 44.5h44q-6 -51 -38 -81t-81 -30q-52 0 -75.5 31t-14.5 80zM125 -169q-18 0 -31 12.5t-13 31.5t13 32t32 13q18 0 30 -12.5t12 -32.5q0 -19 -12 -31.5t-31 -12.5z" />
    <glyph glyph-name="uni1EB8" unicode="&#x1eb8;" horiz-adv-x="347" 
d="M323 384l-12 -62h-166l-49 -257h190l-13 -65h-261l128 674h249l-13 -64h-176l-44 -226h167zM127 -169q-18 0 -31 13t-13 31q0 19 13 32t32 13t31.5 -13t12.5 -32q0 -18 -13 -31t-32 -13z" />
    <glyph glyph-name="uni1EB9" unicode="&#x1eb9;" horiz-adv-x="338" 
d="M261 80l10 -56q-55 -30 -114 -30q-135 0 -135 171q0 70 23 142.5t73.5 128t115.5 55.5q49 0 74 -31.5t25 -77.5q0 -84 -65 -126t-171 -42q-9 -60 3 -98q17 -62 74 -62q41 0 87 26zM266 377q0 53 -43 53q-34 0 -65.5 -41t-51.5 -117q67 0 113.5 25t46.5 80zM121 -169
q-18 0 -31 12.5t-13 31.5t13 32t32 13q18 0 30 -12.5t12 -32.5q0 -19 -12 -31.5t-31 -12.5z" />
    <glyph glyph-name="uni1EBA" unicode="&#x1eba;" horiz-adv-x="347" 
d="M323 384l-12 -62h-166l-49 -257h190l-13 -65h-261l128 674h249l-13 -64h-176l-44 -226h167zM278 706l-39 9q6 15 29 39t23 42q0 12 -8 19.5t-19 7.5q-21 0 -45 -32l-24 21q34 56 87 56q29 0 47.5 -17t18.5 -43q0 -20 -11 -35.5t-30 -34t-29 -32.5z" />
    <glyph glyph-name="uni1EBB" unicode="&#x1ebb;" horiz-adv-x="338" 
d="M261 80l10 -56q-55 -30 -114 -30q-135 0 -135 171q0 70 23 142.5t73.5 128t115.5 55.5q49 0 74 -31.5t25 -77.5q0 -84 -65 -126t-171 -42q-9 -60 3 -98q17 -62 74 -62q41 0 87 26zM266 377q0 53 -43 53q-34 0 -65.5 -41t-51.5 -117q67 0 113.5 25t46.5 80zM246 530
l-38 12q7 17 32 45.5t25 47.5q0 13 -8 21.5t-20 8.5q-23 0 -45 -33l-27 21q35 61 93 61q27 0 45.5 -18t18.5 -45q0 -23 -12.5 -42.5t-33.5 -41.5t-30 -37z" />
    <glyph glyph-name="uni1EBC" unicode="&#x1ebc;" horiz-adv-x="347" 
d="M323 384l-12 -62h-166l-49 -257h190l-13 -65h-261l128 674h249l-13 -64h-176l-44 -226h167zM206 719h-43q5 43 25 67t48 24q19 0 47 -17q26 -18 37 -18q23 0 32 37h42q-13 -87 -76 -87q-21 0 -48 16q-25 17 -35 17q-21 0 -29 -39z" />
    <glyph glyph-name="uni1EBD" unicode="&#x1ebd;" horiz-adv-x="338" 
d="M261 80l10 -56q-55 -30 -114 -30q-135 0 -135 171q0 70 23 142.5t73.5 128t115.5 55.5q49 0 74 -31.5t25 -77.5q0 -84 -65 -126t-171 -42q-9 -60 3 -98q17 -62 74 -62q41 0 87 26zM266 377q0 53 -43 53q-34 0 -65.5 -41t-51.5 -117q67 0 113.5 25t46.5 80zM171 563h-43
q2 39 19 64.5t47 25.5q19 0 47 -17q28 -18 37 -18q21 0 26 37h42q-7 -85 -68 -85q-24 0 -47 17q-25 18 -36 18q-19 0 -24 -42z" />
    <glyph glyph-name="uni1EBE" unicode="&#x1ebe;" horiz-adv-x="347" 
d="M323 384l-12 -62h-166l-49 -257h190l-13 -65h-261l128 674h249l-13 -64h-175l-44 -226h166zM266 807h55l58 -97h-62l-29 57h-2l-52 -57h-66zM434 880h76l-110 -99h-43z" />
    <glyph glyph-name="uni1EBF" unicode="&#x1ebf;" horiz-adv-x="338" 
d="M261 80l10 -56q-55 -30 -114 -30q-135 0 -135 171q0 70 23 142.5t73.5 128t115.5 55.5q49 0 74 -31.5t25 -77.5q0 -84 -65 -126t-171 -42q-9 -60 3 -98q17 -62 74 -62q41 0 87 26zM266 377q0 53 -43 53q-34 0 -65.5 -41t-51.5 -117q67 0 113.5 25t46.5 80zM222 682h55
l41 -135h-54l-20 84h-3l-45 -84h-57zM386 741h72l-100 -117h-45z" />
    <glyph glyph-name="uni1EC0" unicode="&#x1ec0;" horiz-adv-x="347" 
d="M322 384l-11 -62h-166l-49 -257h190l-13 -65h-261l128 674h249l-13 -64h-176l-44 -226h166zM308 867h75l50 -100h-41zM259 807h56l57 -97h-61l-29 57h-2l-53 -57h-66z" />
    <glyph glyph-name="uni1EC1" unicode="&#x1ec1;" horiz-adv-x="338" 
d="M261 80l10 -56q-55 -30 -114 -30q-135 0 -135 171q0 70 23 142.5t73.5 128t115.5 55.5q49 0 74 -31.5t25 -77.5q0 -84 -65 -126t-171 -42q-9 -60 3 -98q17 -62 75 -62q40 0 86 26zM266 377q0 53 -43 53q-34 0 -65.5 -41t-51.5 -117q67 0 113.5 25t46.5 80zM275 743h66
l48 -117h-40zM222 682h56l40 -135h-54l-20 84h-3l-45 -84h-58z" />
    <glyph glyph-name="uni1EC2" unicode="&#x1ec2;" horiz-adv-x="347" 
d="M323 384l-12 -62h-166l-49 -257h190l-13 -65h-261l128 674h249l-13 -64h-176l-44 -226h167zM400 752l-36 15q7 13 30 34.5t23 37.5q0 10 -8.5 17.5t-20.5 7.5q-21 0 -39 -22l-25 19q31 48 81 48q28 0 47.5 -16.5t19.5 -42.5q0 -21 -12 -36.5t-31.5 -32t-28.5 -29.5z
M262 807h55l57 -97h-61l-29 57h-2l-53 -57h-65z" />
    <glyph glyph-name="uni1EC3" unicode="&#x1ec3;" horiz-adv-x="338" 
d="M261 80l10 -56q-55 -30 -114 -30q-135 0 -135 171q0 70 23 142.5t73.5 128t115.5 55.5q49 0 74 -31.5t25 -77.5q0 -84 -65 -126t-171 -42q-9 -60 3 -98q17 -62 75 -62q40 0 86 26zM266 377q0 53 -43 53q-34 0 -65.5 -41t-51.5 -117q67 0 113.5 25t46.5 80zM222 682h56
l40 -135h-54l-20 84h-3l-45 -84h-58zM356 625l-36 15q7 13 30 34.5t23 37.5q0 10 -8.5 17.5t-20.5 7.5q-22 0 -38 -22l-26 19q33 48 81 48q28 0 47.5 -16.5t19.5 -42.5q0 -21 -12 -36.5t-31.5 -32t-28.5 -29.5z" />
    <glyph glyph-name="uni1EC4" unicode="&#x1ec4;" horiz-adv-x="347" 
d="M323 384l-12 -62h-166l-49 -257h190l-13 -65h-260l127 674h249l-13 -64h-175l-44 -226h166zM226 819h-41q2 34 19.5 58t45.5 24q20 0 46 -17q24 -15 37 -15q20 0 26 34h42q-8 -81 -67 -81q-17 0 -46 16q-28 16 -35 16q-19 0 -27 -35zM256 807h56l57 -97h-61l-29 57h-2
l-53 -57h-66z" />
    <glyph glyph-name="uni1EC5" unicode="&#x1ec5;" horiz-adv-x="338" 
d="M260 80l11 -56q-55 -30 -114 -30q-135 0 -135 171q0 70 23 142.5t73.5 128t115.5 55.5q49 0 74 -31.5t25 -77.5q0 -84 -65 -126t-171 -42q-9 -60 3 -98q17 -62 74 -62q42 0 86 26zM266 377q0 53 -43 53q-34 0 -65.5 -41t-51.5 -117q67 0 113.5 25t46.5 80zM186 663h-42
q3 34 20.5 58.5t45.5 24.5q16 0 46 -17q23 -16 37 -16q19 0 26 35h41q-8 -82 -66 -82q-17 0 -46 16q-28 16 -35 16q-21 0 -27 -35zM220 651h47l52 -106h-53l-27 60h-2l-43 -60h-59z" />
    <glyph glyph-name="uni1EC6" unicode="&#x1ec6;" horiz-adv-x="347" 
d="M323 384l-12 -62h-166l-49 -257h190l-13 -65h-261l128 674h249l-13 -64h-176l-44 -226h167zM257 823h56l64 -113h-60l-36 70h-2l-61 -70h-64zM131 -169q-18 0 -31 13t-13 31q0 19 13 32t32 13t31.5 -13t12.5 -32q0 -18 -13 -31t-32 -13z" />
    <glyph glyph-name="uni1EC7" unicode="&#x1ec7;" horiz-adv-x="338" 
d="M261 80l10 -56q-55 -30 -114 -30q-135 0 -135 171q0 70 23 142.5t73.5 128t115.5 55.5q49 0 74 -31.5t25 -77.5q0 -84 -65 -126t-171 -42q-9 -60 3 -98q17 -62 74 -62q41 0 87 26zM266 377q0 53 -43 53q-34 0 -65.5 -41t-51.5 -117q67 0 113.5 25t46.5 80zM224 674h47
l57 -135h-54l-32 83h-2l-59 -83h-57zM121 -169q-18 0 -31 12.5t-13 31.5t13 32t32 13q18 0 30 -12.5t12 -32.5q0 -19 -12 -31.5t-31 -12.5z" />
    <glyph glyph-name="uni1EC8" unicode="&#x1ec8;" horiz-adv-x="194" 
d="M140 674h72l-128 -674h-72zM199 706l-39 9q6 15 29 39t23 42q0 12 -8 19.5t-19 7.5q-20 0 -45 -31l-24 20q34 56 87 56q29 0 47.5 -16.5t18.5 -42.5q0 -20 -11 -36t-30.5 -34.5t-28.5 -32.5z" />
    <glyph glyph-name="uni1EC9" unicode="&#x1ec9;" horiz-adv-x="179" 
d="M77 0h-72l92 484h72zM156 531l-38 12q7 17 31.5 45.5t24.5 47.5q0 13 -7.5 21.5t-19.5 8.5q-23 0 -45 -33l-26 21q33 61 91 61q28 0 46.5 -18t18.5 -45q0 -23 -12.5 -42.5t-33.5 -41.5t-30 -37z" />
    <glyph glyph-name="uni1ECA" unicode="&#x1eca;" horiz-adv-x="194" 
d="M140 674h72l-128 -674h-72zM30 -169q-18 0 -31 13t-13 31q0 19 13 32t32 13t31.5 -13t12.5 -32q0 -18 -13 -31t-32 -13z" />
    <glyph glyph-name="uni1ECB" unicode="&#x1ecb;" horiz-adv-x="179" 
d="M77 0h-72l92 484h72zM150 560q-39 0 -37 46q2 21 15.5 36.5t33.5 15.5t30.5 -13.5t8.5 -33.5q-1 -24 -15.5 -37.5t-35.5 -13.5zM20 -169q-18 0 -31 12.5t-13 31.5t13 32t32 13q18 0 30 -12.5t12 -32.5q0 -19 -12 -31.5t-31 -12.5z" />
    <glyph glyph-name="uni1ECC" unicode="&#x1ecc;" horiz-adv-x="441" 
d="M300 682q139 0 139 -218q0 -105 -37 -229.5t-98 -185.5q-56 -57 -126 -57q-37 0 -64.5 15.5t-42.5 38t-23.5 54t-11 55.5t-2.5 50q0 108 37.5 233t102.5 189q56 55 126 55zM288 617q-33 0 -63 -30q-52 -52 -84 -171t-32 -207q0 -29 2 -49t9 -47t24 -41.5t44 -14.5
q31 0 62 29q53 53 83.5 176t30.5 200q0 36 -2 59t-9 47.5t-23.5 36.5t-41.5 12zM135 -169q-18 0 -31 13t-13 31q0 19 13 32t32 13t31.5 -13t12.5 -32q0 -18 -13 -31t-32 -13z" />
    <glyph glyph-name="uni1ECD" unicode="&#x1ecd;" horiz-adv-x="369" 
d="M234 491q112 0 112 -157q0 -50 -12 -106t-36 -110.5t-66 -90t-95 -35.5q-62 0 -89.5 46t-27.5 118q0 51 13.5 107.5t38.5 108.5t67.5 85.5t94.5 33.5zM222 432q-37 0 -68 -48.5t-46 -109t-15 -111.5q0 -34 2.5 -55t15.5 -39t37 -18q31 0 56.5 33t39.5 81t21.5 93.5
t7.5 79.5q0 94 -51 94zM114 -169q-18 0 -31 12.5t-13 31.5t13 32t32 13q18 0 30 -12.5t12 -32.5q0 -19 -12 -31.5t-31 -12.5z" />
    <glyph glyph-name="uni1ECE" unicode="&#x1ece;" horiz-adv-x="441" 
d="M300 682q139 0 139 -218q0 -105 -37 -229.5t-98 -185.5q-56 -57 -126 -57q-37 0 -64.5 15.5t-42.5 38t-23.5 54t-11 55.5t-2.5 50q0 108 37.5 233t102.5 189q56 55 126 55zM288 617q-33 0 -63 -30q-52 -52 -84 -171t-32 -207q0 -29 2 -49t9 -47t24 -41.5t44 -14.5
q31 0 62 29q53 53 83.5 176t30.5 200q0 36 -2 59t-9 47.5t-23.5 36.5t-41.5 12zM323 706l-39 9q6 15 29.5 39.5t23.5 41.5q0 12 -8 19.5t-20 7.5q-20 0 -45 -31l-24 20q34 56 87 56q30 0 48 -16.5t18 -42.5q0 -20 -11 -36t-30.5 -34.5t-28.5 -32.5z" />
    <glyph glyph-name="uni1ECF" unicode="&#x1ecf;" horiz-adv-x="369" 
d="M234 491q112 0 112 -157q0 -50 -12 -106t-36 -110.5t-66 -90t-95 -35.5q-62 0 -89.5 46t-27.5 118q0 51 13.5 107.5t38.5 108.5t67.5 85.5t94.5 33.5zM222 432q-37 0 -68 -48.5t-46 -109t-15 -111.5q0 -34 2.5 -55t15.5 -39t37 -18q31 0 56.5 33t39.5 81t21.5 93.5
t7.5 79.5q0 94 -51 94zM254 530l-38 12q7 17 31.5 45.5t24.5 47.5q0 13 -7.5 21.5t-19.5 8.5q-23 0 -45 -33l-27 21q35 61 93 61q27 0 45.5 -18t18.5 -45q0 -23 -12.5 -42.5t-33.5 -41.5t-30 -37z" />
    <glyph glyph-name="uni1ED0" unicode="&#x1ed0;" horiz-adv-x="441" 
d="M300 682q139 0 139 -217q0 -105 -36.5 -230t-98.5 -186q-56 -57 -126 -57q-37 0 -64.5 15.5t-42.5 38t-23.5 54t-11 55.5t-2.5 50q0 108 37.5 233t102.5 189q56 55 126 55zM288 617q-31 0 -63 -29q-52 -52 -84 -171.5t-32 -207.5q0 -29 2 -49t9 -47t24 -41.5t44 -14.5
q31 0 62 29q53 53 83.5 176t30.5 200q0 36 -2 59.5t-9 48t-23.5 36t-41.5 11.5zM298 808h56l57 -98h-62l-28 57h-2l-53 -57h-66zM466 880h76l-110 -98h-43z" />
    <glyph glyph-name="uni1ED1" unicode="&#x1ed1;" horiz-adv-x="369" 
d="M234 491q112 0 112 -157q0 -50 -12 -106t-36 -110.5t-66 -90t-95 -35.5q-62 0 -89.5 46t-27.5 118q0 51 13.5 107.5t38.5 108.5t67.5 85.5t94.5 33.5zM222 432q-37 0 -68 -48.5t-46 -109t-15 -111.5q0 -34 2.5 -55t15.5 -39t37 -18q31 0 56.5 33t39.5 81t21.5 93.5
t7.5 79.5q0 94 -51 94zM237 682h55l41 -135h-54l-20 84h-3l-45 -84h-57zM401 741h72l-100 -117h-45z" />
    <glyph glyph-name="uni1ED2" unicode="&#x1ed2;" horiz-adv-x="441" 
d="M299 682q140 0 140 -217q0 -105 -36.5 -230t-98.5 -186q-56 -57 -126 -57q-37 0 -64.5 15.5t-42.5 38t-23.5 54t-11 55.5t-2.5 50q0 108 37.5 233t103.5 189q55 55 124 55zM288 617q-32 0 -63 -29q-52 -52 -84 -171.5t-32 -207.5q0 -29 2 -49t9 -47t24 -41.5t44 -14.5
q31 0 62 29q53 53 83.5 176t30.5 200q0 36 -2 59.5t-9 48t-23.5 36t-41.5 11.5zM344 868h75l50 -101h-41zM295 808h55l57 -98h-61l-29 57h-2l-52 -57h-66z" />
    <glyph glyph-name="uni1ED3" unicode="&#x1ed3;" horiz-adv-x="369" 
d="M234 491q112 0 112 -157q0 -50 -12 -106t-36 -110.5t-66 -90t-95 -35.5q-62 0 -89.5 46t-27.5 118q0 51 13.5 107.5t38.5 108.5t67.5 85.5t94.5 33.5zM222 432q-37 0 -68 -48.5t-46 -109t-15 -111.5q0 -34 2.5 -55t15.5 -39t37 -18q31 0 56.5 33t39.5 81t21.5 93.5
t7.5 79.5q0 94 -51 94zM290 743h66l48 -117h-40zM237 682h56l40 -135h-54l-20 84h-3l-45 -84h-57z" />
    <glyph glyph-name="uni1ED4" unicode="&#x1ed4;" horiz-adv-x="441" 
d="M300 682q139 0 139 -218q0 -105 -37 -229.5t-98 -185.5q-56 -57 -126 -57q-37 0 -64.5 15.5t-42.5 38t-23.5 54t-11 55.5t-2.5 50q0 108 37.5 233t102.5 189q56 55 126 55zM288 617q-33 0 -63 -30q-52 -52 -84 -171t-32 -207q0 -29 2 -49t9 -47t24 -41.5t44 -14.5
q31 0 62 29q53 53 83.5 176t30.5 200q0 36 -2 59t-9 47.5t-23.5 36.5t-41.5 12zM432 752l-35 15q6 14 29.5 35t23.5 37q0 11 -8 18.5t-21 7.5q-23 0 -39 -22l-25 19q31 47 80 47q29 0 48 -16.5t19 -42.5q0 -21 -12 -36.5t-31.5 -31.5t-28.5 -30zM294 808h56l57 -98h-61
l-29 57h-2l-53 -57h-66z" />
    <glyph glyph-name="uni1ED5" unicode="&#x1ed5;" horiz-adv-x="369" 
d="M234 491q112 0 112 -157q0 -50 -12 -106t-36 -110.5t-66 -90t-95 -35.5q-62 0 -89.5 46t-27.5 118q0 51 13.5 107.5t38.5 108.5t67.5 85.5t94.5 33.5zM222 432q-37 0 -68 -48.5t-46 -109t-15 -111.5q0 -34 2.5 -55t15.5 -39t37 -18q31 0 56.5 33t39.5 81t21.5 93.5
t7.5 79.5q0 94 -51 94zM237 682h56l40 -135h-54l-20 84h-3l-45 -84h-57zM371 625l-35 15q6 14 29 35t23 37q0 10 -8 17.5t-20 7.5q-23 0 -39 -22l-26 19q33 48 81 48q28 0 47.5 -16.5t19.5 -42.5q0 -21 -12 -36.5t-31.5 -32t-28.5 -29.5z" />
    <glyph glyph-name="uni1ED6" unicode="&#x1ed6;" horiz-adv-x="441" 
d="M300 682q139 0 139 -218q0 -105 -37 -229.5t-98 -185.5q-56 -57 -126 -57q-37 0 -64.5 15.5t-42.5 38t-23.5 54t-11 55.5t-2.5 50q0 108 37.5 233t103.5 189q55 55 125 55zM288 617q-33 0 -63 -30q-52 -52 -84 -171t-32 -207q0 -29 2 -49t9 -47t24 -41.5t44 -14.5
q31 0 62 29q53 53 83.5 176t30.5 200q0 36 -2 59t-9 47.5t-23.5 36.5t-41.5 12zM266 820h-41q2 33 20 57.5t46 24.5q20 0 46 -17q24 -16 37 -16q20 0 26 35h41q-8 -82 -66 -82q-17 0 -46 16q-28 16 -35 16q-20 0 -28 -34zM297 808h55l58 -98h-62l-29 57h-2l-53 -57h-65z" />
    <glyph glyph-name="uni1ED7" unicode="&#x1ed7;" horiz-adv-x="369" 
d="M234 491q112 0 112 -157q0 -50 -12 -106t-36 -110.5t-66 -90t-95 -35.5q-62 0 -89.5 46t-27.5 118q0 51 13.5 107.5t38.5 108.5t67.5 85.5t94.5 33.5zM222 432q-37 0 -68 -48.5t-46 -109t-15 -111.5q0 -34 2.5 -55t15.5 -39t37 -18q31 0 56.5 33t39.5 81t21.5 93.5
t7.5 79.5q0 94 -51 94zM201 663h-41q2 34 19.5 58.5t45.5 24.5q16 0 46 -17q21 -16 37 -16q20 0 26 35h41q-8 -82 -66 -82q-17 0 -46 16q-28 16 -35 16q-19 0 -27 -35zM235 651h47l52 -106h-53l-27 60h-2l-43 -60h-59z" />
    <glyph glyph-name="uni1ED8" unicode="&#x1ed8;" horiz-adv-x="441" 
d="M300 682q139 0 139 -218q0 -105 -37 -229.5t-98 -185.5q-56 -57 -126 -57q-37 0 -64.5 15.5t-42.5 38t-23.5 54t-11 55.5t-2.5 50q0 108 37.5 233t102.5 189q56 55 126 55zM288 617q-33 0 -63 -30q-52 -52 -84 -171t-32 -207q0 -29 2 -49t9 -47t24 -41.5t44 -14.5
q31 0 62 29q53 53 83.5 176t30.5 200q0 36 -2 59t-9 47.5t-23.5 36.5t-41.5 12zM296 823h56l64 -113h-60l-36 70h-2l-61 -70h-64zM137 -169q-18 0 -31 13t-13 31q0 19 13 32t32 13t31.5 -13t12.5 -32q0 -18 -13 -31t-32 -13z" />
    <glyph glyph-name="uni1ED9" unicode="&#x1ed9;" horiz-adv-x="369" 
d="M234 491q112 0 112 -157q0 -50 -12 -106t-36 -110.5t-66 -90t-95 -35.5q-62 0 -89.5 46t-27.5 118q0 51 13.5 107.5t38.5 108.5t67.5 85.5t94.5 33.5zM222 432q-37 0 -68 -48.5t-46 -109t-15 -111.5q0 -34 2.5 -55t15.5 -39t37 -18q31 0 56.5 33t39.5 81t21.5 93.5
t7.5 79.5q0 94 -51 94zM240 674h47l57 -135h-54l-32 83h-2l-59 -83h-57zM116 -169q-18 0 -31 12.5t-13 31.5t13 32t32 13q18 0 30 -12.5t12 -32.5q0 -19 -12 -31.5t-31 -12.5z" />
    <glyph glyph-name="uni1EDA" unicode="&#x1eda;" horiz-adv-x="441" 
d="M441 728l60 9q7 -21 7 -48q0 -40 -24 -68t-63 -29q18 -46 18 -128q0 -104 -37 -229t-98 -186q-57 -57 -126 -57q-37 0 -64.5 15.5t-42.5 38t-23.5 54t-11 55.5t-2.5 50q0 108 38 233t103 189q55 55 124 55q39 0 67 -16q6 -3 16 -10t17.5 -11t15.5 -4q33 0 33 46
q0 18 -7 41zM288 617q-34 0 -63 -29q-51 -52 -83 -171.5t-32 -207.5q0 -29 2 -49t8.5 -47t24 -41.5t43.5 -14.5q31 0 62 29q52 53 83 176.5t31 199.5q0 36 -2 59.5t-9.5 47.5t-23.5 36t-41 12zM355 823h89l-136 -113h-60z" />
    <glyph glyph-name="uni1EDB" unicode="&#x1edb;" horiz-adv-x="369" 
d="M222 433q-38 0 -69 -48.5t-45.5 -109.5t-14.5 -112q0 -34 2.5 -55t15.5 -39t37 -18q31 0 56.5 33t40 81t22 94t7.5 80q0 94 -52 94zM360 547l58 9q7 -21 7 -46q0 -44 -24 -70t-66 -25q11 -35 11 -81q0 -50 -12 -106t-36 -110.5t-66 -90t-95 -35.5q-61 0 -88.5 46
t-27.5 118q0 51 13.5 107.5t38.5 108.5t67.5 85.5t93.5 33.5q30 0 52 -11q34 -17 46 -17q35 0 35 46q0 19 -7 38zM271 674h79l-112 -135h-53z" />
    <glyph glyph-name="uni1EDC" unicode="&#x1edc;" horiz-adv-x="441" 
d="M441 728l60 9q7 -21 7 -48q0 -40 -24 -68t-63 -29q18 -46 18 -128q0 -104 -37 -229t-98 -186q-57 -57 -126 -57q-37 0 -64.5 15.5t-42.5 38t-23.5 54t-11 55.5t-2.5 50q0 108 38 233t103 189q55 55 124 55q39 0 67 -16q6 -3 16 -10t17.5 -11t15.5 -4q33 0 33 46
q0 18 -7 41zM288 617q-34 0 -63 -29q-51 -52 -83 -171.5t-32 -207.5q0 -29 2 -49t8.5 -47t24 -41.5t43.5 -14.5q31 0 62 29q52 53 83 176.5t31 199.5q0 36 -2 59.5t-9.5 47.5t-23.5 36t-41 12zM173 823h88l92 -113h-58z" />
    <glyph glyph-name="uni1EDD" unicode="&#x1edd;" horiz-adv-x="369" 
d="M222 433q-38 0 -69 -48.5t-45.5 -109.5t-14.5 -112q0 -34 2.5 -55t15.5 -39t37 -18q31 0 56.5 33t40 81t22 94t7.5 80q0 94 -52 94zM360 547l58 9q7 -21 7 -46q0 -44 -24 -70t-66 -25q11 -35 11 -81q0 -50 -12 -106t-36 -110.5t-66 -90t-95 -35.5q-61 0 -88.5 46
t-27.5 118q0 51 13.5 107.5t38.5 108.5t67.5 85.5t93.5 33.5q30 0 52 -11q34 -17 46 -17q35 0 35 46q0 19 -7 38zM135 674h78l69 -135h-51z" />
    <glyph glyph-name="uni1EDE" unicode="&#x1ede;" horiz-adv-x="441" 
d="M441 728l60 9q7 -21 7 -48q0 -40 -24 -68t-63 -29q18 -46 18 -128q0 -104 -37 -229t-98 -186q-57 -57 -126 -57q-37 0 -64.5 15.5t-42.5 38t-23.5 54t-11 55.5t-2.5 50q0 108 38 233t103 189q55 55 124 55q40 0 67 -17q7 -3 16.5 -9.5t17 -10.5t15.5 -4q33 0 33 46
q0 18 -7 41zM288 617q-33 0 -63 -30q-51 -51 -83 -170.5t-32 -207.5q0 -29 2 -49t8.5 -47t24 -41.5t43.5 -14.5q31 0 62 29q52 53 83 176.5t31 199.5q0 36 -2 59.5t-9.5 47.5t-23.5 36t-41 12zM322 706l-39 9q6 15 29 39.5t23 41.5q0 12 -8 19.5t-19 7.5q-20 0 -45 -31
l-24 20q34 56 87 56q30 0 48 -16.5t18 -42.5q0 -20 -11 -36t-30.5 -34.5t-28.5 -32.5z" />
    <glyph glyph-name="uni1EDF" unicode="&#x1edf;" horiz-adv-x="369" 
d="M222 433q-38 0 -69 -48.5t-45.5 -109.5t-14.5 -112q0 -34 2.5 -55t15.5 -39t37 -18q31 0 56.5 33t40 81t22 94t7.5 80q0 94 -52 94zM360 548l58 8q7 -21 7 -46q0 -44 -24 -70t-66 -25q11 -35 11 -81q0 -50 -12 -106t-36 -110.5t-66 -90t-95 -35.5q-61 0 -88.5 46
t-27.5 118q0 51 13.5 107.5t38.5 108.5t67.5 85.5t93.5 33.5q30 0 52 -11q34 -17 46 -17q35 0 35 46q0 20 -7 39zM243 530l-39 12q7 17 32 45.5t25 47.5q0 13 -7.5 21.5t-20.5 8.5q-23 0 -45 -33l-27 21q35 61 93 61q28 0 46 -18t18 -45q0 -23 -12.5 -42.5t-33 -41.5
t-29.5 -37z" />
    <glyph glyph-name="uni1EE0" unicode="&#x1ee0;" horiz-adv-x="441" 
d="M441 729l60 9q7 -23 7 -48q0 -41 -24 -69t-63 -28q18 -48 18 -128q0 -105 -37 -230t-98 -186q-57 -57 -126 -57q-37 0 -64.5 15.5t-42.5 38t-23.5 54t-11 55.5t-2.5 50q0 107 38 232.5t102 189.5q56 55 125 55q39 0 67 -16q6 -3 16 -10t17.5 -11t15.5 -4q33 0 33 47
q0 18 -7 41zM288 618q-33 0 -63 -30q-51 -52 -83 -171.5t-32 -207.5q0 -29 2 -49t8.5 -47t24 -41.5t43.5 -14.5q32 0 61 29q53 53 84 176t31 200q0 36 -2 59.5t-9.5 48t-23.5 36.5t-41 12zM243 719h-43q5 43 25 67t48 24q21 0 47 -17q28 -18 38 -18q23 0 32 37h42
q-13 -87 -77 -87q-21 0 -48 16q-25 17 -35 17q-21 0 -29 -39z" />
    <glyph glyph-name="uni1EE1" unicode="&#x1ee1;" horiz-adv-x="369" 
d="M222 432q-38 0 -69 -48.5t-45.5 -109t-14.5 -111.5q0 -34 2.5 -55t15.5 -39t37 -18q31 0 56.5 33t40 81t22 94t7.5 80q0 43 -11 68.5t-41 24.5zM360 548l58 9q7 -21 7 -47q0 -44 -24 -70t-66 -25q11 -35 11 -81q0 -50 -12 -106t-36 -110.5t-66 -90t-95 -35.5
q-61 0 -88.5 46t-27.5 118q0 51 13.5 107.5t38.5 108.5t67.5 85.5t93.5 33.5q30 0 52 -11q36 -18 46 -19q16 0 25.5 12t9.5 35q0 19 -7 40zM178 563l-43 1q2 39 19 64.5t46 24.5q19 0 47 -17q28 -18 37 -18q21 0 26 37h42q-7 -85 -67 -85q-23 0 -48 17q-25 18 -35 18
q-19 0 -24 -42z" />
    <glyph glyph-name="uni1EE2" unicode="&#x1ee2;" horiz-adv-x="441" 
d="M441 728l60 9q7 -21 7 -48q0 -40 -24 -68t-63 -29q18 -46 18 -128q0 -104 -37 -229t-98 -186q-57 -57 -126 -57q-37 0 -64.5 15.5t-42.5 38t-23.5 54t-11 55.5t-2.5 50q0 108 38 233t103 189q55 55 124 55q40 0 67 -17q7 -3 16.5 -9.5t17 -10.5t15.5 -4q33 0 33 46
q0 18 -7 41zM288 617q-33 0 -63 -30q-51 -51 -83 -170.5t-32 -207.5q0 -29 2 -49t8.5 -47t24 -41.5t43.5 -14.5q31 0 62 29q52 53 83 176.5t31 199.5q0 36 -2 59.5t-9.5 47.5t-23.5 36t-41 12zM140 -169h-2q-18 0 -31 13t-13 31q0 19 13 32t32 13t31.5 -13t12.5 -32
q0 -18 -12.5 -31t-30.5 -13z" />
    <glyph glyph-name="uni1EE3" unicode="&#x1ee3;" horiz-adv-x="369" 
d="M222 433q-38 0 -69 -48.5t-45.5 -109.5t-14.5 -112q0 -34 2.5 -55t15.5 -39t37 -18q31 0 56.5 33t40 81t22 94t7.5 80q0 94 -52 94zM360 548l58 8q7 -21 7 -46q0 -44 -24 -70t-66 -25q11 -35 11 -81q0 -50 -12 -106t-36 -110.5t-66 -90t-95 -35.5q-61 0 -88.5 46
t-27.5 118q0 51 13.5 107.5t38.5 108.5t67.5 85.5t93.5 33.5q30 0 52 -11q34 -17 46 -17q35 0 35 46q0 20 -7 39zM116 -169q-18 0 -31 12.5t-13 31.5t13 32t32 13q18 0 30 -12.5t12 -32.5q0 -19 -12 -31.5t-31 -12.5z" />
    <glyph glyph-name="uni1EE4" unicode="&#x1ee4;" horiz-adv-x="446" 
d="M137 674h73l-86 -452q-8 -39 -8 -79q0 -41 20 -63.5t53 -22.5q47 0 74.5 37.5t44.5 123.5l86 456h73l-85 -449q-23 -123 -71.5 -178t-130.5 -55q-62 0 -99.5 37.5t-37.5 105.5q0 42 10 92zM152 -169q-18 0 -31 13t-13 31q0 19 13 32t32 13t31.5 -13t12.5 -32
q0 -18 -13 -31t-32 -13z" />
    <glyph glyph-name="uni1EE5" unicode="&#x1ee5;" horiz-adv-x="392" 
d="M308 484h72l-60 -318q-11 -62 -22 -166h-64l6 76h-2q-53 -84 -130 -84q-40 0 -60.5 28.5t-20.5 70.5q0 35 8 77l59 316h72l-57 -304q-9 -40 -9 -76q0 -50 42 -50q36 0 69 43.5t45 107.5zM127 -169q-18 0 -31 12.5t-13 31.5t13 32t32 13q18 0 30 -12.5t12 -32.5
q0 -19 -12 -31.5t-31 -12.5z" />
    <glyph glyph-name="uni1EE6" unicode="&#x1ee6;" horiz-adv-x="446" 
d="M137 674h73l-86 -452q-8 -39 -8 -79q0 -41 20 -63.5t53 -22.5q47 0 74.5 37.5t44.5 123.5l86 456h73l-85 -449q-23 -123 -71.5 -178t-130.5 -55q-62 0 -99.5 37.5t-37.5 105.5q0 42 10 92zM313 706l-40 9q6 15 29.5 39t23.5 42q0 12 -8 19.5t-20 7.5q-20 0 -45 -31
l-24 20q34 56 88 56q29 0 47 -16.5t18 -42.5q0 -20 -11 -36t-30 -34.5t-28 -32.5z" />
    <glyph glyph-name="uni1EE7" unicode="&#x1ee7;" horiz-adv-x="392" 
d="M308 484h72l-60 -318q-11 -62 -22 -166h-64l6 76h-2q-53 -84 -130 -84q-40 0 -60.5 28.5t-20.5 70.5q0 35 8 77l59 316h72l-57 -304q-9 -40 -9 -76q0 -50 42 -50q36 0 69 43.5t45 107.5zM262 531l-38 12q7 17 31.5 45.5t24.5 47.5q0 13 -7.5 21.5t-19.5 8.5
q-23 0 -45 -33l-27 21q35 61 92 61q28 0 46.5 -18t18.5 -45q0 -23 -12.5 -42.5t-33.5 -41.5t-30 -37z" />
    <glyph glyph-name="uni1EE8" unicode="&#x1ee8;" horiz-adv-x="446" 
d="M458 629l-76 -404q-23 -123 -71 -178t-130 -55q-63 0 -100 37.5t-37 105.5q0 47 9 92l85 447h72l-86 -452q-8 -39 -8 -79q0 -41 20 -63.5t53 -22.5q47 0 74.5 37.5t43.5 123.5l87 456h43q46 0 46 48q0 20 -6 40l57 10q7 -17 7 -44q0 -90 -83 -99zM358 823h90l-136 -113
h-60z" />
    <glyph glyph-name="uni1EE9" unicode="&#x1ee9;" horiz-adv-x="400" 
d="M403 571l56 9q7 -18 7 -44q0 -93 -95 -99l-51 -272q-12 -70 -22 -165h-64l6 75l-2 1q-52 -84 -129 -84q-41 0 -61.5 28.5t-20.5 70.5q0 36 8 76l59 317h72l-57 -305q-9 -41 -9 -76q0 -23 10.5 -36.5t31.5 -12.5q36 0 69 43t45 107l52 280h55q46 0 46 48q0 15 -6 39z
M294 674h80l-112 -135h-53z" />
    <glyph glyph-name="uni1EEA" unicode="&#x1eea;" horiz-adv-x="446" 
d="M458 629l-76 -404q-23 -123 -71 -178t-130 -55q-63 0 -100 37.5t-37 105.5q0 47 9 92l85 447h72l-86 -452q-8 -39 -8 -79q0 -41 20 -63.5t53 -22.5q47 0 74.5 37.5t43.5 123.5l87 456h43q46 0 46 48q0 20 -6 40l57 10q7 -17 7 -44q0 -90 -83 -99zM184 823h88l92 -113h-58
z" />
    <glyph glyph-name="uni1EEB" unicode="&#x1eeb;" horiz-adv-x="400" 
d="M403 571l56 9q7 -18 7 -44q0 -93 -95 -99l-51 -272q-12 -70 -22 -165h-64l6 75l-2 1q-52 -84 -129 -84q-41 0 -61.5 28.5t-20.5 70.5q0 36 8 76l59 317h72l-57 -305q-9 -41 -9 -76q0 -23 10.5 -36.5t31.5 -12.5q36 0 69 43t45 107l52 280h55q46 0 46 48q0 15 -6 39z
M139 674h78l69 -135h-51z" />
    <glyph glyph-name="uni1EEC" unicode="&#x1eec;" horiz-adv-x="446" 
d="M458 629l-76 -404q-23 -123 -71 -178t-130 -55q-63 0 -100 37.5t-37 105.5q0 47 9 92l85 447h72l-86 -452q-8 -39 -8 -79q0 -41 20 -63.5t53 -22.5q47 0 74.5 37.5t43.5 123.5l87 456h43q46 0 46 48q0 20 -6 40l57 9q7 -15 7 -43q0 -90 -83 -99zM320 706l-39 9
q6 15 29 39t23 42q0 12 -8 19.5t-20 7.5q-20 0 -45 -31l-24 20q36 56 88 56q29 0 47 -16.5t18 -42.5q0 -20 -11 -36t-30 -34.5t-28 -32.5z" />
    <glyph glyph-name="uni1EED" unicode="&#x1eed;" horiz-adv-x="400" 
d="M403 572l56 9q7 -18 7 -44q0 -94 -95 -100l-51 -272q-12 -70 -22 -165h-64l6 75l-2 1q-52 -84 -129 -84q-41 0 -61.5 28.5t-20.5 70.5q0 36 8 76l59 317h72l-57 -305q-9 -41 -9 -76q0 -23 10.5 -36.5t31.5 -12.5q36 0 69 43t45 107l52 280h55q46 0 46 49q0 15 -6 39z
M264 531l-39 12q7 17 32 45.5t25 47.5q0 13 -8 21.5t-20 8.5q-23 0 -45 -33l-27 21q35 61 93 61q27 0 45.5 -18t18.5 -45q0 -23 -12.5 -42.5t-33 -41.5t-29.5 -37z" />
    <glyph glyph-name="uni1EEE" unicode="&#x1eee;" horiz-adv-x="446" 
d="M458 629l-76 -404q-23 -123 -71 -178t-130 -55q-63 0 -100 37.5t-37 105.5q0 47 9 92l85 447h72l-86 -452q-8 -39 -8 -79q0 -41 20 -63.5t53 -22.5q47 0 74.5 37.5t43.5 123.5l87 456h43q46 0 46 49q0 21 -6 39l57 10q7 -17 7 -43q0 -91 -83 -100zM248 719h-43
q5 43 25 67t48 24q19 0 47 -17q28 -18 38 -18q23 0 32 37h42q-13 -87 -77 -87q-21 0 -48 16q-25 17 -35 17q-21 0 -29 -39z" />
    <glyph glyph-name="uni1EEF" unicode="&#x1eef;" horiz-adv-x="400" 
d="M403 572l56 9q7 -18 7 -44q0 -94 -95 -100l-51 -272q-12 -70 -22 -165h-64l6 75l-2 1q-52 -84 -129 -84q-41 0 -61.5 28.5t-20.5 70.5q0 36 8 76l59 317h72l-57 -305q-9 -41 -9 -76q0 -23 10.5 -36.5t31.5 -12.5q36 0 69 43t45 107l52 280h55q46 0 46 49q0 15 -6 39z
M193 563l-43 1q2 39 19 64.5t46 24.5q19 0 47 -17q28 -18 37 -18q21 0 26 37h42q-7 -85 -67 -85q-24 0 -47 17q-27 18 -36 18q-19 0 -24 -42z" />
    <glyph glyph-name="uni1EF0" unicode="&#x1ef0;" horiz-adv-x="446" 
d="M458 629l-76 -404q-23 -123 -71 -178t-130 -55q-63 0 -100 37.5t-37 105.5q0 47 9 92l85 447h72l-86 -452q-8 -39 -8 -79q0 -41 20 -63.5t53 -22.5q47 0 74.5 37.5t43.5 123.5l87 456h43q46 0 46 48q0 20 -6 40l57 9q7 -15 7 -43q0 -90 -83 -99zM156 -169h-2
q-18 0 -31 13t-13 31q0 19 13 32t32 13t31.5 -13t12.5 -32q0 -18 -12.5 -31t-30.5 -13z" />
    <glyph glyph-name="uni1EF1" unicode="&#x1ef1;" horiz-adv-x="400" 
d="M403 572l56 9q7 -18 7 -44q0 -94 -95 -100l-51 -272q-12 -70 -22 -165h-64l6 75l-2 1q-52 -84 -129 -84q-41 0 -61.5 28.5t-20.5 70.5q0 36 8 76l59 317h72l-57 -305q-9 -41 -9 -76q0 -23 10.5 -36.5t31.5 -12.5q36 0 69 43t45 107l52 280h55q46 0 46 49q0 15 -6 39z
M128 -169q-18 0 -31 12.5t-13 31.5t13 32t32 13q18 0 30 -12.5t12 -32.5q0 -19 -12 -31.5t-31 -12.5z" />
    <glyph glyph-name="Ygrave" unicode="&#x1ef2;" horiz-adv-x="391" 
d="M180 0h-73l55 285l-73 389h77l32 -198q3 -21 14 -122h2q49 103 58 121l109 199h78l-226 -388zM142 823h88l91 -113h-58z" />
    <glyph glyph-name="ygrave" unicode="&#x1ef3;" horiz-adv-x="338" 
d="M50 484h74l16 -270q1 -26 2.5 -67t2.5 -54h2q5 19 12 38.5t16 44.5t14 40l101 268h74l-162 -393q-77 -182 -159 -253q-47 -39 -75 -48l-29 61q41 19 72 47q52 42 78 105q5 13 4 26zM112 674h78l69 -135h-51z" />
    <glyph glyph-name="uni1EF4" unicode="&#x1ef4;" horiz-adv-x="391" 
d="M180 0h-73l55 285l-73 389h77l32 -198q3 -21 14 -122h2q49 103 58 121l109 199h78l-226 -388zM129 -169q-18 0 -31 13t-13 31q0 19 13 32t32 13t31.5 -13t12.5 -32q0 -18 -13 -31t-32 -13z" />
    <glyph glyph-name="uni1EF5" unicode="&#x1ef5;" horiz-adv-x="338" 
d="M50 484h74l16 -270q1 -26 2.5 -67t2.5 -54h2q5 19 12 38.5t16 44.5t14 40l101 268h74l-162 -393q-77 -182 -159 -253q-47 -39 -75 -48l-29 61q41 19 72 47q52 42 78 105q5 13 4 26zM185 -169q-18 0 -31 12.5t-13 31.5t13 32t32 13q18 0 30 -12.5t12 -32.5
q0 -19 -12 -31.5t-31 -12.5z" />
    <glyph glyph-name="uni1EF6" unicode="&#x1ef6;" horiz-adv-x="391" 
d="M180 0h-73l55 285l-73 389h77l32 -198q3 -21 14 -122h2q49 103 58 121l109 199h78l-226 -388zM285 706l-39 9q6 15 29 39t23 42q0 12 -8 19.5t-19 7.5q-22 0 -45 -31l-24 20q34 56 87 56q29 0 47.5 -16.5t18.5 -42.5q0 -20 -11 -36t-30.5 -34.5t-28.5 -32.5z" />
    <glyph glyph-name="uni1EF7" unicode="&#x1ef7;" horiz-adv-x="338" 
d="M50 484h74l16 -270q1 -26 2.5 -67t2.5 -54h2q5 19 12 38.5t16 44.5t14 40l101 268h74l-162 -393q-77 -182 -159 -253q-47 -39 -75 -48l-29 61q41 19 72 47q52 42 78 105q5 13 4 26zM229 531l-39 12q7 17 32 45.5t25 47.5q0 13 -7.5 21.5t-20.5 8.5q-21 0 -45 -33l-26 21
q33 61 92 61q28 0 46 -18t18 -45q0 -23 -12.5 -42.5t-33 -41.5t-29.5 -37z" />
    <glyph glyph-name="uni1EF8" unicode="&#x1ef8;" horiz-adv-x="391" 
d="M180 0h-73l55 285l-73 389h77l32 -198q3 -21 14 -122h2q49 103 58 121l109 199h78l-226 -388zM220 719h-43q5 43 25 67t48 24q22 0 47 -17q28 -18 38 -18q23 0 32 37h42q-13 -87 -76 -87q-22 0 -49 16q-25 17 -35 17q-21 0 -29 -39z" />
    <glyph glyph-name="uni1EF9" unicode="&#x1ef9;" horiz-adv-x="338" 
d="M50 484h74l16 -270q1 -26 2.5 -67t2.5 -54h2q5 19 12 38.5t16 44.5t14 40l101 268h74l-162 -393q-77 -182 -159 -253q-47 -39 -75 -48l-29 61q41 19 72 47q52 42 78 105q5 13 4 26zM157 563h-43q2 39 19 64.5t46 25.5q20 0 48 -17q28 -18 37 -18q21 0 26 37h42
q-7 -85 -68 -85q-24 0 -47 17q-25 18 -36 18q-19 0 -24 -42z" />
    <glyph glyph-name="uni2010" unicode="&#x2010;" horiz-adv-x="279" 
d="M36 291h220l-11 -59h-220z" />
    <glyph glyph-name="endash" unicode="&#x2013;" horiz-adv-x="500" 
d="M37 288h440l-10 -55h-441z" />
    <glyph glyph-name="emdash" unicode="&#x2014;" horiz-adv-x="1000" 
d="M37 288h940l-10 -55h-941z" />
    <glyph glyph-name="quoteleft" unicode="&#x2018;" horiz-adv-x="161" 
d="M132 456l-79 -10q26 61 62 129t61 101l49 7q-58 -112 -93 -227z" />
    <glyph glyph-name="quoteright" unicode="&#x2019;" horiz-adv-x="161" 
d="M151 673l79 10q-25 -60 -61.5 -128t-61.5 -102l-49 -7q62 120 93 227z" />
    <glyph glyph-name="quotesinglbase" unicode="&#x201a;" horiz-adv-x="161" 
d="M-8 -113l-51 -7q62 120 93 227l80 10q-26 -62 -62 -130t-60 -100z" />
    <glyph glyph-name="quotedblleft" unicode="&#x201c;" horiz-adv-x="292" 
d="M130 456l-79 -10q26 61 62 129t61 101l49 7q-56 -104 -93 -227zM264 456l-79 -10q26 61 62 129t61 101l49 7q-58 -112 -93 -227z" />
    <glyph glyph-name="quotedblright" unicode="&#x201d;" horiz-adv-x="292" 
d="M150 673l79 10q-25 -60 -61.5 -128t-61.5 -102l-49 -7q62 120 93 227zM284 673l79 10q-25 -60 -61.5 -128t-61.5 -102l-49 -7q62 120 93 227z" />
    <glyph glyph-name="quotedblbase" unicode="&#x201e;" horiz-adv-x="292" 
d="M-8 -113l-51 -7q59 111 93 227l81 10q-26 -61 -62 -129t-61 -101zM126 -113l-51 -7q59 111 93 227l81 10q-26 -61 -62 -129t-61 -101z" />
    <glyph glyph-name="dagger" unicode="&#x2020;" horiz-adv-x="381" 
d="M238 674h66l-44 -198l132 6l-13 -65l-129 7l-84 -474h-67l97 474l-132 -7l13 65l129 -6z" />
    <glyph glyph-name="daggerdbl" unicode="&#x2021;" horiz-adv-x="381" 
d="M238 674h65l-43 -195l131 6l-13 -65l-128 7l-42 -222l131 7l-12 -65l-129 6l-34 -203h-65l45 203l-130 -6l12 65l128 -7l42 222l-131 -7l13 65l128 -6z" />
    <glyph glyph-name="bullet" unicode="&#x2022;" horiz-adv-x="257" 
d="M133 173q-39 0 -66.5 27.5t-27.5 68.5q-1 42 27 69.5t68 27.5t68 -27.5t28 -69.5q0 -41 -27.5 -68.5t-69.5 -27.5z" />
    <glyph glyph-name="ellipsis" unicode="&#x2026;" horiz-adv-x="1000" 
d="M119 -8q-21 0 -33.5 15t-12.5 39t16 43t38 19q24 0 36 -15t12 -38q0 -26 -16 -44.5t-40 -18.5zM453 -8q-21 0 -33.5 15t-12.5 39t16 43t38 19q24 0 36 -15t12 -38q0 -26 -16 -44.5t-40 -18.5zM787 -8q-21 0 -33.5 15t-12.5 39t16 43t38 19q24 0 36 -15t12 -38
q0 -26 -16 -44.5t-40 -18.5z" />
    <glyph glyph-name="perthousand" unicode="&#x2030;" horiz-adv-x="941" 
d="M224 658q50 0 73 -38t23 -92q0 -60 -18 -119.5t-56 -102t-87 -42.5t-74 37t-25 94q0 59 17 117t56 102t91 44zM215 611q-33 0 -57 -43t-32.5 -89t-8.5 -81q0 -87 47 -87q25 0 45.5 26t31.5 63t16.5 71t5.5 57q0 83 -48 83zM133 -14h-52l460 677h52zM522 388q50 0 73 -38
t23 -92q0 -60 -18 -119.5t-56 -102t-87 -42.5q-48 0 -73 37t-25 94q0 59 17 117t55.5 102t90.5 44zM513 341q-25 0 -45 -25t-30.5 -61t-16 -69.5t-5.5 -57.5q0 -87 47 -87q25 0 45 26t31 63t16.5 71t5.5 57q0 83 -48 83zM816 388q50 0 73 -38t23 -92q0 -60 -18 -119.5
t-56 -102t-87 -42.5q-48 0 -73 37t-25 94q0 59 17 117t55.5 102t90.5 44zM807 341q-25 0 -45 -25t-30.5 -61t-16 -69.5t-5.5 -57.5q0 -87 47 -87q25 0 45 26t31 63t16.5 71t5.5 57q0 83 -48 83z" />
    <glyph glyph-name="guilsinglleft" unicode="&#x2039;" horiz-adv-x="210" 
d="M213 427l-129 -177l79 -172h-59l-81 174l127 175h63z" />
    <glyph glyph-name="guilsinglright" unicode="&#x203a;" horiz-adv-x="210" 
d="M127 257l-79 170h58l82 -175l-126 -174h-64z" />
    <glyph glyph-name="fraction" unicode="&#x2044;" horiz-adv-x="137" 
d="M-117 -8h-54l453 666h53z" />
    <glyph glyph-name="zero.superior" unicode="&#x2070;" horiz-adv-x="262" 
d="M163 398q-86 0 -86 123q0 65 17.5 127t54.5 106t84 44q86 0 86 -117q0 -61 -15.5 -123.5t-52.5 -111t-88 -48.5zM173 449q38 0 63 82t25 151q0 65 -35 65q-21 0 -39 -25.5t-29 -62.5t-17 -74t-6 -64q0 -72 38 -72z" />
    <glyph glyph-name="four.superior" unicode="&#x2074;" horiz-adv-x="256" 
d="M233 403h-54l21 108h-142l7 36l184 249h59l-46 -239h46l-9 -46h-45zM209 557l18 95q6 27 19 76h-2l-16 -24t-17.5 -25.5t-15.5 -22.5l-67 -97l-1 -2h82z" />
    <glyph glyph-name="five.superior" unicode="&#x2075;" horiz-adv-x="233" 
d="M307 793l-12 -53h-105l-26 -88h10q37 0 63 -26q31 -27 31 -78q0 -65 -44 -107.5t-109 -42.5q-44 0 -66 14l16 49q20 -11 52 -11q38 0 64 25t26 63q0 68 -77 68q-9 0 -31 -2l52 189h156z" />
    <glyph glyph-name="six.superior" unicode="&#x2076;" horiz-adv-x="256" 
d="M312 798l-8 -52q-5 0 -23 -2q-94 -21 -129 -122h1q30 35 72 35q37 0 57 -28t20 -67q0 -64 -37 -114t-94 -50q-49 0 -72 34t-23 87q0 66 27 126t65 94q39 35 93 51q27 7 51 8zM175 443q30 0 48.5 35.5t18.5 79.5q0 54 -42 54q-16 0 -32 -12.5t-26 -31.5q-3 -4 -5 -14
q-4 -17 -4 -46t10.5 -47t31.5 -18z" />
    <glyph glyph-name="seven.superior" unicode="&#x2077;" horiz-adv-x="228" 
d="M112 793h208l-8 -40q-19 -38 -102.5 -185.5t-92.5 -164.5h-63q6 10 89.5 155t103.5 181l-1 1h-144z" />
    <glyph glyph-name="eight.superior" unicode="&#x2078;" horiz-adv-x="270" 
d="M236 798h2q42 0 65.5 -24t23.5 -61q0 -66 -71 -103l-1 -1q49 -35 49 -92q0 -53 -37.5 -86t-87.5 -33q-48 0 -75.5 26.5t-27.5 67.5q0 77 82 119l1 2q-38 34 -38 76q0 46 33.5 77.5t81.5 31.5zM183 440q26 0 43.5 21.5t17.5 52.5q0 48 -46 72q-25 -11 -43.5 -35t-18.5 -54
q0 -25 12 -41t35 -16zM231 756q-22 0 -37.5 -19t-15.5 -46q0 -37 39 -59q54 28 54 79q0 45 -40 45z" />
    <glyph glyph-name="nine.superior" unicode="&#x2079;" horiz-adv-x="255" 
d="M77 398l7 52q18 0 30 3q31 6 61 30q42 35 62 92h-1q-31 -29 -67 -29q-39 0 -59.5 26.5t-20.5 65.5q0 61 38.5 110.5t93.5 49.5q49 0 71 -32.5t22 -78.5q0 -70 -28.5 -133.5t-67.5 -99.5q-45 -43 -108 -53q-12 -3 -33 -3zM215 752q-28 0 -47 -34t-19 -72q0 -57 41 -57
q31 0 52 33q5 8 8 26q5 18 5 45q0 59 -40 59z" />
    <glyph glyph-name="parenleft.superior" unicode="&#x207d;" horiz-adv-x="159" 
d="M216 832h49q-53 -58 -87.5 -141t-34.5 -177q0 -99 28 -169h-44q-34 74 -34 168q0 98 36 181t87 138z" />
    <glyph glyph-name="parenright.superior" unicode="&#x207e;" horiz-adv-x="159" 
d="M72 345h-50q53 59 87.5 142.5t34.5 177.5q0 98 -28 167h45q33 -70 33 -166q0 -98 -36 -182t-86 -139z" />
    <glyph glyph-name="zero.inferior" unicode="&#x2080;" horiz-adv-x="262" 
d="M57 -152q-86 0 -86 123q0 65 17.5 127t54.5 106t84 44q86 0 86 -117q0 -61 -15.5 -123.5t-52.5 -111t-88 -48.5zM67 -101q38 0 63 82t25 151q0 65 -35 65q-21 0 -39 -25.5t-29 -62.5t-17 -74t-6 -64q0 -72 38 -72z" />
    <glyph glyph-name="one.inferior" unicode="&#x2081;" horiz-adv-x="193" 
d="M65 -147h-58l64 333h-2l-79 -39l-2 48l102 48h50z" />
    <glyph glyph-name="two.inferior" unicode="&#x2082;" horiz-adv-x="244" 
d="M153 -147h-219l8 38l50 48q43 42 66 66t48 64t25 71q0 57 -55 57q-27 0 -64 -22l-10 44q46 29 92 29q50 0 74.5 -27.5t24.5 -69.5q0 -39 -25 -82.5t-48 -67.5t-63 -61l-33 -33v-2h138z" />
    <glyph glyph-name="three.inferior" unicode="&#x2083;" horiz-adv-x="229" 
d="M11 179l-7 42q33 27 84 27q43 0 66 -23t23 -60q0 -33 -21 -59t-55 -39l-1 -2q28 -10 44.5 -33.5t15.5 -57.5q-2 -54 -42 -90t-105 -36q-50 0 -82 22l17 45q32 -19 70 -19q36 0 58 22t22 59q0 66 -79 66h-9l8 41h8q36 0 63.5 20t27.5 52q0 45 -46 45q-33 0 -60 -22z" />
    <glyph glyph-name="four.inferior" unicode="&#x2084;" horiz-adv-x="256" 
d="M127 -147h-54l21 108h-142l7 36l184 249h59l-46 -239h46l-9 -46h-45zM103 7l18 95q6 27 19 76h-2q-20 -31 -49 -72l-67 -97l-1 -2h82z" />
    <glyph glyph-name="five.inferior" unicode="&#x2085;" horiz-adv-x="233" 
d="M201 243l-12 -53h-105l-26 -88h3h4h3q37 0 63 -26q31 -27 31 -78q0 -65 -44 -107.5t-109 -42.5q-44 0 -66 14l16 49q20 -11 52 -11q38 0 64 25t26 63q0 68 -77 68q-9 0 -31 -2l52 189h156z" />
    <glyph glyph-name="six.inferior" unicode="&#x2086;" horiz-adv-x="256" 
d="M206 248l-8 -52q-5 0 -23 -2q-94 -21 -129 -122h1q30 35 72 35q37 0 57 -28t20 -67q0 -64 -37 -114t-94 -50q-49 0 -72 34t-23 87q0 67 27 126.5t65 93.5q42 37 93 51q27 7 51 8zM69 -107q30 0 48.5 35.5t18.5 79.5q0 54 -42 54q-16 0 -32 -12.5t-26 -31.5q-3 -4 -5 -14
q-4 -17 -4 -46t10.5 -47t31.5 -18z" />
    <glyph glyph-name="seven.inferior" unicode="&#x2087;" horiz-adv-x="228" 
d="M6 243h208l-8 -41q-19 -38 -101.5 -184t-93.5 -165h-63q6 10 89.5 155t103.5 181l-1 1h-144z" />
    <glyph glyph-name="eight.inferior" unicode="&#x2088;" horiz-adv-x="270" 
d="M130 248h2q42 0 65.5 -24t23.5 -61q0 -66 -71 -103l-1 -1q49 -35 49 -92q0 -53 -37.5 -86t-87.5 -33q-48 0 -75.5 26.5t-27.5 67.5q0 77 82 119l1 2q-38 34 -38 76q0 46 33.5 77.5t81.5 31.5zM77 -110q26 0 43.5 21.5t17.5 52.5q0 48 -46 72q-25 -11 -43.5 -35t-18.5 -54
q0 -25 12 -41t35 -16zM125 206q-22 0 -37.5 -19t-15.5 -46q0 -37 39 -59q54 28 54 78q0 46 -40 46z" />
    <glyph glyph-name="nine.inferior" unicode="&#x2089;" horiz-adv-x="255" 
d="M-29 -152l7 52q18 0 30 3q31 6 61 30q41 33 62 91h-1q-31 -29 -67 -29q-39 0 -59.5 26.5t-20.5 66.5q0 61 38.5 110.5t93.5 49.5q49 0 71 -32.5t22 -78.5q0 -71 -29 -134.5t-67 -98.5q-45 -43 -108 -53q-12 -3 -33 -3zM109 202q-28 0 -47 -34.5t-19 -72.5q0 -57 41 -57
q32 0 52 34q5 9 8 26q5 18 5 45q0 59 -40 59z" />
    <glyph glyph-name="parenleft.inferior" unicode="&#x208d;" horiz-adv-x="159" 
d="M110 282h49q-53 -58 -87.5 -141t-34.5 -177q0 -99 28 -169h-44q-34 74 -34 168q0 98 36 181t87 138z" />
    <glyph glyph-name="parenright.inferior" unicode="&#x208e;" horiz-adv-x="159" 
d="M-34 -205h-50q53 59 87.5 142.5t34.5 177.5q0 98 -28 167h45q33 -70 33 -166q0 -98 -36 -182t-86 -139z" />
    <glyph glyph-name="dong" unicode="&#x20ab;" horiz-adv-x="386" 
d="M277 55h-220l9 52h220zM313 654h66l-13 -68h45l-9 -43h-43l-51 -265q-13 -68 -16 -120h-59l4 54h-1q-13 -26 -37.5 -43t-49.5 -17q-34 0 -53 28t-19 75q0 95 47 173.5t121 78.5q20 0 38 -12l9 48h-83l8 43h83zM246 300l26 144q-9 14 -30 14q-41 0 -69 -64.5t-28 -122.5
q0 -64 34 -64q19 0 38.5 24t28.5 69z" />
    <glyph glyph-name="Euro" unicode="&#x20ac;" horiz-adv-x="386" 
d="M320 74l9 -56q-37 -26 -98 -26q-42 0 -73.5 16.5t-48 43.5t-27 61.5t-11 71t1.5 71.5h-54l10 47h48q11 48 13 56h-48l9 47h52q19 62 51.5 116t87 95t117.5 41q46 0 73 -18l-22 -58q-22 12 -54 12q-64 0 -110 -57.5t-70 -130.5h167l-9 -47h-171q-8 -24 -12 -56h170
l-10 -47h-165q-18 -200 101 -200q37 0 73 18z" />
    </font>
</defs>
</svg>
