<?xml version="1.0" encoding="utf-8"?>
<!-- Generator: Adobe Illustrator 21.0.0, SVG Export Plug-In . SVG Version: 6.00 Build 0)  -->
<svg version="1.1" id="Calque_1" xmlns="http://www.w3.org/2000/svg" xmlns:xlink="http://www.w3.org/1999/xlink" x="0px" y="0px"
	 viewBox="0 0 400 400" style="enable-background:new 0 0 400 400;" xml:space="preserve">
<style type="text/css">
	.st0{fill:#FEE5C1;}
	.st1{display:none;fill:#034EA2;}
	.st2{display:none;}
	.st3{display:inline;fill:#034EA2;}
	
		.st4{display:inline;fill:none;stroke:#034EA2;stroke-width:20.5631;stroke-linecap:round;stroke-linejoin:round;stroke-miterlimit:10;}
	
		.st5{display:inline;fill:none;stroke:#034EA2;stroke-width:24.6758;stroke-linecap:round;stroke-linejoin:round;stroke-miterlimit:10;}
	
		.st6{display:inline;fill:none;stroke:#034EA2;stroke-width:45.2389;stroke-linecap:round;stroke-linejoin:round;stroke-miterlimit:10;}
	.st7{display:inline;fill:#F68A50;}
	.st8{display:inline;fill:#F26522;}
	.st9{display:inline;fill:#FAAE81;}
	.st10{display:inline;}
	.st11{fill:#034EA2;}
	.st12{fill:#E4A440;}
</style>
<g id="Calque_2">
	<g>
		<circle class="st0" cx="200" cy="200" r="200"/>
		<path class="st1" d="M355.5,315H40.3c-4.1,0-7.5-3.4-7.5-7.5s3.4-7.5,7.5-7.5h315.1c4.1,0,7.5,3.4,7.5,7.5S359.6,315,355.5,315z"
			/>
		<path class="st1" d="M32.8,307.5c0-4.1,3.4-7.5,7.5-7.5h315.1c4.1,0,7.5,3.4,7.5,7.5"/>
		<g class="st2">
			<circle class="st3" cx="127.6" cy="73.3" r="26.1"/>
			<polyline class="st4" points="72,192.7 76.4,144 110,112.7 125.3,112.7 138.1,156.7 173.1,171.5 			"/>
			<polyline class="st5" points="143.7,294.8 144.6,245.7 121.5,190.8 101.6,190 109.7,251.6 94.1,297.2 			"/>
			<line class="st6" x1="114.1" y1="126.1" x2="110.1" y2="190.5"/>
		</g>
		<g class="st2">
			<polygon class="st7" points="325.4,155.8 366.4,96.1 250.8,96.1 250.8,185.6 250.8,215.5 366.4,215.5 			"/>
			<polygon class="st8" points="250.8,215.5 273,185.6 273,66.3 250.8,96.1 			"/>
			<rect x="191" y="66.3" class="st9" width="82" height="119.3"/>
			<rect x="269" y="66.3" class="st9" width="4" height="119.3"/>
			<g class="st10">
				<path class="st11" d="M181.3,60.9v15.9v224c0,2.9,2.4,5.3,5.3,5.3V55.6C183.7,55.6,181.3,58,181.3,60.9z"/>
				<path class="st11" d="M185.7,306.2c2.9,0,5.3-2.4,5.3-5.3v-224v-16c0-2.9-2.4-5.3-5.3-5.3"/>
			</g>
		</g>
	</g>
</g>
<g>
	<rect x="134.4" y="230.7" class="st12" width="7.3" height="16"/>
	<path class="st11" d="M230.5,101.4H198h-32.5c-24.5,0-40.5,18.5-40.5,36.1v84.8c0,16.4,26.9,16.4,26.9,0V144h5.2v213.3
		c0,22.7,36.5,22,37.4,0V234.3h6.1h0.9v123c1.5,23.3,37.4,21.1,37.4-0.1V144h4.3v78.4c0,16.4,27.8,16.4,27.8,0v-84.8
		C271,120,254.9,101.4,230.5,101.4z"/>
</g>
<path class="st11" d="M198,95.6c18.3,0.1,33.1-14.7,33.1-33.1c0-18.3-14.8-33.1-33.1-33.1s-33.1,14.8-33.1,33.1
	C164.9,80.8,179.7,95.6,198,95.6z"/>
<rect x="124.9" y="246.4" class="st11" width="27.3" height="66.8"/>
<rect x="187.9" y="113.1" class="st12" width="19.3" height="9.7"/>
<polygon class="st12" points="191.2,127.3 203.4,127.3 212.1,187.2 197.1,205.3 182.6,187.6 "/>
</svg>
