<?xml version="1.0" encoding="utf-8"?>
<!-- Generator: Adobe Illustrator 21.0.0, SVG Export Plug-In . SVG Version: 6.00 Build 0)  -->
<svg version="1.1" id="Calque_1" xmlns="http://www.w3.org/2000/svg" xmlns:xlink="http://www.w3.org/1999/xlink" x="0px" y="0px"
	 viewBox="0 0 400 400" style="enable-background:new 0 0 400 400;" xml:space="preserve">
<style type="text/css">
	.st0{fill:#FEE5C1;}
	.st1{display:none;fill:#034EA2;}
	.st2{display:none;}
	.st3{display:inline;fill:#034EA2;}
	
		.st4{display:inline;fill:none;stroke:#034EA2;stroke-width:20.5631;stroke-linecap:round;stroke-linejoin:round;stroke-miterlimit:10;}
	
		.st5{display:inline;fill:none;stroke:#034EA2;stroke-width:24.6758;stroke-linecap:round;stroke-linejoin:round;stroke-miterlimit:10;}
	
		.st6{display:inline;fill:none;stroke:#034EA2;stroke-width:45.2389;stroke-linecap:round;stroke-linejoin:round;stroke-miterlimit:10;}
	.st7{display:inline;fill:#F68A50;}
	.st8{display:inline;fill:#F26522;}
	.st9{display:inline;fill:#FAAE81;}
	.st10{display:inline;}
	.st11{fill:#034EA2;}
	.st12{fill:#E4A440;}
</style>
<g id="Calque_1_2_">
	<g id="Calque_1_1_">
		<g id="Calque_2">
			<g>
				<circle class="st0" cx="200" cy="200" r="200"/>
				<path class="st1" d="M355.5,315H40.3c-4.1,0-7.5-3.4-7.5-7.5s3.4-7.5,7.5-7.5h315.1c4.1,0,7.5,3.4,7.5,7.5S359.6,315,355.5,315z
					"/>
				<path class="st1" d="M32.8,307.5c0-4.1,3.4-7.5,7.5-7.5h315.1c4.1,0,7.5,3.4,7.5,7.5"/>
				<g class="st2">
					<circle class="st3" cx="127.6" cy="73.3" r="26.1"/>
					<polyline class="st4" points="72,192.7 76.4,144 110,112.7 125.3,112.7 138.1,156.7 173.1,171.5 					"/>
					<polyline class="st5" points="143.7,294.8 144.6,245.7 121.5,190.8 101.6,190 109.7,251.6 94.1,297.2 					"/>
					<line class="st6" x1="114.1" y1="126.1" x2="110.1" y2="190.5"/>
				</g>
				<g class="st2">
					<polygon class="st7" points="325.4,155.8 366.4,96.1 250.8,96.1 250.8,185.6 250.8,215.5 366.4,215.5 					"/>
					<polygon class="st8" points="250.8,215.5 273,185.6 273,66.3 250.8,96.1 					"/>
					<rect x="191" y="66.3" class="st9" width="82" height="119.3"/>
					<rect x="269" y="66.3" class="st9" width="4" height="119.3"/>
					<g class="st10">
						<path class="st11" d="M181.3,60.9v15.9v224c0,2.9,2.4,5.3,5.3,5.3V55.6C183.7,55.6,181.3,58,181.3,60.9z"/>
						<path class="st11" d="M185.7,306.2c2.9,0,5.3-2.4,5.3-5.3v-224v-16c0-2.9-2.4-5.3-5.3-5.3"/>
					</g>
				</g>
			</g>
		</g>
	</g>
	<g id="Calque_4" class="st2">
		<g class="st10">
			<path class="st12" d="M202.1,49.6c-82.6,0-149.5,66.9-149.5,149.5s66.9,149.5,149.5,149.5s149.5-66.9,149.5-149.5
				S284.7,49.6,202.1,49.6z M202.1,331.7c-72.5,0-131.2-58.7-131.2-131.2S129.7,69.3,202.1,69.3S333.4,128,333.4,200.5
				S274.6,331.7,202.1,331.7z"/>
		</g>
	</g>
	<g id="Calque_5_1_" class="st2">
		<polygon class="st3" points="203.9,152 156,186.8 174.3,243.1 233.5,243.1 251.7,186.8 		"/>
	</g>
	<g id="Calque_8" class="st2">
		<path class="st3" d="M202.8,118.7C202.9,118.7,202.9,118.8,202.8,118.7c0.1,0.1,0.1,0,0.2,0c10.7-10.8,43.8-14,43.8-14l-5-22.1
			c-12.5-3.9-25.8-6.1-39.6-6.1c-13.2,0-25.9,2-37.9,5.6l-5.1,22.6C159.1,104.7,192.2,107.9,202.8,118.7z"/>
		<path class="st3" d="M278.4,175.5c0,0,0,0.1-0.1,0.1c0,0,0.1,0,0.1,0.1c13.4,7.2,25.7,38,25.7,38l19.8-11
			c0.3-13.1-1.4-26.5-5.3-39.7c-3.7-12.7-9.2-24.3-16.1-34.8l-23.1,1.4C279.5,129.6,285.8,162.3,278.4,175.5z"/>
		<path class="st3" d="M125.8,175.5c0,0,0,0.1,0.1,0.1c0,0-0.1,0-0.1,0.1c-13.4,7.2-25.7,38-25.7,38l-19.8-11
			c-0.3-13.1,1.4-26.5,5.3-39.7c3.7-12.7,9.2-24.3,16.1-34.8l23.1,1.4C124.8,129.6,118.5,162.3,125.8,175.5z"/>
		<path class="st3" d="M250.3,266v-0.1h0.1c15,2.5,43.6-14.4,43.6-14.4l8.9,20.8c-7.8,10.5-17.3,20.1-28.5,28.2
			c-10.7,7.8-22.1,13.7-34,17.8L223.1,303C223.1,303,248.1,281,250.3,266z"/>
		<path class="st3" d="M153.3,266v-0.1h-0.1c-15,2.5-43.6-14.4-43.6-14.4l-8.9,20.8c7.8,10.5,17.3,20.1,28.5,28.2
			c10.7,7.8,22.1,13.7,34,17.8l17.4-15.3C180.5,303,155.6,281,153.3,266z"/>
	</g>
</g>
<g id="baby">
	<g id="g1628">
		<g id="g1630">
			<path id="path1632" class="st12" d="M109.5,152.1c17.2,0,31.1-13.9,31.1-31.1s-13.9-31.1-31.1-31.1S78.4,103.8,78.4,121
				S92.3,152.1,109.5,152.1z"/>
			<path id="path1634" class="st12" d="M109.5,120.9"/>
		</g>
		<path id="path1636" class="st12" d="M109.5,217.1h-33v-23.8l-25.2,25.3C40,230.1,24.6,215.5,36,204.1l41.7-41.7
			c3.4-3.4,7.1-5.5,12.9-5.5h18.8l0,0H128c5.9,0,9.8,2.1,13.3,5.5l42.1,42.2c10.8,10.8-5,25.6-15.4,14.6l-25.8-25.9v23.9h-32.7
			V217.1z"/>
		<path id="path1638" class="st12" d="M142,229.5l-24.7,24.7l18.2,18.1l-18.6,18.6c-11,11,4.2,26.7,15.5,15.3l29.4-30.6
			c6.3-6.4,8.1-18.3,1.3-25.1C163.1,250.5,142,229.5,142,229.5z"/>
		<path id="path1640" class="st12" d="M76.6,229.5l24.7,24.7l-18.2,18.1l18.6,18.6c11,11-4.2,26.7-15.5,15.3l-29.4-30.6
			c-6.3-6.4-8.1-18.3-1.3-25.1C55.5,250.5,76.6,229.5,76.6,229.5z"/>
	</g>
</g>
<g id="Calque_3" class="st2">
	<path class="st3" d="M359,126.9c0,2.6-2.1,4.6-4.6,4.6H315L259.1,242c14.6,5.1,20.2,17.7,20.2,17.7h6.9v18.5H202v-6.9
		c0,0,13.9-33.5,47.3-31.2c0.2,0,0.3,0,0.4,0l59.5-117.8l0.1,0.1h45C356.9,122.3,359,124.4,359,126.9z"/>
	<path class="st3" d="M268.1,233.1l50.8-94.7c0,0,23.1,27.7,3.5,65.8S268.1,233.1,268.1,233.1z"/>
</g>
<g id="vacuum">
	<path class="st11" d="M242.7,243c0,0,35.5-71.1,100.5-51.8c30.1,10.8,23.2,44.8,23.2,44.8s-0.5-0.7-1.6-1.8
		C358.1,225,347.2,219,335,219c-20.3,0-36.7,16.4-36.7,36.7c0,8.3,2.7,15.9,7.3,22C226.5,280,242.7,243,242.7,243z"/>
	<path class="st11" d="M183.9,277v7.7c0,2.1,1.7,3.9,3.9,3.9h51.8c2.1,0,3.9-1.7,3.9-3.9V277c0-2.1-1.7-3.9-3.9-3.9h-12.8
		c1.7-15.6,9.3-85.7,12-103.6c3.1-20.1,30.9-29.4,30.9-29.4l41.7-15.5c0,0,12.4-6.2,17,3.9c4.9,10.7-6.2,14.7-6.2,14.7
		s-44.1,16.2-49.5,18.5c-5.4,2.3-7.7,5.4-12.4,14.7c-4.6,9.3,2.3,23.2,2.3,23.2l14.7-8.5c-5.4-13.1,7-16.2,7-16.2l37.9-13.9
		c0,0,30.9-7.7,23.2-34.8c-7.7-27-36.3-17.8-36.3-17.8s0,0-44.8,16.2s-43.3,51-43.3,51l-10.5,97.4h-22.7
		C185.7,273.1,183.9,274.9,183.9,277z"/>
	<circle class="st11" cx="335.4" cy="256.1" r="29.4"/>
</g>
</svg>
