<?xml version="1.0" encoding="utf-8"?>
<!-- Generator: Adobe Illustrator 21.0.0, SVG Export Plug-In . SVG Version: 6.00 Build 0)  -->
<svg version="1.1" xmlns="http://www.w3.org/2000/svg" xmlns:xlink="http://www.w3.org/1999/xlink" x="0px" y="0px"
	 viewBox="0 0 400 400" style="enable-background:new 0 0 400 400;" xml:space="preserve">
<style type="text/css">
	.st0{fill:#FEE5C1;}
	.st1{display:none;fill:#034EA2;}
	.st2{display:none;}
	.st3{display:inline;fill:#034EA2;}
	
		.st4{display:inline;fill:none;stroke:#034EA2;stroke-width:20.5631;stroke-linecap:round;stroke-linejoin:round;stroke-miterlimit:10;}
	
		.st5{display:inline;fill:none;stroke:#034EA2;stroke-width:24.6758;stroke-linecap:round;stroke-linejoin:round;stroke-miterlimit:10;}
	
		.st6{display:inline;fill:none;stroke:#034EA2;stroke-width:45.2389;stroke-linecap:round;stroke-linejoin:round;stroke-miterlimit:10;}
	.st7{display:inline;fill:#F68A50;}
	.st8{display:inline;fill:#F26522;}
	.st9{display:inline;fill:#FAAE81;}
	.st10{display:inline;}
	.st11{fill:#034EA2;}
	.st12{display:inline;fill:#E4A440;}
	.st13{fill:none;}
	.st14{fill:none;stroke:#E6A532;stroke-width:8;stroke-miterlimit:10;}
	.st15{fill:#E4A440;stroke:#034EA2;stroke-width:8;stroke-miterlimit:10;}
	.st16{fill:none;stroke:#034EA2;stroke-width:8;stroke-miterlimit:10;}
</style>
<g id="Calque_1">
	<g id="Calque_1_1_">
		<g id="Calque_2">
			<g>
				<circle class="st0" cx="200" cy="200" r="200"/>
				<path class="st1" d="M355.5,315H40.3c-4.1,0-7.5-3.4-7.5-7.5s3.4-7.5,7.5-7.5h315.1c4.1,0,7.5,3.4,7.5,7.5S359.6,315,355.5,315z
					"/>
				<path class="st1" d="M32.8,307.5c0-4.1,3.4-7.5,7.5-7.5h315.1c4.1,0,7.5,3.4,7.5,7.5"/>
				<g class="st2">
					<circle class="st3" cx="127.6" cy="73.3" r="26.1"/>
					<polyline class="st4" points="72,192.7 76.4,144 110,112.7 125.3,112.7 138.1,156.7 173.1,171.5 					"/>
					<polyline class="st5" points="143.7,294.8 144.6,245.7 121.5,190.8 101.6,190 109.7,251.6 94.1,297.2 					"/>
					<line class="st6" x1="114.1" y1="126.1" x2="110.1" y2="190.5"/>
				</g>
				<g class="st2">
					<polygon class="st7" points="325.4,155.8 366.4,96.1 250.8,96.1 250.8,185.6 250.8,215.5 366.4,215.5 					"/>
					<polygon class="st8" points="250.8,215.5 273,185.6 273,66.3 250.8,96.1 					"/>
					<rect x="191" y="66.3" class="st9" width="82" height="119.3"/>
					<rect x="269" y="66.3" class="st9" width="4" height="119.3"/>
					<g class="st10">
						<path class="st11" d="M181.3,60.9v15.9v224c0,2.9,2.4,5.3,5.3,5.3V55.6C183.7,55.6,181.3,58,181.3,60.9z"/>
						<path class="st11" d="M185.7,306.2c2.9,0,5.3-2.4,5.3-5.3v-224v-16c0-2.9-2.4-5.3-5.3-5.3"/>
					</g>
				</g>
			</g>
		</g>
		<g id="Calque_5" class="st2">
			<path class="st12" d="M162.1,110.6h78.2V91.1h-78.2V110.6z M338,208.3v73.3c0,6.7-2.4,12.5-7.2,17.3s-10.5,7.2-17.3,7.2H88.8
				c-6.7,0-12.5-2.4-17.3-7.2s-7.2-10.5-7.2-17.3v-73.3H167v24.4c0,2.6,1,4.9,2.9,6.9c1.9,1.9,4.2,2.9,6.9,2.9h48.9
				c2.6,0,4.9-1,6.9-2.9c1.9-1.9,2.9-4.2,2.9-6.9v-24.4H338z M220.7,208.3v19.5h-39.1v-19.5H220.7z M338,135v58.6H64.4V135
				c0-6.7,2.4-12.5,7.2-17.3c4.8-4.8,10.5-7.2,17.3-7.2h53.7V86.2c0-4.1,1.4-7.5,4.3-10.4c2.9-2.9,6.3-4.3,10.4-4.3h88
				c4.1,0,7.5,1.4,10.4,4.3s4.3,6.3,4.3,10.4v24.4h53.7c6.7,0,12.5,2.4,17.3,7.2C335.6,122.6,338,128.3,338,135z"/>
		</g>
		<rect x="181.6" y="208.3" class="st1" width="39.1" height="19.5"/>
	</g>
	<g id="Calque_2_1_">
		<g id="Calque_2_2_">
			<g id="bg">
				<rect x="55.4" y="59.4" class="st13" width="289.6" height="289.6"/>
			</g>
			<g id="culture">
				<path class="st11" d="M547.7,115.1V34.7c0-3.8-3.1-6.9-6.9-6.9H421.1c-3.8,0-6.9,3.1-6.9,6.9c0,0,0,0,0,0.1v119.7
					c0,36.8,29.9,66.6,66.6,66.6c9.3,0,18.5-2,27-5.8c2.5-1.7,4-4.4,4-7.4v-27.6c0-5-3.8-2.4-3.8-2.4l0,0c-8.1,5.2-17.5,8-27.1,7.8
					c-21.1,0-38.4-12.1-41.2-27.8c0-1.2,0-4.5,3.5-2l0,0c10.9,8.1,24.1,12.3,37.6,12.1c10,0,19.8-2.3,28.8-6.7
					c1.5-1.3,2.3-3.3,2.1-5.3v-24.5c0-3.8,3.1-6.9,6.9-6.9c0,0,0,0,0.1,0h22.1C543.4,124.3,547.7,122.8,547.7,115.1z M468.8,99.3
					c-9.6,8.3-19,9.6-32.1-0.6c-1.9-2.1,0.7-4.6,0.7-4.6c5.8-4.7,19.3-12.5,31.6,0C469.4,95,470.8,97.6,468.8,99.3z M528.4,98.7
					c-9.4,8.5-18.8,10.5-31.6,1c-3.8-2.7,0-5.8,0-6c6.2-4.7,19.2-11.8,31.1,0.5l0,0C527.9,94.2,530.2,96.7,528.4,98.7z"/>
				<path class="st11" d="M638.1,137h-108c-3.4,0-6.2,2.8-6.3,6.2c0,0,0,0,0,0.1v108.1c0,33.3,27,60.3,60.3,60.3
					c33.3,0,60.3-27,60.3-60.3l0,0V143.2C644.3,139.8,641.5,137,638.1,137L638.1,137z M545,196.6c5.4-4.2,16.9-10.5,27.6-0.2
					c1.5,1.4,1.6,3.7,0.3,5.2l0,0c-8.4,7.3-16.9,8.7-28.4-0.3C542.8,199.3,545,196.6,545,196.6z M618.3,264.8L618.3,264.8
					c-20.4-14.8-48-14.8-68.4,0l0,0c-2.9,2.1-2.9-1.1-2.9-2.1c2.5-14.1,18.2-25,37.1-25c18.9,0,35.2,11.3,37.2,25.9
					C621.4,267.6,618.3,264.8,618.3,264.8z M626.2,201.6c-8.7,7.4-17.2,8.7-29-0.8c-0.9-1.2-0.6-2.9,0.6-3.8c0,0,0.1,0,0.1-0.1
					c5.2-4.2,17.2-11.6,28.3-0.6C626.2,196.6,627.8,200.1,626.2,201.6z"/>
			</g>
		</g>
	</g>
</g>
<g id="Calque_2_3_">
	<line class="st14" x1="101.7" y1="130.7" x2="197.2" y2="130.7"/>
	<polyline class="st15" points="204.1,100.2 100.3,100.2 100.3,305.1 201.5,305.1 200.3,100.6 	"/>
	<line class="st16" x1="150.6" y1="101" x2="150.6" y2="304.9"/>
	<polygon class="st15" points="200.8,109.7 248.9,94.5 307.6,286.2 262.5,300.8 	"/>
	<line class="st16" x1="100.3" y1="150.1" x2="149.4" y2="150.1"/>
	<line class="st16" x1="100.3" y1="167.6" x2="149.4" y2="167.6"/>
	<line class="st16" x1="152.2" y1="176" x2="200.8" y2="176"/>
	<line class="st16" x1="152.2" y1="195" x2="198.7" y2="195"/>
	<line class="st16" x1="210.8" y1="140.9" x2="259.1" y2="125"/>
	<line class="st16" x1="217.5" y1="161.5" x2="264.8" y2="146.3"/>
	<line class="st16" x1="76.4" y1="304.9" x2="332.6" y2="305.1"/>
</g>
</svg>
