<?xml version="1.0" encoding="utf-8"?>
<!-- Generator: Adobe Illustrator 21.0.0, SVG Export Plug-In . SVG Version: 6.00 Build 0)  -->
<svg version="1.1" id="Calque_1" xmlns="http://www.w3.org/2000/svg" xmlns:xlink="http://www.w3.org/1999/xlink" x="0px" y="0px"
	 viewBox="0 0 400 400" style="enable-background:new 0 0 400 400;" xml:space="preserve">
<style type="text/css">
	.st0{fill:#FEE5C1;}
	.st1{display:none;fill:#034EA2;}
	.st2{display:none;}
	.st3{display:inline;fill:#034EA2;}
	
		.st4{display:inline;fill:none;stroke:#034EA2;stroke-width:20.5631;stroke-linecap:round;stroke-linejoin:round;stroke-miterlimit:10;}
	
		.st5{display:inline;fill:none;stroke:#034EA2;stroke-width:24.6758;stroke-linecap:round;stroke-linejoin:round;stroke-miterlimit:10;}
	
		.st6{display:inline;fill:none;stroke:#034EA2;stroke-width:45.2389;stroke-linecap:round;stroke-linejoin:round;stroke-miterlimit:10;}
	.st7{display:inline;fill:#F68A50;}
	.st8{display:inline;fill:#F26522;}
	.st9{display:inline;fill:#FAAE81;}
	.st10{display:inline;}
	.st11{fill:#034EA2;}
	.st12{fill:#E4A440;}
</style>
<g id="Calque_2">
	<g>
		<circle class="st0" cx="200" cy="200" r="200"/>
		<path class="st1" d="M355.5,315H40.3c-4.1,0-7.5-3.4-7.5-7.5s3.4-7.5,7.5-7.5h315.1c4.1,0,7.5,3.4,7.5,7.5S359.6,315,355.5,315z"
			/>
		<path class="st1" d="M32.8,307.5c0-4.1,3.4-7.5,7.5-7.5h315.1c4.1,0,7.5,3.4,7.5,7.5"/>
		<g class="st2">
			<circle class="st3" cx="127.6" cy="73.3" r="26.1"/>
			<polyline class="st4" points="72,192.7 76.4,144 110,112.7 125.3,112.7 138.1,156.7 173.1,171.5 			"/>
			<polyline class="st5" points="143.7,294.8 144.6,245.7 121.5,190.8 101.6,190 109.7,251.6 94.1,297.2 			"/>
			<line class="st6" x1="114.1" y1="126.1" x2="110.1" y2="190.5"/>
		</g>
		<g class="st2">
			<polygon class="st7" points="325.4,155.8 366.4,96.1 250.8,96.1 250.8,185.6 250.8,215.5 366.4,215.5 			"/>
			<polygon class="st8" points="250.8,215.5 273,185.6 273,66.3 250.8,96.1 			"/>
			<rect x="191" y="66.3" class="st9" width="82" height="119.3"/>
			<rect x="269" y="66.3" class="st9" width="4" height="119.3"/>
			<g class="st10">
				<path class="st11" d="M181.3,60.9v15.9v224c0,2.9,2.4,5.3,5.3,5.3V55.6C183.7,55.6,181.3,58,181.3,60.9z"/>
				<path class="st11" d="M185.7,306.2c2.9,0,5.3-2.4,5.3-5.3v-224v-16c0-2.9-2.4-5.3-5.3-5.3"/>
			</g>
		</g>
	</g>
</g>
<g id="Calque_5">
	<path class="st11" d="M74,296.2H60c-5.5,0-10-4.5-10-10v-76.4c0-5.5,4.5-10,10-10h14c5.5,0,10,4.5,10,10v76.4
		C84,291.7,79.5,296.2,74,296.2z"/>
	<path class="st12" d="M90.6,214.1V279c0,0,1.8,3,6,4.2s8.9-2.1,38.7,12.9s53,27.6,63.8,28.8c10.7,1.2,67.3-9.5,74.5-8.3
		s25.6-11.9,29.2-14.3s35.2-18.4,32.2-32.7c-3.8-2.9-7.7,0-7.7,0s9.3-4.8,7.9-13.2c0,0-6.5-13.7-27-5.7c-8,3.6-17.9,12.8-17.9,12.8
		s-5.4,7.7-33.1,9.8s-39.9-2.1-58.1-10.1c5.1,0,13.4-2.7,34-0.6s31,3,31,3s12.8,2.7,17.6-8.9c0,0,9.8-12.8-3.9-20.3
		c-13.7-7.4-30.3-9.5-64.8-12.5c-4.3-2.1-8.5-3-15.4-6s-25.3-17.3-79.5-10.4C99.2,212,90.6,214.1,90.6,214.1z"/>
	<ellipse class="st11" cx="286.3" cy="154.6" rx="62.3" ry="31.3"/>
	<path class="st11" d="M342.4,190.6c-21.5,21.4-56.1,19.6-56.1,19.6s-34.6,1.8-56.1-19.6c-3.2-2.9-8.1-8.5-4.8-18.2
		c0,0,13.3,18.3,60.9,19.7c47.6-1.4,60.9-19.7,60.9-19.7C350.5,182.1,345.5,187.7,342.4,190.6z"/>
	<g>
		<path class="st11" d="M347.1,196.8c0,0-13.3,18.3-60.9,19.7c-47.6-1.4-60.9-19.7-60.9-19.7c-3.4,9.7,1.6,15.3,4.8,18.2
			c1.1,1.1,2.2,2.1,3.4,3.1c4.9-0.2,10.2,0,15.7,0.7c17.7,2.1,32.5,8.5,39,15.8c7.6,0,35.7-1.3,54.1-19.6
			C345.5,212.1,350.5,206.6,347.1,196.8z"/>
	</g>
	<g>
		<ellipse class="st11" cx="181.7" cy="106.9" rx="62.3" ry="31.3"/>
		<path class="st11" d="M120.8,124.7c-3.4,9.7,1.6,15.3,4.8,18.2c21.5,21.4,56.1,19.6,56.1,19.6s17.7,0.9,35.6-6.3
			c0-0.4,0-0.9,0-1.3c0-7.7,3.6-14.6,9.1-19.1c-9.4,4.2-23.7,8-44.7,8.7C134.1,143,120.8,124.7,120.8,124.7z"/>
		<path class="st11" d="M181.7,168.8c-47.6-1.4-60.9-19.7-60.9-19.7c-3.4,9.7,1.6,15.3,4.8,18.2c21.5,21.4,56.1,19.6,56.1,19.6
			s18.1,0.9,36.3-6.6c-0.1-0.8-0.1-1.6-0.1-2.4c0-3.9,0.9-7.7,2.6-11c-0.7-1.2-1.3-2.5-1.8-3.8C209.7,166,197.6,168.4,181.7,168.8z"
			/>
		<path class="st11" d="M219.3,186.1c-9.1,3-21.3,5.5-37.6,5.9c-47.6-1.4-60.9-19.7-60.9-19.7c-3.4,9.7,1.6,15.3,4.8,18.2
			c2.3,2.3,4.8,4.4,7.4,6.2c8-1.7,17.8-2.1,28.2-0.8c15.5,1.9,28.8,7,36.3,13.2c5.9-0.9,12.9-2.5,19.9-5.3c-0.1-0.8-0.1-1.7-0.1-2.5
			c0-4.4,1.2-8.6,3.3-12.2C220.1,188.1,219.6,187.1,219.3,186.1z"/>
		<path class="st11" d="M220.5,166.9c1.1-2.2,2.6-4.3,4.3-6c-1.8,0.8-3.8,1.5-6,2.2C219.2,164.4,219.8,165.7,220.5,166.9z"/>
	</g>
</g>
</svg>
