<?xml version="1.0" encoding="utf-8"?>
<!-- Generator: Adobe Illustrator 21.0.0, SVG Export Plug-In . SVG Version: 6.00 Build 0)  -->
<svg version="1.1" id="Calque_1" xmlns="http://www.w3.org/2000/svg" xmlns:xlink="http://www.w3.org/1999/xlink" x="0px" y="0px"
	 viewBox="0 0 400 400" style="enable-background:new 0 0 400 400;" xml:space="preserve">
<style type="text/css">
	.st0{fill:#FEE5C1;}
	.st1{display:none;fill:#034EA2;}
	.st2{display:none;}
	.st3{display:inline;fill:#034EA2;}
	
		.st4{display:inline;fill:none;stroke:#034EA2;stroke-width:20.5631;stroke-linecap:round;stroke-linejoin:round;stroke-miterlimit:10;}
	
		.st5{display:inline;fill:none;stroke:#034EA2;stroke-width:24.6758;stroke-linecap:round;stroke-linejoin:round;stroke-miterlimit:10;}
	
		.st6{display:inline;fill:none;stroke:#034EA2;stroke-width:45.2389;stroke-linecap:round;stroke-linejoin:round;stroke-miterlimit:10;}
	.st7{display:inline;fill:#F68A50;}
	.st8{display:inline;fill:#F26522;}
	.st9{display:inline;fill:#FAAE81;}
	.st10{display:inline;}
	.st11{fill:#034EA2;}
	.st12{fill:#F68B1F;}
	.st13{display:inline;fill:#F68B1F;}
	.st14{display:inline;fill:#C1BA3A;}
	.st15{fill:#E4A440;}
	.st16{fill:none;}
</style>
<g id="Calque_1_2_">
	<g id="Calque_2">
		<g>
			<circle class="st0" cx="200" cy="200" r="200"/>
			<path class="st1" d="M355.5,315H40.3c-4.1,0-7.5-3.4-7.5-7.5s3.4-7.5,7.5-7.5h315.1c4.1,0,7.5,3.4,7.5,7.5S359.6,315,355.5,315z"
				/>
			<path class="st1" d="M32.8,307.5c0-4.1,3.4-7.5,7.5-7.5h315.1c4.1,0,7.5,3.4,7.5,7.5"/>
			<g class="st2">
				<circle class="st3" cx="127.6" cy="73.3" r="26.1"/>
				<polyline class="st4" points="72,192.7 76.4,144 110,112.7 125.3,112.7 138.1,156.7 173.1,171.5 				"/>
				<polyline class="st5" points="143.7,294.8 144.6,245.7 121.5,190.8 101.6,190 109.7,251.6 94.1,297.2 				"/>
				<line class="st6" x1="114.1" y1="126.1" x2="110.1" y2="190.5"/>
			</g>
			<g class="st2">
				<polygon class="st7" points="325.4,155.8 366.4,96.1 250.8,96.1 250.8,185.6 250.8,215.5 366.4,215.5 				"/>
				<polygon class="st8" points="250.8,215.5 273,185.6 273,66.3 250.8,96.1 				"/>
				<rect x="191" y="66.3" class="st9" width="82" height="119.3"/>
				<rect x="269" y="66.3" class="st9" width="4" height="119.3"/>
				<g class="st10">
					<path class="st11" d="M181.3,60.9v15.9v224c0,2.9,2.4,5.3,5.3,5.3V55.6C183.7,55.6,181.3,58,181.3,60.9z"/>
					<path class="st11" d="M185.7,306.2c2.9,0,5.3-2.4,5.3-5.3v-224v-16c0-2.9-2.4-5.3-5.3-5.3"/>
				</g>
			</g>
		</g>
	</g>
	<g id="Calque_1_1_" class="st2">
		<path class="st3" d="M130.1,122.1h64.1c0,0-0.8-35.5-44-49.1C132.7,115.2,130.1,122.1,130.1,122.1z"/>
		<g class="st10">
			<path class="st12" d="M194.3,127.8c-3.5,28.8-29.4,51.2-60.8,51.2s-57.3-22.4-60.8-51.2h0.1c-0.1-1.7-0.5-4.6-2.3-8
				c-1.2,5.2-8.8,3.9-8.8,3.9s-6.8-1.7-6.3-9.5c0.4-7.8,11.5-8.7,17.1-5.4c11.9,6.1,11.6,18.6,11.6,18.9L194.3,127.8L194.3,127.8z"
				/>
		</g>
		<g class="st10">
			<path class="st11" d="M166.7,171.8c-9.2,0-16.6,7.5-16.6,16.6s7.5,16.6,16.6,16.6c9.2,0,16.6-7.5,16.6-16.6
				S175.9,171.8,166.7,171.8z M166.7,194.5c-3.3,0-6-2.7-6-6s2.7-6,6-6s6,2.7,6,6S170,194.5,166.7,194.5z"/>
			<g>
				<path class="st11" d="M100.5,171.8c-9.2,0-16.6,7.5-16.6,16.6s7.5,16.6,16.6,16.6s16.6-7.5,16.6-16.6S109.7,171.8,100.5,171.8z
					 M100.5,194.5c-3.3,0-6-2.7-6-6s2.7-6,6-6s6,2.7,6,6S103.9,194.5,100.5,194.5z"/>
			</g>
		</g>
		<g class="st10">
			<path class="st11" d="M339,141.9c0,19.1-12.2,35.4-29.2,41.6c-4.7,1.7-9.7,2.6-15,2.6c-5,0-9.9-0.8-14.4-2.4
				c-17.4-6-29.9-22.4-29.9-41.8c0-8.9,2.6-17.2,7.2-24.1c5.1,1.3,9.8,3.6,14,6.6c-3.7,4.9-5.9,10.9-5.9,17.5
				c0,13.4,9.1,24.7,21.5,28.1c2.4,0.7,5,1,7.6,1c6.6,0,12.7-2.2,17.6-5.9c7-5.3,11.5-13.7,11.5-23.2c0-16.1-13-29.1-29.1-29.1
				c-0.3,0-0.6,0-0.9,0c-4.1-4.8-8.8-9-14-12.6c4.6-1.6,9.6-2.5,14.7-2.5C319.2,97.7,339,117.5,339,141.9z"/>
		</g>
		<g class="st10">
			<path class="st12" d="M210.7,141.8c0-19.1,12.2-35.4,29.2-41.6c4.7-1.7,9.7-2.6,15-2.6c5,0,9.9,0.8,14.4,2.4
				c17.4,6,29.9,22.4,29.9,41.8c0,8.9-2.6,17.2-7.2,24.1c-5.1-1.3-9.8-3.6-14-6.6c3.7-4.9,5.9-10.9,5.9-17.5
				c0-13.4-9.1-24.7-21.5-28.1c-2.4-0.7-5-1-7.6-1c-6.6,0-12.7,2.2-17.6,5.9c-7,5.3-11.5,13.7-11.5,23.2c0,16.1,13,29.1,29.1,29.1
				c0.3,0,0.6,0,0.9,0c4.1,4.8,8.8,9,14,12.6c-4.6,1.6-9.6,2.5-14.7,2.5C230.5,186,210.7,166.2,210.7,141.8z"/>
		</g>
	</g>
	<g id="elder" class="st2">
		<path class="st3" d="M270.6,317.9L270.6,317.9c-3.2,0-5.9-2.6-5.9-5.9v-22.7c0-3.2,2.6-5.9,5.9-5.9l0,0c3.2,0,5.9,2.6,5.9,5.9V312
			C276.4,315.3,273.8,317.9,270.6,317.9z"/>
		<path class="st3" d="M271.4,295L271.4,295c-3.2,0.5-6.2-1.8-6.6-5l-3.5-24.5c-0.5-3.2,1.8-6.2,5-6.6l0,0c3.2-0.5,6.2,1.8,6.6,5
			l3.5,24.5C276.8,291.5,274.6,294.5,271.4,295z"/>
		<path class="st3" d="M249.4,318L249.4,318c3.2,0,5.9-2.6,5.9-5.9v-22.7c0-3.2-2.6-5.9-5.9-5.9l0,0c-3.2,0-5.9,2.6-5.9,5.9v22.7
			C243.6,315.4,246.2,318,249.4,318z"/>
		<path class="st3" d="M248.6,294.4L248.6,294.4c3.2,0.5,6.2-1.8,6.6-5l3.5-24.5c0.5-3.2-1.8-6.2-5-6.6l0,0c-3.2-0.5-6.2,1.8-6.6,5
			l-3.5,24.5C243.2,291,245.4,294,248.6,294.4z"/>
		<g class="st10">
			<path class="st11" d="M286.5,249.3c0,0-1.7-4.9-3.8-8c-2.1-3.1-6.5-9.2-10.6-10.1c-0.6-0.1-1.5-0.2-2.6-0.3c-1.5,4.1-5.3,7-9.9,7
				c-4.5,0-8.4-2.9-9.9-6.9c-0.7,0-1.1,0-1.1,0s-7.8,2.1-11.1,5.6c-3.2,3.6-5.8,5.8-7.4,16.3c-1,2.4-0.6,8.9,3.6,9
				c2.5,0,3.1-4.3,3.1-4.3l0.2-3.3c0,0,0.2-9.8,9.6-14.8c0.1,0,0.1-0.1,0.2-0.1c-0.1,0.5-0.1,1-0.1,1.6v19.8c0,5.5,4.5,10,10,10h5.7
				c5.5,0,10-4.5,10-10v-19c0.3,0.1,0.4,0.2,0.4,0.2s6.2,3.8,7.6,17.4c0.3,3.2,0.1,8.6,4.7,8.3C289.8,267.4,286.5,249.3,286.5,249.3
				z"/>
		</g>
		<circle class="st3" cx="259.4" cy="227.1" r="9.7"/>
		<path id="canne_4_" class="st3" d="M225.1,261.5v53.1c0,1,0.9,1.9,1.9,1.9c1.1,0,1.9-0.9,1.9-1.9v-52.8l0,0c0-0.1,0-0.2,0-0.3v0.3
			c0.2-1.1,1.1-3.2,4-3.2s4.8,1.5,5.2,4s2.5,1.7,2.5,1.7c1.7,0.2,1.2-3.1,1.2-3.1s-0.2-6.6-8.4-6.8c-6.7-0.1-8,4.7-8.3,6.4
			C225.1,261.3,225.1,261.5,225.1,261.5z"/>
		<g class="st10">
			<path class="st12" d="M338.3,259.7c-1.6-10.5-4.1-12.7-7.4-16.3c-3.2-3.6-9-5.5-9-5.5s-0.8-0.1-2.1-0.2c-0.6,0-1.2-0.1-1.9-0.2
				c-0.3,0-0.7,0-1-0.1c-1.8,2.5-4.7,4.2-8,4.2c-3.4,0-6.4-1.7-8.1-4.3c-1.9,0.1-3.5,0.3-4.4,0.6c-4.1,1.2-8.5,7-10.6,10.1
				s-3.8,8-3.8,8s-3.6,12.9,1.1,13.2c4.6,0.2,5-2,5-3.1c1.3-13.6,7.6-17.4,7.6-17.4s0,0,0.1,0l-0.1,0.2c0,0-4.8,25.6-4.6,40.6
				c1.1,0,2.5,1,4.7,2.2c-0.1,0.3-0.1,0.6-0.1,0.9v19.6c0,2.8,2.3,5,5,5s5-2.3,5-5v-17.6c2,0.1,4.3,0.1,6.9-0.4v18c0,2.8,2.3,5,5,5
				s5-2.3,5-5v-19.6c0-0.4-0.1-0.8-0.1-1.2c1.4-0.6,2.9-1.2,4.5-1.9c-0.8-15.3-2.5-32.2-4.7-43c8.9,5.1,9.2,14.6,9.2,14.6l0.2,3.3
				c0,0,0.9,2.9,3.3,2.9C339.2,267.3,338.7,261.6,338.3,259.7z"/>
		</g>
		<g class="st10">
			<path class="st12" d="M314.3,223.1c-0.5,2.6-2.7,4.5-5.4,4.5c-2.7,0-5-2-5.4-4.6c-2.6,1.7-4.3,4.7-4.3,8.1c0,5.4,4.3,9.7,9.7,9.7
				c5.4,0,9.7-4.3,9.7-9.7C318.5,227.7,316.9,224.8,314.3,223.1z"/>
			<path class="st12" d="M314.3,222.4c0.1-0.3,0.1-0.6,0.1-1c0-3-2.5-5.5-5.5-5.5s-5.5,2.5-5.5,5.5c0,0.3,0,0.6,0.1,0.9
				c1.5-1,3.4-1.6,5.4-1.6C310.9,220.7,312.8,221.3,314.3,222.4z"/>
			<path class="st12" d="M308.9,227.6c2.7,0,5-2,5.4-4.5c-1.6-1.1-3.4-1.7-5.5-1.7c-2,0-3.8,0.6-5.4,1.6
				C303.9,225.6,306.2,227.6,308.9,227.6z"/>
		</g>
		<path id="canne_1_" class="st13" d="M342.7,267.1v48.1c0,0.9-0.8,1.7-1.7,1.7c-0.9,0-1.7-0.8-1.7-1.7v-47.8l0,0c0-0.1,0-0.2,0-0.3
			v0.3c-0.2-1-1-2.9-3.6-2.9s-4.3,1.4-4.7,3.6c-0.3,2.2-2.2,1.6-2.2,1.6c-1.5,0.2-1.1-2.8-1.1-2.8s0.2-6,7.6-6.1
			c6-0.1,7.2,4.3,7.4,5.8C342.7,266.9,342.7,267.1,342.7,267.1z"/>
		<path class="st13" d="M339.3,267.4L339.3,267.4v-0.3C339.3,267.2,339.3,267.3,339.3,267.4z"/>
		<path class="st13" d="M342.7,266.9v0.1c0,0,0-0.2-0.1-0.5C342.7,266.7,342.7,266.8,342.7,266.9z"/>
		<path class="st14" d="M339.3,267.4L339.3,267.4v-0.3C339.3,267.2,339.3,267.3,339.3,267.4z"/>
	</g>
	<g id="Calque_3" class="st2">
		<rect x="53.6" y="304.6" class="st3" width="153" height="13.5"/>
		<g class="st10">
			<path class="st12" d="M151.4,241.5l-12.7,36.9l2.8-47.1c-4-0.7-8-0.8-12.2-0.8s-9,0.8-13,1.5l3.7,46.5l-12.7-36.9
				c-25.4,8.7-43.6,32-43.6,59.5h131.2C194.9,273.5,176.8,250.2,151.4,241.5z"/>
		</g>
	</g>
</g>
<g id="Calque_2_1_">
	<g>
		<rect x="137.8" y="121.1" class="st15" width="122.2" height="20.1"/>
		<g>
			<path class="st16" d="M199.7,254.4c25.6,0,46.8,19,50.2,43.7h40.8V94.4H107.3v203.7h42.3C152.9,273.4,174.1,254.4,199.7,254.4z"
				/>
			<path class="st11" d="M299.8,74H98.1c-6.1,0-11.2,5.1-11.2,11.2v222.1c0,6.1,5.1,11.2,11.2,11.2h52.8c-1.2-4.3-1.8-8.8-1.8-13.5
				c0-2.4,0.2-4.7,0.5-6.9h-42.3V94.4h183.4v203.7h-40.8c0.3,2.3,0.5,4.6,0.5,6.9c0,4.7-0.6,9.2-1.8,13.5h51.3
				c6.1,0,11.2-5.1,11.2-11.2V85.2C311,79.1,305.9,74,299.8,74z"/>
		</g>
		<path class="st11" d="M178,341.2v49.3l21.4-10.7l21.4,10.7v-49.3c12.9-7.5,21.4-21.4,21.4-36.4c0-23.6-19.3-42.9-42.9-42.9
			s-42.9,19.3-42.9,42.9C156.6,320.8,165.2,334.8,178,341.2z M210.2,372.3l-10.7-5.4l-10.7,5.4v-25.7c3.2,1.1,7.5,1.1,10.7,1.1
			s7.5-1.1,10.7-1.1V372.3z M199.5,272.6c18.2,0,32.1,13.9,32.1,32.1s-13.9,32.1-32.1,32.1s-32.1-13.9-32.1-32.1
			C167.3,286.5,181.3,272.6,199.5,272.6z"/>
		<rect x="137.8" y="156.7" class="st15" width="122.2" height="20.1"/>
		<rect x="137.8" y="190.7" class="st15" width="122.2" height="20.1"/>
		<rect x="137.8" y="224.9" class="st15" width="122.2" height="20.1"/>
	</g>
</g>
</svg>
