<?xml version="1.0" encoding="utf-8"?>
<!-- Generator: Adobe Illustrator 21.0.0, SVG Export Plug-In . SVG Version: 6.00 Build 0)  -->
<svg version="1.1" id="Calque_1" xmlns="http://www.w3.org/2000/svg" xmlns:xlink="http://www.w3.org/1999/xlink" x="0px" y="0px"
	 viewBox="0 0 400 400" style="enable-background:new 0 0 400 400;" xml:space="preserve">
<style type="text/css">
	.st0{fill:#FEE5C1;}
	.st1{display:none;fill:#034EA2;}
	.st2{display:none;}
	.st3{display:inline;fill:#034EA2;}
	
		.st4{display:inline;fill:none;stroke:#034EA2;stroke-width:20.5631;stroke-linecap:round;stroke-linejoin:round;stroke-miterlimit:10;}
	
		.st5{display:inline;fill:none;stroke:#034EA2;stroke-width:24.6758;stroke-linecap:round;stroke-linejoin:round;stroke-miterlimit:10;}
	
		.st6{display:inline;fill:none;stroke:#034EA2;stroke-width:45.2389;stroke-linecap:round;stroke-linejoin:round;stroke-miterlimit:10;}
	.st7{display:inline;fill:#F68A50;}
	.st8{display:inline;fill:#F26522;}
	.st9{display:inline;fill:#FAAE81;}
	.st10{display:inline;}
	.st11{fill:#034EA2;}
	.st12{fill:#E4A440;}
</style>
<g id="Calque_1_1_">
	<g id="Calque_2">
		<g>
			<circle class="st0" cx="200" cy="200" r="200"/>
			<path class="st1" d="M355.5,315H40.3c-4.1,0-7.5-3.4-7.5-7.5s3.4-7.5,7.5-7.5h315.1c4.1,0,7.5,3.4,7.5,7.5S359.6,315,355.5,315z"
				/>
			<path class="st1" d="M32.8,307.5c0-4.1,3.4-7.5,7.5-7.5h315.1c4.1,0,7.5,3.4,7.5,7.5"/>
			<g class="st2">
				<circle class="st3" cx="127.6" cy="73.3" r="26.1"/>
				<polyline class="st4" points="72,192.7 76.4,144 110,112.7 125.3,112.7 138.1,156.7 173.1,171.5 				"/>
				<polyline class="st5" points="143.7,294.8 144.6,245.7 121.5,190.8 101.6,190 109.7,251.6 94.1,297.2 				"/>
				<line class="st6" x1="114.1" y1="126.1" x2="110.1" y2="190.5"/>
			</g>
			<g class="st2">
				<polygon class="st7" points="325.4,155.8 366.4,96.1 250.8,96.1 250.8,185.6 250.8,215.5 366.4,215.5 				"/>
				<polygon class="st8" points="250.8,215.5 273,185.6 273,66.3 250.8,96.1 				"/>
				<rect x="191" y="66.3" class="st9" width="82" height="119.3"/>
				<rect x="269" y="66.3" class="st9" width="4" height="119.3"/>
				<g class="st10">
					<path class="st11" d="M181.3,60.9v15.9v224c0,2.9,2.4,5.3,5.3,5.3V55.6C183.7,55.6,181.3,58,181.3,60.9z"/>
					<path class="st11" d="M185.7,306.2c2.9,0,5.3-2.4,5.3-5.3v-224v-16c0-2.9-2.4-5.3-5.3-5.3"/>
				</g>
			</g>
		</g>
	</g>
	<g id="plateau" class="st2">
		<g class="st10">
			<path class="st11" d="M111.4,285.1c29,0,54.7-6,71.1-15.3H40.4C56.7,279.1,82.5,285.1,111.4,285.1z"/>
		</g>
		<g class="st10">
			<path class="st11" d="M286.4,285.1c29,0,54.7-6,71.1-15.3H215.4C231.7,279.1,257.5,285.1,286.4,285.1z"/>
		</g>
	</g>
</g>
<g id="Calque_2_1_">
	<path class="st11" d="M54.1,135.8l-5-5c0,0,3.7-49.9,41.8-82.5c41.5-37.5,88-11.5,88-11.5s-50.8,0.9-76.6,24.5
		C71.5,85.3,54.1,135.8,54.1,135.8z"/>
	<path class="st11" d="M64.4,149.4c0,0,9.3,9.6,14.6,11.2c2.5-9.9,14.6-50.2,37.8-71s49.8-34.4,89.2-31.9c-2.4-2.5-4.5-4.3-4.5-4.3
		s-58-16.4-98.3,25.1C69.9,112.8,64.4,149.4,64.4,149.4z"/>
	<path class="st11" d="M90.8,166.4c0,0,20.5-111.4,126.3-94.4c17.8,22.9,19.8,56,19.8,56s0.6,23.6-41.1,32
		c-20.7,4.8-49.2,3.1-49.2,3.1s-6.2-0.6-14.9,2.7S107.3,173.4,90.8,166.4z"/>
	<path class="st11" d="M45.5,147.6c0,0-27.7,13.6-28.9,24.6c-1.2,11,8.1,25.2,28.1,37.8c20,12.6,48.2,11.8,59.5,6.4
		c11.4-5.4,19-12,24.2-18c5.2-6,9.9-6.2,17.4-4.8c7.4,1.4,67.2,14.5,103.3-38.6c-10.1-5.2-14.1-7.9-14.1-7.9s-17.2,30.6-77.7,30
		c-7.9-0.4-19.2-1.2-22.1,0c-2.9,1.2-24.2,12.4-51.5,1.9C60.4,169.7,45.5,147.6,45.5,147.6z"/>
</g>
<g id="Calque_3">
	<g id="briefcase">
		<g id="Calque_5_1_">
			<g>
				<path class="st12" d="M241.6,213.6h46.9v-11.6h-46.9V213.6z M347.1,272.1v44c0,4.1-1.5,7.6-4.3,10.4c-3,3-6.4,4.3-10.4,4.3H198
					c-4.1,0-7.6-1.5-10.4-4.3s-4.3-6.4-4.3-10.4v-44h61.5v14.6c0,1.5,0.6,3,1.8,4.1c1.2,1.2,2.6,1.8,4.1,1.8h29c1.5,0,3-0.6,4.1-1.8
					c1.2-1.2,1.8-2.6,1.8-4.1v-14.6H347.1L347.1,272.1z M276.9,272.1v11.7h-23.3v-11.6L276.9,272.1L276.9,272.1z M347.1,228.2v34.9
					H183.4v-34.9c0-4.1,1.5-7.6,4.3-10.4c2.9-2.9,6.4-4.3,10.4-4.3h32.1v-14.6c0-2.3,0.8-4.3,2.6-6.1c1.8-1.8,3.8-2.6,6.1-2.6h52.7
					c2.3,0,4.3,0.8,6.1,2.6c1.8,1.8,2.6,3.8,2.6,6.1v14.6h32.1c4.1,0,7.6,1.5,10.4,4.3C345.6,220.9,347.1,224.4,347.1,228.2z"/>
			</g>
		</g>
		<rect x="253.6" y="272.1" class="st11" width="23.3" height="11.6"/>
	</g>
</g>
</svg>
