<?xml version="1.0" encoding="utf-8"?>
<!-- Generator: Adobe Illustrator 21.0.0, SVG Export Plug-In . SVG Version: 6.00 Build 0)  -->
<svg version="1.1" id="Calque_1" xmlns="http://www.w3.org/2000/svg" xmlns:xlink="http://www.w3.org/1999/xlink" x="0px" y="0px"
	 viewBox="0 0 400 400" style="enable-background:new 0 0 400 400;" xml:space="preserve">
<style type="text/css">
	.st0{fill:#FEE5C1;}
	.st1{fill:#F68B1F;}
	.st2{fill:#E4A440;}
	.st3{fill:#134391;}
	.st4{fill:none;stroke:#E4A440;stroke-width:7;stroke-miterlimit:10;}
</style>
<g>
	<circle class="st0" cx="201" cy="200" r="200"/>
	<g>
		<polygon class="st1" points="116.2,220.6 116.2,220.6 114.8,220.6 102.1,220.6 102.1,220.6 		"/>
		<g>
			<rect x="106.7" y="263" class="st2" width="22.5" height="0.1"/>
			<polygon class="st2" points="158.8,240.6 158.8,240.5 144,240.5 129.2,240.5 129.2,240.6 144,240.6 			"/>
			<rect x="158.8" y="263" class="st2" width="22.5" height="0.1"/>
			<path class="st2" d="M217.5,220.4h-29.9h-1.7h-14.1H144h-27.8h-14.1h-1.7H70.5c-6,0-11.1,4.8-11.1,10.8v93.2
				c0,6,5.1,10.8,11.1,10.8H144h73.5c6,0,11.1-4.8,11.1-10.8v-93.2C228.6,225.2,223.5,220.4,217.5,220.4z M181.3,263.1v29.6v0.1
				h-22.5v22.3v0.1H144h-14.8v-0.1v-22.3h-22.5v-0.1v-29.6V263h22.5v-22.4v-0.1H144h14.8v0.1V263L181.3,263.1L181.3,263.1z"/>
			<rect x="158.8" y="292.7" class="st2" width="22.5" height="0.1"/>
			<rect x="106.7" y="292.7" class="st2" width="22.5" height="0.1"/>
			<polygon class="st2" points="129.2,315.1 129.2,315.2 144,315.2 158.8,315.2 158.8,315.1 144,315.1 			"/>
		</g>
		<path class="st2" d="M166.3,182.7H144h-22.3c-8.3,0-15.1,6.8-15.1,15.1v22.7H118h1.3v-22.7c0-1.4,1.1-2.5,2.5-2.5H144h22.2
			c1.4,0,2.5,1.1,2.5,2.5v22.7h1.3h11.4v-22.7C181.4,189.5,174.6,182.7,166.3,182.7z"/>
	</g>
	<g>
		<path class="st3" d="M317.3,68.8L303,64.6c-3.8-1.1-5.4-4.9-3.6-8.4l6-11.6c1.8-3.5,6-4.6,9.3-2.4l12.6,8.3
			c2.6,1.7,3.8,4.9,3.3,7.8l-3.3,6.8C325.3,68.2,320.9,69.9,317.3,68.8z"/>
		<path class="st3" d="M228,50.4l12.6-8.3c3.3-2.2,7.4-1.1,9.3,2.4l6,11.6c1.8,3.5,0.2,7.3-3.6,8.4L238,68.8c-3.6,1.1-8-0.7-10-3.8
			l-3.3-6.8C224.2,55.3,225.4,52.1,228,50.4z"/>
		<path class="st2" d="M327.3,65l3.3-6.8c6.9,6.3,18.3,21.8,14.8,52.6l-7-1.1C341.2,84.3,333,71,327.3,65z"/>
		<path class="st2" d="M224.7,58.2L228,65c-5.7,6-13.9,19.3-11.1,44.8l-7,1.1C206.5,80.1,217.9,64.6,224.7,58.2z"/>
		<path class="st3" d="M330,117.4c1.1-4.1,4.5-6.9,8.3-7.6l7,1.1c4.3,2.3,6.6,7.4,5.3,12.3c-0.7,2.4-11.9,42.1-36.3,65l-11.9-18.4
			C317,154.5,326.7,129.6,330,117.4z"/>
		<path class="st3" d="M204.7,123.1c-1.4-4.9,1-10,5.3-12.3l7-1.1c3.9,0.7,7.2,3.6,8.3,7.6c3.4,12.3,13.3,37.8,28.1,53l-11.2,18.9
			C216.9,166.6,205.3,125.5,204.7,123.1z"/>
		<path class="st2" d="M251.4,202.8c-5.3-2.8-8.5-7.9-9.3-13.5l11.2-18.9c4.7-1.8,10.1-1.7,14.8,0.8c3.1,1.7,6.2,2.5,9.3,2.6h0.6
			c3.3-0.1,6.5-1,9.8-2.8c4.7-2.6,10-2.8,14.6-1.2l11.9,18.4c-0.5,5.7-3.7,11-9,14c-4.4,2.5-9,4.3-13.7,5.5l-21.9,1.2
			C263.5,208,257.3,206,251.4,202.8z"/>
		<path class="st4" d="M282.1,206.3c-1.2,15.4,11.8,37.8,15.6,44.3c3.8,6.5,17.2,60.4-49.4,60.4s-55.8-58.9-53.9-72.4
			s20.3-64.8-13.9-90.2"/>
		<circle class="st3" cx="148.3" cy="129.9" r="37.5"/>
		<circle class="st1" cx="148.3" cy="129.9" r="15.8"/>
	</g>
</g>
</svg>
