<?xml version="1.0" encoding="utf-8"?>
<!-- Generator: Adobe Illustrator 21.0.0, SVG Export Plug-In . SVG Version: 6.00 Build 0)  -->
<svg version="1.1" id="Calque_1" xmlns="http://www.w3.org/2000/svg" xmlns:xlink="http://www.w3.org/1999/xlink" x="0px" y="0px"
	 viewBox="0 0 400 400" style="enable-background:new 0 0 400 400;" xml:space="preserve">
<style type="text/css">
	.st0{fill:#FEE5C1;}
	.st1{fill:#FFFFFF;}
	.st2{fill:#034EA2;stroke:#034EA2;stroke-width:11.9416;stroke-linecap:round;stroke-linejoin:round;stroke-miterlimit:10;}
	.st3{fill:#034EA2;}
	.st4{fill:none;stroke:#034EA2;stroke-width:10.856;stroke-linecap:round;stroke-linejoin:round;stroke-miterlimit:10;}
	.st5{fill:none;stroke:#034EA2;stroke-width:29.7767;stroke-linecap:round;stroke-linejoin:round;stroke-miterlimit:10;}
	.st6{fill:none;stroke:#034EA2;stroke-width:13.5134;stroke-linecap:round;stroke-linejoin:round;stroke-miterlimit:10;}
	.st7{fill:none;stroke:#034EA2;stroke-width:13.5349;stroke-linecap:round;stroke-linejoin:round;stroke-miterlimit:10;}
	.st8{fill:none;stroke:#034EA2;stroke-width:16.2418;stroke-linecap:round;stroke-linejoin:round;stroke-miterlimit:10;}
	.st9{fill:none;stroke:#034EA2;stroke-width:9.236;stroke-linecap:round;stroke-linejoin:round;stroke-miterlimit:10;}
	.st10{fill:none;stroke:#034EA2;stroke-width:20.3192;stroke-linecap:round;stroke-linejoin:round;stroke-miterlimit:10;}
	.st11{fill:none;stroke:#034EA2;stroke-width:11.0832;stroke-linecap:round;stroke-linejoin:round;stroke-miterlimit:10;}
	.st12{fill:#E4A440;}
	.st13{fill:#034EA2;stroke:#034EA2;stroke-miterlimit:10;}
</style>
<g>
	<circle class="st0" cx="200" cy="200" r="200"/>
	<g>
		<g>
			<g>
				<polygon class="st1" points="294,153.8 294,79.9 247,79.9 247,125.6 				"/>
				<g>
					<g>
						<polygon id="XMLID_2_" class="st1" points="188.2,73.2 64.3,147.6 64.3,313.1 312.1,313.1 312.1,147.6 						"/>
						<g>
							<g id="XMLID_3_">
								<polygon id="XMLID_14_" class="st2" points="248.9,227.6 240.9,229.6 233,227.6 223,255.4 238.2,255.4 243.6,255.4 
									258.9,255.4 								"/>
								<g id="XMLID_4_">
									<g id="XMLID_8_">
										<g id="XMLID_9_">
											<g id="XMLID_10_">
												<circle id="XMLID_13_" class="st3" cx="241.3" cy="154.5" r="17.2"/>
												<polyline id="XMLID_12_" class="st4" points="214.4,232.7 225.2,187 239.5,180 239.5,180 												"/>
												<line id="XMLID_11_" class="st5" x1="240.8" y1="191.5" x2="240.8" y2="231.6"/>
											</g>
										</g>
									</g>
									<polyline id="XMLID_7_" class="st6" points="230.3,298.4 234.3,233.8 240.8,228.6 									"/>
									<polyline id="XMLID_6_" class="st4" points="267.2,232.7 256.5,187 242.2,180 242.2,180 									"/>
									<polyline id="XMLID_5_" class="st6" points="251.4,298.4 247.4,233.8 240.8,228.6 									"/>
								</g>
							</g>
							<g id="XMLID_15_">
								<g id="XMLID_19_">
									<g id="XMLID_20_">
										<g id="XMLID_21_">
											<circle id="XMLID_24_" class="st3" cx="141.8" cy="152.3" r="17.2"/>
											<polyline id="XMLID_23_" class="st7" points="114.9,233.4 125.7,187.6 140,180.7 140,180.7 											"/>
											<line id="XMLID_22_" class="st5" x1="141.3" y1="189.9" x2="141.3" y2="232.2"/>
										</g>
									</g>
								</g>
								<polyline id="XMLID_18_" class="st8" points="130.8,299.1 134.8,234.5 141.3,229.2 								"/>
								<polyline id="XMLID_17_" class="st7" points="167.8,233.4 157,187.6 142.7,180.7 142.7,180.7 								"/>
								<polyline id="XMLID_16_" class="st8" points="151.9,299.1 147.9,234.5 141.3,229.2 								"/>
							</g>
							<g>
								<g>
									<g>
										<g>
											<circle class="st3" cx="191.2" cy="208" r="11.7"/>
											<polyline class="st9" points="172.9,263.3 180.3,232.1 190,227.3 190,227.3 											"/>
											<line class="st10" x1="191" y1="233.6" x2="191" y2="262.5"/>
										</g>
									</g>
								</g>
								<polyline class="st11" points="183.8,300.3 186.5,264.1 191,260.5 								"/>
								<polyline class="st9" points="209,263.3 201.6,232.1 191.9,227.3 191.9,227.3 								"/>
								<polyline class="st11" points="198.2,300.3 195.4,264.1 191,260.5 								"/>
							</g>
						</g>
					</g>
				</g>
				<path class="st12" d="M326.6,162.4c-1.7,0-3.3-0.4-4.9-1.4L186.9,80.1L52,161c-4.5,2.7-10.3,1.2-13-3.3s-1.2-10.3,3.3-13
					L186.9,58l144.6,86.8c4.5,2.7,6,8.5,3.3,13C333,160.7,329.8,162.4,326.6,162.4z"/>
				<g>
					<path class="st12" d="M39,157.8c-2.2-3.2-2.2-7.8,0.2-11.1c0.6-0.8,1.3-1.6,2.2-2.2c0.8-0.6,1.6-1.1,2.4-1.6l4.8-3.2
						c6.4-4.2,12.8-8.4,19.2-12.5l19.3-12.4c6.4-4.1,12.9-8.2,19.4-12.2l9.7-6.1l9.8-6l19.5-12c6.5-4,13.1-7.9,19.6-11.9l19.6-11.9
						l2.1-1.2l2.1,1.2l19.6,11.9l9.8,5.9c3.3,2,6.6,3.9,9.8,6l19.5,12l9.8,6l9.7,6.1c6.5,4.1,13,8.1,19.4,12.2l19.3,12.4l9.6,6.3
						c3.2,2.1,6.4,4.2,9.6,6.3l4.8,3.2c0.8,0.5,1.6,1,2.4,1.6c0.4,0.3,0.8,0.7,1.2,1c0.3,0.4,0.7,0.7,1,1.2c2.4,3.3,2.5,8,0.2,11.1
						c0.4-0.9,0.7-1.8,0.9-2.7c0.2-0.9,0.2-1.9,0.1-2.8c-0.2-1.8-1-3.6-2.2-4.9c-0.3-0.3-0.6-0.6-0.9-0.9c-0.4-0.3-0.6-0.5-1.1-0.8
						c-0.7-0.5-1.7-0.9-2.5-1.4l-5-2.7c-3.4-1.8-6.7-3.7-10.1-5.5l-10.1-5.5l-20-11.2c-6.7-3.7-13.3-7.6-19.9-11.4l-10-5.7l-9.9-5.8
						L224.1,85c-3.3-1.9-6.6-3.9-9.9-5.8l-9.9-5.9l-19.7-11.7h4.1L169,73.3c-6.6,3.9-13.1,7.8-19.7,11.7l-19.8,11.6l-9.9,5.8
						l-10,5.7c-6.6,3.8-13.3,7.6-19.9,11.4l-20,11.2c-6.7,3.7-13.4,7.4-20.1,11.1l-5,2.7c-0.8,0.5-1.7,0.9-2.5,1.4s-1.4,1-2,1.7
						c-1.2,1.3-2,3.1-2.2,4.9c-0.1,0.9-0.1,1.9,0.1,2.8C38.3,156,38.6,156.9,39,157.8z"/>
				</g>
				<path class="st12" d="M300,83.6h-59c-5.2,0-9.5-4.2-9.5-9.5c0-5.2,4.2-9.5,9.5-9.5h59c5.2,0,9.5,4.2,9.5,9.5
					C309.5,79.3,305.3,83.6,300,83.6z"/>
				<path class="st12" d="M231.5,74.1c0-5.2,4.2-9.5,9.5-9.5h59c5.2,0,9.5,4.2,9.5,9.5"/>
			</g>
		</g>
	</g>
	<g>
		<path class="st13" d="M355.5,315H40.3c-4.1,0-7.5-3.4-7.5-7.5s3.4-7.5,7.5-7.5h315.1c4.1,0,7.5,3.4,7.5,7.5S359.6,315,355.5,315z"
			/>
	</g>
</g>
</svg>
