<?xml version="1.0" encoding="utf-8"?>
<!-- Generator: Adobe Illustrator 21.0.0, SVG Export Plug-In . SVG Version: 6.00 Build 0)  -->
<svg version="1.1" xmlns="http://www.w3.org/2000/svg" xmlns:xlink="http://www.w3.org/1999/xlink" x="0px" y="0px"
	 viewBox="0 0 400 400" style="enable-background:new 0 0 400 400;" xml:space="preserve">
<style type="text/css">
	.st0{fill:#FEE5C1;}
	.st1{display:none;fill:#034EA2;}
	.st2{display:none;}
	.st3{display:inline;fill:#034EA2;}
	
		.st4{display:inline;fill:none;stroke:#034EA2;stroke-width:20.5631;stroke-linecap:round;stroke-linejoin:round;stroke-miterlimit:10;}
	
		.st5{display:inline;fill:none;stroke:#034EA2;stroke-width:24.6758;stroke-linecap:round;stroke-linejoin:round;stroke-miterlimit:10;}
	
		.st6{display:inline;fill:none;stroke:#034EA2;stroke-width:45.2389;stroke-linecap:round;stroke-linejoin:round;stroke-miterlimit:10;}
	.st7{display:inline;fill:#F68A50;}
	.st8{display:inline;fill:#F26522;}
	.st9{display:inline;fill:#FAAE81;}
	.st10{display:inline;}
	.st11{fill:#034EA2;}
	.st12{fill:none;}
	.st13{fill:#E4A440;}
</style>
<g id="Calque_1">
	<g id="Calque_2">
		<g>
			<circle class="st0" cx="200" cy="200" r="200"/>
			<path class="st1" d="M355.5,315H40.3c-4.1,0-7.5-3.4-7.5-7.5s3.4-7.5,7.5-7.5h315.1c4.1,0,7.5,3.4,7.5,7.5S359.6,315,355.5,315z"
				/>
			<path class="st1" d="M32.8,307.5c0-4.1,3.4-7.5,7.5-7.5h315.1c4.1,0,7.5,3.4,7.5,7.5"/>
			<g class="st2">
				<circle class="st3" cx="127.6" cy="73.3" r="26.1"/>
				<polyline class="st4" points="72,192.7 76.4,144 110,112.7 125.3,112.7 138.1,156.7 173.1,171.5 				"/>
				<polyline class="st5" points="143.7,294.8 144.6,245.7 121.5,190.8 101.6,190 109.7,251.6 94.1,297.2 				"/>
				<line class="st6" x1="114.1" y1="126.1" x2="110.1" y2="190.5"/>
			</g>
			<g class="st2">
				<polygon class="st7" points="325.4,155.8 366.4,96.1 250.8,96.1 250.8,185.6 250.8,215.5 366.4,215.5 				"/>
				<polygon class="st8" points="250.8,215.5 273,185.6 273,66.3 250.8,96.1 				"/>
				<rect x="191" y="66.3" class="st9" width="82" height="119.3"/>
				<rect x="269" y="66.3" class="st9" width="4" height="119.3"/>
				<g class="st10">
					<path class="st11" d="M181.3,60.9v15.9v224c0,2.9,2.4,5.3,5.3,5.3V55.6C183.7,55.6,181.3,58,181.3,60.9z"/>
					<path class="st11" d="M185.7,306.2c2.9,0,5.3-2.4,5.3-5.3v-224v-16c0-2.9-2.4-5.3-5.3-5.3"/>
				</g>
			</g>
		</g>
	</g>
</g>
<g id="Calque_3">
	<g id="Calque_2_3_">
		<g id="bg_1_">
			<rect x="51" y="60" class="st12" width="300" height="300"/>
		</g>
		<g id="internet">
			<g id="_Groupe_">
				<path id="_Tracé_" class="st13" d="M201.7,99.3c-53.7,0-105.8,18.3-147.7,52l18.4,18.4c76-59.4,182.7-59.4,258.7,0l18.4-18.4
					C307.5,117.6,255.4,99.3,201.7,99.3z"/>
				<path id="_Tracé_2" class="st13" d="M93.8,191l18.5,18.5c53.5-38.2,125.4-38.2,178.9,0l18.5-18.5c-64-48-152-48-216,0H93.8z"/>
				<path id="_Tracé_3" class="st13" d="M133.8,231l18.7,18.7c30.4-17.5,67.8-17.5,98.2,0l18.7-18.7
					C228.3,204.1,175,204.1,133.8,231L133.8,231z"/>
				<circle id="_Tracé_4" class="st11" cx="201.7" cy="291.9" r="26.1"/>
			</g>
		</g>
	</g>
</g>
</svg>
