<?xml version="1.0" encoding="utf-8"?>
<!-- Generator: Adobe Illustrator 21.0.0, SVG Export Plug-In . SVG Version: 6.00 Build 0)  -->
<svg version="1.1" xmlns="http://www.w3.org/2000/svg" xmlns:xlink="http://www.w3.org/1999/xlink" x="0px" y="0px"
	 viewBox="0 0 400 400" style="enable-background:new 0 0 400 400;" xml:space="preserve">
<style type="text/css">
	.st0{fill:#FEE5C1;}
	.st1{display:none;fill:#034EA2;}
	.st2{display:none;}
	.st3{display:inline;fill:#034EA2;}
	
		.st4{display:inline;fill:none;stroke:#034EA2;stroke-width:20.5631;stroke-linecap:round;stroke-linejoin:round;stroke-miterlimit:10;}
	
		.st5{display:inline;fill:none;stroke:#034EA2;stroke-width:24.6758;stroke-linecap:round;stroke-linejoin:round;stroke-miterlimit:10;}
	
		.st6{display:inline;fill:none;stroke:#034EA2;stroke-width:45.2389;stroke-linecap:round;stroke-linejoin:round;stroke-miterlimit:10;}
	.st7{display:inline;fill:#F68A50;}
	.st8{display:inline;fill:#F26522;}
	.st9{display:inline;fill:#FAAE81;}
	.st10{display:inline;}
	.st11{fill:#034EA2;}
	.st12{fill:#EBB75B;}
	.st13{fill:none;stroke:#FFFFFF;stroke-miterlimit:10;}
	.st14{fill:#FFFFFF;}
	.st15{fill:#E6A532;}
	.st16{fill:#F08700;}
	.st17{fill:none;stroke:#135E67;stroke-miterlimit:10;}
	.st18{fill:none;stroke:#FFFFFF;stroke-linecap:round;stroke-miterlimit:10;}
	.st19{fill:none;stroke:#135E67;stroke-linecap:square;stroke-miterlimit:10;}
	.st20{opacity:0.5;fill:#FFFFFF;}
</style>
<g id="Calque_1">
	<g id="Calque_1_1_">
		<g id="Calque_2">
			<g>
				<circle class="st0" cx="200" cy="200" r="200"/>
				<path class="st1" d="M355.5,315H40.3c-4.1,0-7.5-3.4-7.5-7.5s3.4-7.5,7.5-7.5h315.1c4.1,0,7.5,3.4,7.5,7.5S359.6,315,355.5,315z
					"/>
				<path class="st1" d="M32.8,307.5c0-4.1,3.4-7.5,7.5-7.5h315.1c4.1,0,7.5,3.4,7.5,7.5"/>
				<g class="st2">
					<circle class="st3" cx="127.6" cy="73.3" r="26.1"/>
					<polyline class="st4" points="72,192.7 76.4,144 110,112.7 125.3,112.7 138.1,156.7 173.1,171.5 					"/>
					<polyline class="st5" points="143.7,294.8 144.6,245.7 121.5,190.8 101.6,190 109.7,251.6 94.1,297.2 					"/>
					<line class="st6" x1="114.1" y1="126.1" x2="110.1" y2="190.5"/>
				</g>
				<g class="st2">
					<polygon class="st7" points="325.4,155.8 366.4,96.1 250.8,96.1 250.8,185.6 250.8,215.5 366.4,215.5 					"/>
					<polygon class="st8" points="250.8,215.5 273,185.6 273,66.3 250.8,96.1 					"/>
					<rect x="191" y="66.3" class="st9" width="82" height="119.3"/>
					<rect x="269" y="66.3" class="st9" width="4" height="119.3"/>
					<g class="st10">
						<path class="st11" d="M181.3,60.9v15.9v224c0,2.9,2.4,5.3,5.3,5.3V55.6C183.7,55.6,181.3,58,181.3,60.9z"/>
						<path class="st11" d="M185.7,306.2c2.9,0,5.3-2.4,5.3-5.3v-224v-16c0-2.9-2.4-5.3-5.3-5.3"/>
					</g>
				</g>
			</g>
		</g>
	</g>
</g>
<g id="Calque_2_1_">
	<g>
		<g>
			<g>
				<path class="st12" d="M326.4,335H73.6c-4.2,0-7.6-3.4-7.6-7.6V74.6c0-4.2,3.4-7.6,7.6-7.6h252.7c4.2,0,7.6,3.4,7.6,7.6v252.7
					C334,331.6,330.6,335,326.4,335z"/>
				<path class="st13" d="M315.6,323.6H84.4c-3.9,0-7-3.1-7-7V85.4c0-3.9,3.1-7,7-7h231.1c3.9,0,7,3.1,7,7v231.1
					C322.6,320.4,319.4,323.6,315.6,323.6z"/>
				<path class="st14" d="M249.5,145.7h-99.1c-2.2,0-3.9-1.8-3.9-3.9V87.8c0-2.2,1.8-3.9,3.9-3.9h99.1c2.2,0,3.9,1.8,3.9,3.9v53.9
					C253.5,143.9,251.7,145.7,249.5,145.7z"/>
				<path class="st15" d="M311.2,187.4c-0.6-5.6-3.4-8.1-5.9-8.7c-0.3-2.4-1.4-4.6-3.8-5.9c-1.2-0.7-2.4-1.1-3.5-1.3
					c0-1.8-0.2-3.6-1.1-5.3c-1-1.9-2.6-3.2-4.6-3.8c-1-0.3-2-0.4-2.8-0.5c-0.3-1.6-0.9-3.1-1.9-4.4c-1.3-1.7-3.2-2.8-5.4-3
					c-1.9-0.2-3.6,0-5,0.5c-0.5-1.4-1.3-2.8-2.4-4.1c-2-2.2-4.9-3.4-8.2-3.4c-0.3,0-0.6,0-0.9,0c-12.3,0.8-13.4,12.1-13.7,16.4
					c-0.2,2,0,4.1,0.2,6.1c0.2,2.4,0.4,4.8-0.2,6.2c-0.3,0.8-0.8,1.8-1.3,3c-2,4.3-5,10.8-5.8,17c-0.5,3.8,0.8,9.1,2.5,15.9
					c1.9,7.8,4.1,16.7,3.5,23.6c-0.6,6.3-2.9,11.9-5.4,17.9c-2.5,5.9-5,12-5.9,19c-1.8,14.3-1.4,19.8,1.8,26
					c3.3,6.5,11.5,8,12.9,8.3c0.6,0.1,2.5,0.5,5.1,0.5c9,0,15.6-4.4,18.5-12.4c1.9-5.3,2.9-9.9,3.9-14.2c1.5-6.8,3-13.8,8.3-24.8
					c2-4.2,3.6-7.5,5.1-10.4c5-10,7.2-14.6,10.5-26.4C308.4,208.3,311.9,194,311.2,187.4z"/>
				<path class="st15" d="M94.6,219.1c3.3,11.8,5.6,16.4,10.5,26.4c1.4,2.9,3.1,6.3,5.1,10.4c5.3,11,6.8,18,8.3,24.8
					c1,4.4,2,8.9,3.9,14.2c2.9,8,9.5,12.4,18.5,12.4c2.6,0,4.5-0.4,5.1-0.5c1.4-0.2,9.6-1.8,12.9-8.3c3.1-6.2,3.5-11.7,1.8-26
					c-0.9-7.1-3.4-13.2-5.9-19c-2.5-5.9-4.8-11.5-5.4-17.9c-0.6-7,1.6-15.8,3.5-23.6c1.7-6.8,3-12.1,2.5-15.9
					c-0.8-6.1-3.8-12.7-5.8-17c-0.5-1.2-1-2.2-1.3-3c-0.6-1.5-0.4-3.8-0.2-6.2c0.2-2,0.4-4,0.2-6.1c-0.4-4.3-1.4-15.6-13.7-16.4
					c-0.3,0-0.6,0-0.9,0c-3.3,0-6.1,1.2-8.2,3.4c-1.1,1.2-1.9,2.6-2.4,4.1c-1.4-0.5-3.1-0.7-5-0.5c-2.2,0.3-4.1,1.3-5.4,3
					c-1,1.3-1.6,2.8-1.9,4.4c-0.9,0-1.8,0.2-2.8,0.5c-2,0.6-3.6,1.9-4.6,3.8c-0.9,1.6-1.1,3.5-1.1,5.3c-1.1,0.2-2.3,0.7-3.5,1.3
					c-2.4,1.3-3.5,3.5-3.8,5.9c-2.6,0.6-5.3,3.1-5.9,8.7C88.1,194,91.6,208.3,94.6,219.1z"/>
				<polygon class="st16" points="193.7,145.7 200.5,122.4 207.4,145.7 				"/>
				<path class="st17" d="M161.1,107.2c12.2-5.1,25.5-8,39.6-8s27.4,2.8,39.6,8"/>
			</g>
			<line class="st18" x1="200" y1="158.5" x2="200" y2="304.8"/>
			<line class="st19" x1="157.3" y1="100.7" x2="161.1" y2="107.2"/>
			<line class="st19" x1="244.1" y1="100.7" x2="240.3" y2="107.2"/>
			<line class="st19" x1="200.7" y1="99.3" x2="200.7" y2="91"/>
		</g>
		<g>
			<g>
				<g>
					<circle class="st20" cx="126.7" cy="170" r="6.6"/>
					<circle class="st20" cx="154.5" cy="170" r="6.6"/>
					<circle class="st20" cx="182.3" cy="170" r="6.6"/>
				</g>
				<g>
					<circle class="st20" cx="111.2" cy="185.5" r="6.6"/>
					<circle class="st20" cx="139" cy="185.5" r="6.6"/>
					<circle class="st20" cx="166.8" cy="185.5" r="6.6"/>
				</g>
				<circle class="st20" cx="98.9" cy="170" r="6.6"/>
			</g>
			<g>
				<g>
					<circle class="st20" cx="126.7" cy="203.7" r="6.6"/>
					<circle class="st20" cx="154.5" cy="203.7" r="6.6"/>
					<circle class="st20" cx="182.3" cy="203.7" r="6.6"/>
				</g>
				<g>
					<circle class="st20" cx="111.2" cy="219.3" r="6.6"/>
					<circle class="st20" cx="139" cy="219.3" r="6.6"/>
					<circle class="st20" cx="166.8" cy="219.3" r="6.6"/>
				</g>
				<circle class="st20" cx="98.9" cy="203.7" r="6.6"/>
			</g>
			<g>
				<g>
					<circle class="st20" cx="126.7" cy="237.5" r="6.6"/>
					<circle class="st20" cx="154.5" cy="237.5" r="6.6"/>
					<circle class="st20" cx="182.3" cy="237.5" r="6.6"/>
				</g>
				<g>
					<circle class="st20" cx="111.2" cy="253.1" r="6.6"/>
					<circle class="st20" cx="139" cy="253.1" r="6.6"/>
					<circle class="st20" cx="166.8" cy="253.1" r="6.6"/>
				</g>
				<circle class="st20" cx="98.9" cy="237.5" r="6.6"/>
			</g>
			<g>
				<g>
					<circle class="st20" cx="126.7" cy="271.3" r="6.6"/>
					<circle class="st20" cx="154.5" cy="271.3" r="6.6"/>
					<circle class="st20" cx="182.3" cy="271.3" r="6.6"/>
				</g>
				<g>
					<circle class="st20" cx="111.2" cy="286.9" r="6.6"/>
					<circle class="st20" cx="139" cy="286.9" r="6.6"/>
					<circle class="st20" cx="166.8" cy="286.9" r="6.6"/>
				</g>
				<circle class="st20" cx="98.9" cy="271.3" r="6.6"/>
			</g>
			<g>
				<g>
					<circle class="st20" cx="126.7" cy="305.1" r="6.6"/>
					<circle class="st20" cx="154.5" cy="305.1" r="6.6"/>
					<circle class="st20" cx="182.3" cy="305.1" r="6.6"/>
				</g>
			</g>
		</g>
		<g>
			<g>
				<g>
					<circle class="st20" cx="273.3" cy="170" r="6.6"/>
					<circle class="st20" cx="245.5" cy="170" r="6.6"/>
					<circle class="st20" cx="217.7" cy="170" r="6.6"/>
				</g>
				<g>
					<circle class="st20" cx="288.8" cy="185.5" r="6.6"/>
					<circle class="st20" cx="261" cy="185.5" r="6.6"/>
					<circle class="st20" cx="233.2" cy="185.5" r="6.6"/>
				</g>
				<circle class="st20" cx="301.1" cy="170" r="6.6"/>
			</g>
			<g>
				<g>
					<circle class="st20" cx="273.3" cy="203.7" r="6.6"/>
					<circle class="st20" cx="245.5" cy="203.7" r="6.6"/>
					<circle class="st20" cx="217.7" cy="203.7" r="6.6"/>
				</g>
				<g>
					<circle class="st20" cx="288.8" cy="219.3" r="6.6"/>
					<circle class="st20" cx="261" cy="219.3" r="6.6"/>
					<circle class="st20" cx="233.2" cy="219.3" r="6.6"/>
				</g>
				<circle class="st20" cx="301.1" cy="203.7" r="6.6"/>
			</g>
			<g>
				<g>
					<circle class="st20" cx="273.3" cy="237.5" r="6.6"/>
					<circle class="st20" cx="245.5" cy="237.5" r="6.6"/>
					<circle class="st20" cx="217.7" cy="237.5" r="6.6"/>
				</g>
				<g>
					<circle class="st20" cx="288.8" cy="253.1" r="6.6"/>
					<circle class="st20" cx="261" cy="253.1" r="6.6"/>
					<circle class="st20" cx="233.2" cy="253.1" r="6.6"/>
				</g>
				<circle class="st20" cx="301.1" cy="237.5" r="6.6"/>
			</g>
			<g>
				<g>
					<circle class="st20" cx="273.3" cy="271.3" r="6.6"/>
					<circle class="st20" cx="245.5" cy="271.3" r="6.6"/>
					<circle class="st20" cx="217.7" cy="271.3" r="6.6"/>
				</g>
				<g>
					<circle class="st20" cx="288.8" cy="286.9" r="6.6"/>
					<circle class="st20" cx="261" cy="286.9" r="6.6"/>
					<circle class="st20" cx="233.2" cy="286.9" r="6.6"/>
				</g>
				<circle class="st20" cx="301.1" cy="271.3" r="6.6"/>
			</g>
			<g>
				<g>
					<circle class="st20" cx="273.3" cy="305.1" r="6.6"/>
					<circle class="st20" cx="245.5" cy="305.1" r="6.6"/>
					<circle class="st20" cx="217.7" cy="305.1" r="6.6"/>
				</g>
			</g>
		</g>
	</g>
</g>
</svg>
