<?xml version="1.0" encoding="utf-8"?>
<!-- Generator: Adobe Illustrator 21.0.0, SVG Export Plug-In . SVG Version: 6.00 Build 0)  -->
<svg version="1.1" id="Calque_1" xmlns="http://www.w3.org/2000/svg" xmlns:xlink="http://www.w3.org/1999/xlink" x="0px" y="0px"
	 viewBox="0 0 400 400" style="enable-background:new 0 0 400 400;" xml:space="preserve">
<style type="text/css">
	.st0{fill:#FEE5C1;}
	.st1{display:none;}
	.st2{display:inline;fill:#F68A50;}
	.st3{display:inline;}
	.st4{fill:#034EA2;}
	.st5{fill:#FFFFFF;}
	.st6{opacity:0.55;}
	.st7{fill:#E4A440;}
	.st8{fill:none;stroke:#FEE5C1;stroke-width:10;stroke-miterlimit:10;}
</style>
<g>
	<circle class="st0" cx="200" cy="200" r="200"/>
	<g>
		<g class="st1">
			<circle class="st2" cx="201" cy="200" r="152.4"/>
			<path class="st2" d="M201,47.6c84.2,0,152.4,68.2,152.4,152.4S285.2,352.4,201,352.4"/>
			<g class="st3">
				<path class="st4" d="M165.6,189.9c-1.9,0-3.8-1-4.9-2.8c-5.1-8.5-14.1-13.6-24-13.6s-18.9,5.1-24,13.6c-1.6,2.7-5.1,3.6-7.7,2
					c-2.7-1.6-3.6-5.1-2-7.7c7.2-12,19.8-19.1,33.7-19.2c14,0,26.6,7.2,33.7,19.1c1.6,2.7,0.7,6.1-2,7.7
					C167.6,189.7,166.6,189.9,165.6,189.9z"/>
				<path class="st4" d="M294.2,189.9c-1.9,0-3.8-1-4.9-2.8c-5.1-8.5-14.1-13.6-24-13.6c-10,0-18.9,5.1-24,13.6
					c-1.6,2.7-5.1,3.6-7.7,2c-2.7-1.6-3.6-5.1-2-7.7c7.2-12,19.8-19.1,33.7-19.2c14,0,26.6,7.2,33.7,19.1c1.6,2.7,0.7,6.1-2,7.7
					C296.2,189.6,295.2,189.9,294.2,189.9z"/>
				<path class="st4" d="M201,298.1c-52.6,0-69.7-31.9-84.6-60.1c-2.2-2.2-2.2-5.8,0-8s5.8-2.2,8,0c42.3,42.2,111,42.2,153.2,0
					c2.2-2.2,5.8-2.2,8,0s2.2,5.8,0,8C268.1,264.6,253.7,298.1,201,298.1z"/>
				<path class="st5" d="M269.2,237.6c-40.9,33.1-100.4,32.1-140.1-3.2c13.5,20.5,33,38,72,38C237.5,272.4,255.6,256.4,269.2,237.6z
					"/>
			</g>
		</g>
		<g>
			<g id="XMLID_20_">
				<path id="XMLID_21_" class="st4" d="M201,47.6c84.2,0,152.4,68.2,152.4,152.4S285.2,352.4,201,352.4l0,0
					c-84.2,0-152.4-68.2-152.4-152.4C48.6,115.9,116.8,47.6,201,47.6L201,47.6 M201,37.6v10V37.6c-43.4,0-84.2,16.9-114.9,47.6
					C55.5,115.9,38.6,156.7,38.6,200c0,43.4,16.9,84.2,47.6,114.8c30.7,30.7,71.5,47.6,114.8,47.6c43.4,0,84.2-16.9,114.9-47.6
					s47.6-71.5,47.5-114.9c0-43.4-16.9-84.2-47.6-114.8C285.2,54.5,244.4,37.6,201,37.6L201,37.6z"/>
			</g>
		</g>
		<g class="st6">
			<path id="XMLID_12_" class="st5" d="M201,52.6c39.4,0,76.4,15.3,104.2,43.2c27.8,27.8,43.2,64.8,43.2,104.2
				s-15.3,76.4-43.2,104.2c-27.8,27.8-64.9,43.2-104.3,43.2s-76.4-15.3-104.2-43.2C68.9,276.4,53.6,239.4,53.6,200
				s15.3-76.4,43.2-104.2C124.6,67.9,161.6,52.6,201,52.6L201,52.6 M201,47.6L201,47.6c-84.2,0-152.4,68.3-152.4,152.4
				c0,84.2,68.3,152.4,152.4,152.4l0,0c84.2,0,152.4-68.3,152.4-152.4C353.4,115.8,285.2,47.6,201,47.6L201,47.6z"/>
		</g>
	</g>
</g>
<circle class="st7" cx="201.7" cy="199.7" r="146.7"/>
<circle class="st0" cx="156.5" cy="146.2" r="19.6"/>
<circle class="st0" cx="250.8" cy="146.2" r="19.6"/>
<path class="st8" d="M100.9,200.4c0,0,16,73.7,104.3,73.7s102.2-73.7,102.2-73.7"/>
</svg>
