<?xml version="1.0" encoding="utf-8"?>
<!-- Generator: Adobe Illustrator 21.0.0, SVG Export Plug-In . SVG Version: 6.00 Build 0)  -->
<svg version="1.1" xmlns="http://www.w3.org/2000/svg" xmlns:xlink="http://www.w3.org/1999/xlink" x="0px" y="0px"
	 viewBox="0 0 400 400" style="enable-background:new 0 0 400 400;" xml:space="preserve">
<style type="text/css">
	.st0{fill:#FEE5C1;}
	.st1{display:none;fill:#034EA2;}
	.st2{display:none;}
	.st3{display:inline;fill:#034EA2;}
	
		.st4{display:inline;fill:none;stroke:#034EA2;stroke-width:20.5631;stroke-linecap:round;stroke-linejoin:round;stroke-miterlimit:10;}
	
		.st5{display:inline;fill:none;stroke:#034EA2;stroke-width:24.6758;stroke-linecap:round;stroke-linejoin:round;stroke-miterlimit:10;}
	
		.st6{display:inline;fill:none;stroke:#034EA2;stroke-width:45.2389;stroke-linecap:round;stroke-linejoin:round;stroke-miterlimit:10;}
	.st7{display:inline;fill:#F68A50;}
	.st8{display:inline;fill:#F26522;}
	.st9{display:inline;fill:#FAAE81;}
	.st10{display:inline;}
	.st11{fill:#034EA2;}
	.st12{fill:#E4A440;}
</style>
<g id="Calque_1">
	<g id="Calque_2">
		<g>
			<circle class="st0" cx="200" cy="200" r="200"/>
			<path class="st1" d="M355.5,315H40.3c-4.1,0-7.5-3.4-7.5-7.5s3.4-7.5,7.5-7.5h315.1c4.1,0,7.5,3.4,7.5,7.5S359.6,315,355.5,315z"
				/>
			<path class="st1" d="M32.8,307.5c0-4.1,3.4-7.5,7.5-7.5h315.1c4.1,0,7.5,3.4,7.5,7.5"/>
			<g class="st2">
				<circle class="st3" cx="127.6" cy="73.3" r="26.1"/>
				<polyline class="st4" points="72,192.7 76.4,144 110,112.7 125.3,112.7 138.1,156.7 173.1,171.5 				"/>
				<polyline class="st5" points="143.7,294.8 144.6,245.7 121.5,190.8 101.6,190 109.7,251.6 94.1,297.2 				"/>
				<line class="st6" x1="114.1" y1="126.1" x2="110.1" y2="190.5"/>
			</g>
			<g class="st2">
				<polygon class="st7" points="325.4,155.8 366.4,96.1 250.8,96.1 250.8,185.6 250.8,215.5 366.4,215.5 				"/>
				<polygon class="st8" points="250.8,215.5 273,185.6 273,66.3 250.8,96.1 				"/>
				<rect x="191" y="66.3" class="st9" width="82" height="119.3"/>
				<rect x="269" y="66.3" class="st9" width="4" height="119.3"/>
				<g class="st10">
					<path class="st11" d="M181.3,60.9v15.9v224c0,2.9,2.4,5.3,5.3,5.3V55.6C183.7,55.6,181.3,58,181.3,60.9z"/>
					<path class="st11" d="M185.7,306.2c2.9,0,5.3-2.4,5.3-5.3v-224v-16c0-2.9-2.4-5.3-5.3-5.3"/>
				</g>
			</g>
		</g>
	</g>
</g>
<g id="Calque_4">
	<g>
		<path class="st12" d="M202.1,49.6c-82.6,0-149.5,66.9-149.5,149.5s66.9,149.5,149.5,149.5s149.5-66.9,149.5-149.5
			S284.7,49.6,202.1,49.6z M202.1,331.7c-72.5,0-131.2-58.7-131.2-131.2S129.7,69.3,202.1,69.3S333.4,128,333.4,200.5
			S274.6,331.7,202.1,331.7z"/>
	</g>
</g>
<g id="Calque_5_1_">
	<polygon class="st11" points="203.9,152 156,186.8 174.3,243.1 233.5,243.1 251.7,186.8 	"/>
</g>
<g id="Calque_8">
	<path class="st11" d="M202.8,118.7C202.9,118.7,202.9,118.8,202.8,118.7c0.1,0.1,0.1,0,0.2,0c10.7-10.8,43.8-14,43.8-14l-5-22.1
		c-12.5-3.9-25.8-6.1-39.6-6.1c-13.2,0-25.9,2-37.9,5.6l-5.1,22.6C159.1,104.7,192.2,107.9,202.8,118.7z"/>
	<path class="st11" d="M278.4,175.5c0,0,0,0.1-0.1,0.1c0,0,0.1,0,0.1,0.1c13.4,7.2,25.7,38,25.7,38l19.8-11
		c0.3-13.1-1.4-26.5-5.3-39.7c-3.7-12.7-9.2-24.3-16.1-34.8l-23.1,1.4C279.5,129.6,285.8,162.3,278.4,175.5z"/>
	<path class="st11" d="M125.8,175.5c0,0,0,0.1,0.1,0.1c0,0-0.1,0-0.1,0.1c-13.4,7.2-25.7,38-25.7,38l-19.8-11
		c-0.3-13.1,1.4-26.5,5.3-39.7c3.7-12.7,9.2-24.3,16.1-34.8l23.1,1.4C124.8,129.6,118.5,162.3,125.8,175.5z"/>
	<path class="st11" d="M250.3,266c0,0,0-0.1,0-0.1c0,0,0.1,0,0.1,0c15,2.5,43.6-14.4,43.6-14.4l8.9,20.8
		c-7.8,10.5-17.3,20.1-28.5,28.2c-10.7,7.8-22.1,13.7-34,17.8L223.1,303C223.1,303,248.1,281,250.3,266z"/>
	<path class="st11" d="M153.3,266c0,0,0-0.1,0-0.1c0,0-0.1,0-0.1,0c-15,2.5-43.6-14.4-43.6-14.4l-8.9,20.8
		c7.8,10.5,17.3,20.1,28.5,28.2c10.7,7.8,22.1,13.7,34,17.8l17.4-15.3C180.5,303,155.6,281,153.3,266z"/>
</g>
</svg>
