<svg xmlns="http://www.w3.org/2000/svg" viewBox="0 0 199 199"><title>Fichier 1</title><g id="Calque_2" data-name="Calque 2"><g id="_0-17" data-name="0-17"><circle cx="99.5" cy="99.5" r="99.5" style="fill:#ebb75b"/><g id="Calque_5" data-name="Calque 5"><path d="M56.44,99.33q0,16.83-5.52,24.92t-17,8.09q-11.12,0-16.77-8.35T11.53,99.33q0-17,5.49-25.07T33.94,66.2q11.12,0,16.81,8.44T56.44,99.33ZM25,99.33q0,11.82,2,16.94t6.88,5.12q4.75,0,6.86-5.19T42.9,99.33q0-11.82-2.13-17t-6.83-5.16q-4.79,0-6.86,5.16T25,99.33Z" style="fill:#fff"/><path d="M62.33,112.83v-11h23.6v11Z" style="fill:#fff"/><path d="M125.79,131.46H112.21V94.28l.13-6.11.22-6.68q-3.38,3.38-4.7,4.44l-7.38,5.93-6.55-8.17,20.7-16.48h11.16Z" style="fill:#fff"/><path d="M150,131.46l24.13-52.73H142.4V67.3h46.1v8.53l-24.3,55.63Z" style="fill:#fff"/></g></g></g></svg>