<svg xmlns="http://www.w3.org/2000/svg" viewBox="0 0 199 199"><title>Fichier 2</title><g id="Calque_2" data-name="Calque 2"><g id="_65_" data-name="65+"><circle cx="99.5" cy="99.5" r="99.5" style="fill:#e6a532"/><g id="Calque_5_-_copie" data-name="Calque 5 - copie"><path d="M26.44,104.17q0-19.07,8.06-28.39t24.15-9.32a43.82,43.82,0,0,1,8.61.66V78a35.2,35.2,0,0,0-7.73-.88,26.55,26.55,0,0,0-11.4,2.11,14.18,14.18,0,0,0-6.61,6.24q-2.2,4.13-2.59,11.73h.57q4.35-7.47,13.93-7.47,8.61,0,13.49,5.41t4.88,14.94q0,10.28-5.8,16.28t-16.08,6A23,23,0,0,1,37.49,129a21.4,21.4,0,0,1-8.17-9.62A36.65,36.65,0,0,1,26.44,104.17Zm23.2,17.31a8,8,0,0,0,6.68-2.92q2.33-2.92,2.33-8.33a11.49,11.49,0,0,0-2.18-7.41q-2.18-2.7-6.57-2.7a10.06,10.06,0,0,0-7.05,2.68A8.23,8.23,0,0,0,39.93,109a14.14,14.14,0,0,0,2.75,8.83A8.41,8.41,0,0,0,49.64,121.48Z" style="fill:#fff"/><path d="M101.63,90.41q9.32,0,14.83,5.23T122,110q0,10.77-6.64,16.57t-19,5.8q-10.72,0-17.31-3.47V117.13a39.05,39.05,0,0,0,16.83,4.17q12.44,0,12.44-10.2,0-9.71-12.88-9.71a32.07,32.07,0,0,0-5.14.46,37.78,37.78,0,0,0-4.57,1L80.32,100l2.42-32.74h34.85V78.72H94.64L93.46,91.34,95,91A30.25,30.25,0,0,1,101.63,90.41Z" style="fill:#fff"/><path d="M146.89,104.56h-17V94.94h17V77.8h9.62V94.94h17v9.62h-17v16.92h-9.62Z" style="fill:#fff"/></g></g></g></svg>