<svg xmlns="http://www.w3.org/2000/svg" viewBox="0 0 199 199"><title>Fichier 3</title><g id="Calque_2" data-name="Calque 2"><g id="total"><circle cx="99.5" cy="99.5" r="99.5" style="fill:#c48726"/><g id="Calque_5_-_copie_2" data-name="Calque 5 - copie 2"><path d="M28.62,119.86A25.5,25.5,0,0,0,36,118.51v8.76a26.42,26.42,0,0,1-10.8,2q-7.06,0-10.28-3.57T11.72,115V94.17H6.09v-5l6.48-3.93L16,76.15h7.52v9.18H35.56v8.83H23.49V115a4.59,4.59,0,0,0,1.41,3.7A5.55,5.55,0,0,0,28.62,119.86Z" style="fill:#fff"/><path d="M83.93,106.82q0,10.53-5.55,16.47t-15.47,5.94a21.63,21.63,0,0,1-11-2.72,18.09,18.09,0,0,1-7.29-7.81,26.24,26.24,0,0,1-2.55-11.88q0-10.57,5.52-16.43t15.51-5.86a21.77,21.77,0,0,1,11,2.7A18,18,0,0,1,81.38,95,26,26,0,0,1,83.93,106.82Zm-29.82,0q0,6.4,2.1,9.68t6.85,3.28q4.71,0,6.77-3.26t2.06-9.7q0-6.4-2.08-9.6T63,94q-4.71,0-6.79,3.18T54.11,106.82Z" style="fill:#fff"/><path d="M111.82,119.86a25.49,25.49,0,0,0,7.41-1.35v8.76a26.42,26.42,0,0,1-10.8,2q-7.06,0-10.28-3.57T94.93,115V94.17H89.29v-5l6.48-3.93,3.39-9.1h7.52v9.18h12.07v8.83H106.69V115a4.59,4.59,0,0,0,1.41,3.7A5.55,5.55,0,0,0,111.82,119.86Z" style="fill:#fff"/><path d="M155.33,128.46l-2.28-5.86h-.31a17.38,17.38,0,0,1-6.11,5.19,19.77,19.77,0,0,1-8.2,1.45q-6.21,0-9.78-3.55t-3.57-10.11q0-6.87,4.8-10.13t14.48-3.61l7.48-.23V99.72q0-6.56-6.71-6.56-5.17,0-12.15,3.12l-3.9-7.95a35.06,35.06,0,0,1,16.51-3.9q8.68,0,13.31,3.78t4.63,11.49v28.74Zm-3.47-20-4.55.15q-5.13.16-7.64,1.85a5.82,5.82,0,0,0-2.51,5.17q0,5,5.71,5a9,9,0,0,0,6.54-2.35,8.26,8.26,0,0,0,2.45-6.25Z" style="fill:#fff"/><path d="M187.43,128.46H175.66v-60h11.77Z" style="fill:#fff"/></g></g></g></svg>